<?xml version="1.0" encoding="utf-8"?>
<!-- Generator: Adobe Illustrator 18.0.0, SVG Export Plug-In . SVG Version: 6.00 Build 0)  -->
<!DOCTYPE svg PUBLIC "-//W3C//DTD SVG 1.1//EN" "http://www.w3.org/Graphics/SVG/1.1/DTD/svg11.dtd">
<svg version="1.1" id="Layer_1" xmlns="http://www.w3.org/2000/svg" xmlns:xlink="http://www.w3.org/1999/xlink" x="0px" y="0px"
	 width="501.5px" height="437.8px" viewBox="55.2 287.2 501.5 437.8" enable-background="new 55.2 287.2 501.5 437.8"
	 xml:space="preserve">
<g>
	<g>
		<path fill="#AAAAA7" d="M243.4,538c-2.4,0-5.2-1.5-6.4-3.7c-1.3-2.3-2.5-4.5-3.7-6.9c-1.3-2.5-2.6-4.9-4-7.4
			c-0.2-0.2-1.2-0.8-1.7-1c0.1,0.1-0.1,0.1-0.2,0c-0.8-0.1-1.8-0.3-2.9-0.9c-4-2.1-7.4-1.7-11.8,1.3c-1.4,1-2.9,1.7-4.3,2.4
			c-1.2,0.6-2.3,1.1-3.2,1.8c-3.6,2.7-7.4,2.6-11.1-0.4l-2.6-2.1c-3.9-3.2-7.8-6.4-11.8-9.4c-4.6-3.6-3-8.1-2.5-9.6
			c1.4-4.1,3.1-8.9,4.3-13.6c0-0.2,0-0.9-0.5-2.2c-0.1-0.3-0.5-0.9-0.9-1.4c-0.7-1-1.6-2.2-2-3.8c-1.2-4-3.7-6-8.5-6.9
			c-3-0.5-6.2-1.5-10.1-3c-2-0.8-5-3.1-5.5-6.4c-0.8-5.7-1.4-12-2-19.7c-0.2-2.7,1.8-5.6,3.8-6.7c2.4-1.3,4.8-2.6,7.2-3.8
			c2.3-1.2,4.6-2.4,6.9-3.7c0,0,0.2-0.3,0.3-0.5c1.4-4.5,2.8-9.1,4-13.8c0.1-0.3,0.1-0.6,0-0.8c-2.3-4.6-4.8-9.1-6.9-12.9
			c-2-3.6-1.8-6.8,0.6-9.6c1.6-1.9,3.2-3.8,4.7-5.7c2.4-2.9,4.8-5.8,7.3-8.6c2-2.2,5.2-2.4,6.1-2.4c0.7,0,1.5,0.1,2.1,0.3
			c2.4,0.6,4.7,1.4,7,2.2c2.2,0.7,4.4,1.4,6.6,2l0,0c0.5,0,1.1-0.1,1.6-0.4c4-1.9,8.2-4.1,13.3-6.9c0.2-0.1,0.5-0.4,0.5-0.5
			c1.4-4.1,2.7-8.3,3.7-12.3c1.2-4.7,4.1-7.1,8.5-7.3c2.8-0.1,5.6-1.2,8.5-1.4c3.1-0.2,6.3-1.4,9.4-1.4c0,0,0,0,0,0
			c2.8,0,5.7,2.6,7.1,4.8c1.4,2.3,2.6,5.2,3.9,7.6c1.1,2,2.1,4.3,3.2,6.2c0,0,0.3,0.3,0.6,0.4c4.9,1.7,9.2,3.2,13.3,4.4
			c0.3,0.1,0.7,0.2,1,0.2c3.5-1.5,6.9-3.3,11.1-5.8c1.2-0.7,3.1-1.7,5.3-1.7c2.1,0,4.1,0.8,5.9,2.5c2.9,2.7,6,5.3,9,7.9
			c1.6,1.4,3.3,2.8,4.9,4.3c0.5,0.5,1,1,1.5,1.6l0.6,0.7c0.9,1,1.3,2.5,1,3.8l-0.2,0.7c-0.2,0.7-0.3,1.5-0.6,2.2
			c-0.5,1.4-0.9,2.8-1.4,4.3c-1,3.1-2,6.1-2.8,9.2c0,0.2,0,0.8,0.3,1.4c1.5,3.3,3.2,6.8,5.2,10.3c0.2,0.4,0.5,0.7,0.7,0.8
			c3.7,1.3,7.7,2.5,12.3,3.7c4.5,1.2,6.9,4,7.1,8.3c0.2,3,0.4,6,0.6,9c0.3,3.6,0.6,7.2,0.7,10.8c0.1,3-2,6-4.2,7.3
			c-2.6,1.5-5.2,2.9-7.9,4.2c-2,1-4,2.1-6,3.2c0,0-0.2,0.3-0.3,0.5c-0.2,0.5-0.3,1.1-0.4,1.7c-0.3,1.2-0.6,2.8-1.5,4.2
			c-1.4,2.3-1.7,4.5,0.9,8.3c0.9,1.3,1.5,2.6,2.1,3.8c0.6,1.2,1.1,2.3,1.8,3.2c2.3,2.9,4,7.5-0.6,12.9c-1.4,1.7-2.9,3.4-4.3,5.1
			c-2.7,3.2-5.4,6.5-8.3,9.6c-1.6,1.8-4.2,2.4-6.1,2.4c-0.7,0-1.4-0.1-2.1-0.3c-2.6-0.7-5.1-1.5-7.6-2.4c-2.4-0.8-4.8-1.6-7.3-2.2
			c-0.1,0-0.7,0.2-1.2,0.3c-0.2,0-0.4,0.1-0.5,0.1c-0.4,0.3-1,0.6-1.8,0.8c-3.3,0.8-7.3,3-8.2,11c-0.8,7-4.5,15.5-17.7,15.5
			c0,0,0,0,0,0c-2.4,0-4.5-0.1-6.6,0C247.7,538.1,245.6,538,243.4,538C243.5,538,243.5,538,243.4,538z M228.6,510.6
			c0.1,0,0.1,0,0.2,0c0.7,0.1,1.9,0.3,3,0.9c1.5,0.8,3.7,2,5,4.3c1.4,2.5,2.8,5.1,4.1,7.7c1.1,2.1,2.2,4.1,3.3,6.2
			c1.7,0,3.4-0.2,5.1-0.3c2.3-0.1,4.6-0.3,6.9-0.3l0,0c6.6,0,9-2,9.6-7.7c1.3-11.7,8-16.2,13.7-17.9c0.5-0.4,1.2-0.8,2.2-1
			c0.3-0.1,0.7-0.1,1-0.2c1.5-0.4,3.7-0.7,5.4-0.3c2.6,0.7,5.1,1.5,7.7,2.4c2.4,0.8,4.8,1.6,7.2,2.2c2.6-2.9,5.2-6,7.7-9
			c1.4-1.7,2.9-3.5,4.4-5.2c0.8-0.9,0.9-1.3,0.9-1.3l0,0c0,0-0.1-0.3-0.5-0.9c-1.2-1.5-2-3.2-2.7-4.7c-0.5-1-0.9-1.9-1.5-2.8
			c-4.1-6-4.4-11.7-1.1-17.3c0.2-0.3,0.4-1.1,0.5-1.8c0.2-1.1,0.5-2.1,0.9-3.1c0.8-2,2.3-3.8,4-4.7c2-1.1,4.1-2.2,6.2-3.3
			c2.5-1.3,5-2.6,7.5-4c-0.2-3.4-0.4-6.7-0.7-10.1c-0.2-3.1-0.5-6.2-0.7-9.3c0-0.1,0-0.2,0-0.3c-0.1,0-0.3-0.1-0.7-0.2
			c-4.7-1.2-9-2.5-13.1-3.9c-3-1-4.7-3.8-5.2-4.6c-2.1-3.8-4-7.5-5.5-11c-1-2.3-1.3-5-0.7-7.1c0.9-3.2,1.9-6.4,3-9.6
			c0.5-1.4,0.9-2.8,1.4-4.2c0-0.1,0-0.1,0.1-0.2c-1.6-1.4-3.2-2.8-4.8-4.2c-3.1-2.7-6.1-5.3-9.2-8c-0.1-0.1-0.2-0.2-0.3-0.2
			c0,0.1-0.3,0.2-0.9,0.5c-4.4,2.6-8.1,4.6-11.5,6.2c-2,0.9-4.8,1-7.3,0.3c-4.2-1.2-8.8-2.7-13.8-4.5c-2.2-0.8-4.1-2.3-5.1-4.1
			c-1.2-2.1-2.3-4.2-3.4-6.3c-1.2-2.2-2.3-4.4-3.6-6.6c-2.8,0.1-5.7,0.3-8.6,0.6c-2.9,0.2-5.8,0.4-8.7,0.6c-0.2,0-0.3,0-0.4,0
			c0,0.1-0.1,0.4-0.3,0.9c-1.1,4.2-2.4,8.6-4,13.1c-0.8,2.3-2.8,4.1-4.4,5c-5.2,2.9-9.6,5.2-13.7,7.2c-2.4,1.1-5.2,1.5-7.4,0.9
			c-2.4-0.6-4.7-1.4-7.1-2.2c-2.2-0.7-4.4-1.4-6.6-2c0,0,0,0-0.1,0c-2.3,2.6-4.5,5.2-6.7,7.9c-1.5,1.8-3,3.7-4.6,5.5
			c0,0.1,0.1,0.1,0.1,0.2c2.2,3.9,4.7,8.5,7.2,13.4c1.1,2.2,1,4.9,0.6,6.6c-1.2,4.8-2.6,9.6-4.1,14.3c-0.7,2.2-2.3,4.2-4.2,5.3
			c-2.3,1.3-4.7,2.6-7.1,3.8c-2.1,1.1-4.3,2.2-6.4,3.4c0.5,6.8,1.1,12.4,1.8,17.5c0.1,0.1,0.3,0.2,0.3,0.3c3.2,1.3,5.9,2.1,8.3,2.5
			c7.9,1.4,13.1,5.7,15.2,12.8c0.1,0.3,0.5,0.9,0.9,1.4c0.6,0.8,1.3,1.9,1.8,3.2c1.1,2.8,1.4,5.3,0.8,7.4c-1.3,5-3,10-4.5,14.3
			c0,0.1-0.1,0.2-0.1,0.3c4.1,3.2,7.9,6.3,11.7,9.4l2.6,2.1c0.2,0.2,0.3,0.3,0.4,0.3c0.1,0,0.1-0.1,0.2-0.2c1.5-1.1,3.1-1.9,4.5-2.6
			c1.1-0.5,2.2-1.1,3.1-1.7C214.9,507.6,221.8,507,228.6,510.6C228.5,510.7,228.6,510.6,228.6,510.6z M245.2,480.7L245.2,480.7
			c-14.3,0-27.2-8.7-32.8-22.2c-7.2-17.4,1.3-38.2,18.7-45.6c4.4-1.8,9-2.8,13.7-2.8c14.4,0,27.2,8.5,32.7,21.7
			c3.6,8.9,3.6,18.6-0.1,27.3c-3.7,8.7-10.9,15.7-19.6,19.2C253.8,479.9,249.5,480.7,245.2,480.7z M244.9,418.7
			c-3.6,0-7.1,0.7-10.4,2.1c-13.2,5.5-19.6,21.3-14.2,34.5c4.3,10.3,14.1,17,24.9,17l0,0c3.3,0,6.4-0.6,9.5-1.8
			c6.7-2.7,12.1-8,14.9-14.6c2.8-6.6,2.8-13.9,0.1-20.7C265.5,425.2,255.8,418.7,244.9,418.7z"/>
		<path fill="#AAAAA7" d="M389.6,576.2c-2.2,0-4.5-0.9-5.6-2.9c-0.9-1.6-1.7-3-2.6-4.6c-0.8-1.6-1.7-3.1-2.6-4.7
			c-0.1-0.1-0.3-0.1-0.5-0.2c-0.8-0.1-1.6-0.3-2.5-0.7c-2.3-1.2-4.2-1-6.7,0.9c-1.1,0.8-2.2,1.3-3.1,1.8c-0.7,0.3-1.4,0.6-2,1.1
			c-3,2.2-6.3,2.1-9.3-0.3L353,565c-2.7-2.2-5.3-4.4-8-6.5c-1.8-1.4-3.6-3.9-2.2-8.1c1-2.8,2.1-6.1,2.9-9.3c0,0.1-0.1-0.2-0.3-0.7
			c-0.1-0.2-0.3-0.4-0.4-0.7c-0.5-0.7-1.2-1.7-1.6-3c-0.6-1.9-1.6-3.3-4.9-3.8c-2.2-0.4-4.5-1.1-7.2-2.2c-2-0.8-4.2-2.8-4.6-5.4
			c-0.5-4-1-8.3-1.4-13.7c-0.2-2.5,1.6-4.9,3.3-5.9c1.6-0.9,3.3-1.8,4.9-2.6c1.5-0.8,3-1.5,4.4-2.4c0.9-2.9,1.8-6,2.6-9.1
			c-1.5-2.9-3-5.8-4.6-8.6c-2.1-3.7-0.8-6.5,0.6-8.1c1.1-1.3,2.2-2.6,3.3-3.9c1.7-2,3.3-4,5.1-6c1.7-1.9,4.4-2.1,5.2-2.1
			c0.6,0,1.2,0.1,1.8,0.2c1.7,0.4,3.3,1,4.9,1.5c1.5,0.5,3,1,4.5,1.4c-0.2,0,0.1-0.1,0.2-0.2c2.7-1.3,5.6-2.8,9-4.7
			c0.9-2.8,1.8-5.5,2.4-8.1c1.2-4.8,4.5-5.9,7.1-6c1.9-0.1,3.9-1.2,5.8-1.4c2.2-0.2,4.3-1.4,6.5-1.4c0,0,0,0,0,0
			c2.5,0,4.9,2.4,6.1,4.4c1,1.6,1.8,3.8,2.7,5.5c0.7,1.3,1.3,2.8,2,4c3.3,1.2,6.2,2.3,9,3c2.2-0.9,4.5-2,7.3-3.7
			c1-0.6,2.5-1.3,4.4-1.3c1.8,0,3.5,0.7,5,2.1c2,1.9,4.2,3.7,6.3,5.5l3.3,2.9c0.4,0.4,0.8,0.8,1.2,1.3l0.4,0.5c0.9,1,1.3,2.5,1,3.8
			l-0.1,0.4c-0.1,0.5-0.2,1.1-0.4,1.7l-1,3c-0.7,2.1-1.4,4.2-1.9,6.3c1.2,2.4,2.3,4.7,3.7,7.1c0,0,0,0,0,0c2.5,0.9,5.2,1.7,8.1,2.4
			c4.6,1.2,5.8,4.4,5.9,6.9c0.1,2.1,0.3,4.2,0.4,6.2c0.2,2.5,0.4,5,0.5,7.5c0.1,2.6-1.8,5.2-3.6,6.2c-1.8,1-3.7,2-5.5,3
			c-1.2,0.6-2.5,1.3-3.7,2c-0.1,0.2-0.1,0.5-0.2,0.8c-0.2,0.9-0.5,2.1-1.2,3.3c-0.6,1.1-1,2.1,0.5,4.3c0.6,0.9,1.1,1.8,1.5,2.8
			c0.4,0.8,0.7,1.5,1.1,1.9c1.5,2,3.5,6-0.5,10.6c-1,1.2-2,2.4-3,3.5c-1.9,2.2-3.8,4.5-5.7,6.7c-1.8,1.9-4.4,2.1-5.2,2.1
			c-0.6,0-1.2-0.1-1.8-0.2c-1.8-0.5-3.6-1.1-5.3-1.6c-1.5-0.5-3.1-1-4.6-1.4c-0.2,0-0.4,0.1-0.5,0.1c0,0-0.1,0-0.1,0
			c-0.4,0.2-0.8,0.5-1.4,0.6c-2.1,0.5-4.1,1.4-4.7,6.1c-0.9,7.6-5.7,11.5-13.6,11.5c0,0,0,0,0,0c-1.7,0-3.1-0.1-4.5,0
			C392.6,576.3,391.1,576.2,389.6,576.2C389.7,576.2,389.6,576.2,389.6,576.2z M379.7,555.5c0.8,0.1,1.7,0.3,2.6,0.8
			c1.1,0.6,2.9,1.6,3.9,3.4c1,1.8,1.9,3.5,2.9,5.3c0.6,1.2,1.2,2.4,1.9,3.5c0.9,0,1.8-0.1,2.7-0.2c1.6-0.1,3.2-0.2,4.8-0.2l0,0
			c4.2,0,5-1.2,5.4-4.2c1-8.7,5.9-12.1,10.2-13.4c0.4-0.3,1.1-0.6,1.9-0.8l0.6-0.1c1.2-0.3,2.9-0.6,4.4-0.2c1.8,0.5,3.6,1.1,5.4,1.7
			c1.4,0.5,2.8,0.9,4.2,1.3c1.6-1.8,3.2-3.7,4.7-5.6c1-1.2,2-2.4,3-3.6c0,0,0,0,0-0.1c-0.9-1.2-1.4-2.3-1.9-3.3
			c-0.3-0.6-0.6-1.2-0.9-1.8c-3.1-4.6-3.3-9.1-0.8-13.4c0.1-0.2,0.1-0.5,0.2-0.8c0.2-0.8,0.4-1.6,0.7-2.3c0.7-1.7,1.9-3.1,3.4-3.9
			c1.4-0.8,2.8-1.5,4.2-2.3c1.5-0.8,3-1.6,4.5-2.4c-0.1-2-0.3-4.1-0.4-6.1c-0.2-1.9-0.3-3.8-0.4-5.7c-3.3-0.9-6.1-1.7-8.7-2.7
			c-1.7-0.6-3.3-2-4.3-3.8c-1.5-2.7-2.8-5.2-3.9-7.7c-0.4-0.9-1.3-3.3-0.6-5.8c0.6-2.2,1.3-4.5,2.1-6.7l0.7-2.2l-2.6-2.2
			c-2-1.7-4-3.4-5.9-5.2c-3,1.7-5.4,3.1-7.8,4.2c-1.7,0.8-3.9,0.9-5.9,0.3c-2.9-0.8-6.1-1.9-9.6-3.1c-1.8-0.7-3.4-1.9-4.2-3.5
			c-0.8-1.4-1.6-2.9-2.3-4.4c-0.7-1.3-1.3-2.6-2-3.8c-1.6,0.1-3.4,0.2-5.1,0.4c-1.8,0.1-3.6,0.3-5.4,0.4c-0.7,2.8-1.6,5.8-2.7,8.8
			c-0.6,1.7-1.9,3.2-3.6,4.2c-3.6,2-6.7,3.6-9.6,5c-1.9,0.9-4.2,1.2-6,0.7c-1.7-0.4-3.3-1-5-1.5c-1.2-0.4-2.5-0.8-3.7-1.2
			c-1.4,1.6-2.7,3.2-4.1,4.8c-0.9,1-1.7,2.1-2.6,3.1c1.6,3,3.2,5.8,4.6,8.6c0.8,1.6,1,3.6,0.5,5.5c-0.9,3.4-1.8,6.7-2.9,9.9
			c-0.6,1.8-1.9,3.5-3.5,4.4c-1.6,0.9-3.3,1.8-5,2.7c-1.2,0.6-2.4,1.3-3.6,1.9c0.3,4,0.7,7.4,1.1,10.5c1.9,0.7,3.5,1.2,5,1.5
			c6,1.1,9.9,4.3,11.5,9.8c0.1,0.1,0.3,0.4,0.4,0.6c0.4,0.6,1,1.4,1.4,2.5c0.9,2.2,1.1,4.2,0.6,5.9c-0.9,3.3-1.9,6.5-2.9,9.2
			c2.5,1.9,4.9,3.9,7.3,5.9l1.4,1.1c0.9-0.6,1.8-1,2.7-1.4c0.7-0.3,1.3-0.6,1.9-1C369.4,553.5,374.6,553,379.7,555.5z M390.8,534.6
			c-9.2,0-17.5-5.6-21.1-14.3c-4.7-11.2,0.9-24.7,12.1-29.4c2.8-1.2,5.8-1.8,8.9-1.8c9.3,0,17.5,5.5,21.1,14
			c2.3,5.7,2.3,12-0.1,17.6c-2.4,5.6-7,10.1-12.6,12.4C396.4,534.1,393.6,534.6,390.8,534.6z M390.6,497.6c-1.9,0-3.8,0.4-5.6,1.1
			c-7,2.9-10.4,11.3-7.5,18.3c2.3,5.5,7.5,9.1,13.3,9.1c1.7,0,3.4-0.3,5-1c3.6-1.4,6.5-4.2,8-7.8c1.5-3.5,1.5-7.4,0.1-11
			C401.6,501,396.4,497.6,390.6,497.6z"/>
	</g>
	<g>
		<path fill="#AAAAA7" d="M412.7,725H195.6c-2.3,0-4.1-2.8-4.2-5.1c0,0-0.2-3.5-0.2-4.5l0-9.2c0-3.8,0-5.3-0.1-14
			c-0.1-6.6,4.6-7.8,7.3-8c11.1-0.5,20.7-2.9,29.3-7.2c8.7-4.4,13.6-11.1,15.1-20.5c0.4-2.3,2.5-3.9,4.8-3.6
			c2.3,0.4,3.9,2.5,3.6,4.8c-1.8,12.2-8.5,21.2-19.7,26.8c-9.5,4.8-19.9,7.4-32,8c0.1,8.2,0.1,10.7,0.1,14.4l0,9.5h209l0-9.6
			c0-3.8,0-6,0.1-14c-12.2-0.6-22.7-3.5-32-8.1c-11.4-5.7-18.1-14.8-19.9-26.9c-0.4-2.3,1.2-4.6,3.6-4.9c2.3-0.4,4.5,1.2,4.8,3.5
			c1.4,9.3,6.4,15.9,15.3,20.4c8.4,4.2,18,6.5,29.3,7c6.1,0.3,7.4,4.3,7.3,7.6c-0.1,8.7-0.1,10.3-0.1,14.2l0,9c0,1-0.2,5-0.2,5
			C416.9,722.2,415,725,412.7,725z"/>
		<path fill="#AAAAA7" d="M556.8,644.2c0,2.3-1.9,4.2-4.2,4.2h-493c-2.3,0-4.2-1.9-4.2-4.2V291.5c0-2.3,1.9-4.2,4.2-4.2h493
			c2.3,0,4.2,1.9,4.2,4.2V644.2z M63.8,640h484.5V295.8H63.8V640z"/>
		<path fill="#AAAAA7" d="M518.5,606c0,2.3-1.9,4.2-4.2,4.2H93.5c-2.3,0-4.2-1.9-4.2-4.2V325.5c0-2.3,1.9-4.2,4.2-4.2h420.8
			c2.3,0,4.2,1.9,4.2,4.2V606z M97.8,601.8H510v-272H97.8V601.8z"/>
	</g>
</g>
</svg>
