<?xml version="1.0" encoding="utf-8"?>
<!-- Generator: Adobe Illustrator 18.0.0, SVG Export Plug-In . SVG Version: 6.00 Build 0)  -->
<!DOCTYPE svg PUBLIC "-//W3C//DTD SVG 1.1//EN" "http://www.w3.org/Graphics/SVG/1.1/DTD/svg11.dtd">
<svg version="1.1" id="Layer_1" xmlns="http://www.w3.org/2000/svg" xmlns:xlink="http://www.w3.org/1999/xlink" x="0px" y="0px"
	 width="493px" height="458.5px" viewBox="59.5 274.8 493 458.5" enable-background="new 59.5 274.8 493 458.5"
	 xml:space="preserve">
<g>
	<g>
		<path fill="#AAAAA7" d="M304.2,733.2c-32.6,0-63.2-21.9-64.5-22.8c-1.3-0.9-1.9-2.5-1.7-4c0.2-1.6,1.3-2.9,2.8-3.4l123.8-44
			c2.2-0.8,4.6,0.4,5.4,2.6c0.8,2.2-0.4,4.6-2.6,5.4l-115.6,41.1c10.5,6.2,31.4,16.7,52.4,16.7c29.8,0,59-21,59.3-21.2
			c1.9-1.4,4.6-1,5.9,0.9c1.4,1.9,1,4.6-0.9,5.9C367.3,711.3,336.8,733.2,304.2,733.2z M242.5,665.1c-1.7,0-3.4-1.1-4-2.8
			c-0.8-2.2,0.4-5.1,2.6-5.9L345,618.8H238c-2.3,0-4.2-1.9-4.2-4.2c0-2.4,1.9-4.2,4.2-4.2h131.5c2.1,0,3.8,2,4.2,4
			c0.4,2-0.8,4.3-2.8,5L244,664.8C243.5,664.9,243,665.1,242.5,665.1z M369.7,581.5c-2.3,0-4.2-1.9-4.2-4.2
			c0-31.1,15.9-54.3,31.3-76.6c15.6-22.7,31.8-46.2,31.8-78.7c0-70.9-55.8-128.6-124.3-128.6c-68.6,0-124.3,57.7-124.3,128.6
			c0,32.5,16.1,56,31.8,78.7c15.4,22.4,31.3,45.5,31.3,76.6c0,2.4-1.9,4.2-4.2,4.2s-4.2-1.9-4.2-4.2c0-28.5-14.5-49.5-29.8-71.8
			c-16.3-23.8-33.3-48.4-33.3-83.5c0-75.6,59.6-137.1,132.8-137.1c73.2,0,132.8,61.5,132.8,137.1c0,35.1-16.9,59.7-33.3,83.5
			c-15.3,22.3-29.8,43.3-29.8,71.8C374,579.6,372,581.5,369.7,581.5z M225.1,426.2c-2.3,0-4.2-1.9-4.2-4.2
			c0-48.3,37.4-87.6,83.3-87.6c2.3,0,4.2,1.9,4.2,4.2s-1.9,4.2-4.2,4.2c-41.3,0-74.8,35.5-74.8,79.1
			C229.3,424.3,227.4,426.2,225.1,426.2z"/>
		<path fill="#AAAAA7" d="M548.2,423.2h-68c-2.3,0-4.2-1.9-4.2-4.2c0-2.4,1.9-4.2,4.2-4.2h68c2.3,0,4.2,1.9,4.2,4.2
			C552.5,421.4,550.6,423.2,548.2,423.2z M127.5,423.2H63.8c-2.3,0-4.2-1.9-4.2-4.2c0-2.4,1.9-4.2,4.2-4.2h63.8
			c2.3,0,4.2,1.9,4.2,4.2C131.8,421.4,129.8,423.2,127.5,423.2z"/>
		<path fill="#AAAAA7" d="M499.9,569.2c-0.9,0-1.7-0.3-2.5-0.8l-52.8-38.5c-1.9-1.4-2.3-4-0.9-5.9c1.4-1.9,4-2.3,5.9-0.9l52.8,38.5
			c1.9,1.4,2.3,4,0.9,5.9C502.5,568.6,501.2,569.2,499.9,569.2z M161.1,321.8c-0.9,0-1.7-0.3-2.5-0.8l-52.8-38.5
			c-1.9-1.4-2.3-4-0.9-5.9c1.4-1.9,4-2.3,5.9-0.9l52.8,38.5c1.9,1.4,2.3,4,0.9,5.9C163.7,321.2,162.4,321.8,161.1,321.8z"/>
		<path fill="#AAAAA7" d="M108.3,569.2c-1.3,0-2.6-0.6-3.4-1.7c-1.4-1.9-1-4.6,0.9-5.9l52.8-38.5c1.9-1.4,4.6-1,5.9,0.9
			c1.4,1.9,1,4.6-0.9,5.9l-52.8,38.5C110.1,568.9,109.2,569.2,108.3,569.2z M447.2,321.8c-1.3,0-2.6-0.6-3.4-1.7
			c-1.4-1.9-1-4.6,0.9-5.9l52.8-38.5c1.9-1.4,4.6-1,5.9,0.9c1.4,1.9,1,4.6-0.9,5.9L449.7,321C448.9,321.5,448.1,321.8,447.2,321.8z"
			/>
	</g>
</g>
</svg>
