<?xml version="1.0" encoding="UTF-8" standalone="no"?>
<!DOCTYPE svg PUBLIC "-//W3C//DTD SVG 1.1//EN"
"http://www.w3.org/Graphics/SVG/1.1/DTD/svg11.dtd">
<svg version="1.1" style="font-family:&quot;lucida grande&quot;, &quot;lucida sans unicode&quot;, arial, helvetica, sans-serif;font-size:12px;" xmlns="http://www.w3.org/2000/svg" viewBox="0 0 584 400">
	<desc>Created with Highstock 4.2.4
	</desc>
	<defs>
		<clipPath id="highcharts-1">
			<rect x="0" y="0" width="564" height="240">
			</rect>
		</clipPath>
		<clipPath id="highcharts-2">
			<rect x="0" y="0" width="564" height="240">
			</rect>
		</clipPath>
		<clipPath id="highcharts-3">
			<rect x="0" y="0" width="536" height="40">
			</rect>
		</clipPath>
	</defs>
	<rect x="0" y="0" width="584" height="400" fill="#FFFFFF" class=" highcharts-background">
	</rect>
	<g class="highcharts-scrollbar" transform="translate(10,372)">
		<rect x="0" y="-0.5" fill="#eeeeee" stroke="#eeeeee" stroke-width="1" rx="0" ry="0" height="14" width="564">
		</rect>
		<rect y="-0.5" height="14" fill="#bfc8d1" stroke="#bfc8d1" stroke-width="1" rx="0" ry="0" x="473.5" width="76">
		</rect>
		<path fill="none" stroke="#666" stroke-width="1" visibility="visible" d="M 508 3.5 L 508 9.3 M 511 3.5 L 511 9.3 M 514 3.5 L 514 9.3">
		</path>
		<g>
			<rect x="-0.5" y="-0.5" width="14" height="14" stroke="#bbb" stroke-width="1" fill="#ebe7e8">
			</rect>
			<path fill="#666" d="M 8 4 L 8 10 5 7">
			</path>
		</g>
		<g transform="translate(550,0)">
			<rect x="-0.5" y="-0.5" width="14" height="14" stroke="#bbb" stroke-width="1" fill="#ebe7e8">
			</rect>
			<path fill="#666" d="M 6 4 L 6 10 9 7">
			</path>
		</g>
	</g>
	<g class="highcharts-range-selector-buttons" transform="translate(0,10)">
		<text x="10" y="15" style="color:#666;fill:#666;">Zoom
		</text>
		<g class="highcharts-button" states="[object Object]" style="cursor:pointer;text-align:center;" transform="translate(48,0)">
			<rect x="0" y="0" width="32" height="22" fill="#f7f7f7" rx="0" ry="0">
			</rect>
			<text x="6.6" style="font-weight:normal;color:#444;fill:#444;" y="14">1m
			</text>
		</g>
		<g class="highcharts-button" states="[object Object]" style="cursor:pointer;text-align:center;" transform="translate(85,0)">
			<rect x="0" y="0" width="32" height="22" fill="#f7f7f7" rx="0" ry="0">
			</rect>
			<text x="6.6" style="font-weight:normal;color:#444;fill:#444;" y="14">3m
			</text>
		</g>
		<g class="highcharts-button" states="[object Object]" style="cursor:pointer;text-align:center;" transform="translate(122,0)">
			<rect x="0" y="0" width="32" height="22" fill="#f7f7f7" rx="0" ry="0">
			</rect>
			<text x="6.6" style="font-weight:normal;color:#444;fill:#444;" y="14">6m
			</text>
		</g>
		<g class="highcharts-button" states="[object Object]" style="cursor:pointer;text-align:center;" transform="translate(159,0)">
			<rect x="0" y="0" width="32" height="22" fill="#f7f7f7" rx="0" ry="0">
			</rect>
			<text x="3.9" style="font-weight:normal;color:#444;fill:#444;" y="14">YTD
			</text>
		</g>
		<g class="highcharts-button" states="[object Object]" style="cursor:pointer;text-align:center;" transform="translate(196,0)">
			<rect x="0" y="0" width="32" height="22" fill="#e7f0f9" rx="0" ry="0">
			</rect>
			<text x="9.0" style="font-weight:bold;color:black;fill:black;" y="14">1y
			</text>
		</g>
		<g class="highcharts-button" states="[object Object]" style="cursor:pointer;text-align:center;" transform="translate(233,0)">
			<rect x="0" y="0" width="32" height="22" fill="#f7f7f7" rx="0" ry="0">
			</rect>
			<text x="8.3" style="font-weight:normal;color:#444;fill:#444;" y="14">All
			</text>
		</g>
	</g>
	<g class="highcharts-input-group" transform="translate(313,10)" visibility="visible">
		<g style="fill:#666;" transform="translate(0,0)">
			<text x="2" style="font-size:12px;font-family:&quot;lucida grande&quot;, &quot;lucida sans unicode&quot;, arial, helvetica, sans-serif;color:#666;fill:#666;" y="14">From
			</text>
		</g>
		<g style="text-align:center;" transform="translate(39,0)">
			<rect x="0.5" y="0.5" width="94" height="21" fill="none" stroke="silver" stroke-width="1">
			</rect>
			<text x="8.2" style="font-size:12px;font-family:&quot;lucida grande&quot;, &quot;lucida sans unicode&quot;, arial, helvetica, sans-serif;color:#444;fill:#444;" y="14">
				<tspan>Apr 21, 2015
				</tspan>
			</text>
		</g>
		<g style="fill:#666;" transform="translate(143,0)">
			<text x="2" style="font-size:12px;font-family:&quot;lucida grande&quot;, &quot;lucida sans unicode&quot;, arial, helvetica, sans-serif;color:#666;fill:#666;" y="14">To
			</text>
		</g>
		<g style="text-align:center;" transform="translate(167,0)">
			<rect x="0.5" y="0.5" width="94" height="21" fill="none" stroke="silver" stroke-width="1">
			</rect>
			<text x="8.2" style="font-size:12px;font-family:&quot;lucida grande&quot;, &quot;lucida sans unicode&quot;, arial, helvetica, sans-serif;color:#444;fill:#444;" y="14">
				<tspan>Apr 21, 2016
				</tspan>
			</text>
		</g>
	</g>
	<path fill="none" d="M 10 165 L 574 165" stroke="silver" stroke-width="2">
	</path>
	<g class="highcharts-grid">
	</g>
	<g class="highcharts-grid">
		<path fill="none" d="M 76.5 331 L 76.5 371" stroke="#EEE" stroke-width="1" opacity="1">
		</path>
		<path fill="none" d="M 229.5 331 L 229.5 371" stroke="#EEE" stroke-width="1" opacity="1">
		</path>
		<path fill="none" d="M 383.5 331 L 383.5 371" stroke="#EEE" stroke-width="1" opacity="1">
		</path>
		<path fill="none" d="M 536.5 331 L 536.5 371" stroke="#EEE" stroke-width="1" opacity="1">
		</path>
	</g>
	<g class="highcharts-grid">
		<path fill="none" d="M 10 285.5 L 574 285.5" stroke="#D8D8D8" stroke-width="1" opacity="1">
		</path>
		<path fill="none" d="M 10 225.5 L 574 225.5" stroke="#D8D8D8" stroke-width="1" opacity="1">
		</path>
		<path fill="none" d="M 10 165.5 L 574 165.5" stroke="#D8D8D8" stroke-width="1" opacity="1">
		</path>
		<path fill="none" d="M 10 105.5 L 574 105.5" stroke="#D8D8D8" stroke-width="1" opacity="1">
		</path>
		<path fill="none" d="M 10 44.5 L 574 44.5" stroke="#D8D8D8" stroke-width="1" opacity="1">
		</path>
	</g>
	<g class="highcharts-grid">
	</g>
	<g class="highcharts-axis">
		<path fill="none" d="M 27.5 285 L 27.5 295" stroke="#C0D0E0" stroke-width="1" opacity="1">
		</path>
		<path fill="none" d="M 120.5 285 L 120.5 295" stroke="#C0D0E0" stroke-width="1" opacity="1">
		</path>
		<path fill="none" d="M 216.5 285 L 216.5 295" stroke="#C0D0E0" stroke-width="1" opacity="1">
		</path>
		<path fill="none" d="M 311.5 285 L 311.5 295" stroke="#C0D0E0" stroke-width="1" opacity="1">
		</path>
		<path fill="none" d="M 404.5 285 L 404.5 295" stroke="#C0D0E0" stroke-width="1" opacity="1">
		</path>
		<path fill="none" d="M 493.5 285 L 493.5 295" stroke="#C0D0E0" stroke-width="1" opacity="1">
		</path>
		<path fill="none" d="M 10 285.5 L 574 285.5" stroke="#C0D0E0" stroke-width="1">
		</path>
	</g>
	<g class="highcharts-axis">
	</g>
	<g class="highcharts-axis">
	</g>
	<g class="highcharts-axis">
	</g>
	<g class="highcharts-series-group">
		<g class="highcharts-series highcharts-series-0" transform="translate(10,45) scale(1 1)" clip-path="url(#highcharts-2)">
			<path fill="none" d="M -2.2 118.5 L 0 120 L 2.2 118.0 L 4.4 116.0 L 6.6 90.5 L 8.9 89.6 L 11.1 83.3 L 13.3 83.8 L 15.6 86.2 L 17.8 86.1 L 20.0 88.4 L 22.2 92.0 L 24.5 99.5 L 26.7 97.1 L 28.9 91.2 L 31.2 93.3 L 33.4 93.4 L 35.6 91.9 L 37.8 85.7 L 40.1 88.1 L 42.3 89.7 L 44.5 92.1 L 46.8 92.1 L 49.0 93.0 L 51.2 96.0 L 53.5 97.7 L 55.7 92.0 L 57.9 92.9 L 60.1 96.2 L 62.4 94.1 L 64.6 95.9 L 66.8 96.3 L 69.1 99.0 L 71.3 100.3 L 73.5 102.6 L 75.7 103.0 L 78.0 97.6 L 80.2 98.6 L 82.4 101.2 L 84.7 104.0 L 86.9 102.0 L 89.1 101.2 L 91.3 97.0 L 93.6 100.5 L 95.8 99.7 L 98.0 101.5 L 100.3 103.1 L 102.5 103.0 L 104.7 105.2 L 107.0 110.2 L 109.2 111.5 L 111.4 109.8 L 113.6 110.0 L 115.9 110.1 L 118.1 110.6 L 120.3 110.9 L 122.6 109.4 L 124.8 108.9 L 127.0 103.6 L 129.2 103.2 L 131.5 102.4 L 133.7 97.3 L 135.9 97.5 L 138.2 95.9 L 140.4 93.8 L 142.6 103.6 L 144.9 100.4 L 147.1 101.4 L 149.3 104.7 L 151.5 104.8 L 153.8 99.4 L 156.0 96.1 L 158.2 97.1 L 160.5 96.5 L 162.7 92.4 L 164.9 92.1 L 167.1 97.5 L 169.4 96.9 L 171.6 93.6 L 173.8 98.7 L 176.1 96.9 L 178.3 96.9 L 180.5 95.4 L 182.7 93.6 L 185.0 93.9 L 187.2 97.6 L 189.4 103.0 L 191.7 117.5 L 193.9 125.4 L 196.1 132.2 L 198.4 119.6 L 200.6 112.9 L 202.8 112.7 L 205.0 115.0 L 207.3 124.6 L 209.5 115.9 L 211.7 115.1 L 214.0 120.1 L 216.2 112.9 L 218.4 117.5 L 220.6 116.3 L 222.9 115.2 L 225.1 117.7 L 227.3 112.4 L 229.6 110.6 L 231.8 110.9 L 234.0 115.2 L 236.3 111.7 L 238.5 112.9 L 240.7 113.0 L 242.9 112.8 L 245.2 112.6 L 247.4 116.3 L 249.6 115.4 L 251.9 110.8 L 254.1 108.9 L 256.3 103.5 L 258.5 97.5 L 260.8 96.8 L 263.0 96.5 L 265.2 92.9 L 267.5 94.8 L 269.7 95.4 L 271.9 96.0 L 274.1 97.2 L 276.4 95.4 L 278.6 92.5 L 280.8 91.9 L 283.1 91.1 L 285.3 94.3 L 287.5 89.6 L 289.8 62.4 L 292.0 54.6 L 294.2 57.8 L 296.4 56.1 L 298.7 59.6 L 300.9 63.7 L 303.1 60.3 L 305.4 55.2 L 307.6 53.8 L 309.8 53.9 L 312.0 50.8 L 314.3 55.1 L 316.5 58.8 L 318.7 58.0 L 321.0 59.8 L 323.2 62.5 L 325.4 57.4 L 327.6 61.8 L 329.9 56.9 L 332.1 56.3 L 334.3 54.9 L 336.6 54.9 L 338.8 54.6 L 341.0 57.8 L 343.3 56.4 L 345.5 54.0 L 347.7 49.1 L 349.9 49.2 L 352.2 54.9 L 354.4 45.3 L 356.6 45.8 L 358.9 45.9 L 361.1 50.5 L 363.3 48.9 L 365.5 55.7 L 367.8 49.6 L 370.0 49.3 L 372.2 44.0 L 374.5 46.4 L 376.7 55.3 L 378.9 51.3 L 381.2 48.4 L 383.4 45.8 L 385.6 46.6 L 387.8 45.0 L 390.1 41.7 L 392.3 43.0 L 394.5 47.7 L 396.8 51.5 L 399.0 50.1 L 401.2 55.7 L 403.4 66.3 L 405.7 65.4 L 407.9 65.6 L 410.1 62.9 L 412.4 69.3 L 414.6 61.0 L 416.8 73.0 L 419.0 75.4 L 421.3 74.1 L 423.5 75.8 L 425.7 65.6 L 428.0 68.4 L 430.2 66.3 L 432.4 71.7 L 434.7 66.9 L 436.9 49.9 L 439.1 52.0 L 441.3 61.6 L 443.6 66.4 L 445.8 67.3 L 448.0 77.6 L 450.3 81.8 L 452.5 82.6 L 454.7 80.2 L 456.9 80.3 L 459.2 75.7 L 461.4 72.4 L 463.6 64.9 L 465.9 66.2 L 468.1 68.3 L 470.3 63.6 L 472.6 71.9 L 474.8 70.9 L 477.0 66.7 L 479.2 71.2 L 481.5 73.6 L 483.7 64.0 L 485.9 61.9 L 488.2 65.3 L 490.4 67.1 L 492.6 72.7 L 494.8 69.2 L 497.1 62.5 L 499.3 67.0 L 501.5 61.2 L 503.8 60.7 L 506.0 58.3 L 508.2 54.0 L 510.4 52.3 L 512.7 58.9 L 514.9 56.8 L 517.1 55.6 L 519.4 56.2 L 521.6 54.8 L 523.8 58.6 L 526.1 52.0 L 528.3 50.1 L 530.5 49.1 L 532.7 47.2 L 535.0 48.0 L 537.2 52.9 L 539.4 49.7 L 541.7 53.4 L 543.9 53.6 L 546.1 54.3 L 548.3 52.4 L 550.6 48.4 L 552.8 48.4 L 555.0 46.7 L 557.3 42.2 L 559.5 42.6 L 561.7 47.1 L 564 46.0" stroke="#7cb5ec" stroke-width="2" stroke-linejoin="round" stroke-linecap="round">
			</path>
			<path fill="none" d="M -12.2 118.5 L -2.2 118.5 L 0 120 L 2.2 118.0 L 4.4 116.0 L 6.6 90.5 L 8.9 89.6 L 11.1 83.3 L 13.3 83.8 L 15.6 86.2 L 17.8 86.1 L 20.0 88.4 L 22.2 92.0 L 24.5 99.5 L 26.7 97.1 L 28.9 91.2 L 31.2 93.3 L 33.4 93.4 L 35.6 91.9 L 37.8 85.7 L 40.1 88.1 L 42.3 89.7 L 44.5 92.1 L 46.8 92.1 L 49.0 93.0 L 51.2 96.0 L 53.5 97.7 L 55.7 92.0 L 57.9 92.9 L 60.1 96.2 L 62.4 94.1 L 64.6 95.9 L 66.8 96.3 L 69.1 99.0 L 71.3 100.3 L 73.5 102.6 L 75.7 103.0 L 78.0 97.6 L 80.2 98.6 L 82.4 101.2 L 84.7 104.0 L 86.9 102.0 L 89.1 101.2 L 91.3 97.0 L 93.6 100.5 L 95.8 99.7 L 98.0 101.5 L 100.3 103.1 L 102.5 103.0 L 104.7 105.2 L 107.0 110.2 L 109.2 111.5 L 111.4 109.8 L 113.6 110.0 L 115.9 110.1 L 118.1 110.6 L 120.3 110.9 L 122.6 109.4 L 124.8 108.9 L 127.0 103.6 L 129.2 103.2 L 131.5 102.4 L 133.7 97.3 L 135.9 97.5 L 138.2 95.9 L 140.4 93.8 L 142.6 103.6 L 144.9 100.4 L 147.1 101.4 L 149.3 104.7 L 151.5 104.8 L 153.8 99.4 L 156.0 96.1 L 158.2 97.1 L 160.5 96.5 L 162.7 92.4 L 164.9 92.1 L 167.1 97.5 L 169.4 96.9 L 171.6 93.6 L 173.8 98.7 L 176.1 96.9 L 178.3 96.9 L 180.5 95.4 L 182.7 93.6 L 185.0 93.9 L 187.2 97.6 L 189.4 103.0 L 191.7 117.5 L 193.9 125.4 L 196.1 132.2 L 198.4 119.6 L 200.6 112.9 L 202.8 112.7 L 205.0 115.0 L 207.3 124.6 L 209.5 115.9 L 211.7 115.1 L 214.0 120.1 L 216.2 112.9 L 218.4 117.5 L 220.6 116.3 L 222.9 115.2 L 225.1 117.7 L 227.3 112.4 L 229.6 110.6 L 231.8 110.9 L 234.0 115.2 L 236.3 111.7 L 238.5 112.9 L 240.7 113.0 L 242.9 112.8 L 245.2 112.6 L 247.4 116.3 L 249.6 115.4 L 251.9 110.8 L 254.1 108.9 L 256.3 103.5 L 258.5 97.5 L 260.8 96.8 L 263.0 96.5 L 265.2 92.9 L 267.5 94.8 L 269.7 95.4 L 271.9 96.0 L 274.1 97.2 L 276.4 95.4 L 278.6 92.5 L 280.8 91.9 L 283.1 91.1 L 285.3 94.3 L 287.5 89.6 L 289.8 62.4 L 292.0 54.6 L 294.2 57.8 L 296.4 56.1 L 298.7 59.6 L 300.9 63.7 L 303.1 60.3 L 305.4 55.2 L 307.6 53.8 L 309.8 53.9 L 312.0 50.8 L 314.3 55.1 L 316.5 58.8 L 318.7 58.0 L 321.0 59.8 L 323.2 62.5 L 325.4 57.4 L 327.6 61.8 L 329.9 56.9 L 332.1 56.3 L 334.3 54.9 L 336.6 54.9 L 338.8 54.6 L 341.0 57.8 L 343.3 56.4 L 345.5 54.0 L 347.7 49.1 L 349.9 49.2 L 352.2 54.9 L 354.4 45.3 L 356.6 45.8 L 358.9 45.9 L 361.1 50.5 L 363.3 48.9 L 365.5 55.7 L 367.8 49.6 L 370.0 49.3 L 372.2 44.0 L 374.5 46.4 L 376.7 55.3 L 378.9 51.3 L 381.2 48.4 L 383.4 45.8 L 385.6 46.6 L 387.8 45.0 L 390.1 41.7 L 392.3 43.0 L 394.5 47.7 L 396.8 51.5 L 399.0 50.1 L 401.2 55.7 L 403.4 66.3 L 405.7 65.4 L 407.9 65.6 L 410.1 62.9 L 412.4 69.3 L 414.6 61.0 L 416.8 73.0 L 419.0 75.4 L 421.3 74.1 L 423.5 75.8 L 425.7 65.6 L 428.0 68.4 L 430.2 66.3 L 432.4 71.7 L 434.7 66.9 L 436.9 49.9 L 439.1 52.0 L 441.3 61.6 L 443.6 66.4 L 445.8 67.3 L 448.0 77.6 L 450.3 81.8 L 452.5 82.6 L 454.7 80.2 L 456.9 80.3 L 459.2 75.7 L 461.4 72.4 L 463.6 64.9 L 465.9 66.2 L 468.1 68.3 L 470.3 63.6 L 472.6 71.9 L 474.8 70.9 L 477.0 66.7 L 479.2 71.2 L 481.5 73.6 L 483.7 64.0 L 485.9 61.9 L 488.2 65.3 L 490.4 67.1 L 492.6 72.7 L 494.8 69.2 L 497.1 62.5 L 499.3 67.0 L 501.5 61.2 L 503.8 60.7 L 506.0 58.3 L 508.2 54.0 L 510.4 52.3 L 512.7 58.9 L 514.9 56.8 L 517.1 55.6 L 519.4 56.2 L 521.6 54.8 L 523.8 58.6 L 526.1 52.0 L 528.3 50.1 L 530.5 49.1 L 532.7 47.2 L 535.0 48.0 L 537.2 52.9 L 539.4 49.7 L 541.7 53.4 L 543.9 53.6 L 546.1 54.3 L 548.3 52.4 L 550.6 48.4 L 552.8 48.4 L 555.0 46.7 L 557.3 42.2 L 559.5 42.6 L 561.7 47.1 L 564 46.0 L 574 46.0" stroke-linejoin="round" visibility="visible" stroke="rgb(192,192,192)" stroke-opacity="0.0" stroke-width="22" class=" highcharts-tracker" style="">
			</path>
		</g>
		<g class="highcharts-markers highcharts-series-0 highcharts-tracker" transform="translate(10,45) scale(1 1)" style="" clip-path="none">
		</g>
		<g class="highcharts-series highcharts-series-1" transform="translate(10,45) scale(1 1)" clip-path="url(#highcharts-2)">
			<path fill="none" d="M -2.2 118.6 L 0 120 L 2.2 116.7 L 4.4 114.7 L 6.6 113.6 L 8.9 109.1 L 11.1 113.0 L 13.3 116.7 L 15.6 123.3 L 17.8 116.1 L 20.0 116.6 L 22.2 122.0 L 24.5 123.5 L 26.7 123.1 L 28.9 118.6 L 31.2 121.1 L 33.4 121.9 L 35.6 121.7 L 37.8 116.1 L 40.1 116.4 L 42.3 113.7 L 44.5 114.0 L 46.8 114.0 L 49.0 111.5 L 51.2 109.3 L 53.5 114.8 L 55.7 110.2 L 57.9 110.7 L 60.1 113.6 L 62.4 113.1 L 64.6 114.2 L 66.8 113.9 L 69.1 115.3 L 71.3 116.7 L 73.5 118.3 L 75.7 119.0 L 78.0 116.2 L 80.2 116.8 L 82.4 119.5 L 84.7 119.9 L 86.9 118.6 L 89.1 119.2 L 91.3 118.1 L 93.6 120.5 L 95.8 118.6 L 98.0 119.7 L 100.3 117.7 L 102.5 118.8 L 104.7 120.3 L 107.0 124.5 L 109.2 122.8 L 111.4 120.5 L 113.6 120.8 L 115.9 121.7 L 118.1 122.3 L 120.3 128.2 L 122.6 132.9 L 124.8 126.8 L 127.0 122.3 L 129.2 122.4 L 131.5 120.1 L 133.7 116.9 L 135.9 114.8 L 138.2 110.2 L 140.4 112.7 L 142.6 123.1 L 144.9 123.3 L 147.1 124.5 L 149.3 127.8 L 151.5 126.6 L 153.8 127.4 L 156.0 128.5 L 158.2 130.6 L 160.5 136.0 L 162.7 143.2 L 164.9 141.7 L 167.1 142.2 L 169.4 141.5 L 171.6 133.5 L 173.8 145.3 L 176.1 142.0 L 178.3 142.2 L 180.5 140.7 L 182.7 138.4 L 185.0 139.6 L 187.2 142.5 L 189.4 146.9 L 191.7 159.9 L 193.9 164.9 L 196.1 163.8 L 198.4 152.5 L 200.6 146.4 L 202.8 145.7 L 205.0 146.7 L 207.3 156.2 L 209.5 147.5 L 211.7 151.2 L 214.0 153.3 L 216.2 147.6 L 218.4 151.6 L 220.6 147.1 L 222.9 144.0 L 225.1 141.9 L 227.3 140.1 L 229.6 139.8 L 231.8 144.5 L 234.0 145.4 L 236.3 142.1 L 238.5 145.5 L 240.7 143.8 L 242.9 142.5 L 245.2 143.0 L 247.4 147.3 L 249.6 153.7 L 251.9 151.4 L 254.1 152.7 L 256.3 151.2 L 258.5 150.5 L 260.8 149.5 L 263.0 150.5 L 265.2 152.9 L 267.5 147.9 L 269.7 148.9 L 271.9 148.5 L 274.1 151.5 L 276.4 148.4 L 278.6 150.0 L 280.8 148.7 L 283.1 144.8 L 285.3 144.8 L 287.5 141.5 L 289.8 134.8 L 292.0 141.9 L 294.2 143.3 L 296.4 134.4 L 298.7 132.0 L 300.9 134.0 L 303.1 130.8 L 305.4 128.2 L 307.6 129.2 L 309.8 131.3 L 312.0 131.0 L 314.3 131.9 L 316.5 139.1 L 318.7 140.4 L 321.0 141.1 L 323.2 147.5 L 325.4 144.0 L 327.6 145.0 L 329.9 138.1 L 332.1 135.3 L 334.3 134.3 L 336.6 137.3 L 338.8 135.1 L 341.0 136.7 L 343.3 137.2 L 345.5 136.2 L 347.7 138.0 L 349.9 140.1 L 352.2 142.1 L 354.4 134.9 L 356.6 136.3 L 358.9 136.4 L 361.1 141.3 L 363.3 140.3 L 365.5 145.9 L 367.8 147.2 L 370.0 151.0 L 372.2 149.4 L 374.5 153.9 L 376.7 159.4 L 378.9 157.0 L 381.2 157.2 L 383.4 154.6 L 385.6 155.7 L 387.8 157.9 L 390.1 154.3 L 392.3 157.0 L 394.5 160.9 L 396.8 160.7 L 399.0 165.7 L 401.2 169.5 L 403.4 177.6 L 405.7 176.6 L 407.9 173.6 L 410.1 170.9 L 412.4 175.8 L 414.6 171.7 L 416.8 176.3 L 419.0 177.2 L 421.3 176.9 L 423.5 177.8 L 425.7 168.2 L 428.0 171.9 L 430.2 170.9 L 432.4 183.3 L 434.7 182.0 L 436.9 175.9 L 439.1 177.6 L 441.3 181.3 L 443.6 177.7 L 445.8 177.3 L 448.0 182.1 L 450.3 180.3 L 452.5 180.3 L 454.7 181.7 L 456.9 182.8 L 459.2 182.2 L 461.4 177.2 L 463.6 174.4 L 465.9 177.9 L 468.1 178.3 L 470.3 176.7 L 472.6 180.9 L 474.8 178.2 L 477.0 177.0 L 479.2 176.7 L 481.5 177.1 L 483.7 169.8 L 485.9 169.4 L 488.2 168.0 L 490.4 165.1 L 492.6 167.3 L 494.8 168.9 L 497.1 168.7 L 499.3 168.6 L 501.5 166.6 L 503.8 166.1 L 506.0 162.2 L 508.2 159.5 L 510.4 159.9 L 512.7 159.6 L 514.9 159.7 L 517.1 158.1 L 519.4 159.2 L 521.6 160.1 L 523.8 161.0 L 526.1 156.3 L 528.3 152.8 L 530.5 153.8 L 532.7 151.9 L 535.0 149.8 L 537.2 152.3 L 539.4 150.1 L 541.7 154.7 L 543.9 154.5 L 546.1 153.8 L 548.3 151.1 L 550.6 148.1 L 552.8 148.0 L 555.0 152.2 L 557.3 156.7 L 559.5 157.8 L 561.7 157.4 L 564 159.5" stroke="#434348" stroke-width="2" stroke-linejoin="round" stroke-linecap="round">
			</path>
			<path fill="none" d="M -12.2 118.6 L -2.2 118.6 L 0 120 L 2.2 116.7 L 4.4 114.7 L 6.6 113.6 L 8.9 109.1 L 11.1 113.0 L 13.3 116.7 L 15.6 123.3 L 17.8 116.1 L 20.0 116.6 L 22.2 122.0 L 24.5 123.5 L 26.7 123.1 L 28.9 118.6 L 31.2 121.1 L 33.4 121.9 L 35.6 121.7 L 37.8 116.1 L 40.1 116.4 L 42.3 113.7 L 44.5 114.0 L 46.8 114.0 L 49.0 111.5 L 51.2 109.3 L 53.5 114.8 L 55.7 110.2 L 57.9 110.7 L 60.1 113.6 L 62.4 113.1 L 64.6 114.2 L 66.8 113.9 L 69.1 115.3 L 71.3 116.7 L 73.5 118.3 L 75.7 119.0 L 78.0 116.2 L 80.2 116.8 L 82.4 119.5 L 84.7 119.9 L 86.9 118.6 L 89.1 119.2 L 91.3 118.1 L 93.6 120.5 L 95.8 118.6 L 98.0 119.7 L 100.3 117.7 L 102.5 118.8 L 104.7 120.3 L 107.0 124.5 L 109.2 122.8 L 111.4 120.5 L 113.6 120.8 L 115.9 121.7 L 118.1 122.3 L 120.3 128.2 L 122.6 132.9 L 124.8 126.8 L 127.0 122.3 L 129.2 122.4 L 131.5 120.1 L 133.7 116.9 L 135.9 114.8 L 138.2 110.2 L 140.4 112.7 L 142.6 123.1 L 144.9 123.3 L 147.1 124.5 L 149.3 127.8 L 151.5 126.6 L 153.8 127.4 L 156.0 128.5 L 158.2 130.6 L 160.5 136.0 L 162.7 143.2 L 164.9 141.7 L 167.1 142.2 L 169.4 141.5 L 171.6 133.5 L 173.8 145.3 L 176.1 142.0 L 178.3 142.2 L 180.5 140.7 L 182.7 138.4 L 185.0 139.6 L 187.2 142.5 L 189.4 146.9 L 191.7 159.9 L 193.9 164.9 L 196.1 163.8 L 198.4 152.5 L 200.6 146.4 L 202.8 145.7 L 205.0 146.7 L 207.3 156.2 L 209.5 147.5 L 211.7 151.2 L 214.0 153.3 L 216.2 147.6 L 218.4 151.6 L 220.6 147.1 L 222.9 144.0 L 225.1 141.9 L 227.3 140.1 L 229.6 139.8 L 231.8 144.5 L 234.0 145.4 L 236.3 142.1 L 238.5 145.5 L 240.7 143.8 L 242.9 142.5 L 245.2 143.0 L 247.4 147.3 L 249.6 153.7 L 251.9 151.4 L 254.1 152.7 L 256.3 151.2 L 258.5 150.5 L 260.8 149.5 L 263.0 150.5 L 265.2 152.9 L 267.5 147.9 L 269.7 148.9 L 271.9 148.5 L 274.1 151.5 L 276.4 148.4 L 278.6 150.0 L 280.8 148.7 L 283.1 144.8 L 285.3 144.8 L 287.5 141.5 L 289.8 134.8 L 292.0 141.9 L 294.2 143.3 L 296.4 134.4 L 298.7 132.0 L 300.9 134.0 L 303.1 130.8 L 305.4 128.2 L 307.6 129.2 L 309.8 131.3 L 312.0 131.0 L 314.3 131.9 L 316.5 139.1 L 318.7 140.4 L 321.0 141.1 L 323.2 147.5 L 325.4 144.0 L 327.6 145.0 L 329.9 138.1 L 332.1 135.3 L 334.3 134.3 L 336.6 137.3 L 338.8 135.1 L 341.0 136.7 L 343.3 137.2 L 345.5 136.2 L 347.7 138.0 L 349.9 140.1 L 352.2 142.1 L 354.4 134.9 L 356.6 136.3 L 358.9 136.4 L 361.1 141.3 L 363.3 140.3 L 365.5 145.9 L 367.8 147.2 L 370.0 151.0 L 372.2 149.4 L 374.5 153.9 L 376.7 159.4 L 378.9 157.0 L 381.2 157.2 L 383.4 154.6 L 385.6 155.7 L 387.8 157.9 L 390.1 154.3 L 392.3 157.0 L 394.5 160.9 L 396.8 160.7 L 399.0 165.7 L 401.2 169.5 L 403.4 177.6 L 405.7 176.6 L 407.9 173.6 L 410.1 170.9 L 412.4 175.8 L 414.6 171.7 L 416.8 176.3 L 419.0 177.2 L 421.3 176.9 L 423.5 177.8 L 425.7 168.2 L 428.0 171.9 L 430.2 170.9 L 432.4 183.3 L 434.7 182.0 L 436.9 175.9 L 439.1 177.6 L 441.3 181.3 L 443.6 177.7 L 445.8 177.3 L 448.0 182.1 L 450.3 180.3 L 452.5 180.3 L 454.7 181.7 L 456.9 182.8 L 459.2 182.2 L 461.4 177.2 L 463.6 174.4 L 465.9 177.9 L 468.1 178.3 L 470.3 176.7 L 472.6 180.9 L 474.8 178.2 L 477.0 177.0 L 479.2 176.7 L 481.5 177.1 L 483.7 169.8 L 485.9 169.4 L 488.2 168.0 L 490.4 165.1 L 492.6 167.3 L 494.8 168.9 L 497.1 168.7 L 499.3 168.6 L 501.5 166.6 L 503.8 166.1 L 506.0 162.2 L 508.2 159.5 L 510.4 159.9 L 512.7 159.6 L 514.9 159.7 L 517.1 158.1 L 519.4 159.2 L 521.6 160.1 L 523.8 161.0 L 526.1 156.3 L 528.3 152.8 L 530.5 153.8 L 532.7 151.9 L 535.0 149.8 L 537.2 152.3 L 539.4 150.1 L 541.7 154.7 L 543.9 154.5 L 546.1 153.8 L 548.3 151.1 L 550.6 148.1 L 552.8 148.0 L 555.0 152.2 L 557.3 156.7 L 559.5 157.8 L 561.7 157.4 L 564 159.5 L 574 159.5" stroke-linejoin="round" visibility="visible" stroke="rgb(192,192,192)" stroke-opacity="0.0" stroke-width="22" class=" highcharts-tracker" style="">
			</path>
		</g>
		<g class="highcharts-markers highcharts-series-1 highcharts-tracker" transform="translate(10,45) scale(1 1)" style="" clip-path="none">
		</g>
		<g class="highcharts-series highcharts-series-2" transform="translate(10,45) scale(1 1)" clip-path="url(#highcharts-2)">
			<path fill="none" d="M -2.2 119.3 L 0 120 L 2.2 117.5 L 4.4 114.1 L 6.6 106.0 L 8.9 110.3 L 11.1 111.1 L 13.3 113.2 L 15.6 118.4 L 17.8 118.2 L 20.0 116.9 L 22.2 121.4 L 24.5 124.3 L 26.7 121.4 L 28.9 118.0 L 31.2 119.2 L 33.4 122.2 L 35.6 121.9 L 37.8 118.0 L 40.1 120.0 L 42.3 120.7 L 44.5 118.4 L 46.8 117.6 L 49.0 116.1 L 51.2 117.2 L 53.5 120.7 L 55.7 117.3 L 57.9 117.3 L 60.1 120.8 L 62.4 119.9 L 64.6 117.6 L 66.8 117.1 L 69.1 118.7 L 71.3 120.2 L 73.5 123.2 L 75.7 123.2 L 78.0 118.7 L 80.2 119.7 L 82.4 120.7 L 84.7 123.0 L 86.9 122.6 L 89.1 122.1 L 91.3 118.7 L 93.6 118.7 L 95.8 118.1 L 98.0 117.0 L 100.3 118.2 L 102.5 119.4 L 104.7 121.0 L 107.0 125.5 L 109.2 126.0 L 111.4 125.4 L 113.6 124.7 L 115.9 124.9 L 118.1 124.0 L 120.3 127.7 L 122.6 125.9 L 124.8 121.7 L 127.0 114.3 L 129.2 107.8 L 131.5 108.2 L 133.7 99.3 L 135.9 57.5 L 138.2 61.9 L 140.4 62.3 L 142.6 62.4 L 144.9 70.4 L 147.1 79.7 L 149.3 78.0 L 151.5 77.7 L 153.8 75.9 L 156.0 75.6 L 158.2 78.8 L 160.5 76.2 L 162.7 77.1 L 164.9 70.6 L 167.1 71.1 L 169.4 74.4 L 171.6 75.1 L 173.8 63.0 L 176.1 63.5 L 178.3 64.9 L 180.5 64.6 L 182.7 62.9 L 185.0 65.0 L 187.2 62.9 L 189.4 69.2 L 191.7 84.7 L 193.9 94.9 L 196.1 98.3 L 198.4 77.4 L 200.6 73.4 L 202.8 76.6 L 205.0 82.1 L 207.3 91.3 L 209.5 83.8 L 211.7 87.5 L 214.0 90.0 L 216.2 83.7 L 218.4 84.6 L 220.6 80.7 L 222.9 78.7 L 225.1 79.8 L 227.3 74.5 L 229.6 74.1 L 231.8 71.0 L 234.0 77.1 L 236.3 74.3 L 238.5 80.1 L 240.7 80.2 L 242.9 78.7 L 245.2 84.9 L 247.4 92.6 L 249.6 92.5 L 251.9 86.5 L 254.1 85.2 L 256.3 78.2 L 258.5 71.6 L 260.8 69.8 L 263.0 71.2 L 265.2 72.7 L 267.5 70.7 L 269.7 69.3 L 271.9 66.8 L 274.1 67.3 L 276.4 62.5 L 278.6 62.3 L 280.8 60.6 L 283.1 67.7 L 285.3 71.1 L 287.5 67.0 L 289.8 44.4 L 292.0 39.6 L 294.2 41.5 L 296.4 39.5 L 298.7 37.7 L 300.9 40.5 L 303.1 35.8 L 305.4 35.4 L 307.6 32.7 L 309.8 31.3 L 312.0 30.2 L 314.3 34.1 L 316.5 32.6 L 318.7 29.4 L 321.0 31.3 L 323.2 37.7 L 325.4 32.3 L 327.6 34.0 L 329.9 27.3 L 332.1 28.1 L 334.3 19.9 L 336.6 20.2 L 338.8 23.6 L 341.0 23.7 L 343.3 22.7 L 345.5 26.2 L 347.7 15.2 L 349.9 17.3 L 352.2 21.7 L 354.4 15.3 L 356.6 16.9 L 358.9 17.3 L 361.1 22.1 L 363.3 23.1 L 365.5 27.9 L 367.8 23.9 L 370.0 25.8 L 372.2 19.2 L 374.5 23.1 L 376.7 27.7 L 378.9 23.9 L 381.2 22.9 L 383.4 22.7 L 385.6 23.6 L 387.8 17.2 L 390.1 10.9 L 392.3 13.4 L 394.5 18.9 L 396.8 26.5 L 399.0 26.2 L 401.2 25.7 L 403.4 33.5 L 405.7 38.8 L 407.9 38.1 L 410.1 33.6 L 412.4 45.1 L 414.6 38.7 L 416.8 47.8 L 419.0 44.5 L 421.3 46.0 L 423.5 42.4 L 425.7 34.0 L 428.0 40.1 L 430.2 39.5 L 432.4 45.3 L 434.7 31.4 L 436.9 26.0 L 439.1 22.0 L 441.3 16.3 L 443.6 33.2 L 445.8 41.7 L 448.0 52.7 L 450.3 53.1 L 452.5 55.2 L 454.7 52.5 L 456.9 52.9 L 459.2 53.2 L 461.4 49.4 L 463.6 41.6 L 465.9 46.5 L 468.1 44.9 L 470.3 42.4 L 472.6 47.2 L 474.8 45.5 L 477.0 42.7 L 479.2 43.0 L 481.5 46.3 L 483.7 36.9 L 485.9 36.9 L 488.2 39.7 L 490.4 40.4 L 492.6 47.5 L 494.8 48.0 L 497.1 43.0 L 499.3 39.6 L 501.5 33.3 L 503.8 31.6 L 506.0 32.6 L 508.2 29.1 L 510.4 28.3 L 512.7 28.4 L 514.9 26.4 L 517.1 27.0 L 519.4 28.2 L 521.6 29.5 L 523.8 30.3 L 526.1 25.2 L 528.3 22.6 L 530.5 25.1 L 532.7 22.9 L 535.0 25.0 L 537.2 28.3 L 539.4 24.8 L 541.7 27.2 L 543.9 27.7 L 546.1 29.1 L 548.3 26.0 L 550.6 22.1 L 552.8 21.4 L 555.0 18.8 L 557.3 15.4 L 559.5 21.1 L 561.7 21.7 L 564 18.7" stroke="#90ed7d" stroke-width="2" stroke-linejoin="round" stroke-linecap="round">
			</path>
			<path fill="none" d="M -12.2 119.3 L -2.2 119.3 L 0 120 L 2.2 117.5 L 4.4 114.1 L 6.6 106.0 L 8.9 110.3 L 11.1 111.1 L 13.3 113.2 L 15.6 118.4 L 17.8 118.2 L 20.0 116.9 L 22.2 121.4 L 24.5 124.3 L 26.7 121.4 L 28.9 118.0 L 31.2 119.2 L 33.4 122.2 L 35.6 121.9 L 37.8 118.0 L 40.1 120.0 L 42.3 120.7 L 44.5 118.4 L 46.8 117.6 L 49.0 116.1 L 51.2 117.2 L 53.5 120.7 L 55.7 117.3 L 57.9 117.3 L 60.1 120.8 L 62.4 119.9 L 64.6 117.6 L 66.8 117.1 L 69.1 118.7 L 71.3 120.2 L 73.5 123.2 L 75.7 123.2 L 78.0 118.7 L 80.2 119.7 L 82.4 120.7 L 84.7 123.0 L 86.9 122.6 L 89.1 122.1 L 91.3 118.7 L 93.6 118.7 L 95.8 118.1 L 98.0 117.0 L 100.3 118.2 L 102.5 119.4 L 104.7 121.0 L 107.0 125.5 L 109.2 126.0 L 111.4 125.4 L 113.6 124.7 L 115.9 124.9 L 118.1 124.0 L 120.3 127.7 L 122.6 125.9 L 124.8 121.7 L 127.0 114.3 L 129.2 107.8 L 131.5 108.2 L 133.7 99.3 L 135.9 57.5 L 138.2 61.9 L 140.4 62.3 L 142.6 62.4 L 144.9 70.4 L 147.1 79.7 L 149.3 78.0 L 151.5 77.7 L 153.8 75.9 L 156.0 75.6 L 158.2 78.8 L 160.5 76.2 L 162.7 77.1 L 164.9 70.6 L 167.1 71.1 L 169.4 74.4 L 171.6 75.1 L 173.8 63.0 L 176.1 63.5 L 178.3 64.9 L 180.5 64.6 L 182.7 62.9 L 185.0 65.0 L 187.2 62.9 L 189.4 69.2 L 191.7 84.7 L 193.9 94.9 L 196.1 98.3 L 198.4 77.4 L 200.6 73.4 L 202.8 76.6 L 205.0 82.1 L 207.3 91.3 L 209.5 83.8 L 211.7 87.5 L 214.0 90.0 L 216.2 83.7 L 218.4 84.6 L 220.6 80.7 L 222.9 78.7 L 225.1 79.8 L 227.3 74.5 L 229.6 74.1 L 231.8 71.0 L 234.0 77.1 L 236.3 74.3 L 238.5 80.1 L 240.7 80.2 L 242.9 78.7 L 245.2 84.9 L 247.4 92.6 L 249.6 92.5 L 251.9 86.5 L 254.1 85.2 L 256.3 78.2 L 258.5 71.6 L 260.8 69.8 L 263.0 71.2 L 265.2 72.7 L 267.5 70.7 L 269.7 69.3 L 271.9 66.8 L 274.1 67.3 L 276.4 62.5 L 278.6 62.3 L 280.8 60.6 L 283.1 67.7 L 285.3 71.1 L 287.5 67.0 L 289.8 44.4 L 292.0 39.6 L 294.2 41.5 L 296.4 39.5 L 298.7 37.7 L 300.9 40.5 L 303.1 35.8 L 305.4 35.4 L 307.6 32.7 L 309.8 31.3 L 312.0 30.2 L 314.3 34.1 L 316.5 32.6 L 318.7 29.4 L 321.0 31.3 L 323.2 37.7 L 325.4 32.3 L 327.6 34.0 L 329.9 27.3 L 332.1 28.1 L 334.3 19.9 L 336.6 20.2 L 338.8 23.6 L 341.0 23.7 L 343.3 22.7 L 345.5 26.2 L 347.7 15.2 L 349.9 17.3 L 352.2 21.7 L 354.4 15.3 L 356.6 16.9 L 358.9 17.3 L 361.1 22.1 L 363.3 23.1 L 365.5 27.9 L 367.8 23.9 L 370.0 25.8 L 372.2 19.2 L 374.5 23.1 L 376.7 27.7 L 378.9 23.9 L 381.2 22.9 L 383.4 22.7 L 385.6 23.6 L 387.8 17.2 L 390.1 10.9 L 392.3 13.4 L 394.5 18.9 L 396.8 26.5 L 399.0 26.2 L 401.2 25.7 L 403.4 33.5 L 405.7 38.8 L 407.9 38.1 L 410.1 33.6 L 412.4 45.1 L 414.6 38.7 L 416.8 47.8 L 419.0 44.5 L 421.3 46.0 L 423.5 42.4 L 425.7 34.0 L 428.0 40.1 L 430.2 39.5 L 432.4 45.3 L 434.7 31.4 L 436.9 26.0 L 439.1 22.0 L 441.3 16.3 L 443.6 33.2 L 445.8 41.7 L 448.0 52.7 L 450.3 53.1 L 452.5 55.2 L 454.7 52.5 L 456.9 52.9 L 459.2 53.2 L 461.4 49.4 L 463.6 41.6 L 465.9 46.5 L 468.1 44.9 L 470.3 42.4 L 472.6 47.2 L 474.8 45.5 L 477.0 42.7 L 479.2 43.0 L 481.5 46.3 L 483.7 36.9 L 485.9 36.9 L 488.2 39.7 L 490.4 40.4 L 492.6 47.5 L 494.8 48.0 L 497.1 43.0 L 499.3 39.6 L 501.5 33.3 L 503.8 31.6 L 506.0 32.6 L 508.2 29.1 L 510.4 28.3 L 512.7 28.4 L 514.9 26.4 L 517.1 27.0 L 519.4 28.2 L 521.6 29.5 L 523.8 30.3 L 526.1 25.2 L 528.3 22.6 L 530.5 25.1 L 532.7 22.9 L 535.0 25.0 L 537.2 28.3 L 539.4 24.8 L 541.7 27.2 L 543.9 27.7 L 546.1 29.1 L 548.3 26.0 L 550.6 22.1 L 552.8 21.4 L 555.0 18.8 L 557.3 15.4 L 559.5 21.1 L 561.7 21.7 L 564 18.7 L 574 18.7" stroke-linejoin="round" visibility="visible" stroke="rgb(192,192,192)" stroke-opacity="0.0" stroke-width="22" class=" highcharts-tracker" style="">
			</path>
		</g>
		<g class="highcharts-markers highcharts-series-2 highcharts-tracker" transform="translate(10,45) scale(1 1)" style="" clip-path="none">
		</g>
		<g class="highcharts-series highcharts-series-3" transform="translate(24,331) scale(1 1)" clip-path="url(#highcharts-3)">
			<path fill="#4572A7" d="M 0 35.5 C 0 35.5 0.8 35.9 1.4 36.1 C 2.0 36.4 2.3 36.6 2.9 36.6 C 3.5 36.6 3.8 36.6 4.4 36.5 C 4.9 36.4 5.2 36.3 5.8 36.2 C 6.4 36.1 6.7 36.2 7.3 35.9 C 7.9 35.7 8.2 35.2 8.8 34.8 C 9.3 34.4 9.6 34.3 10.2 34.0 C 10.8 33.6 11.1 33.0 11.7 33.0 C 12.3 33.0 12.6 33.2 13.2 33.2 C 13.8 33.2 14.0 32.9 14.6 32.9 C 15.2 32.9 15.5 33.9 16.1 33.9 C 16.7 33.9 17.0 33.2 17.6 32.8 C 18.2 32.5 18.5 32.1 19.0 32.1 C 19.6 32.1 19.9 33.1 20.5 33.1 C 21.1 33.1 21.4 33.0 22.0 33.0 C 22.6 33.0 22.9 33.2 23.4 33.2 C 24.0 33.2 24.3 33.2 24.9 32.9 C 25.5 32.7 25.8 32.1 26.4 32.1 C 27.0 32.1 27.3 32.5 27.9 32.5 C 28.4 32.5 28.7 32.1 29.3 31.9 C 29.9 31.7 30.2 31.7 30.8 31.6 C 31.4 31.4 31.7 31.2 32.3 31.2 C 32.8 31.2 33.1 31.3 33.7 31.4 C 34.3 31.4 34.6 31.6 35.2 31.6 C 35.8 31.6 36.1 31.0 36.7 30.7 C 37.2 30.4 37.5 30.5 38.1 30.1 C 38.7 29.7 39.0 28.8 39.6 28.8 C 40.2 28.8 40.5 28.9 41.1 28.9 C 41.7 28.9 41.9 28.2 42.5 27.9 C 43.1 27.6 43.4 27.4 44.0 27.4 C 44.6 27.4 44.9 27.4 45.5 27.4 C 46.1 27.4 46.4 27.4 46.9 27.4 C 47.5 27.4 47.8 27.4 48.4 27.4 C 49.0 27.4 49.3 27.3 49.9 27.1 C 50.5 27.0 50.8 26.6 51.3 26.4 C 51.9 26.3 52.2 26.3 52.8 26.3 C 53.4 26.3 53.7 26.4 54.3 26.5 C 54.9 26.6 55.2 26.6 55.8 26.7 C 56.3 26.8 56.6 26.8 57.2 27.0 C 57.8 27.3 58.1 27.6 58.7 27.9 C 59.3 28.3 59.6 28.5 60.2 28.8 C 60.7 29.0 61.0 29.1 61.6 29.1 C 62.2 29.1 62.5 28.4 63.1 28.4 C 63.7 28.4 64.0 28.5 64.6 28.5 C 65.2 28.5 65.4 28.5 66.0 28.4 C 66.6 28.4 66.9 28.3 67.5 28.1 C 68.1 28.0 68.4 27.8 69.0 27.6 C 69.6 27.5 69.9 27.4 70.4 27.4 C 71.0 27.4 71.3 27.6 71.9 27.6 C 72.5 27.6 72.8 27.6 73.4 27.5 C 74.0 27.4 74.3 26.9 74.8 26.6 C 75.4 26.3 75.7 26.1 76.3 26.1 C 76.9 26.1 77.2 26.1 77.8 26.4 C 78.4 26.7 78.7 27.2 79.2 27.5 C 79.8 27.9 80.1 27.7 80.7 28.0 C 81.3 28.3 81.6 28.5 82.2 29.1 C 82.8 29.7 83.1 31.0 83.7 31.0 C 84.2 31.0 84.5 30.6 85.1 30.6 C 85.7 30.6 86.0 31.6 86.6 31.6 C 87.2 31.6 87.5 30.6 88.1 30.6 C 88.6 30.6 88.9 31.0 89.5 31.5 C 90.1 32.0 90.4 33.2 91.0 33.2 C 91.6 33.2 91.9 32.8 92.5 32.5 C 93.1 32.2 93.3 31.9 93.9 31.6 C 94.5 31.4 94.8 31.5 95.4 31.3 C 96.0 31.2 96.3 30.8 96.9 30.8 C 97.5 30.8 97.8 30.8 98.3 31.0 C 98.9 31.2 99.2 31.6 99.8 31.9 C 100.4 32.1 100.7 32.0 101.3 32.2 C 101.9 32.3 102.2 32.5 102.7 32.6 C 103.3 32.8 103.6 32.8 104.2 32.8 C 104.8 32.8 105.1 32.8 105.7 32.7 C 106.3 32.7 106.6 31.6 107.1 31.6 C 107.7 31.6 108.0 31.8 108.6 31.9 C 109.2 32.0 109.5 32.1 110.1 32.2 C 110.7 32.3 111.0 32.3 111.6 32.3 C 112.1 32.3 112.4 31.9 113.0 31.7 C 113.6 31.5 113.9 31.6 114.5 31.4 C 115.1 31.2 115.4 31.1 116.0 30.8 C 116.5 30.5 116.8 29.9 117.4 29.9 C 118.0 29.9 118.3 29.9 118.9 30.2 C 119.5 30.4 119.8 30.8 120.4 31.0 C 121.0 31.3 121.2 31.4 121.8 31.4 C 122.4 31.4 122.7 31.1 123.3 30.7 C 123.9 30.4 124.2 30.2 124.8 29.9 C 125.4 29.6 125.7 29.5 126.2 29.3 C 126.8 29.1 127.1 28.9 127.7 28.9 C 128.3 28.9 128.6 29.0 129.2 29.0 C 129.8 29.0 130.1 28.7 130.6 28.7 C 131.2 28.7 131.5 28.8 132.1 28.8 C 132.7 28.8 133.0 28.7 133.6 28.7 C 134.2 28.6 134.5 28.6 135.1 28.6 C 135.6 28.6 135.9 29.2 136.5 29.2 C 137.1 29.2 137.4 29.2 138.0 29.2 C 138.6 29.2 138.9 29.6 139.5 29.8 C 140.0 30.1 140.3 30.1 140.9 30.3 C 141.5 30.4 141.8 30.5 142.4 30.7 C 143.0 30.8 143.3 30.9 143.9 31.1 C 144.4 31.3 144.7 31.7 145.3 31.7 C 145.9 31.7 146.2 31.3 146.8 31.3 C 147.4 31.3 147.7 31.3 148.3 31.3 C 148.9 31.3 149.1 30.9 149.7 30.9 C 150.3 30.9 150.6 31.1 151.2 31.2 C 151.8 31.3 152.1 31.4 152.7 31.4 C 153.3 31.4 153.6 30.7 154.1 30.7 C 154.7 30.7 155.0 30.9 155.6 31.0 C 156.2 31.1 156.5 31.1 157.1 31.4 C 157.7 31.6 158.0 31.9 158.5 32.1 C 159.1 32.3 159.4 32.3 160.0 32.3 C 160.6 32.3 160.9 32.3 161.5 32.3 C 162.1 32.3 162.4 32.7 163.0 32.7 C 163.5 32.7 163.8 32.7 164.4 32.6 C 165.0 32.5 165.3 32.5 165.9 32.2 C 166.5 31.9 166.8 31.5 167.4 31.1 C 167.9 30.7 168.2 30.5 168.8 30.4 C 169.4 30.3 169.7 30.4 170.3 30.3 C 170.9 30.2 171.2 30.0 171.8 29.8 C 172.4 29.6 172.6 29.3 173.2 29.3 C 173.8 29.3 174.1 29.9 174.7 30.4 C 175.3 30.9 175.6 31.8 176.2 31.8 C 176.8 31.8 177.1 31.8 177.6 31.8 C 178.2 31.8 178.5 32.1 179.1 32.1 C 179.7 32.1 180.0 30.7 180.6 30.7 C 181.2 30.7 181.5 31.0 182.0 31.0 C 182.6 31.0 182.9 30.4 183.5 30.4 C 184.1 30.4 184.4 30.6 185.0 30.8 C 185.6 31.0 185.9 31.4 186.4 31.4 C 187.0 31.4 187.3 31.4 187.9 31.1 C 188.5 30.9 188.8 29.9 189.4 29.9 C 190.0 29.8 190.3 29.8 190.9 29.8 C 191.4 29.8 191.7 29.8 192.3 30.0 C 192.9 30.1 193.2 30.6 193.8 30.6 C 194.4 30.6 194.7 30.2 195.3 30.2 C 195.8 30.2 196.1 30.4 196.7 30.8 C 197.3 31.1 197.6 32.1 198.2 32.1 C 198.8 32.1 199.1 31.8 199.7 31.6 C 200.3 31.4 200.5 31.3 201.1 31.2 C 201.7 31.1 202.0 31.2 202.6 31.1 C 203.2 31.1 203.5 31.1 204.1 31.0 C 204.7 30.9 205.0 31.0 205.5 30.9 C 206.1 30.8 206.4 29.8 207.0 29.5 C 207.6 29.1 207.9 29.3 208.5 29.1 C 209.1 28.9 209.4 28.8 209.9 28.5 C 210.5 28.2 210.8 27.9 211.4 27.7 C 212.0 27.4 212.3 27.5 212.9 27.3 C 213.5 27.1 213.8 26.9 214.3 26.7 C 214.9 26.6 215.2 26.7 215.8 26.6 C 216.4 26.4 216.7 26.1 217.3 25.9 C 217.9 25.7 218.2 25.5 218.8 25.5 C 219.3 25.5 219.6 25.5 220.2 25.5 C 220.8 25.5 221.1 24.8 221.7 24.8 C 222.3 24.8 222.6 25.3 223.2 25.3 C 223.7 25.3 224.0 25.0 224.6 25.0 C 225.2 25.0 225.5 25.3 226.1 25.6 C 226.7 25.9 227.0 26.5 227.6 26.5 C 228.2 26.5 228.4 26.1 229.0 25.9 C 229.6 25.6 229.9 25.3 230.5 25.3 C 231.1 25.3 231.4 25.4 232.0 25.6 C 232.6 25.8 232.9 26.2 233.4 26.5 C 234.0 26.8 234.3 27.0 234.9 27.2 C 235.5 27.5 235.8 27.6 236.4 27.8 C 237.0 27.9 237.3 27.9 237.8 28.0 C 238.4 28.0 238.7 28.0 239.3 28.0 C 239.9 28.0 240.2 28.0 240.8 27.8 C 241.4 27.5 241.7 26.8 242.3 26.8 C 242.8 26.8 243.1 27.1 243.7 27.1 C 244.3 27.1 244.6 26.7 245.2 26.7 C 245.8 26.7 246.1 27.7 246.7 27.7 C 247.2 27.7 247.5 27.1 248.1 27.1 C 248.7 27.1 249.0 27.9 249.6 27.9 C 250.2 27.9 250.5 27.8 251.1 27.6 C 251.6 27.5 251.9 27.1 252.5 26.9 C 253.1 26.7 253.4 26.8 254.0 26.7 C 254.6 26.7 254.9 26.7 255.5 26.6 C 256.1 26.6 256.3 26.6 256.9 26.6 C 257.5 26.6 257.8 26.5 258.4 26.5 C 259.0 26.4 259.3 26.4 259.9 26.4 C 260.5 26.3 260.8 26.1 261.3 26.1 C 261.9 26.1 262.2 26.7 262.8 26.9 C 263.4 27.2 263.7 27.2 264.3 27.4 C 264.9 27.6 265.2 27.9 265.7 27.9 C 266.3 27.9 266.6 27.8 267.2 27.8 C 267.8 27.8 268.1 29.0 268.7 29.0 C 269.3 29.0 269.6 28.0 270.2 27.9 C 270.7 27.9 271.0 27.9 271.6 27.9 C 272.2 27.9 272.5 29.8 273.1 29.9 C 273.7 29.9 274.0 29.9 274.6 29.9 C 275.1 29.9 275.4 29.9 276.0 29.9 C 276.6 29.9 276.9 30.4 277.5 30.4 C 278.1 30.4 278.4 30.0 279.0 29.9 C 279.6 29.7 279.8 29.5 280.4 29.5 C 281.0 29.5 281.3 30.1 281.9 30.1 C 282.5 30.1 282.8 29.9 283.4 29.9 C 284.0 29.9 284.3 30.3 284.8 30.3 C 285.4 30.3 285.7 30.0 286.3 29.8 C 286.9 29.6 287.2 29.5 287.8 29.4 C 288.4 29.3 288.7 29.2 289.2 29.2 C 289.8 29.2 290.1 29.5 290.7 29.5 C 291.3 29.5 291.6 29.0 292.2 29.0 C 292.8 29.0 293.1 29.1 293.6 29.2 C 294.2 29.3 294.5 29.3 295.1 29.3 C 295.7 29.3 296.0 28.9 296.6 28.9 C 297.2 28.9 297.5 29.0 298.1 29.0 C 298.6 29.0 298.9 28.9 299.5 28.8 C 300.1 28.8 300.4 28.8 301.0 28.7 C 301.6 28.6 301.9 28.6 302.5 28.4 C 303.0 28.2 303.3 27.9 303.9 27.9 C 304.5 27.9 304.8 28.1 305.4 28.1 C 306.0 28.1 306.3 26.6 306.9 25.9 C 307.5 25.2 307.7 24.5 308.3 24.4 C 308.9 24.4 309.2 24.4 309.8 24.4 C 310.4 24.3 310.7 23.9 311.3 23.6 C 311.9 23.4 312.2 23.2 312.7 23.0 C 313.3 22.8 313.6 22.7 314.2 22.6 C 314.8 22.5 315.1 22.4 315.7 22.4 C 316.3 22.4 316.6 22.5 317.1 22.7 C 317.7 22.9 318.0 23.2 318.6 23.3 C 319.2 23.3 319.5 23.3 320.1 23.3 C 320.7 23.4 321.0 23.4 321.5 23.4 C 322.1 23.4 322.4 22.7 323.0 22.6 C 323.6 22.6 323.9 22.6 324.5 22.6 C 325.1 22.6 325.4 25.6 326.0 25.6 C 326.5 25.6 326.8 25.6 327.4 25.6 C 328.0 25.6 328.3 25.2 328.9 25.2 C 329.5 25.2 329.8 25.2 330.4 25.2 C 330.9 25.1 331.2 25.2 331.8 25.0 C 332.4 24.9 332.7 24.0 333.3 24.0 C 333.9 24.0 334.2 25.9 334.8 25.9 C 335.4 25.9 335.6 25.2 336.2 24.9 C 336.8 24.6 337.1 24.3 337.7 24.3 C 338.3 24.3 338.6 24.7 339.2 24.7 C 339.8 24.7 340.1 23.8 340.6 23.8 C 341.2 23.8 341.5 24.0 342.1 24.0 C 342.7 24.0 343.0 22.9 343.6 22.9 C 344.2 22.9 344.5 23.0 345.0 23.0 C 345.6 23.0 345.9 22.6 346.5 22.1 C 347.1 21.6 347.4 21.0 348.0 20.6 C 348.6 20.2 348.9 20.0 349.5 20.0 C 350.0 20.0 350.3 20.6 350.9 20.6 C 351.5 20.6 351.8 20.4 352.4 20.1 C 353.0 19.9 353.3 19.5 353.9 19.5 C 354.4 19.5 354.7 19.8 355.3 20.2 C 355.9 20.5 356.2 21.1 356.8 21.1 C 357.4 21.1 357.7 20.7 358.3 20.7 C 358.8 20.6 359.1 20.6 359.7 20.6 C 360.3 20.6 360.6 21.7 361.2 21.7 C 361.8 21.7 362.1 21.6 362.7 21.5 C 363.3 21.5 363.5 21.5 364.1 21.5 C 364.7 21.4 365.0 21.0 365.6 21.0 C 366.2 21.0 366.5 21.4 367.1 21.4 C 367.7 21.4 368.0 20.7 368.5 20.5 C 369.1 20.2 369.4 20.2 370.0 20.2 C 370.6 20.1 370.9 20.1 371.5 20.1 C 372.1 20.0 372.4 19.8 372.9 19.8 C 373.5 19.8 373.8 19.9 374.4 19.9 C 375.0 19.9 375.3 18.9 375.9 18.5 C 376.5 18.1 376.8 18.2 377.4 18.0 C 377.9 17.7 378.2 17.2 378.8 17.2 C 379.4 17.2 379.7 18.3 380.3 18.3 C 380.9 18.3 381.2 18.2 381.8 18.2 C 382.3 18.1 382.6 18.2 383.2 18.1 C 383.8 18.1 384.1 17.7 384.7 17.7 C 385.3 17.7 385.6 18.5 386.2 18.5 C 386.8 18.5 387.0 18.0 387.6 18.0 C 388.2 18.0 388.5 18.0 389.1 18.0 C 389.7 18.0 390.0 17.8 390.6 17.7 C 391.2 17.5 391.5 17.4 392.0 17.3 C 392.6 17.1 392.9 17.2 393.5 17.1 C 394.1 16.9 394.4 16.7 395.0 16.5 C 395.6 16.4 395.9 16.2 396.4 16.2 C 397.0 16.2 397.3 16.3 397.9 16.3 C 398.5 16.3 398.8 16.3 399.4 16.3 C 400.0 16.3 400.3 15.3 400.8 14.7 C 401.4 14.2 401.7 13.7 402.3 13.7 C 402.9 13.7 403.2 14.5 403.8 14.8 C 404.4 15.1 404.7 15.2 405.3 15.2 C 405.8 15.2 406.1 14.7 406.7 14.4 C 407.3 14.0 407.6 13.3 408.2 13.3 C 408.8 13.3 409.1 13.4 409.7 13.4 C 410.2 13.4 410.5 13.4 411.1 13.2 C 411.7 12.9 412.0 11.8 412.6 11.8 C 413.2 11.8 413.5 11.8 414.1 11.8 C 414.7 11.8 414.9 11.8 415.5 11.9 C 416.1 12.0 416.4 12.2 417.0 12.4 C 417.6 12.6 417.9 12.4 418.5 12.8 C 419.1 13.2 419.4 14.9 419.9 14.9 C 420.5 14.9 420.8 14.1 421.4 13.5 C 422.0 13.0 422.3 12.7 422.9 12.1 C 423.5 11.6 423.8 11.1 424.3 10.6 C 424.9 10.1 425.2 9.6 425.8 9.6 C 426.4 9.6 426.7 9.8 427.3 10.1 C 427.9 10.4 428.2 11.0 428.7 11.0 C 429.3 11.0 429.6 10.2 430.2 10.2 C 430.8 10.2 431.1 11.0 431.7 11.4 C 432.3 11.7 432.6 12.0 433.2 12.0 C 433.7 12.0 434.0 10.6 434.6 10.6 C 435.2 10.6 435.5 11.4 436.1 11.7 C 436.7 11.9 437.0 11.8 437.6 12.0 C 438.1 12.1 438.4 12.4 439.0 12.4 C 439.6 12.4 439.9 11.9 440.5 11.9 C 441.1 11.9 441.4 14.9 442.0 15.6 C 442.6 16.3 442.8 16.3 443.4 16.3 C 444.0 16.3 444.3 15.7 444.9 15.4 C 445.5 15.1 445.8 14.9 446.4 14.7 C 447.0 14.5 447.3 14.3 447.8 14.3 C 448.4 14.3 448.7 14.7 449.3 15.1 C 449.9 15.5 450.2 16.3 450.8 16.3 C 451.4 16.3 451.7 16.0 452.2 16.0 C 452.8 16.0 453.1 16.0 453.7 16.3 C 454.3 16.6 454.6 17.4 455.2 17.4 C 455.8 17.4 456.1 16.8 456.7 16.6 C 457.2 16.4 457.5 16.6 458.1 16.3 C 458.7 16.0 459.0 15.6 459.6 14.4 C 460.2 13.1 460.5 10.0 461.1 10.0 C 461.6 10.0 461.9 11.3 462.5 11.3 C 463.1 11.3 463.4 10.8 464.0 10.8 C 464.6 10.8 464.9 11.0 465.5 11.1 C 466.0 11.3 466.3 11.3 466.9 11.5 C 467.5 11.6 467.8 11.7 468.4 11.9 C 469.0 12.1 469.3 12.4 469.9 12.4 C 470.5 12.5 470.7 12.4 471.3 12.5 C 471.9 12.6 472.2 12.5 472.8 12.8 C 473.4 13.0 473.7 14.0 474.3 14.0 C 474.9 14.0 475.2 14.0 475.7 14.0 C 476.3 13.9 476.6 12.8 477.2 12.5 C 477.8 12.2 478.1 12.2 478.7 12.2 C 479.3 12.2 479.6 12.4 480.1 12.4 C 480.7 12.4 481.0 11.5 481.6 11.5 C 482.2 11.5 482.5 11.5 483.1 11.7 C 483.7 11.9 484.0 11.7 484.6 12.5 C 485.1 13.3 485.4 15.7 486.0 15.7 C 486.6 15.7 486.9 15.5 487.5 15.3 C 488.1 15.1 488.4 15.0 489.0 14.9 C 489.5 14.7 489.8 14.6 490.4 14.5 C 491.0 14.4 491.3 14.5 491.9 14.4 C 492.5 14.3 492.8 14.4 493.4 14.1 C 494.0 13.9 494.2 11.7 494.8 11.6 C 495.4 11.6 495.7 11.6 496.3 11.6 C 496.9 11.5 497.2 11.2 497.8 10.0 C 498.4 8.8 498.7 6.1 499.2 5.6 C 499.8 5.0 500.1 5.0 500.7 5.0 C 501.3 5.0 501.6 5.6 502.2 5.6 C 502.8 5.6 503.1 5.5 503.6 5.4 C 504.2 5.3 504.5 5.4 505.1 5.2 C 505.7 4.9 506.0 4.5 506.6 4.3 C 507.2 4.1 507.5 4.2 508.0 4.1 C 508.6 4.0 508.9 4.1 509.5 4.0 C 510.1 4.0 510.4 4.0 511.0 3.9 C 511.6 3.7 511.9 3.3 512.5 3.3 C 513.0 3.3 513.3 4.8 513.9 5.5 C 514.5 6.2 514.8 6.4 515.4 6.9 C 516.0 7.4 516.3 7.9 516.9 7.9 C 517.4 7.9 517.7 6.6 518.3 6.6 C 518.9 6.6 519.2 6.6 519.8 6.6 C 520.4 6.7 520.7 9.1 521.3 9.1 C 521.9 9.1 522.1 7.1 522.7 7.1 C 523.3 7.1 523.6 7.3 524.2 7.3 C 524.8 7.3 525.1 6.9 525.7 6.9 C 526.3 6.9 526.6 6.9 527.1 6.9 C 527.7 6.9 528.0 5.5 528.6 5.3 C 529.2 5.2 529.5 5.3 530.1 5.2 C 530.7 5.0 531.0 4.4 531.5 4.4 C 532.1 4.4 532.4 4.5 533.0 4.5 C 533.6 4.5 533.9 4.4 534.5 4.2 C 535.1 4.0 536 3.3 536 3.3 L 536 40 C 536 40 535.1 40 534.5 40 C 533.9 40 533.6 40 533.0 40 C 532.4 40 532.1 40 531.5 40 C 531.0 40 530.7 40 530.1 40 C 529.5 40 529.2 40 528.6 40 C 528.0 40 527.7 40 527.1 40 C 526.6 40 526.3 40 525.7 40 C 525.1 40 524.8 40 524.2 40 C 523.6 40 523.3 40 522.7 40 C 522.1 40 521.9 40 521.3 40 C 520.7 40 520.4 40 519.8 40 C 519.2 40 518.9 40 518.3 40 C 517.7 40 517.4 40 516.9 40 C 516.3 40 516.0 40 515.4 40 C 514.8 40 514.5 40 513.9 40 C 513.3 40 513.0 40 512.5 40 C 511.9 40 511.6 40 511.0 40 C 510.4 40 510.1 40 509.5 40 C 508.9 40 508.6 40 508.0 40 C 507.5 40 507.2 40 506.6 40 C 506.0 40 505.7 40 505.1 40 C 504.5 40 504.2 40 503.6 40 C 503.1 40 502.8 40 502.2 40 C 501.6 40 501.3 40 500.7 40 C 500.1 40 499.8 40 499.2 40 C 498.7 40 498.4 40 497.8 40 C 497.2 40 496.9 40 496.3 40 C 495.7 40 495.4 40 494.8 40 C 494.2 40 494.0 40 493.4 40 C 492.8 40 492.5 40 491.9 40 C 491.3 40 491.0 40 490.4 40 C 489.8 40 489.5 40 489.0 40 C 488.4 40 488.1 40 487.5 40 C 486.9 40 486.6 40 486.0 40 C 485.4 40 485.1 40 484.6 40 C 484.0 40 483.7 40 483.1 40 C 482.5 40 482.2 40 481.6 40 C 481.0 40 480.7 40 480.1 40 C 479.6 40 479.3 40 478.7 40 C 478.1 40 477.8 40 477.2 40 C 476.6 40 476.3 40 475.7 40 C 475.2 40 474.9 40 474.3 40 C 473.7 40 473.4 40 472.8 40 C 472.2 40 471.9 40 471.3 40 C 470.7 40 470.5 40 469.9 40 C 469.3 40 469.0 40 468.4 40 C 467.8 40 467.5 40 466.9 40 C 466.3 40 466.0 40 465.5 40 C 464.9 40 464.6 40 464.0 40 C 463.4 40 463.1 40 462.5 40 C 461.9 40 461.6 40 461.1 40 C 460.5 40 460.2 40 459.6 40 C 459.0 40 458.7 40 458.1 40 C 457.5 40 457.2 40 456.7 40 C 456.1 40 455.8 40 455.2 40 C 454.6 40 454.3 40 453.7 40 C 453.1 40 452.8 40 452.2 40 C 451.7 40 451.4 40 450.8 40 C 450.2 40 449.9 40 449.3 40 C 448.7 40 448.4 40 447.8 40 C 447.3 40 447.0 40 446.4 40 C 445.8 40 445.5 40 444.9 40 C 444.3 40 444.0 40 443.4 40 C 442.8 40 442.6 40 442.0 40 C 441.4 40 441.1 40 440.5 40 C 439.9 40 439.6 40 439.0 40 C 438.4 40 438.1 40 437.6 40 C 437.0 40 436.7 40 436.1 40 C 435.5 40 435.2 40 434.6 40 C 434.0 40 433.7 40 433.2 40 C 432.6 40 432.3 40 431.7 40 C 431.1 40 430.8 40 430.2 40 C 429.6 40 429.3 40 428.7 40 C 428.2 40 427.9 40 427.3 40 C 426.7 40 426.4 40 425.8 40 C 425.2 40 424.9 40 424.3 40 C 423.8 40 423.5 40 422.9 40 C 422.3 40 422.0 40 421.4 40 C 420.8 40 420.5 40 419.9 40 C 419.4 40 419.1 40 418.5 40 C 417.9 40 417.6 40 417.0 40 C 416.4 40 416.1 40 415.5 40 C 414.9 40 414.7 40 414.1 40 C 413.5 40 413.2 40 412.6 40 C 412.0 40 411.7 40 411.1 40 C 410.5 40 410.2 40 409.7 40 C 409.1 40 408.8 40 408.2 40 C 407.6 40 407.3 40 406.7 40 C 406.1 40 405.8 40 405.3 40 C 404.7 40 404.4 40 403.8 40 C 403.2 40 402.9 40 402.3 40 C 401.7 40 401.4 40 400.8 40 C 400.3 40 400.0 40 399.4 40 C 398.8 40 398.5 40 397.9 40 C 397.3 40 397.0 40 396.4 40 C 395.9 40 395.6 40 395.0 40 C 394.4 40 394.1 40 393.5 40 C 392.9 40 392.6 40 392.0 40 C 391.5 40 391.2 40 390.6 40 C 390.0 40 389.7 40 389.1 40 C 388.5 40 388.2 40 387.6 40 C 387.0 40 386.8 40 386.2 40 C 385.6 40 385.3 40 384.7 40 C 384.1 40 383.8 40 383.2 40 C 382.6 40 382.3 40 381.8 40 C 381.2 40 380.9 40 380.3 40 C 379.7 40 379.4 40 378.8 40 C 378.2 40 377.9 40 377.4 40 C 376.8 40 376.5 40 375.9 40 C 375.3 40 375.0 40 374.4 40 C 373.8 40 373.5 40 372.9 40 C 372.4 40 372.1 40 371.5 40 C 370.9 40 370.6 40 370.0 40 C 369.4 40 369.1 40 368.5 40 C 368.0 40 367.7 40 367.1 40 C 366.5 40 366.2 40 365.6 40 C 365.0 40 364.7 40 364.1 40 C 363.5 40 363.3 40 362.7 40 C 362.1 40 361.8 40 361.2 40 C 360.6 40 360.3 40 359.7 40 C 359.1 40 358.8 40 358.3 40 C 357.7 40 357.4 40 356.8 40 C 356.2 40 355.9 40 355.3 40 C 354.7 40 354.4 40 353.9 40 C 353.3 40 353.0 40 352.4 40 C 351.8 40 351.5 40 350.9 40 C 350.3 40 350.0 40 349.5 40 C 348.9 40 348.6 40 348.0 40 C 347.4 40 347.1 40 346.5 40 C 345.9 40 345.6 40 345.0 40 C 344.5 40 344.2 40 343.6 40 C 343.0 40 342.7 40 342.1 40 C 341.5 40 341.2 40 340.6 40 C 340.1 40 339.8 40 339.2 40 C 338.6 40 338.3 40 337.7 40 C 337.1 40 336.8 40 336.2 40 C 335.6 40 335.4 40 334.8 40 C 334.2 40 333.9 40 333.3 40 C 332.7 40 332.4 40 331.8 40 C 331.2 40 330.9 40 330.4 40 C 329.8 40 329.5 40 328.9 40 C 328.3 40 328.0 40 327.4 40 C 326.8 40 326.5 40 326.0 40 C 325.4 40 325.1 40 324.5 40 C 323.9 40 323.6 40 323.0 40 C 322.4 40 322.1 40 321.5 40 C 321.0 40 320.7 40 320.1 40 C 319.5 40 319.2 40 318.6 40 C 318.0 40 317.7 40 317.1 40 C 316.6 40 316.3 40 315.7 40 C 315.1 40 314.8 40 314.2 40 C 313.6 40 313.3 40 312.7 40 C 312.2 40 311.9 40 311.3 40 C 310.7 40 310.4 40 309.8 40 C 309.2 40 308.9 40 308.3 40 C 307.7 40 307.5 40 306.9 40 C 306.3 40 306.0 40 305.4 40 C 304.8 40 304.5 40 303.9 40 C 303.3 40 303.0 40 302.5 40 C 301.9 40 301.6 40 301.0 40 C 300.4 40 300.1 40 299.5 40 C 298.9 40 298.6 40 298.1 40 C 297.5 40 297.2 40 296.6 40 C 296.0 40 295.7 40 295.1 40 C 294.5 40 294.2 40 293.6 40 C 293.1 40 292.8 40 292.2 40 C 291.6 40 291.3 40 290.7 40 C 290.1 40 289.8 40 289.2 40 C 288.7 40 288.4 40 287.8 40 C 287.2 40 286.9 40 286.3 40 C 285.7 40 285.4 40 284.8 40 C 284.3 40 284.0 40 283.4 40 C 282.8 40 282.5 40 281.9 40 C 281.3 40 281.0 40 280.4 40 C 279.8 40 279.6 40 279.0 40 C 278.4 40 278.1 40 277.5 40 C 276.9 40 276.6 40 276.0 40 C 275.4 40 275.1 40 274.6 40 C 274.0 40 273.7 40 273.1 40 C 272.5 40 272.2 40 271.6 40 C 271.0 40 270.7 40 270.2 40 C 269.6 40 269.3 40 268.7 40 C 268.1 40 267.8 40 267.2 40 C 266.6 40 266.3 40 265.7 40 C 265.2 40 264.9 40 264.3 40 C 263.7 40 263.4 40 262.8 40 C 262.2 40 261.9 40 261.3 40 C 260.8 40 260.5 40 259.9 40 C 259.3 40 259.0 40 258.4 40 C 257.8 40 257.5 40 256.9 40 C 256.3 40 256.1 40 255.5 40 C 254.9 40 254.6 40 254.0 40 C 253.4 40 253.1 40 252.5 40 C 251.9 40 251.6 40 251.1 40 C 250.5 40 250.2 40 249.6 40 C 249.0 40 248.7 40 248.1 40 C 247.5 40 247.2 40 246.7 40 C 246.1 40 245.8 40 245.2 40 C 244.6 40 244.3 40 243.7 40 C 243.1 40 242.8 40 242.3 40 C 241.7 40 241.4 40 240.8 40 C 240.2 40 239.9 40 239.3 40 C 238.7 40 238.4 40 237.8 40 C 237.3 40 237.0 40 236.4 40 C 235.8 40 235.5 40 234.9 40 C 234.3 40 234.0 40 233.4 40 C 232.9 40 232.6 40 232.0 40 C 231.4 40 231.1 40 230.5 40 C 229.9 40 229.6 40 229.0 40 C 228.4 40 228.2 40 227.6 40 C 227.0 40 226.7 40 226.1 40 C 225.5 40 225.2 40 224.6 40 C 224.0 40 223.7 40 223.2 40 C 222.6 40 222.3 40 221.7 40 C 221.1 40 220.8 40 220.2 40 C 219.6 40 219.3 40 218.8 40 C 218.2 40 217.9 40 217.3 40 C 216.7 40 216.4 40 215.8 40 C 215.2 40 214.9 40 214.3 40 C 213.8 40 213.5 40 212.9 40 C 212.3 40 212.0 40 211.4 40 C 210.8 40 210.5 40 209.9 40 C 209.4 40 209.1 40 208.5 40 C 207.9 40 207.6 40 207.0 40 C 206.4 40 206.1 40 205.5 40 C 205.0 40 204.7 40 204.1 40 C 203.5 40 203.2 40 202.6 40 C 202.0 40 201.7 40 201.1 40 C 200.5 40 200.3 40 199.7 40 C 199.1 40 198.8 40 198.2 40 C 197.6 40 197.3 40 196.7 40 C 196.1 40 195.8 40 195.3 40 C 194.7 40 194.4 40 193.8 40 C 193.2 40 192.9 40 192.3 40 C 191.7 40 191.4 40 190.9 40 C 190.3 40 190.0 40 189.4 40 C 188.8 40 188.5 40 187.9 40 C 187.3 40 187.0 40 186.4 40 C 185.9 40 185.6 40 185.0 40 C 184.4 40 184.1 40 183.5 40 C 182.9 40 182.6 40 182.0 40 C 181.5 40 181.2 40 180.6 40 C 180.0 40 179.7 40 179.1 40 C 178.5 40 178.2 40 177.6 40 C 177.1 40 176.8 40 176.2 40 C 175.6 40 175.3 40 174.7 40 C 174.1 40 173.8 40 173.2 40 C 172.6 40 172.4 40 171.8 40 C 171.2 40 170.9 40 170.3 40 C 169.7 40 169.4 40 168.8 40 C 168.2 40 167.9 40 167.4 40 C 166.8 40 166.5 40 165.9 40 C 165.3 40 165.0 40 164.4 40 C 163.8 40 163.5 40 163.0 40 C 162.4 40 162.1 40 161.5 40 C 160.9 40 160.6 40 160.0 40 C 159.4 40 159.1 40 158.5 40 C 158.0 40 157.7 40 157.1 40 C 156.5 40 156.2 40 155.6 40 C 155.0 40 154.7 40 154.1 40 C 153.6 40 153.3 40 152.7 40 C 152.1 40 151.8 40 151.2 40 C 150.6 40 150.3 40 149.7 40 C 149.1 40 148.9 40 148.3 40 C 147.7 40 147.4 40 146.8 40 C 146.2 40 145.9 40 145.3 40 C 144.7 40 144.4 40 143.9 40 C 143.3 40 143.0 40 142.4 40 C 141.8 40 141.5 40 140.9 40 C 140.3 40 140.0 40 139.5 40 C 138.9 40 138.6 40 138.0 40 C 137.4 40 137.1 40 136.5 40 C 135.9 40 135.6 40 135.1 40 C 134.5 40 134.2 40 133.6 40 C 133.0 40 132.7 40 132.1 40 C 131.5 40 131.2 40 130.6 40 C 130.1 40 129.8 40 129.2 40 C 128.6 40 128.3 40 127.7 40 C 127.1 40 126.8 40 126.2 40 C 125.7 40 125.4 40 124.8 40 C 124.2 40 123.9 40 123.3 40 C 122.7 40 122.4 40 121.8 40 C 121.2 40 121.0 40 120.4 40 C 119.8 40 119.5 40 118.9 40 C 118.3 40 118.0 40 117.4 40 C 116.8 40 116.5 40 116.0 40 C 115.4 40 115.1 40 114.5 40 C 113.9 40 113.6 40 113.0 40 C 112.4 40 112.1 40 111.6 40 C 111.0 40 110.7 40 110.1 40 C 109.5 40 109.2 40 108.6 40 C 108.0 40 107.7 40 107.1 40 C 106.6 40 106.3 40 105.7 40 C 105.1 40 104.8 40 104.2 40 C 103.6 40 103.3 40 102.7 40 C 102.2 40 101.9 40 101.3 40 C 100.7 40 100.4 40 99.8 40 C 99.2 40 98.9 40 98.3 40 C 97.8 40 97.5 40 96.9 40 C 96.3 40 96.0 40 95.4 40 C 94.8 40 94.5 40 93.9 40 C 93.3 40 93.1 40 92.5 40 C 91.9 40 91.6 40 91.0 40 C 90.4 40 90.1 40 89.5 40 C 88.9 40 88.6 40 88.1 40 C 87.5 40 87.2 40 86.6 40 C 86.0 40 85.7 40 85.1 40 C 84.5 40 84.2 40 83.7 40 C 83.1 40 82.8 40 82.2 40 C 81.6 40 81.3 40 80.7 40 C 80.1 40 79.8 40 79.2 40 C 78.7 40 78.4 40 77.8 40 C 77.2 40 76.9 40 76.3 40 C 75.7 40 75.4 40 74.8 40 C 74.3 40 74.0 40 73.4 40 C 72.8 40 72.5 40 71.9 40 C 71.3 40 71.0 40 70.4 40 C 69.9 40 69.6 40 69.0 40 C 68.4 40 68.1 40 67.5 40 C 66.9 40 66.6 40 66.0 40 C 65.4 40 65.2 40 64.6 40 C 64.0 40 63.7 40 63.1 40 C 62.5 40 62.2 40 61.6 40 C 61.0 40 60.7 40 60.2 40 C 59.6 40 59.3 40 58.7 40 C 58.1 40 57.8 40 57.2 40 C 56.6 40 56.3 40 55.8 40 C 55.2 40 54.9 40 54.3 40 C 53.7 40 53.4 40 52.8 40 C 52.2 40 51.9 40 51.3 40 C 50.8 40 50.5 40 49.9 40 C 49.3 40 49.0 40 48.4 40 C 47.8 40 47.5 40 46.9 40 C 46.4 40 46.1 40 45.5 40 C 44.9 40 44.6 40 44.0 40 C 43.4 40 43.1 40 42.5 40 C 41.9 40 41.7 40 41.1 40 C 40.5 40 40.2 40 39.6 40 C 39.0 40 38.7 40 38.1 40 C 37.5 40 37.2 40 36.7 40 C 36.1 40 35.8 40 35.2 40 C 34.6 40 34.3 40 33.7 40 C 33.1 40 32.8 40 32.3 40 C 31.7 40 31.4 40 30.8 40 C 30.2 40 29.9 40 29.3 40 C 28.7 40 28.4 40 27.9 40 C 27.3 40 27.0 40 26.4 40 C 25.8 40 25.5 40 24.9 40 C 24.3 40 24.0 40 23.4 40 C 22.9 40 22.6 40 22.0 40 C 21.4 40 21.1 40 20.5 40 C 19.9 40 19.6 40 19.0 40 C 18.5 40 18.2 40 17.6 40 C 17.0 40 16.7 40 16.1 40 C 15.5 40 15.2 40 14.6 40 C 14.0 40 13.8 40 13.2 40 C 12.6 40 12.3 40 11.7 40 C 11.1 40 10.8 40 10.2 40 C 9.6 40 9.3 40 8.8 40 C 8.2 40 7.9 40 7.3 40 C 6.7 40 6.4 40 5.8 40 C 5.2 40 4.9 40 4.4 40 C 3.8 40 3.5 40 2.9 40 C 2.3 40 2.0 40 1.4 40 C 0.8 40 0 40 0 40" fill-opacity="0.0">
			</path>
			<path fill="none" d="M 0 35.5 C 0 35.5 0.8 35.9 1.4 36.1 C 2.0 36.4 2.3 36.6 2.9 36.6 C 3.5 36.6 3.8 36.6 4.4 36.5 C 4.9 36.4 5.2 36.3 5.8 36.2 C 6.4 36.1 6.7 36.2 7.3 35.9 C 7.9 35.7 8.2 35.2 8.8 34.8 C 9.3 34.4 9.6 34.3 10.2 34.0 C 10.8 33.6 11.1 33.0 11.7 33.0 C 12.3 33.0 12.6 33.2 13.2 33.2 C 13.8 33.2 14.0 32.9 14.6 32.9 C 15.2 32.9 15.5 33.9 16.1 33.9 C 16.7 33.9 17.0 33.2 17.6 32.8 C 18.2 32.5 18.5 32.1 19.0 32.1 C 19.6 32.1 19.9 33.1 20.5 33.1 C 21.1 33.1 21.4 33.0 22.0 33.0 C 22.6 33.0 22.9 33.2 23.4 33.2 C 24.0 33.2 24.3 33.2 24.9 32.9 C 25.5 32.7 25.8 32.1 26.4 32.1 C 27.0 32.1 27.3 32.5 27.9 32.5 C 28.4 32.5 28.7 32.1 29.3 31.9 C 29.9 31.7 30.2 31.7 30.8 31.6 C 31.4 31.4 31.7 31.2 32.3 31.2 C 32.8 31.2 33.1 31.3 33.7 31.4 C 34.3 31.4 34.6 31.6 35.2 31.6 C 35.8 31.6 36.1 31.0 36.7 30.7 C 37.2 30.4 37.5 30.5 38.1 30.1 C 38.7 29.7 39.0 28.8 39.6 28.8 C 40.2 28.8 40.5 28.9 41.1 28.9 C 41.7 28.9 41.9 28.2 42.5 27.9 C 43.1 27.6 43.4 27.4 44.0 27.4 C 44.6 27.4 44.9 27.4 45.5 27.4 C 46.1 27.4 46.4 27.4 46.9 27.4 C 47.5 27.4 47.8 27.4 48.4 27.4 C 49.0 27.4 49.3 27.3 49.9 27.1 C 50.5 27.0 50.8 26.6 51.3 26.4 C 51.9 26.3 52.2 26.3 52.8 26.3 C 53.4 26.3 53.7 26.4 54.3 26.5 C 54.9 26.6 55.2 26.6 55.8 26.7 C 56.3 26.8 56.6 26.8 57.2 27.0 C 57.8 27.3 58.1 27.6 58.7 27.9 C 59.3 28.3 59.6 28.5 60.2 28.8 C 60.7 29.0 61.0 29.1 61.6 29.1 C 62.2 29.1 62.5 28.4 63.1 28.4 C 63.7 28.4 64.0 28.5 64.6 28.5 C 65.2 28.5 65.4 28.5 66.0 28.4 C 66.6 28.4 66.9 28.3 67.5 28.1 C 68.1 28.0 68.4 27.8 69.0 27.6 C 69.6 27.5 69.9 27.4 70.4 27.4 C 71.0 27.4 71.3 27.6 71.9 27.6 C 72.5 27.6 72.8 27.6 73.4 27.5 C 74.0 27.4 74.3 26.9 74.8 26.6 C 75.4 26.3 75.7 26.1 76.3 26.1 C 76.9 26.1 77.2 26.1 77.8 26.4 C 78.4 26.7 78.7 27.2 79.2 27.5 C 79.8 27.9 80.1 27.7 80.7 28.0 C 81.3 28.3 81.6 28.5 82.2 29.1 C 82.8 29.7 83.1 31.0 83.7 31.0 C 84.2 31.0 84.5 30.6 85.1 30.6 C 85.7 30.6 86.0 31.6 86.6 31.6 C 87.2 31.6 87.5 30.6 88.1 30.6 C 88.6 30.6 88.9 31.0 89.5 31.5 C 90.1 32.0 90.4 33.2 91.0 33.2 C 91.6 33.2 91.9 32.8 92.5 32.5 C 93.1 32.2 93.3 31.9 93.9 31.6 C 94.5 31.4 94.8 31.5 95.4 31.3 C 96.0 31.2 96.3 30.8 96.9 30.8 C 97.5 30.8 97.8 30.8 98.3 31.0 C 98.9 31.2 99.2 31.6 99.8 31.9 C 100.4 32.1 100.7 32.0 101.3 32.2 C 101.9 32.3 102.2 32.5 102.7 32.6 C 103.3 32.8 103.6 32.8 104.2 32.8 C 104.8 32.8 105.1 32.8 105.7 32.7 C 106.3 32.7 106.6 31.6 107.1 31.6 C 107.7 31.6 108.0 31.8 108.6 31.9 C 109.2 32.0 109.5 32.1 110.1 32.2 C 110.7 32.3 111.0 32.3 111.6 32.3 C 112.1 32.3 112.4 31.9 113.0 31.7 C 113.6 31.5 113.9 31.6 114.5 31.4 C 115.1 31.2 115.4 31.1 116.0 30.8 C 116.5 30.5 116.8 29.9 117.4 29.9 C 118.0 29.9 118.3 29.9 118.9 30.2 C 119.5 30.4 119.8 30.8 120.4 31.0 C 121.0 31.3 121.2 31.4 121.8 31.4 C 122.4 31.4 122.7 31.1 123.3 30.7 C 123.9 30.4 124.2 30.2 124.8 29.9 C 125.4 29.6 125.7 29.5 126.2 29.3 C 126.8 29.1 127.1 28.9 127.7 28.9 C 128.3 28.9 128.6 29.0 129.2 29.0 C 129.8 29.0 130.1 28.7 130.6 28.7 C 131.2 28.7 131.5 28.8 132.1 28.8 C 132.7 28.8 133.0 28.7 133.6 28.7 C 134.2 28.6 134.5 28.6 135.1 28.6 C 135.6 28.6 135.9 29.2 136.5 29.2 C 137.1 29.2 137.4 29.2 138.0 29.2 C 138.6 29.2 138.9 29.6 139.5 29.8 C 140.0 30.1 140.3 30.1 140.9 30.3 C 141.5 30.4 141.8 30.5 142.4 30.7 C 143.0 30.8 143.3 30.9 143.9 31.1 C 144.4 31.3 144.7 31.7 145.3 31.7 C 145.9 31.7 146.2 31.3 146.8 31.3 C 147.4 31.3 147.7 31.3 148.3 31.3 C 148.9 31.3 149.1 30.9 149.7 30.9 C 150.3 30.9 150.6 31.1 151.2 31.2 C 151.8 31.3 152.1 31.4 152.7 31.4 C 153.3 31.4 153.6 30.7 154.1 30.7 C 154.7 30.7 155.0 30.9 155.6 31.0 C 156.2 31.1 156.5 31.1 157.1 31.4 C 157.7 31.6 158.0 31.9 158.5 32.1 C 159.1 32.3 159.4 32.3 160.0 32.3 C 160.6 32.3 160.9 32.3 161.5 32.3 C 162.1 32.3 162.4 32.7 163.0 32.7 C 163.5 32.7 163.8 32.7 164.4 32.6 C 165.0 32.5 165.3 32.5 165.9 32.2 C 166.5 31.9 166.8 31.5 167.4 31.1 C 167.9 30.7 168.2 30.5 168.8 30.4 C 169.4 30.3 169.7 30.4 170.3 30.3 C 170.9 30.2 171.2 30.0 171.8 29.8 C 172.4 29.6 172.6 29.3 173.2 29.3 C 173.8 29.3 174.1 29.9 174.7 30.4 C 175.3 30.9 175.6 31.8 176.2 31.8 C 176.8 31.8 177.1 31.8 177.6 31.8 C 178.2 31.8 178.5 32.1 179.1 32.1 C 179.7 32.1 180.0 30.7 180.6 30.7 C 181.2 30.7 181.5 31.0 182.0 31.0 C 182.6 31.0 182.9 30.4 183.5 30.4 C 184.1 30.4 184.4 30.6 185.0 30.8 C 185.6 31.0 185.9 31.4 186.4 31.4 C 187.0 31.4 187.3 31.4 187.9 31.1 C 188.5 30.9 188.8 29.9 189.4 29.9 C 190.0 29.8 190.3 29.8 190.9 29.8 C 191.4 29.8 191.7 29.8 192.3 30.0 C 192.9 30.1 193.2 30.6 193.8 30.6 C 194.4 30.6 194.7 30.2 195.3 30.2 C 195.8 30.2 196.1 30.4 196.7 30.8 C 197.3 31.1 197.6 32.1 198.2 32.1 C 198.8 32.1 199.1 31.8 199.7 31.6 C 200.3 31.4 200.5 31.3 201.1 31.2 C 201.7 31.1 202.0 31.2 202.6 31.1 C 203.2 31.1 203.5 31.1 204.1 31.0 C 204.7 30.9 205.0 31.0 205.5 30.9 C 206.1 30.8 206.4 29.8 207.0 29.5 C 207.6 29.1 207.9 29.3 208.5 29.1 C 209.1 28.9 209.4 28.8 209.9 28.5 C 210.5 28.2 210.8 27.9 211.4 27.7 C 212.0 27.4 212.3 27.5 212.9 27.3 C 213.5 27.1 213.8 26.9 214.3 26.7 C 214.9 26.6 215.2 26.7 215.8 26.6 C 216.4 26.4 216.7 26.1 217.3 25.9 C 217.9 25.7 218.2 25.5 218.8 25.5 C 219.3 25.5 219.6 25.5 220.2 25.5 C 220.8 25.5 221.1 24.8 221.7 24.8 C 222.3 24.8 222.6 25.3 223.2 25.3 C 223.7 25.3 224.0 25.0 224.6 25.0 C 225.2 25.0 225.5 25.3 226.1 25.6 C 226.7 25.9 227.0 26.5 227.6 26.5 C 228.2 26.5 228.4 26.1 229.0 25.9 C 229.6 25.6 229.9 25.3 230.5 25.3 C 231.1 25.3 231.4 25.4 232.0 25.6 C 232.6 25.8 232.9 26.2 233.4 26.5 C 234.0 26.8 234.3 27.0 234.9 27.2 C 235.5 27.5 235.8 27.6 236.4 27.8 C 237.0 27.9 237.3 27.9 237.8 28.0 C 238.4 28.0 238.7 28.0 239.3 28.0 C 239.9 28.0 240.2 28.0 240.8 27.8 C 241.4 27.5 241.7 26.8 242.3 26.8 C 242.8 26.8 243.1 27.1 243.7 27.1 C 244.3 27.1 244.6 26.7 245.2 26.7 C 245.8 26.7 246.1 27.7 246.7 27.7 C 247.2 27.7 247.5 27.1 248.1 27.1 C 248.7 27.1 249.0 27.9 249.6 27.9 C 250.2 27.9 250.5 27.8 251.1 27.6 C 251.6 27.5 251.9 27.1 252.5 26.9 C 253.1 26.7 253.4 26.8 254.0 26.7 C 254.6 26.7 254.9 26.7 255.5 26.6 C 256.1 26.6 256.3 26.6 256.9 26.6 C 257.5 26.6 257.8 26.5 258.4 26.5 C 259.0 26.4 259.3 26.4 259.9 26.4 C 260.5 26.3 260.8 26.1 261.3 26.1 C 261.9 26.1 262.2 26.7 262.8 26.9 C 263.4 27.2 263.7 27.2 264.3 27.4 C 264.9 27.6 265.2 27.9 265.7 27.9 C 266.3 27.9 266.6 27.8 267.2 27.8 C 267.8 27.8 268.1 29.0 268.7 29.0 C 269.3 29.0 269.6 28.0 270.2 27.9 C 270.7 27.9 271.0 27.9 271.6 27.9 C 272.2 27.9 272.5 29.8 273.1 29.9 C 273.7 29.9 274.0 29.9 274.6 29.9 C 275.1 29.9 275.4 29.9 276.0 29.9 C 276.6 29.9 276.9 30.4 277.5 30.4 C 278.1 30.4 278.4 30.0 279.0 29.9 C 279.6 29.7 279.8 29.5 280.4 29.5 C 281.0 29.5 281.3 30.1 281.9 30.1 C 282.5 30.1 282.8 29.9 283.4 29.9 C 284.0 29.9 284.3 30.3 284.8 30.3 C 285.4 30.3 285.7 30.0 286.3 29.8 C 286.9 29.6 287.2 29.5 287.8 29.4 C 288.4 29.3 288.7 29.2 289.2 29.2 C 289.8 29.2 290.1 29.5 290.7 29.5 C 291.3 29.5 291.6 29.0 292.2 29.0 C 292.8 29.0 293.1 29.1 293.6 29.2 C 294.2 29.3 294.5 29.3 295.1 29.3 C 295.7 29.3 296.0 28.9 296.6 28.9 C 297.2 28.9 297.5 29.0 298.1 29.0 C 298.6 29.0 298.9 28.9 299.5 28.8 C 300.1 28.8 300.4 28.8 301.0 28.7 C 301.6 28.6 301.9 28.6 302.5 28.4 C 303.0 28.2 303.3 27.9 303.9 27.9 C 304.5 27.9 304.8 28.1 305.4 28.1 C 306.0 28.1 306.3 26.6 306.9 25.9 C 307.5 25.2 307.7 24.5 308.3 24.4 C 308.9 24.4 309.2 24.4 309.8 24.4 C 310.4 24.3 310.7 23.9 311.3 23.6 C 311.9 23.4 312.2 23.2 312.7 23.0 C 313.3 22.8 313.6 22.7 314.2 22.6 C 314.8 22.5 315.1 22.4 315.7 22.4 C 316.3 22.4 316.6 22.5 317.1 22.7 C 317.7 22.9 318.0 23.2 318.6 23.3 C 319.2 23.3 319.5 23.3 320.1 23.3 C 320.7 23.4 321.0 23.4 321.5 23.4 C 322.1 23.4 322.4 22.7 323.0 22.6 C 323.6 22.6 323.9 22.6 324.5 22.6 C 325.1 22.6 325.4 25.6 326.0 25.6 C 326.5 25.6 326.8 25.6 327.4 25.6 C 328.0 25.6 328.3 25.2 328.9 25.2 C 329.5 25.2 329.8 25.2 330.4 25.2 C 330.9 25.1 331.2 25.2 331.8 25.0 C 332.4 24.9 332.7 24.0 333.3 24.0 C 333.9 24.0 334.2 25.9 334.8 25.9 C 335.4 25.9 335.6 25.2 336.2 24.9 C 336.8 24.6 337.1 24.3 337.7 24.3 C 338.3 24.3 338.6 24.7 339.2 24.7 C 339.8 24.7 340.1 23.8 340.6 23.8 C 341.2 23.8 341.5 24.0 342.1 24.0 C 342.7 24.0 343.0 22.9 343.6 22.9 C 344.2 22.9 344.5 23.0 345.0 23.0 C 345.6 23.0 345.9 22.6 346.5 22.1 C 347.1 21.6 347.4 21.0 348.0 20.6 C 348.6 20.2 348.9 20.0 349.5 20.0 C 350.0 20.0 350.3 20.6 350.9 20.6 C 351.5 20.6 351.8 20.4 352.4 20.1 C 353.0 19.9 353.3 19.5 353.9 19.5 C 354.4 19.5 354.7 19.8 355.3 20.2 C 355.9 20.5 356.2 21.1 356.8 21.1 C 357.4 21.1 357.7 20.7 358.3 20.7 C 358.8 20.6 359.1 20.6 359.7 20.6 C 360.3 20.6 360.6 21.7 361.2 21.7 C 361.8 21.7 362.1 21.6 362.7 21.5 C 363.3 21.5 363.5 21.5 364.1 21.5 C 364.7 21.4 365.0 21.0 365.6 21.0 C 366.2 21.0 366.5 21.4 367.1 21.4 C 367.7 21.4 368.0 20.7 368.5 20.5 C 369.1 20.2 369.4 20.2 370.0 20.2 C 370.6 20.1 370.9 20.1 371.5 20.1 C 372.1 20.0 372.4 19.8 372.9 19.8 C 373.5 19.8 373.8 19.9 374.4 19.9 C 375.0 19.9 375.3 18.9 375.9 18.5 C 376.5 18.1 376.8 18.2 377.4 18.0 C 377.9 17.7 378.2 17.2 378.8 17.2 C 379.4 17.2 379.7 18.3 380.3 18.3 C 380.9 18.3 381.2 18.2 381.8 18.2 C 382.3 18.1 382.6 18.2 383.2 18.1 C 383.8 18.1 384.1 17.7 384.7 17.7 C 385.3 17.7 385.6 18.5 386.2 18.5 C 386.8 18.5 387.0 18.0 387.6 18.0 C 388.2 18.0 388.5 18.0 389.1 18.0 C 389.7 18.0 390.0 17.8 390.6 17.7 C 391.2 17.5 391.5 17.4 392.0 17.3 C 392.6 17.1 392.9 17.2 393.5 17.1 C 394.1 16.9 394.4 16.7 395.0 16.5 C 395.6 16.4 395.9 16.2 396.4 16.2 C 397.0 16.2 397.3 16.3 397.9 16.3 C 398.5 16.3 398.8 16.3 399.4 16.3 C 400.0 16.3 400.3 15.3 400.8 14.7 C 401.4 14.2 401.7 13.7 402.3 13.7 C 402.9 13.7 403.2 14.5 403.8 14.8 C 404.4 15.1 404.7 15.2 405.3 15.2 C 405.8 15.2 406.1 14.7 406.7 14.4 C 407.3 14.0 407.6 13.3 408.2 13.3 C 408.8 13.3 409.1 13.4 409.7 13.4 C 410.2 13.4 410.5 13.4 411.1 13.2 C 411.7 12.9 412.0 11.8 412.6 11.8 C 413.2 11.8 413.5 11.8 414.1 11.8 C 414.7 11.8 414.9 11.8 415.5 11.9 C 416.1 12.0 416.4 12.2 417.0 12.4 C 417.6 12.6 417.9 12.4 418.5 12.8 C 419.1 13.2 419.4 14.9 419.9 14.9 C 420.5 14.9 420.8 14.1 421.4 13.5 C 422.0 13.0 422.3 12.7 422.9 12.1 C 423.5 11.6 423.8 11.1 424.3 10.6 C 424.9 10.1 425.2 9.6 425.8 9.6 C 426.4 9.6 426.7 9.8 427.3 10.1 C 427.9 10.4 428.2 11.0 428.7 11.0 C 429.3 11.0 429.6 10.2 430.2 10.2 C 430.8 10.2 431.1 11.0 431.7 11.4 C 432.3 11.7 432.6 12.0 433.2 12.0 C 433.7 12.0 434.0 10.6 434.6 10.6 C 435.2 10.6 435.5 11.4 436.1 11.7 C 436.7 11.9 437.0 11.8 437.6 12.0 C 438.1 12.1 438.4 12.4 439.0 12.4 C 439.6 12.4 439.9 11.9 440.5 11.9 C 441.1 11.9 441.4 14.9 442.0 15.6 C 442.6 16.3 442.8 16.3 443.4 16.3 C 444.0 16.3 444.3 15.7 444.9 15.4 C 445.5 15.1 445.8 14.9 446.4 14.7 C 447.0 14.5 447.3 14.3 447.8 14.3 C 448.4 14.3 448.7 14.7 449.3 15.1 C 449.9 15.5 450.2 16.3 450.8 16.3 C 451.4 16.3 451.7 16.0 452.2 16.0 C 452.8 16.0 453.1 16.0 453.7 16.3 C 454.3 16.6 454.6 17.4 455.2 17.4 C 455.8 17.4 456.1 16.8 456.7 16.6 C 457.2 16.4 457.5 16.6 458.1 16.3 C 458.7 16.0 459.0 15.6 459.6 14.4 C 460.2 13.1 460.5 10.0 461.1 10.0 C 461.6 10.0 461.9 11.3 462.5 11.3 C 463.1 11.3 463.4 10.8 464.0 10.8 C 464.6 10.8 464.9 11.0 465.5 11.1 C 466.0 11.3 466.3 11.3 466.9 11.5 C 467.5 11.6 467.8 11.7 468.4 11.9 C 469.0 12.1 469.3 12.4 469.9 12.4 C 470.5 12.5 470.7 12.4 471.3 12.5 C 471.9 12.6 472.2 12.5 472.8 12.8 C 473.4 13.0 473.7 14.0 474.3 14.0 C 474.9 14.0 475.2 14.0 475.7 14.0 C 476.3 13.9 476.6 12.8 477.2 12.5 C 477.8 12.2 478.1 12.2 478.7 12.2 C 479.3 12.2 479.6 12.4 480.1 12.4 C 480.7 12.4 481.0 11.5 481.6 11.5 C 482.2 11.5 482.5 11.5 483.1 11.7 C 483.7 11.9 484.0 11.7 484.6 12.5 C 485.1 13.3 485.4 15.7 486.0 15.7 C 486.6 15.7 486.9 15.5 487.5 15.3 C 488.1 15.1 488.4 15.0 489.0 14.9 C 489.5 14.7 489.8 14.6 490.4 14.5 C 491.0 14.4 491.3 14.5 491.9 14.4 C 492.5 14.3 492.8 14.4 493.4 14.1 C 494.0 13.9 494.2 11.7 494.8 11.6 C 495.4 11.6 495.7 11.6 496.3 11.6 C 496.9 11.5 497.2 11.2 497.8 10.0 C 498.4 8.8 498.7 6.1 499.2 5.6 C 499.8 5.0 500.1 5.0 500.7 5.0 C 501.3 5.0 501.6 5.6 502.2 5.6 C 502.8 5.6 503.1 5.5 503.6 5.4 C 504.2 5.3 504.5 5.4 505.1 5.2 C 505.7 4.9 506.0 4.5 506.6 4.3 C 507.2 4.1 507.5 4.2 508.0 4.1 C 508.6 4.0 508.9 4.1 509.5 4.0 C 510.1 4.0 510.4 4.0 511.0 3.9 C 511.6 3.7 511.9 3.3 512.5 3.3 C 513.0 3.3 513.3 4.8 513.9 5.5 C 514.5 6.2 514.8 6.4 515.4 6.9 C 516.0 7.4 516.3 7.9 516.9 7.9 C 517.4 7.9 517.7 6.6 518.3 6.6 C 518.9 6.6 519.2 6.6 519.8 6.6 C 520.4 6.7 520.7 9.1 521.3 9.1 C 521.9 9.1 522.1 7.1 522.7 7.1 C 523.3 7.1 523.6 7.3 524.2 7.3 C 524.8 7.3 525.1 6.9 525.7 6.9 C 526.3 6.9 526.6 6.9 527.1 6.9 C 527.7 6.9 528.0 5.5 528.6 5.3 C 529.2 5.2 529.5 5.3 530.1 5.2 C 530.7 5.0 531.0 4.4 531.5 4.4 C 532.1 4.4 532.4 4.5 533.0 4.5 C 533.6 4.5 533.9 4.4 534.5 4.2 C 535.1 4.0 536 3.3 536 3.3" stroke="#4572A7" stroke-width="1" stroke-linejoin="round" stroke-linecap="round">
			</path>
		</g>
		<g class="highcharts-markers highcharts-series-3" transform="translate(24,331) scale(1 1)" clip-path="none">
		</g>
	</g>
	<g class="highcharts-navigator">
		<rect fill="rgb(128,179,236)" fill-opacity="0.3" style="cursor:ew-resize;" x="483" y="331" width="77" height="40">
		</rect>
		<path fill="none" stroke="#b2b1b6" stroke-width="1" d="M 10 331.5 L 482.5 331.5 482.5 385.5 L 559.5 385.5 L 559.5 331.5 574 331.5 M 483.5 331.5 L 559.5 331.5">
		</path>
	</g>
	<g class="highcharts-axis-labels highcharts-xaxis-labels">
		<text x="30.5" style="color:#606060;cursor:default;font-size:11px;fill:#606060;" text-anchor="middle" transform="translate(0,0)" y="304" opacity="1">
			<tspan>May '15
			</tspan>
		</text>
		<text x="121.4" style="color:#606060;cursor:default;font-size:11px;fill:#606060;" text-anchor="middle" transform="translate(0,0)" y="304" opacity="1">
			<tspan>Jul '15
			</tspan>
		</text>
		<text x="217.3" style="color:#606060;cursor:default;font-size:11px;fill:#606060;" text-anchor="middle" transform="translate(0,0)" y="304" opacity="1">
			<tspan>Sep '15
			</tspan>
		</text>
		<text x="312.4" style="color:#606060;cursor:default;font-size:11px;fill:#606060;" text-anchor="middle" transform="translate(0,0)" y="304" opacity="1">
			<tspan>Nov '15
			</tspan>
		</text>
		<text x="405.1" style="color:#606060;cursor:default;font-size:11px;fill:#606060;" text-anchor="middle" transform="translate(0,0)" y="304" opacity="1">
			<tspan>Jan '16
			</tspan>
		</text>
		<text x="493.7" style="color:#606060;cursor:default;font-size:11px;fill:#606060;" text-anchor="middle" transform="translate(0,0)" y="304" opacity="1">
			<tspan>Mar '16
			</tspan>
		</text>
	</g>
	<g class="highcharts-axis-labels highcharts-xaxis-labels">
		<text x="80.0" style="color:#888;cursor:default;font-size:11px;fill:#888;width:178px;text-overflow:clip;" text-anchor="start" transform="translate(0,0)" y="367" opacity="1">2010
		</text>
		<text x="233.1" style="color:#888;cursor:default;font-size:11px;fill:#888;width:178px;text-overflow:clip;" text-anchor="start" transform="translate(0,0)" y="367" opacity="1">2012
		</text>
		<text x="386.5" style="color:#888;cursor:default;font-size:11px;fill:#888;width:178px;text-overflow:clip;" text-anchor="start" transform="translate(0,0)" y="367" opacity="1">2014
		</text>
		<text x="539.6" style="color:#888;cursor:default;font-size:11px;fill:#888;width:178px;text-overflow:clip;" text-anchor="start" transform="translate(0,0)" y="367" opacity="1">2016
		</text>
	</g>
	<g class="highcharts-axis-labels highcharts-yaxis-labels">
		<text x="574" style="color:#606060;cursor:default;font-size:11px;fill:#606060;width:183px;text-overflow:clip;" text-anchor="end" transform="translate(0,0)" y="283" opacity="1">-50%
		</text>
		<text x="574" style="color:#606060;cursor:default;font-size:11px;fill:#606060;width:183px;text-overflow:clip;" text-anchor="end" transform="translate(0,0)" y="223" opacity="1">-25%
		</text>
		<text x="574" style="color:#606060;cursor:default;font-size:11px;fill:#606060;width:183px;text-overflow:clip;" text-anchor="end" transform="translate(0,0)" y="163" opacity="1">0%
		</text>
		<text x="574" style="color:#606060;cursor:default;font-size:11px;fill:#606060;width:183px;text-overflow:clip;" text-anchor="end" transform="translate(0,0)" y="103" opacity="1">
			<tspan> + 25%
			</tspan>
		</text>
		<text x="0" style="color:#606060;cursor:default;font-size:11px;fill:#606060;width:183px;text-overflow:clip;" text-anchor="end" transform="translate(0,0)" y="-9999">
			<tspan> + 50%
			</tspan>
		</text>
	</g>
	<g class="highcharts-axis-labels highcharts-yaxis-labels">
	</g>
	<g class="highcharts-tooltip" style="cursor:default;padding:0;pointer-events:none;white-space:nowrap;" transform="translate(0,-9999)">
		<path fill="none" d="M 3.5 0.5 L 13.5 0.5 C 16.5 0.5 16.5 0.5 16.5 3.5 L 16.5 13.5 C 16.5 16.5 16.5 16.5 13.5 16.5 L 3.5 16.5 C 0.5 16.5 0.5 16.5 0.5 13.5 L 0.5 3.5 C 0.5 0.5 0.5 0.5 3.5 0.5"  stroke="black" stroke-opacity="0.0" stroke-width="5" transform="translate(1, 1)">
		</path>
		<path fill="none" d="M 3.5 0.5 L 13.5 0.5 C 16.5 0.5 16.5 0.5 16.5 3.5 L 16.5 13.5 C 16.5 16.5 16.5 16.5 13.5 16.5 L 3.5 16.5 C 0.5 16.5 0.5 16.5 0.5 13.5 L 0.5 3.5 C 0.5 0.5 0.5 0.5 3.5 0.5"  stroke="black" stroke-opacity="0.0" stroke-width="3" transform="translate(1, 1)">
		</path>
		<path fill="none" d="M 3.5 0.5 L 13.5 0.5 C 16.5 0.5 16.5 0.5 16.5 3.5 L 16.5 13.5 C 16.5 16.5 16.5 16.5 13.5 16.5 L 3.5 16.5 C 0.5 16.5 0.5 16.5 0.5 13.5 L 0.5 3.5 C 0.5 0.5 0.5 0.5 3.5 0.5"  stroke="black" stroke-opacity="0.1" stroke-width="1" transform="translate(1, 1)">
		</path>
		<path fill="rgb(249, 249, 249)" fill-opacity=" .85" d="M 3.5 0.5 L 13.5 0.5 C 16.5 0.5 16.5 0.5 16.5 3.5 L 16.5 13.5 C 16.5 16.5 16.5 16.5 13.5 16.5 L 3.5 16.5 C 0.5 16.5 0.5 16.5 0.5 13.5 L 0.5 3.5 C 0.5 0.5 0.5 0.5 3.5 0.5">
		</path>
		<text x="8" style="font-size:12px;color:#333333;fill:#333333;" y="20">
		</text>
	</g>
	<g class="highcharts-navigator-handle-right" style="cursor:ew-resize;" transform="translate(560,343)">
		<rect x="-4.5" y="0.5" width="8" height="15" fill="#ebe7e8" stroke="#b2b1b6" stroke-width="1">
		</rect>
		<path fill="#ebe7e8" d="M -1.5 4 L -1.5 12 M 0.5 4 L 0.5 12" stroke="#b2b1b6" stroke-width="1">
		</path>
	</g>
	<g class="highcharts-navigator-handle-left" style="cursor:ew-resize;" transform="translate(483,343)">
		<rect x="-4.5" y="0.5" width="8" height="15" fill="#ebe7e8" stroke="#b2b1b6" stroke-width="1">
		</rect>
		<path fill="#ebe7e8" d="M -1.5 4 L -1.5 12 M 0.5 4 L 0.5 12" stroke="#b2b1b6" stroke-width="1">
		</path>
	</g>
</svg>