<?xml version="1.0" encoding="UTF-8" standalone="no"?>
<!DOCTYPE svg PUBLIC "-//W3C//DTD SVG 1.1//EN"
"http://www.w3.org/Graphics/SVG/1.1/DTD/svg11.dtd">
<svg xmlns="http://www.w3.org/2000/svg" version="1.1" style="font-family:&quot;lucida grande&quot;, &quot;lucida sans unicode&quot;, arial, helvetica, sans-serif;font-size:12px;" viewBox="0 0 584 400">
	<desc>Created with Highcharts 4.2.4
	</desc>
	<defs>
		<clipPath id="highcharts-1">
			<rect x="0" y="0" width="415" height="303">
			</rect>
		</clipPath>
	</defs>
	<rect x="0" y="0" width="584" height="400" fill="#FFFFFF" class=" highcharts-background" stroke="transparent">
	</rect>
	<g class="highcharts-grid">
	</g>
	<g class="highcharts-grid">
		<path fill="none" d="M 75 364.5 L 490 364.5" stroke="#D8D8D8" stroke-width="1" opacity="1">
		</path>
		<path fill="none" d="M 75 303.5 L 490 303.5" stroke="#D8D8D8" stroke-width="1" opacity="1">
		</path>
		<path fill="none" d="M 75 243.5 L 490 243.5" stroke="#D8D8D8" stroke-width="1" opacity="1">
		</path>
		<path fill="none" d="M 75 182.5 L 490 182.5" stroke="#D8D8D8" stroke-width="1" opacity="1">
		</path>
		<path fill="none" d="M 75 122.5 L 490 122.5" stroke="#D8D8D8" stroke-width="1" opacity="1">
		</path>
		<path fill="none" d="M 75 60.5 L 490 60.5" stroke="#D8D8D8" stroke-width="1" opacity="1">
		</path>
	</g>
	<g class="highcharts-grid">
		<path fill="none" d="M 75 364.5 L 490 364.5" stroke="#D8D8D8" stroke-width="1" opacity="1">
		</path>
		<path fill="none" d="M 75 303.5 L 490 303.5" stroke="#D8D8D8" stroke-width="1" opacity="1">
		</path>
		<path fill="none" d="M 75 243.5 L 490 243.5" stroke="#D8D8D8" stroke-width="1" opacity="1">
		</path>
		<path fill="none" d="M 75 182.5 L 490 182.5" stroke="#D8D8D8" stroke-width="1" opacity="1">
		</path>
		<path fill="none" d="M 75 122.5 L 490 122.5" stroke="#D8D8D8" stroke-width="1" opacity="1">
		</path>
		<path fill="none" d="M 75 60.5 L 490 60.5" stroke="#D8D8D8" stroke-width="1" opacity="1">
		</path>
	</g>
	<g class="highcharts-axis">
		<path fill="none" d="M 109.5 364 L 109.5 374" stroke="#C0D0E0" stroke-width="1" opacity="1">
		</path>
		<path fill="none" d="M 143.5 364 L 143.5 374" stroke="#C0D0E0" stroke-width="1" opacity="1">
		</path>
		<path fill="none" d="M 178.5 364 L 178.5 374" stroke="#C0D0E0" stroke-width="1" opacity="1">
		</path>
		<path fill="none" d="M 212.5 364 L 212.5 374" stroke="#C0D0E0" stroke-width="1" opacity="1">
		</path>
		<path fill="none" d="M 247.5 364 L 247.5 374" stroke="#C0D0E0" stroke-width="1" opacity="1">
		</path>
		<path fill="none" d="M 282.5 364 L 282.5 374" stroke="#C0D0E0" stroke-width="1" opacity="1">
		</path>
		<path fill="none" d="M 316.5 364 L 316.5 374" stroke="#C0D0E0" stroke-width="1" opacity="1">
		</path>
		<path fill="none" d="M 351.5 364 L 351.5 374" stroke="#C0D0E0" stroke-width="1" opacity="1">
		</path>
		<path fill="none" d="M 385.5 364 L 385.5 374" stroke="#C0D0E0" stroke-width="1" opacity="1">
		</path>
		<path fill="none" d="M 420.5 364 L 420.5 374" stroke="#C0D0E0" stroke-width="1" opacity="1">
		</path>
		<path fill="none" d="M 454.5 364 L 454.5 374" stroke="#C0D0E0" stroke-width="1" opacity="1">
		</path>
		<path fill="none" d="M 489.5 364 L 489.5 374" stroke="#C0D0E0" stroke-width="1" opacity="1">
		</path>
		<path fill="none" d="M 74.5 364 L 74.5 374" stroke="#C0D0E0" stroke-width="1" opacity="1">
		</path>
		<path fill="none" d="M 75 364.5 L 490 364.5" stroke="#C0D0E0" stroke-width="1">
		</path>
	</g>
	<g class="highcharts-axis">
		<text x="23.7" text-anchor="middle" transform="translate(0,0) rotate(270 23.7 212.5)" class=" highcharts-yaxis-title" style="color:#434348;fill:#434348;" y="212.5">Temperature
		</text>
	</g>
	<g class="highcharts-axis">
		<text x="559.8" text-anchor="middle" transform="translate(0,0) rotate(90 559.8 212.5)" class=" highcharts-yaxis-title" style="color:#7cb5ec;fill:#7cb5ec;" y="212.5">Rainfall
		</text>
	</g>
	<g class="highcharts-series-group">
		<g class="highcharts-series highcharts-series-0 highcharts-tracker" transform="translate(75,61) scale(1 1)" style="" clip-path="url(#highcharts-1)">
			<rect x="8.5" y="243.5" width="17" height="60" stroke="#FFFFFF" stroke-width="1" fill="#7cb5ec" rx="0" ry="0">
			</rect>
			<rect x="43.5" y="216.5" width="17" height="87" stroke="#FFFFFF" stroke-width="1" fill="#7cb5ec" rx="0" ry="0">
			</rect>
			<rect x="77.5" y="174.5" width="17" height="129" stroke="#FFFFFF" stroke-width="1" fill="#7cb5ec" rx="0" ry="0">
			</rect>
			<rect x="112.5" y="146.5" width="17" height="157" stroke="#FFFFFF" stroke-width="1" fill="#7cb5ec" rx="0" ry="0">
			</rect>
			<rect x="146.5" y="128.5" width="17" height="175" stroke="#FFFFFF" stroke-width="1" fill="#7cb5ec" rx="0" ry="0">
			</rect>
			<rect x="181.5" y="90.5" width="17" height="213" stroke="#FFFFFF" stroke-width="1" fill="#7cb5ec" rx="0" ry="0">
			</rect>
			<rect x="215.5" y="139.5" width="17" height="164" stroke="#FFFFFF" stroke-width="1" fill="#7cb5ec" rx="0" ry="0">
			</rect>
			<rect x="250.5" y="123.5" width="17" height="180" stroke="#FFFFFF" stroke-width="1" fill="#7cb5ec" rx="0" ry="0">
			</rect>
			<rect x="285.5" y="41.5" width="17" height="262" stroke="#FFFFFF" stroke-width="1" fill="#7cb5ec" rx="0" ry="0">
			</rect>
			<rect x="319.5" y="68.5" width="17" height="235" stroke="#FFFFFF" stroke-width="1" fill="#7cb5ec" rx="0" ry="0">
			</rect>
			<rect x="354.5" y="187.5" width="17" height="116" stroke="#FFFFFF" stroke-width="1" fill="#7cb5ec" rx="0" ry="0">
			</rect>
			<rect x="388.5" y="237.5" width="17" height="66" stroke="#FFFFFF" stroke-width="1" fill="#7cb5ec" rx="0" ry="0">
			</rect>
		</g>
		<g class="highcharts-markers highcharts-series-0" transform="translate(75,61) scale(1 1)" clip-path="none">
		</g>
		<g class="highcharts-series highcharts-series-1" transform="translate(75,61) scale(1 1)" clip-path="url(#highcharts-1)">
			<path fill="none" d="M 17.2 278.7 C 17.2 278.7 38.0 279.9 51.8 279.9 C 65.7 279.9 72.6 266.8 86.4 248.4 C 100.2 230.0 107.2 208.9 121.0 187.8 C 134.8 166.7 141.7 159.9 155.6 143.0 C 169.4 126.0 176.3 119.9 190.2 103.0 C 204.0 86.0 210.9 70.2 224.7 58.1 C 238.6 46.0 245.5 42.4 259.3 42.4 C 273.2 42.4 280.1 61.3 293.9 81.2 C 307.7 101.0 314.7 119.0 328.5 141.8 C 342.3 164.5 349.2 174.0 363.1 195.1 C 376.9 216.2 397.7 247.2 397.7 247.2" stroke="#434348" stroke-width="2" stroke-linejoin="round" stroke-linecap="round">
			</path>
			<path fill="none" d="M 7.2 278.7 L 17.2 278.7 C 17.2 278.7 38.0 279.9 51.8 279.9 C 65.7 279.9 72.6 266.8 86.4 248.4 C 100.2 230.0 107.2 208.9 121.0 187.8 C 134.8 166.7 141.7 159.9 155.6 143.0 C 169.4 126.0 176.3 119.9 190.2 103.0 C 204.0 86.0 210.9 70.2 224.7 58.1 C 238.6 46.0 245.5 42.4 259.3 42.4 C 273.2 42.4 280.1 61.3 293.9 81.2 C 307.7 101.0 314.7 119.0 328.5 141.8 C 342.3 164.5 349.2 174.0 363.1 195.1 C 376.9 216.2 397.7 247.2 397.7 247.2 L 407.7 247.2" stroke-linejoin="round" visibility="visible" stroke="rgb(192,192,192)" stroke-opacity="0.0" stroke-width="22" class=" highcharts-tracker" style="">
			</path>
		</g>
		<g class="highcharts-markers highcharts-series-1 highcharts-tracker" transform="translate(75,61) scale(1 1)" style="" clip-path="none">
			<path fill="#434348" d="M 397 243.2 C 402.3 243.2 402.3 251.2 397 251.2 C 391.6 251.2 391.6 243.2 397 243.2 Z">
			</path>
			<path fill="#434348" d="M 363 191.1 C 368.3 191.1 368.3 199.1 363 199.1 C 357.6 199.1 357.6 191.1 363 191.1 Z">
			</path>
			<path fill="#434348" d="M 328 137.8 C 333.3 137.8 333.3 145.8 328 145.8 C 322.6 145.8 322.6 137.8 328 137.8 Z">
			</path>
			<path fill="#434348" d="M 293 77.2 C 298.3 77.2 298.3 85.2 293 85.2 C 287.6 85.2 287.6 77.2 293 77.2 Z">
			</path>
			<path fill="#434348" d="M 259 38.4 C 264.3 38.4 264.3 46.4 259 46.4 C 253.6 46.4 253.6 38.4 259 38.4 Z">
			</path>
			<path fill="#434348" d="M 224 54.1 C 229.3 54.1 229.3 62.1 224 62.1 C 218.6 62.1 218.6 54.1 224 54.1 Z">
			</path>
			<path fill="#434348" d="M 190 99.0 C 195.3 99.0 195.3 107.0 190 107.0 C 184.6 107.0 184.6 99.0 190 99.0 Z">
			</path>
			<path fill="#434348" d="M 155 139.0 C 160.3 139.0 160.3 147.0 155 147.0 C 149.6 147.0 149.6 139.0 155 139.0 Z">
			</path>
			<path fill="#434348" d="M 121 183.8 C 126.3 183.8 126.3 191.8 121 191.8 C 115.6 191.8 115.6 183.8 121 183.8 Z">
			</path>
			<path fill="#434348" d="M 86 244.4 C 91.3 244.4 91.3 252.4 86 252.4 C 80.6 252.4 80.6 244.4 86 244.4 Z">
			</path>
			<path fill="#434348" d="M 51 275.9 C 56.3 275.9 56.3 283.9 51 283.9 C 45.6 283.9 45.6 275.9 51 275.9 Z">
			</path>
			<path fill="#434348" d="M 17 274.7 C 22.3 274.7 22.3 282.7 17 282.7 C 11.6 282.7 11.6 274.7 17 274.7 Z">
			</path>
		</g>
	</g>
	<text x="292" text-anchor="middle" class="highcharts-title" style="color:#333333;font-size:18px;fill:#333333;width:520px;" y="24">
		<tspan>Average Monthly Temperature and Rainfall in Tokyo
		</tspan>
	</text>
	<text x="292" text-anchor="middle" class="highcharts-subtitle" style="color:#555555;fill:#555555;width:520px;" y="45">
		<tspan>Source: WorldClimate.com
		</tspan>
	</text>
	<g class="highcharts-legend" transform="translate(130,110)">
		<rect x="0" y="0" width="116" height="39" fill="#FFFFFF" visibility="visible">
		</rect>
		<g>
			<g>
				<g class="highcharts-legend-item" transform="translate(8,3)">
					<text x="21" style="color:#333333;font-size:12px;font-weight:bold;cursor:pointer;fill:#333333;" text-anchor="start" y="15">Rainfall
					</text>
					<rect x="0" y="4" width="16" height="12" fill="#7cb5ec">
					</rect>
				</g>
				<g class="highcharts-legend-item" transform="translate(8,17)">
					<path fill="none" d="M 0 11 L 16 11" stroke="#434348" stroke-width="2">
					</path>
					<path fill="#434348" d="M 8 7 C 13.3 7 13.3 15 8 15 C 2.6 15 2.6 7 8 7 Z">
					</path>
					<text x="21" y="15" style="color:#333333;font-size:12px;font-weight:bold;cursor:pointer;fill:#333333;" text-anchor="start">Temperature
					</text>
				</g>
			</g>
		</g>
	</g>
	<g class="highcharts-axis-labels highcharts-xaxis-labels">
		<text x="92.2" style="color:#606060;cursor:default;font-size:11px;fill:#606060;" text-anchor="middle" transform="translate(0,0)" y="383" opacity="1">Jan
		</text>
		<text x="126.8" style="color:#606060;cursor:default;font-size:11px;fill:#606060;" text-anchor="middle" transform="translate(0,0)" y="383" opacity="1">Feb
		</text>
		<text x="161.4" style="color:#606060;cursor:default;font-size:11px;fill:#606060;" text-anchor="middle" transform="translate(0,0)" y="383" opacity="1">Mar
		</text>
		<text x="196.0" style="color:#606060;cursor:default;font-size:11px;fill:#606060;" text-anchor="middle" transform="translate(0,0)" y="383" opacity="1">Apr
		</text>
		<text x="230.6" style="color:#606060;cursor:default;font-size:11px;fill:#606060;" text-anchor="middle" transform="translate(0,0)" y="383" opacity="1">May
		</text>
		<text x="265.2" style="color:#606060;cursor:default;font-size:11px;fill:#606060;" text-anchor="middle" transform="translate(0,0)" y="383" opacity="1">Jun
		</text>
		<text x="299.7" style="color:#606060;cursor:default;font-size:11px;fill:#606060;" text-anchor="middle" transform="translate(0,0)" y="383" opacity="1">Jul
		</text>
		<text x="334.3" style="color:#606060;cursor:default;font-size:11px;fill:#606060;" text-anchor="middle" transform="translate(0,0)" y="383" opacity="1">Aug
		</text>
		<text x="368.9" style="color:#606060;cursor:default;font-size:11px;fill:#606060;" text-anchor="middle" transform="translate(0,0)" y="383" opacity="1">Sep
		</text>
		<text x="403.5" style="color:#606060;cursor:default;font-size:11px;fill:#606060;" text-anchor="middle" transform="translate(0,0)" y="383" opacity="1">Oct
		</text>
		<text x="438.1" style="color:#606060;cursor:default;font-size:11px;fill:#606060;" text-anchor="middle" transform="translate(0,0)" y="383" opacity="1">Nov
		</text>
		<text x="472.7" style="color:#606060;cursor:default;font-size:11px;fill:#606060;" text-anchor="middle" transform="translate(0,0)" y="383" opacity="1">Dec
		</text>
	</g>
	<g class="highcharts-axis-labels highcharts-yaxis-labels">
		<text x="60" style="color:#434348;cursor:default;font-size:11px;fill:#434348;width:183px;text-overflow:clip;" text-anchor="end" transform="translate(0,0)" y="369" opacity="1">5°C
		</text>
		<text x="60" style="color:#434348;cursor:default;font-size:11px;fill:#434348;width:183px;text-overflow:clip;" text-anchor="end" transform="translate(0,0)" y="308" opacity="1">10°C
		</text>
		<text x="60" style="color:#434348;cursor:default;font-size:11px;fill:#434348;width:183px;text-overflow:clip;" text-anchor="end" transform="translate(0,0)" y="247" opacity="1">15°C
		</text>
		<text x="60" style="color:#434348;cursor:default;font-size:11px;fill:#434348;width:183px;text-overflow:clip;" text-anchor="end" transform="translate(0,0)" y="187" opacity="1">20°C
		</text>
		<text x="60" style="color:#434348;cursor:default;font-size:11px;fill:#434348;width:183px;text-overflow:clip;" text-anchor="end" transform="translate(0,0)" y="126" opacity="1">25°C
		</text>
		<text x="60" style="color:#434348;cursor:default;font-size:11px;fill:#434348;width:183px;text-overflow:clip;" text-anchor="end" transform="translate(0,0)" y="66" opacity="1">30°C
		</text>
	</g>
	<g class="highcharts-axis-labels highcharts-yaxis-labels">
		<text x="505" style="color:#7cb5ec;cursor:default;font-size:11px;fill:#7cb5ec;width:183px;text-overflow:clip;" text-anchor="start" transform="translate(0,0)" y="369" opacity="1">
			<tspan>0 mm
			</tspan>
		</text>
		<text x="505" style="color:#7cb5ec;cursor:default;font-size:11px;fill:#7cb5ec;width:183px;text-overflow:clip;" text-anchor="start" transform="translate(0,0)" y="308" opacity="1">
			<tspan>50 mm
			</tspan>
		</text>
		<text x="505" style="color:#7cb5ec;cursor:default;font-size:11px;fill:#7cb5ec;width:183px;text-overflow:clip;" text-anchor="start" transform="translate(0,0)" y="247" opacity="1">
			<tspan>100 mm
			</tspan>
		</text>
		<text x="505" style="color:#7cb5ec;cursor:default;font-size:11px;fill:#7cb5ec;width:183px;text-overflow:clip;" text-anchor="start" transform="translate(0,0)" y="187" opacity="1">
			<tspan>150 mm
			</tspan>
		</text>
		<text x="505" style="color:#7cb5ec;cursor:default;font-size:11px;fill:#7cb5ec;width:183px;text-overflow:clip;" text-anchor="start" transform="translate(0,0)" y="126" opacity="1">
			<tspan>200 mm
			</tspan>
		</text>
		<text x="505" style="color:#7cb5ec;cursor:default;font-size:11px;fill:#7cb5ec;width:183px;text-overflow:clip;" text-anchor="start" transform="translate(0,0)" y="66" opacity="1">
			<tspan>250 mm
			</tspan>
		</text>
	</g>
	<g class="highcharts-tooltip" style="cursor:default;padding:0;pointer-events:none;white-space:nowrap;" transform="translate(0,-9999)">
		<path fill="none" d="M 3.5 0.5 L 13.5 0.5 C 16.5 0.5 16.5 0.5 16.5 3.5 L 16.5 13.5 C 16.5 16.5 16.5 16.5 13.5 16.5 L 3.5 16.5 C 0.5 16.5 0.5 16.5 0.5 13.5 L 0.5 3.5 C 0.5 0.5 0.5 0.5 3.5 0.5" stroke="black" stroke-opacity="0.0" stroke-width="5" transform="translate(1, 1)">
		</path>
		<path fill="none" d="M 3.5 0.5 L 13.5 0.5 C 16.5 0.5 16.5 0.5 16.5 3.5 L 16.5 13.5 C 16.5 16.5 16.5 16.5 13.5 16.5 L 3.5 16.5 C 0.5 16.5 0.5 16.5 0.5 13.5 L 0.5 3.5 C 0.5 0.5 0.5 0.5 3.5 0.5" stroke="black" stroke-opacity="0.0" stroke-width="3" transform="translate(1, 1)">
		</path>
		<path fill="none" d="M 3.5 0.5 L 13.5 0.5 C 16.5 0.5 16.5 0.5 16.5 3.5 L 16.5 13.5 C 16.5 16.5 16.5 16.5 13.5 16.5 L 3.5 16.5 C 0.5 16.5 0.5 16.5 0.5 13.5 L 0.5 3.5 C 0.5 0.5 0.5 0.5 3.5 0.5" stroke="black" stroke-opacity="0.1" stroke-width="1" transform="translate(1, 1)">
		</path>
		<path fill="rgb(249, 249, 249)" fill-opacity=" .85" d="M 3.5 0.5 L 13.5 0.5 C 16.5 0.5 16.5 0.5 16.5 3.5 L 16.5 13.5 C 16.5 16.5 16.5 16.5 13.5 16.5 L 3.5 16.5 C 0.5 16.5 0.5 16.5 0.5 13.5 L 0.5 3.5 C 0.5 0.5 0.5 0.5 3.5 0.5">
		</path>
		<text x="8" style="font-size:12px;color:#333333;fill:#333333;" y="20">
		</text>
	</g>
</svg>