<?xml version="1.0" encoding="UTF-8" standalone="no"?>
<!DOCTYPE svg PUBLIC "-//W3C//DTD SVG 1.1//EN"
"http://www.w3.org/Graphics/SVG/1.1/DTD/svg11.dtd">
<svg version="1.1" style="font-family:&quot;lucida grande&quot;, &quot;lucida sans unicode&quot;, arial, helvetica, sans-serif;font-size:12px;" xmlns="http://www.w3.org/2000/svg" viewBox="0 0 584 500">
	<desc>Created with Highmaps 4.2.4
	</desc>
	<defs>
		<linearGradient x1="0" y1="0" x2="0" y2="1" id="highcharts-1">
			<stop offset="0" stop-color="#FEFEFE" stop-opacity="1">
			</stop>
			<stop offset="1" stop-color="#F6F6F6" stop-opacity="1">
			</stop>
		</linearGradient>
		<linearGradient x1="0" y1="0" x2="0" y2="1" id="highcharts-2">
			<stop offset="0" stop-color="#E6E7E8" stop-opacity="1">
			</stop>
			<stop offset="1" stop-color="#005645" stop-opacity="1">
			</stop>
		</linearGradient>
		<clipPath id="highcharts-3">
			<rect x="0" y="0" width="486" height="439">
			</rect>
		</clipPath>
	</defs>
	<rect x="0" y="0" width="584" height="500" fill="#FFFFFF" class=" highcharts-background" stroke="transparent">
	</rect>
	<g class="highcharts-grid">
	</g>
	<g class="highcharts-grid">
	</g>
	<g class="highcharts-axis">
	</g>
	<g class="highcharts-axis">
	</g>
	<g class="highcharts-series-group">
		<g class="highcharts-series highcharts-series-0 highcharts-tracker" transform="translate(10,46) scale(1 1)" style="" clip-path="url(#highcharts-3)">
			<g transform="translate(0,0) scale(1 1)">
				<path fill="rgb(230,231,232)" d="M 467.1 145.7 L 469.2 146.2 467.4 146.8 466.5 147.7 467.1 145.7 M 461.9 144.6 L 461.8 144.0 461.4 144.3 460.3 143.5 459.2 141.2 455.8 142.2 447.7 144.1 441.6 145.4 441.2 145.2 441.4 137.2 444.3 136.4 448.1 135.6 448.1 135.6 457.8 133.3 458.7 131.7 461.3 130.2 462.1 131.9 463.8 132.4 461.8 134.2 461.2 137.1 462.3 136.7 464.2 137.4 467.0 141.4 469.5 141.9 471.3 140.4 470.3 137.7 471.8 139.5 472.4 141.6 470.4 142.3 466.6 145.0 466.2 142.8 464.4 144.3 464.5 145.3 463.0 146.2 462.5 144.6 461.9 144.6 Z" vector-effect="non-scaling-stroke" stroke="silver" stroke-width="1" class="highcharts-drilldown-point" style="cursor:pointer;">
				</path>
				<path fill="rgb(226,229,229)" d="M 41.2 60.3 L 42.2 61.6 40.6 62.0 40.8 64.1 38.6 62.3 39.7 62.1 41.2 60.3 M 42.4 65.1 L 40.9 66.5 41.7 67.1 42.8 70.5 41.2 69.6 41.4 67.5 40.7 66.2 42.4 65.0 42.0 64.7 42.0 62.9 43.3 64.6 44.2 63.2 44.3 61.3 43.2 60.7 42.6 58.4 43.3 57.8 86.2 69.4 79.1 99.3 79.6 101.8 79.4 103.9 62.5 99.8 61.6 100.2 57.6 99.5 52.0 100.2 48.9 99.4 46.4 99.8 44.2 99.3 43.7 98.2 39.6 96.9 35.4 97.5 32.0 95.3 32.6 91.7 32.2 90.0 30.3 88.5 28.7 88.3 28.3 86.7 26.8 85.8 25.2 86.1 24.1 84.4 25.2 81.0 24.9 83.5 26.1 82.7 26.7 80.4 25.3 80.0 25.5 78.3 28.2 78.2 25.7 76.4 25.7 72.5 26.3 68.0 25.3 65.6 25.5 62.4 27.5 60.6 30.7 64.0 36.5 66.6 37.5 66.1 38.2 68.1 40.2 67.4 40.4 70.6 38.7 72.8 41.2 70.6 39.7 74.0 40.7 76.9 37.8 76.6 36.9 78.3 37.2 75.8 34.8 78.3 37.7 79.1 39.1 77.2 41.0 76.9 41.0 74.6 41.7 72.4 43.9 70.4 43.0 67.1 43.6 66.3 42.4 65.1 Z" vector-effect="non-scaling-stroke" stroke="silver" stroke-width="1" class="highcharts-drilldown-point" style="cursor:pointer;">
				</path>
				<path fill="rgb(222,226,227)" d="M 7.4 132.4 L 42.5 142.8 33.4 176.4 46.1 195.4 56.4 211.1 71.3 233.2 72.5 239.8 74.3 242.4 71.5 243.7 69.7 245.5 69.6 248.0 67.5 251.1 66.6 251.1 66.0 254.9 67.9 256.5 66.7 259.2 64.9 259.1 41.3 256.0 41.6 254.2 40.4 253.8 40.9 249.0 39.8 246.1 34.7 239.7 32.3 239.3 32.8 238.3 32.0 235.7 29.4 235.5 26.0 232.8 25.8 231.5 23.0 228.8 20.6 228.3 18.4 226.9 15.2 226.3 14.0 224.3 15.7 218.1 13.7 216.2 14.6 215.4 12.4 211.2 11.5 210.5 9.2 203.4 8.0 201.8 8.1 198.6 10.0 197.8 10.6 196.5 9.8 194.2 7.9 193.6 6.4 190.6 7.0 188.7 6.5 186.5 7.4 183.7 8.4 183.7 8.1 186.2 10.5 188.6 10.1 185.9 9.0 184.2 9.4 181.6 11.6 181.8 9.7 179.9 8.6 180.1 7.4 183.3 4.7 179.9 4.3 174.7 0.7 167.8 1.4 166.7 1.3 162.8 2.5 160.8 2.8 157.4 1.5 153.6 0 151.2 0.2 149.1 4.8 143.3 6.7 139.0 6.9 135.5 6.2 134.7 7.4 132.4 Z" vector-effect="non-scaling-stroke" stroke="silver" stroke-width="1" class="highcharts-drilldown-point" style="cursor:pointer;">
				</path>
				<path fill="rgb(219,224,224)" d="M 42.5 142.8 L 7.4 132.4 6.6 130.8 6.8 128.2 8.1 124.5 7.7 122.2 9.2 120.4 10.8 117.1 12.7 115.2 14.6 111.7 18.1 103.6 18.6 101.5 22.6 93.7 22.6 91.1 23.7 88.9 24.1 86.3 27.0 87.4 28.3 86.9 28.6 88.4 30.3 88.5 32.2 90.0 32.6 91.7 32.0 95.3 35.4 97.5 39.6 96.9 43.7 98.2 44.2 99.3 46.4 99.8 48.9 99.4 52.0 100.2 57.6 99.5 61.6 100.2 62.5 99.8 79.4 103.9 79.9 106.0 81.5 107.4 81.6 109.5 79.5 111.8 76.9 116.3 72.6 120.6 72.2 122.7 74.4 124.6 72.3 128.9 67.5 149.1 42.5 142.8 Z" vector-effect="non-scaling-stroke" stroke="silver" stroke-width="1" class="highcharts-drilldown-point" style="cursor:pointer;">
				</path>
				<path fill="rgb(215,221,221)" d="M 322.7 127.4 L 322.3 130.1 320.6 133.8 319.5 132.7 320.7 129.6 322.7 127.4 M 294.4 162.8 L 293.8 161.2 290.8 160.3 289.5 155.5 290.1 154.1 288.6 151.6 288.0 146.8 286.8 145.6 284.8 145.1 280.9 141.0 278.4 139.5 276.8 139.2 274.8 137.5 275.2 135.5 275.1 131.2 275.7 129.4 273.9 128.0 273.9 126.3 275.2 124.0 278.5 121.8 278.2 115.1 279.6 113.7 282.2 114.4 287.0 112.3 288.8 111.2 290.6 111.4 290.2 113.1 291.4 114.6 293.5 115.1 295.0 116.0 296.0 117.9 304.3 119.6 306.7 120.7 312.0 121.2 313.1 123.1 315.5 124.1 315.3 127.9 317.0 127.9 316.6 129.9 317.8 130.7 316.1 132.7 314.7 137.3 315.6 137.3 317.9 133.8 319.2 133.1 320.3 134.0 319.0 139.9 319.5 140.9 318.0 144.5 318.4 147.0 317.1 152.3 317.4 155.1 318.6 157.5 318.8 161.2 303.6 162.3 295.8 162.7 294.4 162.8 Z" vector-effect="non-scaling-stroke" stroke="silver" stroke-width="1" class="highcharts-drilldown-point" style="cursor:pointer;">
				</path>
				<path fill="rgb(211,219,218)" d="M 475.7 108.2 L 476.6 106.6 477.6 107.3 476.5 109.8 475.7 108.2 M 457.9 122.9 L 451.4 103.6 453.0 103.8 453.7 99.7 455.4 97.3 455.8 94.4 455.0 93.2 455.0 89.7 455.7 88.7 455.3 85.4 458.5 75.4 460.0 75.0 460.9 77.0 462.1 77.4 467.0 74.0 471.1 76.5 476.1 91.6 479.1 91.5 479.9 95.2 481.3 96.2 482.7 95.6 486 98.7 484.5 101.6 483.2 101.2 482.9 102.6 479.5 104.4 479.7 106.1 478.7 107.3 477.8 105.7 475.2 106.4 474.3 109.1 475.4 111.8 472.6 108.7 472.6 106.7 471.0 108.5 471.5 112.9 470.5 114.7 469.5 114.5 468.7 116.4 467.2 117.0 466.6 118.7 465.2 117.3 463.3 119.7 464.0 121.1 461.9 125.2 461.2 127.7 458.4 124.9 457.9 122.9 Z" vector-effect="non-scaling-stroke" stroke="silver" stroke-width="1" class="highcharts-drilldown-point" style="cursor:pointer;">
				</path>
				<path fill="rgb(207,217,216)" d="M 349.4 115.6 L 349.6 117.3 347.7 117.4 348.1 115.4 349.4 115.6 M 307.3 95.5 L 306.0 97.5 302.7 99.9 302.6 98.3 307.3 95.5 M 357.2 165.7 L 350.0 167.0 345.6 167.6 345.5 166.9 327.9 168.9 329.8 166.6 331.3 162.7 332.1 157.3 331.8 154.4 328.2 147.0 328.9 145.1 327.9 141.7 329.6 138.1 329.2 134.4 330.5 133.6 330.5 131.6 332.4 131.0 333.7 128.1 334.5 129.5 334.1 132.0 334.9 132.7 335.9 130.9 335.7 127.4 337.3 125.4 338.9 125.2 337.7 122.4 340.0 120.1 342.4 121.2 341.5 119.7 343.4 119.8 342.7 121.3 344.7 121.4 346.0 122.8 350.9 123.9 352.1 124.7 353.1 127.0 352.0 128.0 353.9 131.2 353.9 135.6 352.5 136.5 352.3 139.0 350.2 140.1 350.4 143.7 352.3 144.3 353.8 143.0 355.4 139.4 357.9 138.1 360.1 139.5 362.6 146.8 364.0 149.6 363.8 154.0 361.2 154.3 361.0 157.3 359.2 159.1 358.6 163.1 357.2 165.7 M 307.8 107.6 L 309.0 109.4 309.0 111.6 310.7 109.7 314.2 109.9 315.6 110.6 318.2 114.1 321.2 113.5 322.1 114.4 324.4 114.1 327.7 111.1 332.7 110.6 335.2 109.2 337.1 108.8 336.7 111.9 338.5 112.5 339.9 111.8 340.7 112.7 341.8 111.5 344.3 111.0 344.5 114.4 346.8 116.7 345.8 117.4 341.7 117.6 340.6 117.0 340.2 119.4 337.7 117.7 335.0 117.1 333.3 117.4 332.5 118.8 327.8 119.7 327.0 121.5 324.4 123.4 325.3 120.7 323.6 121.2 322.1 123.1 321.7 120.9 317.8 130.7 316.6 129.9 317.0 127.9 315.3 127.9 315.5 124.1 313.1 123.1 312.0 121.2 306.7 120.7 304.3 119.6 296.0 117.9 295.0 116.0 293.5 115.1 296.6 113.7 298.3 112.0 301.4 111.4 303.4 109.6 304.7 109.3 307.2 106.5 307.5 107.2 308.7 104.8 311.6 103.3 314.2 103.6 310.4 106.8 309.1 109.3 309.0 107.7 307.8 107.6 Z" vector-effect="non-scaling-stroke" stroke="silver" stroke-width="1" class="highcharts-drilldown-point" style="cursor:pointer;">
				</path>
				<path fill="rgb(203,214,213)" d="M 42.5 142.8 L 67.5 149.1 84.9 153.0 92.8 154.6 86.3 186.7 81.3 211.5 79.5 220.4 78.4 222.3 74.7 220.2 73.0 220.6 73.0 223.2 72.1 227.3 72.2 231.1 71.3 233.2 56.4 211.1 46.1 195.4 33.4 176.4 42.5 142.8 Z" vector-effect="non-scaling-stroke" stroke="silver" stroke-width="1" class="highcharts-drilldown-point" style="cursor:pointer;">
				</path>
				<path fill="rgb(199,212,210)" d="M 127.2 219.5 L 183.2 225.7 182.8 230.0 182.7 231.5 182.3 231.7 178.0 283.6 142.4 280.2 143.6 283.1 126.7 280.8 126.0 286.1 117.7 284.9 122.5 252.1 127.2 219.5 Z" vector-effect="non-scaling-stroke" stroke="silver" stroke-width="1" class="highcharts-drilldown-point" style="cursor:pointer;">
				</path>
				<path fill="rgb(196,209,208)" d="M 183.2 225.7 L 127.2 219.5 132.8 180.7 133.8 173.5 177.5 178.6 195.1 180.0 194.3 191.5 193.8 199.2 192.1 226.3 183.2 225.7 Z" vector-effect="non-scaling-stroke" stroke="silver" stroke-width="1" class="highcharts-drilldown-point" style="cursor:pointer;">
				</path>
				<path fill="rgb(192,207,205)" d="M 177.5 178.6 L 133.8 173.5 116.4 170.8 118.3 159.3 119.8 150.4 123.1 130.6 124.1 124.8 181.6 132.2 179.9 151.1 179.5 155.4 179.2 159.8 177.5 178.6 Z" vector-effect="non-scaling-stroke" stroke="silver" stroke-width="1" class="highcharts-drilldown-point" style="cursor:pointer;">
				</path>
				<path fill="rgb(188,204,202)" d="M 194.3 191.5 L 254.4 193.3 258.3 195.4 256.4 198.8 258.2 200.5 258.9 202.4 260.8 203.5 261.2 228.1 192.1 226.3 193.8 199.2 194.3 191.5 Z" vector-effect="non-scaling-stroke" stroke="silver" stroke-width="1" class="highcharts-drilldown-point" style="cursor:pointer;">
				</path>
				<path fill="rgb(184,202,199)" d="M 254.4 193.3 L 194.3 191.5 195.1 180.0 177.5 178.6 179.2 159.8 179.5 155.4 227.0 158.2 230.5 160.5 232.6 159.8 237.2 159.7 238.6 160.9 242.2 162.2 244.2 164.1 244.9 164.3 245.3 167.7 246.9 170.3 247.7 172.5 247.6 175.3 248.9 176.3 249.4 178.2 249.8 184.2 250.4 186.2 250.4 186.4 250.4 186.4 250.3 186.4 250.3 186.4 251.6 189.3 254.4 193.3 Z" vector-effect="non-scaling-stroke" stroke="silver" stroke-width="1" class="highcharts-drilldown-point" style="cursor:pointer;">
				</path>
				<path fill="rgb(180,200,197)" d="M 192.1 226.3 L 261.2 228.1 261.2 229.6 261.3 233.9 263.2 246.8 263.1 267.1 259.3 265.9 255.9 263.5 254.6 264.6 252.2 263.6 250.5 264.7 248.9 264.3 245.1 266.6 242.0 264.0 240.0 264.5 239.4 263.6 237.8 264.6 237.5 266.2 236.5 264.1 235.0 265.0 232.0 263.1 229.3 264.1 228.0 261.2 224.2 261.9 219.7 260.2 217.4 259.9 216.8 257.7 212.8 257.7 209.8 255.6 210.7 233.2 182.7 231.5 182.8 230.0 183.2 225.7 192.1 226.3 Z" vector-effect="non-scaling-stroke" stroke="silver" stroke-width="1" class="highcharts-drilldown-point" style="cursor:pointer;">
				</path>
				<path fill="rgb(176,197,194)" d="M 261.3 233.9 L 261.2 229.6 261.2 228.1 260.8 203.5 258.9 202.4 258.2 200.5 256.4 198.8 258.3 195.4 254.4 193.3 251.6 189.3 250.3 186.4 250.3 186.4 250.4 186.4 261.8 186.6 274.0 186.2 286.1 185.3 288.8 187.9 288.8 187.9 288.8 187.9 288.2 190.3 289.0 193.9 289.9 195.7 292.8 198.5 295.0 199.9 296.3 203.6 297.4 204.9 298.8 203.8 301.6 205.2 299.7 211.5 302.3 214.7 304.1 215.3 307.8 218.0 308.9 220.9 308.3 222.9 309.8 224.9 312.3 226.0 312.4 228.9 311.5 230.9 310.4 230.1 309.9 231.8 309.5 232.4 309.3 231.8 308.5 231.2 308.7 231.9 309.0 233.2 307.6 234.9 308.4 236.1 307.5 237.8 301.4 238.4 304.0 234.6 303.0 232.3 261.3 233.9 Z" vector-effect="non-scaling-stroke" stroke="silver" stroke-width="1" class="highcharts-drilldown-point" style="cursor:pointer;">
				</path>
				<path fill="rgb(173,195,191)" d="M 318.8 161.2 L 318.9 163.7 322.1 169.8 324.5 197.2 323.6 200.1 324.8 201.8 325.4 204.1 324.4 207.0 323.4 207.8 322.1 211.4 321.3 212.2 321.5 215.6 320.6 217.7 321.1 219.5 318.0 220.6 318.2 224.5 314.1 223.1 312.9 223.3 311.8 225.1 312.3 226.0 309.8 224.9 308.3 222.9 308.9 220.9 307.8 218.0 304.1 215.3 302.3 214.7 299.7 211.5 301.6 205.2 298.8 203.8 297.4 204.9 296.3 203.6 295.0 199.9 292.8 198.5 289.9 195.7 289.0 193.9 288.2 190.3 288.8 187.9 288.8 187.9 288.8 187.9 289.2 185.4 290.9 184.6 292.6 181.2 292.7 179.6 291.5 178.4 292.1 175.5 294.6 175.2 297.6 173.2 298.7 170.7 298.8 167.1 296.7 165.8 294.4 162.8 294.4 162.8 295.8 162.7 306.6 162.1 318.8 161.2 Z" vector-effect="non-scaling-stroke" stroke="silver" stroke-width="1" class="highcharts-drilldown-point" style="cursor:pointer;">
				</path>
				<path fill="rgb(169,192,189)" d="M 322.1 169.8 L 324.2 170.8 327.9 168.9 345.5 166.9 345.6 167.6 346.2 172.3 349.2 197.6 348.9 199.7 349.6 201.2 346.5 202.7 344.0 202.6 344.5 204.7 342.9 206.1 342.7 207.6 341.3 208.0 340.7 210.7 339.6 211.9 337.2 210.2 335.2 211.8 335.2 212.9 333.3 213.4 332.5 212.4 329.5 214.4 327.0 213.5 325.5 214.7 322.8 214.1 321.5 215.6 321.3 212.2 322.1 211.4 323.4 207.8 324.4 207.0 325.4 204.1 324.8 201.8 323.6 200.1 324.5 197.2 322.1 169.8 Z" vector-effect="non-scaling-stroke" stroke="silver" stroke-width="1" class="highcharts-drilldown-point" style="cursor:pointer;">
				</path>
				<path fill="rgb(165,190,186)" d="M 444.3 136.4 L 441.4 137.2 439.2 128.0 437.6 127.9 437.6 126.1 436.2 122.7 436.5 120.5 436.1 117.7 435.3 116.7 434.2 111.8 439.4 110.4 448.9 107.8 448.7 111.1 449.8 112.6 449.3 114.5 446.8 117.2 447.2 118.8 447.0 123.2 446.2 126.4 446.9 129.1 446.9 134.1 448.1 135.6 448.1 135.6 444.3 136.4 Z" vector-effect="non-scaling-stroke" stroke="silver" stroke-width="1" class="highcharts-drilldown-point" style="cursor:pointer;">
				</path>
				<path fill="rgb(161,188,183)" d="M 267.5 274.4 L 267.4 268.1 264.6 268.1 263.1 267.1 263.2 246.8 261.3 233.9 303.0 232.3 304.0 234.6 301.4 238.4 307.5 237.8 307.7 239.7 305.7 241.0 306.1 243.1 304.4 245.1 304.6 248.2 302.8 249.7 303.2 250.6 301.4 251.8 300.3 254.1 300.4 256.6 297.1 259.9 297.6 261.3 295.9 261.8 296.4 263.9 294.8 265.5 295.9 267.9 295.4 269.8 296.3 271.7 295.8 273.3 293.9 273.4 267.5 274.4 Z" vector-effect="non-scaling-stroke" stroke="silver" stroke-width="1" class="highcharts-drilldown-point" style="cursor:pointer;">
				</path>
				<path fill="rgb(157,185,180)" d="M 263.1 267.1 L 264.6 268.1 267.4 268.1 267.5 274.4 267.8 286.2 270.1 289.5 270.0 291.0 273.4 297.3 272.8 299.9 271.3 302.9 271.6 308.6 270.8 309.7 269.5 312.2 270.1 313.4 268.2 313.3 262.1 316.2 263.1 314.7 261.1 315.4 261.6 312.7 258.7 313.6 258.3 315.2 261.4 317.6 259.2 318.9 259.7 317.1 257.0 321.0 252.4 324.4 248.8 325.3 248.2 326.3 244.1 328.7 243.9 329.5 240.9 331.2 237.7 334.6 239.1 331.8 237.6 330.8 235.6 332.4 237.6 332.8 235.6 335.4 233.8 335.2 235.0 337.1 233.4 341.1 232.6 340.3 230.2 341.9 233.1 341.8 231.8 344.9 234.3 355.5 236.1 357.4 233.0 358.7 229.0 356.1 224.5 355.8 222.9 354.4 220.1 353.7 218.4 352.2 215.4 351.6 214.7 347.9 211.6 343.8 211.1 340.8 211.4 337.7 209.4 336.6 205.7 330.6 203.6 328.8 202.6 325.3 200.4 321.3 200.1 319.0 196.7 315.6 197.5 314.6 195.4 314.0 193.0 310.8 185.8 310.1 183.7 308.8 182.7 310.2 179.9 310.3 177.2 315.6 177.6 316.2 174.4 318.8 172.8 318.5 168.1 314.9 165.4 313.9 163.4 311.5 160.9 309.6 159.7 306.3 159.9 303.3 157.2 297.4 153.9 295.0 148.1 287.9 146.6 287.2 145.0 283.8 143.6 283.1 142.4 280.2 178.0 283.6 182.3 231.7 182.7 231.5 210.7 233.2 209.8 255.6 212.8 257.7 216.8 257.7 217.4 259.9 219.7 260.2 224.2 261.9 228.0 261.2 229.3 264.1 232.0 263.1 235.0 265.0 236.5 264.1 237.5 266.2 237.8 264.6 239.4 263.6 240.0 264.5 242.0 264.0 245.1 266.6 248.9 264.3 250.5 264.7 252.2 263.6 254.6 264.6 255.9 263.5 259.3 265.9 263.1 267.1 M 235.9 337.4 L 233.7 342.6 233.7 345.9 234.8 351.4 233.5 347.1 233.8 341.0 235.9 337.4 Z" vector-effect="non-scaling-stroke" stroke="silver" stroke-width="1" class="highcharts-drilldown-point" style="cursor:pointer;">
				</path>
				<path fill="rgb(153,183,178)" d="M 463.0 146.2 L 462.4 146.5 461.9 144.6 462.5 144.6 463.0 146.2 M 455.8 142.2 L 459.2 141.2 460.3 143.5 461.4 144.3 462.2 146.8 460.6 147.4 460.3 148.7 457.5 150.2 457.3 147.7 455.8 142.2 Z" vector-effect="non-scaling-stroke" stroke="silver" stroke-width="1" class="highcharts-drilldown-point" style="cursor:pointer;">
				</path>
				<path fill="rgb(150,180,175)" d="M 335.3 300.1 L 333.2 303.0 326.5 303.7 328.5 303.1 327.7 302.1 325.4 302.0 323.1 284.6 324.0 249.4 323.1 248.3 323.0 248.1 347.6 245.9 354.3 269.1 355.9 272.8 358.2 276.5 356.9 278.3 356.4 282.0 357.8 285.3 357.5 288.4 358.9 291.4 333.0 294.2 332.8 295.7 335.3 298.2 335.3 300.1 Z" vector-effect="non-scaling-stroke" stroke="silver" stroke-width="1" class="highcharts-drilldown-point" style="cursor:pointer;">
				</path>
				<path fill="rgb(146,178,172)" d="M 325.4 302.0 L 320.8 302.2 316.1 303.8 314.2 305.2 310.6 299.7 311.4 295.9 292.1 297.1 292.8 296.4 292.0 293.9 293.1 293.7 293.1 291.2 294.0 290.3 294.8 286.9 297.1 284.9 298.7 281.0 296.8 279.8 296.0 276.2 296.7 274.3 295.8 273.3 296.3 271.7 295.4 269.8 295.9 267.9 294.8 265.5 296.4 263.9 295.9 261.8 297.6 261.3 297.1 259.9 300.4 256.6 300.3 254.1 301.4 251.8 303.2 250.6 302.8 249.7 318.9 248.6 323.1 248.3 324.0 249.4 323.1 284.6 325.4 302.0 Z" vector-effect="non-scaling-stroke" stroke="silver" stroke-width="1" class="highcharts-drilldown-point" style="cursor:pointer;">
				</path>
				<path fill="rgb(142,175,170)" d="M 435.1 212.7 L 435.3 213.3 434.1 212.9 434.1 212.9 434.6 212.8 434.6 212.9 434.8 212.8 434.9 212.7 435.1 212.7 M 435.6 212.6 L 436.9 215.5 441.2 221.2 438.1 217.9 435.4 212.6 435.5 212.6 435.6 212.6 M 382.1 222.1 L 386.2 222.0 396.7 220.5 434.0 213.0 437.4 217.7 433.0 216.1 434.7 217.3 430.8 220.0 429.2 219.9 429.1 221.2 435.2 219.4 436.3 223.1 436.1 220.4 437.1 219.0 438.6 220.5 438.7 223.5 437.6 223.0 436.6 226.3 434.8 227.1 431.6 226.0 431.6 227.2 427.7 226.8 432.8 228.0 431.5 229.9 432.6 230.2 430.4 232.3 427.7 230.9 429.5 232.6 431.3 233.0 433.3 232.4 433.8 230.6 435.3 232.3 433.0 235.3 428.3 236.4 424.0 240.9 422.9 243.1 422.4 247.5 419.5 247.2 416.6 248.3 404.3 239.7 393.7 241.3 393.3 239.7 390.2 237.9 378.7 239.2 371.2 242.7 367.7 243.3 359.8 244.4 359.9 241.3 361.5 241.0 362.1 239.0 364.1 237.2 366.7 236.7 370.3 233.6 371.6 231.5 374.0 229.9 374.6 230.8 377.8 228.1 379.0 228.6 380.2 226.2 381.7 224.8 382.1 222.1 Z" vector-effect="non-scaling-stroke" stroke="silver" stroke-width="1" class="highcharts-drilldown-point" style="cursor:pointer;">
				</path>
				<path fill="rgb(138,173,167)" d="M 435.4 212.6 L 434.2 211.0 434.6 212.8 434.1 212.9 434.1 212.9 433.8 212.5 434.0 213.0 396.7 220.5 386.2 222.0 382.1 222.1 379.4 222.7 363.4 225.0 368.1 222.6 370.3 220.6 372.1 217.2 374.5 215.5 377.6 211.9 379.3 214.6 382.0 215.1 383.6 213.4 384.9 214.2 387.3 213.2 388.0 211.6 389.2 211.9 392.9 209.8 392.6 207.7 395.9 200.1 396.6 196.3 400.0 197.7 401.9 192.4 402.9 192.8 405.2 190.0 406.3 187.7 406.4 184.3 411.5 186.9 411.9 184.6 414.5 185.1 414.3 186.3 418.3 188.0 418.6 188.3 418.9 188.3 419.5 190.4 418.0 191.4 417.5 194.4 418.6 195.1 420.3 194.0 422.3 196.2 424.7 195.9 425.7 197.2 428.6 198.0 428.7 201.4 427.0 201.3 425.4 199.7 422.3 198.5 426.9 201.8 429.8 203.2 428.2 204.4 428.0 205.8 428.9 205.9 430.4 208.2 429.3 208.9 426.6 206.4 423.2 206.5 426.2 207.5 429.0 209.8 430.8 208.7 433.5 208.7 435.6 212.6 435.5 212.6 435.4 212.6 M 428.0 205.8 L 427.8 205.8 427.8 205.8 427.8 205.8 424.7 203.2 426.9 205.7 427.8 205.8 427.8 205.8 427.8 205.8 428.0 206.0 428.0 205.8 M 434.8 212.8 L 435.0 212.4 435.1 212.7 434.9 212.7 434.8 212.8 M 437.3 194.6 L 436.9 196.3 437.1 194.7 437.3 194.6 M 433.9 196.1 L 434.0 195.8 436.1 195.0 435.6 197.3 433.2 203.5 434.2 205.2 433.4 206.7 432.2 204.2 432.2 201.1 433.9 196.1 Z" vector-effect="non-scaling-stroke" stroke="silver" stroke-width="1" class="highcharts-drilldown-point" style="cursor:pointer;">
				</path>
				<path fill="rgb(134,171,164)" d="M 294.4 162.8 L 296.7 165.8 298.8 167.1 298.7 170.7 297.6 173.2 294.6 175.2 292.1 175.5 291.5 178.4 292.7 179.6 292.6 181.2 290.9 184.6 289.2 185.4 288.8 187.9 288.8 187.9 288.8 187.9 286.1 185.3 274.0 186.2 261.8 186.6 250.4 186.4 250.3 186.4 249.8 184.2 249.4 178.2 248.9 176.3 247.6 175.3 247.7 172.5 246.9 170.3 245.3 167.7 244.9 164.3 244.2 164.1 242.8 161.4 244.4 157.1 243.5 155.8 243.3 152.7 244.4 152.6 274.8 152.2 288.6 151.6 290.1 154.1 289.5 155.5 290.8 160.3 293.8 161.2 294.5 162.6 294.4 162.8 294.4 162.8 Z" vector-effect="non-scaling-stroke" stroke="silver" stroke-width="1" class="highcharts-drilldown-point" style="cursor:pointer;">
				</path>
				<path fill="rgb(130,168,161)" d="M 437.1 194.7 L 437.5 193.6 437.3 194.6 437.1 194.7 M 437.9 189.3 L 437.9 190.7 437.8 189.4 437.8 189.4 437.9 189.3 M 436.1 195.0 L 434.0 195.8 433.9 196.1 432.0 196.9 432.2 194.2 429.5 193.0 429.6 193.8 426.6 191.7 429.1 190.1 427.9 188.9 425.9 188.4 427.4 186.7 426.0 186.2 425.3 183.9 426.8 180.7 427.1 178.2 425.3 181.4 424.2 181.1 424.0 183.0 422.4 183.2 424.1 184.9 423.6 187.4 424.7 191.5 426.0 193.6 423.7 192.3 427.4 195.5 427.6 196.6 425.0 195.3 422.4 195.2 420.1 193.0 418.9 194.6 418.0 193.3 419.6 190.4 419.5 189.3 420.3 188.1 418.3 188.0 414.3 186.3 414.5 185.1 411.9 184.6 410.3 181.6 407.6 181.1 405.1 182.5 405.0 183.6 403.0 183.8 402.0 183.0 400.8 185.4 399.8 185.2 396.6 189.0 395.6 183.2 410.9 180.2 428.1 176.5 432.2 190.6 437.6 189.4 437.5 192.0 436.8 192.4 436.1 195.0 Z" vector-effect="non-scaling-stroke" stroke="silver" stroke-width="1" class="highcharts-drilldown-point" style="cursor:pointer;">
				</path>
				<path fill="rgb(127,166,159)" d="M 437.8 189.4 L 437.6 189.3 437.6 189.4 432.2 190.6 428.1 176.5 429.4 174.8 431.0 174.8 430.0 177.3 430.5 179.0 432.2 180.4 433.3 183.3 436.0 185.8 436.7 185.6 437.9 189.3 437.8 189.4 437.8 189.4 Z" vector-effect="non-scaling-stroke" stroke="silver" stroke-width="1" class="highcharts-drilldown-point" style="cursor:pointer;">
				</path>
				<path fill="rgb(123,163,156)" d="M 430.4 161.0 L 431.3 161.8 430.6 163.6 431.1 165.7 432.0 165.7 436.1 169.4 434.0 171.7 433.2 173.2 431.0 174.8 429.4 174.8 428.1 176.5 410.9 180.2 395.6 183.2 386.5 184.8 384.6 174.2 384.6 174.2 382.0 158.9 383.2 158.2 387.9 154.5 388.4 157.5 426.1 149.8 428.7 151.3 429.4 153.6 433.2 155.8 433.2 155.8 430.4 161.0 Z" vector-effect="non-scaling-stroke" stroke="silver" stroke-width="1" class="highcharts-drilldown-point" style="cursor:pointer;">
				</path>
				<path fill="rgb(119,161,153)" d="M 430.4 161.0 L 433.2 155.8 437.0 157.1 440.9 158.3 440.7 161.7 439.3 163.0 439.1 164.7 441.8 165.1 442.2 165.9 442.7 173.0 441.2 175.3 441.1 177.8 439.4 180.1 438.2 183.4 437.4 183.8 437.5 181.2 435.1 181.3 430.9 178.8 430.4 177.2 431.0 175.2 433.3 173.5 434.0 171.7 436.1 169.4 432.0 165.7 431.1 165.7 430.6 163.6 431.3 161.8 430.4 161.0 Z" vector-effect="non-scaling-stroke" stroke="silver" stroke-width="1" class="highcharts-drilldown-point" style="cursor:pointer;">
				</path>
				<path fill="rgb(115,159,151)" d="M 433.2 155.8 L 429.4 153.6 428.7 151.3 426.1 149.8 388.4 157.5 387.9 154.5 392.4 149.9 394.2 146.5 392.0 143.8 391.7 141.8 394.6 140.3 399.4 139.0 402.5 138.9 404.4 139.6 405.8 138.8 409.0 138.3 411.1 137.2 413.1 134.4 414.9 133.4 413.9 130.4 414.6 128.5 413.1 129.1 412.1 127.5 413.3 125.3 415.6 123.8 416.3 121.2 419.1 117.2 421.9 114.7 423.3 114.5 434.2 111.8 435.3 116.7 436.1 117.7 436.5 120.5 436.2 122.7 437.6 126.1 437.6 127.9 439.2 128.0 441.4 137.2 441.2 145.2 441.6 145.4 443.2 154.1 443.9 154.9 442.2 156.7 443.2 157.6 442.5 159.8 444.7 157.9 447.0 157.8 447.9 156.8 452.0 155.5 453.8 153.2 455.6 154.3 455.8 153.2 456.1 154.1 458.2 152.8 454.1 156.5 451.5 157.8 449.3 160.0 445.0 162.3 441.4 163.2 439.4 164.6 439.5 163.0 440.7 162.9 441.5 160.7 440.8 161.2 440.9 158.3 437.0 157.1 434.2 156.2 433.2 155.8 433.2 155.8 Z" vector-effect="non-scaling-stroke" stroke="silver" stroke-width="1" class="highcharts-drilldown-point" style="cursor:pointer;">
				</path>
				<path fill="rgb(111,156,148)" d="M 86.2 69.4 L 93.7 71.1 91.1 82.5 92.9 86.6 92.2 89.6 94.7 92.1 97.2 96.9 97.1 97.8 99.3 100.6 101.0 100.6 100.8 102.3 99.3 105.1 98.6 108.2 98.9 109.5 97.4 110.5 97.0 113.0 98.4 114.3 101.9 112.5 103.1 114.1 103.1 117.4 104.6 121.3 104.1 122.0 105.0 123.9 106.2 124.0 107.0 125.9 107.0 128.2 108.1 129.4 109.7 128.2 112.2 129.1 113.5 128.1 117.0 129.2 119.5 129.1 120.2 127.5 121.4 127.5 123.1 130.6 119.8 150.4 118.3 159.3 107.1 157.4 92.8 154.6 84.9 153.0 67.5 149.1 72.3 128.9 74.4 124.6 72.2 122.7 72.6 120.6 76.9 116.3 79.5 111.8 81.6 109.5 81.5 107.4 79.9 106.0 79.4 103.9 79.6 101.8 79.1 99.3 86.2 69.4 Z" vector-effect="non-scaling-stroke" stroke="silver" stroke-width="1" class="highcharts-drilldown-point" style="cursor:pointer;">
				</path>
				<path fill="rgb(107,154,145)" d="M 179.5 155.4 L 179.9 151.1 181.6 132.2 181.7 132.2 182.7 121.2 234.2 124.0 243.8 124.1 243.1 126.2 241.2 128.1 242.6 130.4 244.6 131.7 244.4 152.6 243.3 152.7 243.5 155.8 244.4 157.1 242.8 161.4 244.2 164.1 242.2 162.2 238.6 160.9 237.2 159.7 232.6 159.8 230.5 160.5 227.0 158.2 179.5 155.4 Z" vector-effect="non-scaling-stroke" stroke="silver" stroke-width="1" class="highcharts-drilldown-point" style="cursor:pointer;">
				</path>
				<path fill="rgb(103,151,142)" d="M 457.5 150.2 L 457.0 149.9 452.1 152.3 448.9 153.2 446.6 154.7 443.2 157.6 442.2 156.7 443.9 154.9 443.2 154.1 441.6 145.4 447.7 144.1 455.8 142.2 457.3 147.7 457.5 150.2 Z" vector-effect="non-scaling-stroke" stroke="silver" stroke-width="1" class="highcharts-drilldown-point" style="cursor:pointer;">
				</path>
				<path fill="rgb(100,149,140)" d="M 461.2 127.7 L 461.5 127.8 461.3 130.2 458.7 131.7 457.8 133.3 448.1 135.6 448.1 135.6 446.9 134.1 446.9 129.1 446.2 126.4 447.0 123.2 447.2 118.8 446.8 117.2 449.3 114.5 449.8 112.6 448.7 111.1 448.9 107.8 449.4 104.3 451.4 103.6 457.9 122.9 458.4 124.9 461.2 127.7 Z" vector-effect="non-scaling-stroke" stroke="silver" stroke-width="1" class="highcharts-drilldown-point" style="cursor:pointer;">
				</path>
				<path fill="rgb(96,146,137)" d="M 308.7 231.9 L 308.5 231.2 309.3 231.8 308.7 231.9 M 309.9 231.8 L 310.4 230.1 311.5 230.9 312.4 228.9 312.3 226.0 311.8 225.1 312.9 223.3 314.1 223.1 318.2 224.5 318.0 220.6 321.1 219.5 320.6 217.7 321.5 215.6 322.8 214.1 325.5 214.7 327.0 213.5 329.5 214.4 332.5 212.4 333.3 213.4 335.2 212.9 335.2 211.8 337.2 210.2 339.6 211.9 340.7 210.7 341.3 208.0 342.7 207.6 342.9 206.1 344.5 204.7 344.0 202.6 346.5 202.7 349.6 201.2 348.9 199.7 349.2 197.6 352.6 197.1 353.8 197.9 355.2 200.2 358.3 200.4 359.9 201.6 361.3 200.6 363.6 201.5 367.1 199.3 367.9 201.1 370.3 202.7 370.3 202.7 370.3 202.7 370.4 205.8 374.3 210.7 377.6 211.9 374.5 215.5 372.1 217.2 370.3 220.6 368.1 222.6 363.4 225.0 362.9 225.3 349.9 226.5 347.1 226.9 336.6 227.6 324.7 228.9 322.4 228.5 322.9 230.7 309.9 231.8 M 370.3 202.7 L 370.4 202.7 370.3 202.7 370.3 202.7 370.3 202.7 370.3 202.7 Z" vector-effect="non-scaling-stroke" stroke="silver" stroke-width="1" class="highcharts-drilldown-point" style="cursor:pointer;">
				</path>
				<path fill="rgb(92,144,134)" d="M 345.6 167.6 L 350.0 167.0 357.2 165.7 362.5 167.3 361.9 167.9 366.0 168.4 369.8 166.5 373.0 165.8 375.4 163.0 382.0 158.9 384.6 174.2 383.4 175.1 384.5 178.5 383.2 184.7 383.5 186.4 380.8 189.5 378.6 189.9 377.0 191.7 376.1 194.1 376.9 195.6 375.8 196.5 374.1 195.3 373.2 197.9 373.7 199.9 372.6 202.1 370.4 202.7 370.3 202.7 367.9 201.1 367.1 199.3 363.6 201.5 361.3 200.6 359.9 201.6 358.3 200.4 355.2 200.2 353.8 197.9 352.6 197.1 349.2 197.6 346.2 172.3 345.6 167.6 Z" vector-effect="non-scaling-stroke" stroke="silver" stroke-width="1" class="highcharts-drilldown-point" style="cursor:pointer;">
				</path>
				<path fill="rgb(88,142,131)" d="M 323.1 248.3 L 318.9 248.6 302.8 249.7 304.6 248.2 304.4 245.1 306.1 243.1 305.7 241.0 307.7 239.7 307.5 237.8 308.4 236.1 307.6 234.9 309.0 233.2 308.7 231.9 309.3 231.8 309.5 232.4 309.9 231.8 322.9 230.7 322.4 228.5 324.7 228.9 336.6 227.6 347.1 226.9 349.9 226.5 362.9 225.3 363.4 225.0 379.4 222.7 382.1 222.1 381.7 224.8 380.2 226.2 379.0 228.6 377.8 228.1 374.6 230.8 374.0 229.9 371.6 231.5 370.3 233.6 366.7 236.7 364.1 237.2 362.1 239.0 361.5 241.0 359.9 241.3 359.8 244.4 354.6 245.1 347.6 245.9 323.0 248.1 323.1 248.3 Z" vector-effect="non-scaling-stroke" stroke="silver" stroke-width="1" class="highcharts-drilldown-point" style="cursor:pointer;">
				</path>
				<path fill="rgb(84,139,129)" d="M 370.3 202.7 L 370.4 202.7 372.6 202.1 373.7 199.9 373.2 197.9 374.1 195.3 375.8 196.5 376.9 195.6 376.1 194.1 377.0 191.7 378.6 189.9 380.8 189.5 383.5 186.4 383.2 184.7 384.5 178.5 383.4 175.1 384.6 174.2 386.5 184.8 395.6 183.2 396.6 189.0 399.8 185.2 400.8 185.4 402.0 183.0 403.0 183.8 405.0 183.6 405.1 182.5 407.6 181.1 410.3 181.6 411.9 184.6 411.5 186.9 406.4 184.3 406.3 187.7 405.2 190.0 402.9 192.8 401.9 192.4 400.0 197.7 396.6 196.3 395.9 200.1 392.6 207.7 392.9 209.8 389.2 211.9 388.0 211.6 387.3 213.2 384.9 214.2 383.6 213.4 382.0 215.1 379.3 214.6 377.6 211.9 374.3 210.7 370.4 205.8 370.3 202.7 370.3 202.7 370.3 202.7 370.3 202.7 370.3 202.7 Z" vector-effect="non-scaling-stroke" stroke="silver" stroke-width="1" class="highcharts-drilldown-point" style="cursor:pointer;">
				</path>
				<path fill="rgb(81,137,126)" d="M 419.5 189.3 L 419.4 188.7 418.9 188.3 418.6 188.3 418.3 188.0 420.3 188.1 419.5 189.3 Z" vector-effect="non-scaling-stroke" stroke="silver" stroke-width="1" class="highcharts-drilldown-point" style="cursor:pointer;">
				</path>
				<path fill="rgb(77,134,123)" d="M 314.2 305.2 L 309.6 304.7 307.0 303.4 305.0 306.4 306.0 307.2 309.2 307.4 310.6 305.9 313.1 305.9 311.5 308.3 313.5 308.9 315.0 306.6 316.5 308.3 312.6 311.8 314.7 314.4 318.2 314.8 320.1 316.3 319.1 318.4 316.6 318.0 315.3 316.5 311.9 315.7 312.6 314.8 309.1 313.6 309.6 317.1 307.9 318.7 307.2 317.0 305.0 316.2 303.6 318.3 301.1 318.5 296.4 316.9 296.9 314.5 294.1 314.2 292.5 311.7 290.7 312.2 290.8 310.8 287.9 312.1 288.2 313.4 290.1 313.0 292.2 313.7 291.1 314.9 288.0 313.8 286.5 314.5 282.3 313.9 277.0 312.0 274.4 312.2 270.5 313.1 270.8 309.7 271.6 308.6 271.3 302.9 272.8 299.9 273.4 297.3 270.0 291.0 270.1 289.5 267.8 286.2 267.5 274.4 293.9 273.4 295.8 273.3 296.7 274.3 296.0 276.2 296.8 279.8 298.7 281.0 297.1 284.9 294.8 286.9 294.0 290.3 293.1 291.2 293.1 293.7 292.0 293.9 292.8 296.4 292.1 297.1 311.4 295.9 310.6 299.7 314.2 305.2 Z" vector-effect="non-scaling-stroke" stroke="silver" stroke-width="1" class="highcharts-drilldown-point" style="cursor:pointer;">
				</path>
				<path fill="rgb(73,132,121)" d="M 335.3 300.1 L 335.3 298.2 332.8 295.7 333.0 294.2 358.9 291.4 360.7 294.5 387.3 292.6 388.3 294.9 389.6 294.6 389.0 290.4 390.2 289.2 394.4 289.8 395.1 289.8 396.3 294.4 398.9 300.7 403.4 307.9 408.6 314.1 408.1 315.0 409.5 319.4 411.9 322.8 416.3 330.8 417.4 335.6 417.9 343.4 416.6 348.5 417.1 352.5 415.1 355.4 416.1 352.5 415.3 351.7 413.3 353.3 411.7 353.1 409.4 354.2 408.2 353.2 408.2 351.1 406.2 347.7 402.1 345.5 400.9 345.9 398.9 340.4 396.1 340.7 395.8 335.4 393.9 334.5 394.9 336.3 393.1 336.0 388.5 329.8 390.6 325.1 390.1 323.7 388.3 324.4 388.3 326.6 386.1 325.7 385.9 321.4 386.7 317.9 386.3 312.9 384.0 309.7 381.8 310.0 379.4 307.5 377.3 306.4 373.9 302.2 370.1 300.5 366.6 301.9 367.1 303.3 365.5 303.3 364.9 304.9 361.2 307.5 357.3 307.2 357.6 305.8 356.4 304.3 353.4 302.4 349.2 300.7 344.5 300.0 334.4 302.5 336.1 300.6 335.3 300.1 Z" vector-effect="non-scaling-stroke" stroke="silver" stroke-width="1" class="highcharts-drilldown-point" style="cursor:pointer;">
				</path>
				<path fill="rgb(69,130,118)" d="M 390.2 289.2 L 389.0 290.4 389.6 294.6 388.3 294.9 387.3 292.6 360.7 294.5 358.9 291.4 357.5 288.4 357.8 285.3 356.4 282.0 356.9 278.3 358.2 276.5 355.9 272.8 354.3 269.1 347.6 245.9 354.6 245.1 359.8 244.4 367.7 243.3 371.2 242.7 369.4 246.4 372.7 248.4 374.6 248.6 376.2 251.6 378.1 253.9 381.7 255.9 382.3 257.1 385.1 258.6 385.4 259.9 387.4 262.0 390.0 262.9 391.8 267.6 394.1 268.9 396.1 273.2 398.0 273.6 398.6 273.8 394.6 279.9 395.7 282.9 394.0 284.2 394.8 287.2 394.4 289.8 390.2 289.2 Z" vector-effect="non-scaling-stroke" stroke="silver" stroke-width="1" class="highcharts-drilldown-point" style="cursor:pointer;">
				</path>
				<path fill="rgb(65,127,115)" d="M 416.6 248.3 L 413.6 251.7 412.2 254.6 412.3 257.4 410.8 259.5 409.3 259.6 408.9 261.2 405.5 265.3 402.5 267.4 399.1 267.7 401.7 268.5 398.0 273.6 396.1 273.2 394.1 268.9 391.8 267.6 390.0 262.9 387.4 262.0 385.4 259.9 385.1 258.6 382.3 257.1 381.7 255.9 378.1 253.9 376.2 251.6 374.6 248.6 372.7 248.4 369.4 246.4 371.2 242.7 378.7 239.2 390.2 237.9 393.3 239.7 393.7 241.3 404.3 239.7 416.6 248.3 Z" vector-effect="non-scaling-stroke" stroke="silver" stroke-width="1" class="highcharts-drilldown-point" style="cursor:pointer;">
				</path>
				<path fill="rgb(61,125,112)" d="M 238.8 88.2 L 254.7 88.2 254.8 83.8 257.4 84.6 258.4 90.4 259.3 91.3 262.1 92.1 264.9 92.2 265.9 93.6 267.9 93.3 269.7 92.2 271.9 92.3 274.6 93.1 276.8 96.6 277.4 95.7 279.4 95.3 282.3 98.0 284.4 98.6 288.3 96.1 289.4 97.6 294.2 97.1 295.9 98.2 298.6 98.2 295.2 100.7 291.7 102.0 288.0 104.8 284.3 109.4 279.6 113.7 278.2 115.1 278.5 121.8 275.2 124.0 273.9 126.3 273.9 128.0 275.7 129.4 275.1 131.2 275.2 135.5 274.8 137.5 276.8 139.2 278.4 139.5 280.9 141.0 284.8 145.1 286.8 145.6 288.0 146.8 288.6 151.6 274.8 152.2 244.4 152.6 244.6 131.7 242.6 130.4 241.2 128.1 243.1 126.2 243.8 124.1 243.4 119.6 241.9 115.9 242.2 112.6 241.7 111.6 241.5 105.9 239.4 97.9 239.2 93.6 239.7 92.2 238.8 88.2 Z" vector-effect="non-scaling-stroke" stroke="silver" stroke-width="1" class="highcharts-drilldown-point" style="cursor:pointer;">
				</path>
				<path fill="rgb(58,122,110)" d="M 93.7 71.1 L 120.4 76.6 185.8 85.5 182.8 119.0 182.7 121.2 181.7 132.2 181.6 132.2 124.1 124.8 123.1 130.6 121.4 127.5 120.2 127.5 119.5 129.1 117.0 129.2 113.5 128.1 112.2 129.1 109.7 128.2 108.1 129.4 107.0 128.2 107.0 125.9 106.2 124.0 105.0 123.9 104.1 122.0 104.6 121.3 103.1 117.4 103.1 114.1 101.9 112.5 98.4 114.3 97.0 113.0 97.4 110.5 98.9 109.5 98.6 108.2 99.3 105.1 100.8 102.3 101.0 100.6 99.3 100.6 97.1 97.8 97.2 96.9 94.7 92.1 92.2 89.6 92.9 86.6 91.1 82.5 93.7 71.1 Z" vector-effect="non-scaling-stroke" stroke="silver" stroke-width="1" class="highcharts-drilldown-point" style="cursor:pointer;">
				</path>
				<path fill="rgb(54,120,107)" d="M 182.7 121.2 L 182.8 119.0 185.8 85.5 200.0 86.6 238.8 88.2 239.7 92.2 239.2 93.6 239.4 97.9 241.5 105.9 241.7 111.6 242.2 112.6 241.9 115.9 243.4 119.6 243.8 124.1 234.2 124.0 182.7 121.2 Z" vector-effect="non-scaling-stroke" stroke="silver" stroke-width="1" class="highcharts-drilldown-point" style="cursor:pointer;">
				</path>
				<path fill="rgb(50,117,104)" d="M 117.7 284.9 L 98.3 281.8 93.6 279.3 63.4 261.4 64.9 259.1 66.7 259.2 67.9 256.5 66.0 254.9 66.6 251.1 67.5 251.1 69.6 248.0 69.7 245.5 71.5 243.7 74.3 242.4 72.5 239.8 71.3 233.2 72.2 231.1 72.1 227.3 73.0 223.2 73.0 220.6 74.7 220.2 78.4 222.3 79.5 220.4 81.3 211.5 111.3 217.0 127.2 219.5 122.5 252.1 117.7 284.9 Z" vector-effect="non-scaling-stroke" stroke="silver" stroke-width="1" class="highcharts-drilldown-point" style="cursor:pointer;">
				</path>
				<path fill="rgb(46,115,102)" d="M 127.2 219.5 L 111.3 217.0 81.3 211.5 86.3 186.7 92.8 154.6 107.1 157.4 118.3 159.3 116.4 170.8 133.8 173.5 132.8 180.7 127.2 219.5 Z" vector-effect="non-scaling-stroke" stroke="silver" stroke-width="1" class="highcharts-drilldown-point" style="cursor:pointer;">
				</path>
				<path fill="rgb(42,113,99)" d="M 173.3 367.1 L 173.5 367.3 173.7 367.2 174.0 367.2 175.0 367.6 175.8 368.0 177.3 368.9 177.7 369.4 178.0 369.7 178.0 370.6 178.0 371.0 178.3 371.0 178.6 370.8 178.9 371.0 179.0 371.2 179.0 371.6 179.1 371.8 179.2 372.1 179.7 372.5 180.2 372.7 180.4 372.8 180.5 373.0 180.4 373.3 179.9 373.9 179.5 374.1 179.0 374.6 178.6 374.7 178.6 374.9 178.2 374.9 178.0 375.1 177.0 375.4 176.6 375.3 176.4 375.3 176.2 375.4 175.7 375.7 175.5 375.9 175.2 376.0 174.9 376.3 174.4 376.5 174.3 376.6 173.9 376.9 173.8 377.1 173.8 377.4 173.4 377.9 173.3 378.3 173.1 378.4 172.8 378.8 172.7 378.7 172.7 378.5 172.5 378.4 172.1 378.2 171.5 377.8 170.9 377.6 170.8 377.3 170.7 377.2 170.6 377.0 170.5 376.6 170.6 376.1 170.8 374.7 170.8 374.5 170.7 374.3 170.4 373.3 170.2 373.0 170.2 372.8 170.1 372.6 170.0 372.2 169.8 371.9 169.7 371.8 169.5 371.6 169.2 371.0 169.4 370.5 169.9 370.1 169.9 369.9 170.1 369.8 170.4 369.7 170.7 369.3 170.9 368.9 171.1 368.7 171.3 368.7 171.4 368.3 171.3 368.1 171.1 367.9 170.8 367.5 170.7 367.0 170.7 366.4 170.8 366.1 171.0 366.0 171.3 366.0 172.1 366.1 172.4 366.6 172.7 366.7 172.9 366.9 173.1 367.0 173.3 367.1 M 165.0 363.5 L 164.9 363.6 164.6 363.6 164.4 363.6 164.0 363.7 163.7 363.7 163.5 363.5 163.6 363.4 163.8 363.2 164.3 362.9 164.5 362.8 164.7 362.8 165.0 363.1 164.8 363.4 165.0 363.5 M 161.6 361.6 L 161.1 361.6 161.0 361.3 160.9 361.1 160.9 360.7 160.9 360.5 160.7 360.4 160.3 360.3 160.2 360.1 160.3 359.9 160.5 359.8 160.9 359.7 161.8 359.9 162.2 360.2 162.4 360.5 162.6 360.8 162.5 361.0 162.3 361.3 161.9 361.5 161.6 361.6 M 164.5 358.8 L 164.5 358.9 164.9 359.0 164.9 359.1 165.0 359.2 165.1 359.4 165.2 359.5 165.4 360.0 165.6 359.9 165.7 359.8 165.9 359.8 166.4 359.8 166.6 359.6 166.8 359.5 167.1 359.5 167.6 359.6 167.7 359.7 167.8 359.8 168.0 360.0 168.3 360.3 168.3 360.3 168.5 360.3 168.6 360.4 168.7 360.6 169.0 360.6 169.3 360.8 169.7 360.9 169.9 361.3 169.9 361.7 169.7 362.0 169.5 362.1 169.3 362.3 169.1 362.3 168.6 362.6 168.1 362.6 167.9 362.6 167.0 363.0 166.6 362.9 166.5 362.9 166.1 362.9 165.9 362.7 165.7 362.5 165.8 362.4 165.8 362.2 165.7 361.6 165.6 361.5 165.7 361.3 165.6 361.1 165.4 361.0 165.1 361.0 165.1 361.2 165.0 361.2 164.7 361.0 164.5 361.0 164.3 360.9 164.2 360.9 163.9 360.5 163.6 360.2 163.6 360.0 163.5 359.8 163.6 359.4 163.7 359.2 163.8 359.0 163.9 359.0 164.1 358.8 164.2 358.8 164.4 358.7 164.5 358.8 M 158.6 357.0 L 158.9 357.0 159.0 357.0 159.1 357.1 159.3 357.1 160.5 357.3 160.9 357.3 161.0 357.1 161.1 357.0 161.2 357.2 161.3 357.4 161.7 357.5 162.2 357.5 162.4 357.5 162.6 357.4 162.8 357.4 163.0 357.4 163.1 357.4 163.2 357.5 163.4 357.6 163.3 357.9 163.0 358.2 162.7 358.3 162.3 358.5 162.0 358.6 161.6 358.5 161.3 358.5 160.6 358.3 160.2 358.1 159.1 358.2 158.8 358.2 158.4 358.2 158.2 358.2 158.1 358.0 158.1 357.9 158.3 357.6 158.4 357.5 158.6 357.4 158.6 357.2 158.5 357.0 158.6 357.0 M 152.8 353.4 L 152.9 353.6 153.0 353.6 153.0 353.8 153.2 353.8 153.3 354.0 153.3 354.2 153.2 354.3 153.3 354.7 153.5 354.8 153.6 355.0 153.8 355.1 153.9 355.2 154.0 355.0 153.9 354.9 153.9 354.8 154.0 354.7 154.4 354.8 154.2 354.9 154.2 355.2 154.4 355.3 154.5 355.5 154.5 355.6 154.6 355.9 155.0 356.1 155.0 356.2 154.6 356.6 154.5 356.6 154.5 356.5 154.4 356.4 154.0 356.5 153.7 356.6 153.5 356.6 153.4 356.4 152.9 356.2 152.8 356.0 152.8 355.9 152.6 356.1 152.7 356.2 152.3 356.2 152.4 356.1 152.2 356.1 152.2 355.8 152.4 355.6 152.5 355.5 152.2 355.4 152.2 355.5 152.0 355.4 152.0 355.6 152.0 355.7 151.7 355.4 151.8 355.6 152.1 355.9 152.0 356.0 151.9 356.1 151.0 356.3 150.8 356.2 150.8 355.8 150.7 355.6 150.5 355.3 150.3 355.2 150.3 355.0 150.2 354.9 150.0 354.7 149.8 354.5 149.8 354.0 149.8 353.9 149.4 353.6 149.8 353.5 150.2 353.5 150.8 353.5 150.9 353.4 151.0 353.3 151.3 353.1 151.3 353.0 151.4 352.7 151.8 352.4 152.0 352.4 152.2 352.4 152.5 352.7 152.6 353.0 152.6 353.1 152.8 353.4 M 132.3 351.5 L 132.2 351.5 132.0 351.4 131.9 351.1 131.9 350.9 132.0 350.7 132.3 350.3 132.6 350.1 133.0 349.9 133.1 349.7 133.1 349.5 133.2 349.4 133.4 349.4 133.6 349.5 133.6 349.7 133.4 349.9 133.4 350.1 133.4 350.3 133.3 350.5 133.0 350.6 132.9 350.7 132.5 350.9 132.5 351.1 132.3 351.5 M 139.6 347.4 L 139.7 347.5 139.8 347.5 140.0 347.6 140.1 347.7 140.2 347.8 140.3 348.2 140.4 348.2 140.4 348.6 140.3 348.7 140.2 349.0 140.0 349.1 140.0 349.4 140.1 349.7 140.0 350.0 139.8 350.0 139.9 350.2 139.7 350.2 139.6 350.3 139.5 350.5 139.2 350.7 139.1 350.8 138.7 350.6 138.3 350.6 137.8 350.5 137.7 350.5 137.6 350.6 137.6 350.5 137.3 350.4 137.2 350.1 137.1 350.1 137.0 350.0 136.8 349.9 136.5 349.8 136.2 349.7 136.1 349.5 136.0 349.3 136.0 348.9 136.1 348.9 136.5 348.5 136.5 348.2 136.6 348.1 137.1 348.0 137.3 347.8 137.5 347.7 137.7 347.6 137.8 347.5 138.1 347.4 138.2 347.5 138.6 347.6 138.6 347.5 138.7 347.4 139.1 347.4 139.3 347.5 139.5 347.4 139.6 347.4 Z" vector-effect="non-scaling-stroke" stroke="silver" stroke-width="1" class="highcharts-drilldown-point" style="cursor:pointer;">
				</path>
				<path fill="rgb(38,110,96)" d="M 59.1 307.6 L 59.1 307.4 59.9 306.8 60.8 307.2 62.3 307.3 63.7 306.6 64.5 305.7 66.1 306.6 66.0 307.2 65.3 307.4 65.3 308.1 65.8 308.1 66.6 307.0 67.4 307.7 67.2 308.5 67.9 308.8 68.3 308.4 69.2 308.4 70.8 309.2 70.0 310.2 71.3 310.4 70.9 310.9 72.1 311.1 74.0 311.0 75.3 311.2 76.2 312.1 76.6 311.9 77.1 312.5 78.1 312.9 80.0 313.0 80.9 313.8 82.0 313.9 82.8 313.5 84.0 313.3 85.1 313.8 85.6 314.5 86.3 314.7 86.9 315.4 87.6 315.4 89.0 357.6 91.2 358.1 92.0 357.4 93.3 357.3 93.1 358.5 94.3 359.3 94.6 359.9 97.0 362.0 97.6 363.5 98.8 362.2 99.3 362.2 99.7 360.1 101.6 359.0 102.8 360.1 102.7 360.6 104.5 362.1 105.0 363.0 105.9 363.3 107.3 364.6 110.9 369.6 111.5 370.3 111.4 371.1 112.1 371.3 112.4 372.2 112.9 372.1 116.9 373.6 117.4 374.4 117.1 375.2 118.0 377.2 117.4 379.0 116.6 379.8 116.0 379.8 115.3 378.1 115.7 377.3 115.3 375.7 114.4 374.7 113.1 375.3 112.8 377.1 111.8 376.1 112.3 375.8 112.5 373.9 110.7 372.4 110.5 371.7 108.5 370.1 107.7 370.2 108.0 369.1 107.3 368.4 107.0 367.5 105.9 366.4 105.8 364.8 105.4 365.8 105.1 365.7 105.3 365.9 104.5 365.7 104.3 365.4 104.9 365.5 104.0 365.1 102.2 361.4 102.3 362.9 103.4 365.4 103.2 366.0 102.4 365.4 101.3 365.5 101.4 364.8 100.6 363.3 100.5 363.9 98.4 362.7 98.5 363.5 99.5 363.5 100.9 364.9 100.9 365.7 99.7 365.8 99.6 366.4 97.1 364.8 95.5 362.9 93.3 361.9 91.7 361.0 92.6 360.1 92.2 359.4 90.6 360.3 88.1 359.7 88.5 359.0 87.4 359.2 85.0 358.6 82.4 359.1 81.7 358.4 80.2 357.7 80.6 356.0 80.0 356.7 79.8 357.6 78.8 357.0 77.9 356.9 78.7 355.9 77.3 356.0 76.3 355.5 76.8 355.2 76.3 354.5 75.1 354.8 74.2 354.5 73.2 354.8 73.2 353.6 72.5 355.8 73.0 355.2 73.5 356.5 72.8 357.2 72.2 358.8 70.5 358.4 69.4 358.9 69.1 359.9 68.8 359.6 67.5 360.7 68.0 359.6 66.8 361.2 66.1 361.5 65.1 361.3 64.1 361.6 63.8 360.9 65.1 360.3 66.3 359.1 65.2 359.6 64.3 358.8 65.5 357.1 66.1 355.6 65.9 354.7 66.7 354.5 68.2 353.6 69.0 354.2 69.5 354.0 71.0 354.5 69.1 353.1 69.3 352.7 68.3 352.6 68.2 352.0 66.6 353.2 65.7 353.4 63.7 355.5 63.9 355.9 62.9 356.6 63.0 357.1 61.6 358.8 60.1 358.8 59.9 359.6 58.9 359.8 58.5 361.4 59.7 361.4 60.5 362.6 58.4 363.8 58.5 364.4 57.6 364.8 56.8 365.7 55.7 365.6 54.6 366.7 54.2 366.3 53.7 367.4 53.0 367.1 51.5 368.1 52.0 368.1 51.2 369.5 50.7 369.1 49.5 370.1 49.0 369.6 48.7 370.6 48.0 370.2 45.8 371.3 46.5 371.8 45.0 372.9 42.7 373.3 42.0 372.7 39.4 373.9 38.9 373.5 37.8 374.0 37.2 373.7 37.8 373.0 37.2 372.6 35.7 374.5 34.7 374.9 34.4 373.3 33.4 374.8 33.0 373.9 31.9 374.9 32.2 373.7 34.7 372.6 37.0 371.3 39.5 371.4 39.6 372.0 40.9 372.6 40.3 371.7 41.1 370.5 43.0 369.6 45.2 368.9 45.9 369.4 46.1 368.2 47.3 367.1 49.0 366.3 50.3 362.4 51.6 361.5 51.7 360.7 49.0 361.4 48.2 360.3 48.7 359.2 47.4 360.3 47.4 361.5 46.7 361.8 46.0 359.3 45.1 359.7 44.4 359.2 44.4 358.1 43.0 358.8 41.9 358.8 41.6 359.3 39.7 358.8 40.9 358.7 41.0 357.5 40.8 356.2 41.9 355.4 41.3 352.3 41.5 351.1 40.7 352.7 38.0 352.8 37.0 352.3 37.2 351.5 36.5 349.8 35.8 349.4 35.2 348.1 37.3 347.6 38.7 348.2 39.1 349.3 39.8 348.7 38.8 347.9 37.5 347.5 36.4 346.8 36.9 346.5 36.4 345.3 36.1 345.9 35.5 344.1 36.0 343.7 35.2 343.0 36.2 343.0 35.8 342.1 36.9 342.4 37.1 341.2 38.9 339.9 39.4 339.9 39.9 338.6 40.9 337.6 42.0 337.3 42.6 337.7 43.2 338.9 43.7 338.9 45.0 338.2 46.0 337.4 46.1 337.8 48.1 338.1 49.2 337.3 49.4 335.0 48.8 333.9 50.3 333.3 49.9 331.8 49.3 332.4 48.0 332.2 46.7 332.9 45.6 333.0 45.1 332.1 43.4 331.5 42.1 331.6 40.2 330.2 39.9 329.4 40.3 328.7 39.7 327.2 40.4 327.6 41.4 327.2 39.4 325.8 38.5 324.5 39.1 324.0 40.4 323.8 40.8 324.0 41.7 323.5 44.6 322.8 46.3 322.7 47.7 323.1 46.8 324.7 47.0 325.4 49.7 326.3 50.0 326.9 51.0 325.8 52.0 326.2 51.3 325.2 50.4 325.3 50.7 324.7 50.0 322.5 50.6 322.4 50.9 323.4 50.7 323.8 51.2 325.0 52.0 324.8 52.5 325.7 53.5 325.9 53.7 325.3 52.7 324.4 51.5 324.7 51.1 323.7 51.6 322.2 50.5 322.2 48.6 321.0 48.7 319.9 48.6 318.5 47.2 315.8 46.5 315.2 45.9 313.9 46.7 313.2 47.3 311.9 48.1 312.3 50.3 312.8 51.7 312.3 52.9 311.4 53.2 310.2 53.7 309.5 54.7 308.6 55.0 308.9 56.0 307.9 56.2 308.4 57.6 308.4 58.9 307.5 59.1 307.6 M 59.1 307.6 L 59.2 307.7 59.2 307.7 59.2 307.7 58.6 308.8 59.3 308.1 59.2 307.7 59.2 307.7 59.2 307.7 59.2 307.6 59.1 307.6 M 4.2 377.2 L 3.4 377.1 4.2 376.7 4.5 377.1 4.2 377.2 M 11.6 377.5 L 12.3 377.6 12.0 378.1 11.8 377.7 11.6 377.5 M 15.8 378.5 L 15.5 378.2 14.1 378.5 15.9 377.0 16.3 377.3 16.8 376.4 18.0 376.4 18.0 377.3 16.7 377.5 15.8 378.5 M 25.0 376.0 L 24.2 376.3 23.7 375.7 24.2 375.4 25.0 376.0 M 32.7 377.2 L 32.7 376.7 33.3 377.1 33.4 377.5 32.7 377.2 M 31.1 373.5 L 31.6 373.7 31.7 375.1 30.9 375.6 29.6 375.1 28.6 375.7 27.5 375.4 27.4 374.6 28.2 374.4 28.8 373.7 29.7 373.9 31.1 373.5 M 42.1 376.5 L 42.1 376.7 41.6 376.4 41.9 376.1 42.1 376.5 M 111.2 380.3 L 111.1 381.1 109.9 379.4 110.0 378.7 110.7 380.0 111.2 380.3 M 114.9 378.7 L 114.9 379.7 114.0 379.1 114.0 377.9 114.9 378.7 M 41.1 375.5 L 41.0 376.0 39.9 376.6 40.8 375.9 41.1 375.5 M 40.2 374.4 L 39.6 374.5 39.4 375.5 38.7 375.4 38.8 374.4 40.2 374.4 M 113.2 377.4 L 113.8 377.9 113.6 378.6 113.1 377.7 113.2 377.4 M 108.6 377.8 L 108.7 377.9 109.2 377.7 108.8 378.9 108.6 377.8 M 109.2 376.2 L 108.8 376.8 108.3 376.6 108.3 376.3 109.2 376.2 M 114.4 374.8 L 115.2 375.8 115.4 377.2 115.0 378.2 113.2 377.2 113.5 376.8 113.3 375.5 114.4 374.8 M 107.8 376.0 L 108.0 375.2 109.0 374.7 109.1 375.3 107.8 376.0 M 111.0 374.2 L 112.0 374.4 111.6 375.4 110.5 374.7 110.8 373.5 111.0 374.2 M 110.4 373.2 L 110.5 373.9 109.4 373.8 109.7 373.2 110.4 373.2 M 111.7 373.4 L 112.3 374.0 112.1 374.4 111.2 373.8 111.1 372.8 111.7 373.4 M 56.0 372.1 L 55.9 372.5 55.2 373.0 55.4 372.4 56.0 372.1 M 57.1 372.6 L 57.2 372.8 56.3 372.6 56.5 372.2 57.1 372.6 M 109.6 371.7 L 110.5 372.4 110.0 373.0 109.6 373.0 109.6 371.7 M 59.6 370.1 L 60.2 370.2 59.1 370.8 59.0 370.4 59.6 370.1 M 102.7 370.5 L 102.7 371.6 102.2 371.7 102.4 370.9 102.7 370.5 M 100.5 367.3 L 100.3 368.0 100.0 367.3 100.1 366.9 100.5 367.3 M 60.2 365.9 L 60.8 366.5 60.5 366.5 59.6 366.0 60.2 365.9 M 61.3 365.2 L 61.7 364.4 62.3 365.1 62.9 364.9 63.2 365.7 62.8 366.1 61.0 366.5 60.2 365.9 60.5 365.2 61.3 365.2 M 62.1 364.4 L 61.7 364.1 62.5 363.8 62.4 364.2 62.1 364.4 M 42.8 359.7 L 42.1 360.0 42.3 359.3 43.3 359.1 42.8 359.7 M 73.5 358.4 L 73.4 358.8 72.8 358.9 73.3 358.0 73.5 358.4 M 75.3 357.2 L 75.7 357.5 74.4 359.1 73.3 359.7 73.9 358.8 75.1 357.7 75.3 357.2 M 33.5 348.3 L 34.3 349.0 33.8 350.0 34.0 350.7 32.5 350.7 31.5 350.2 30.6 349.0 30.3 348.1 31.6 348.5 31.9 348.2 33.5 348.3 M 76.6 356.8 L 77.5 357.0 76.4 357.8 76.7 357.3 76.6 356.8 M 74.0 356.5 L 74.2 356.8 73.9 357.6 73.6 357.1 74.0 356.5 M 19.9 342.5 L 19.7 342.8 19.2 341.6 19.3 341.2 19.9 342.5 M 77.6 356.8 L 77.2 356.9 77.2 356.6 78.4 356.3 77.6 356.8 M 23.3 376.3 L 21.9 377.1 23.4 376.9 22.7 377.4 19.0 378.0 18.0 377.7 20.0 377.6 21.1 375.6 22.3 375.8 22.0 376.5 22.9 376.0 23.3 376.3 M 109.7 378.6 L 110.1 376.9 109.1 377.1 109.3 375.9 109.0 374.7 108.3 374.7 108.0 373.9 109.2 373.9 109.6 375.1 110.5 375.2 112.6 378.2 113.3 380.3 112.9 380.8 111.7 379.1 110.8 379.5 110.8 378.5 109.7 378.6 M 102.6 370.0 L 103.0 369.1 104.3 370.0 105.3 372.6 105.5 375.1 104.0 373.0 104.0 372.2 103.4 372.3 103.8 371.3 103.3 371.2 103.3 370.4 102.6 370.0 M 60.9 366.7 L 60.6 367.5 61.8 366.8 62.0 367.6 61.7 368.4 62.4 368.4 61.8 369.2 60.3 368.6 61.1 369.2 61.0 369.7 59.8 369.5 58.3 370.6 57.2 372.0 57.0 371.5 58.0 370.0 57.3 370.0 56.8 370.9 56.2 370.4 56.3 369.6 55.8 369.0 56.0 368.3 57.4 367.4 57.9 367.7 58.0 368.8 58.4 367.7 58.2 367.0 58.9 366.7 59.1 367.6 59.4 366.4 60.3 367.1 59.9 366.3 60.9 366.7 M 101.9 368.3 L 102.7 369.6 101.9 369.9 101.6 368.9 100.4 368.1 100.6 367.4 101.6 366.0 103.9 366.8 104.0 367.8 102.9 367.9 103.3 368.3 104.0 368.0 104.4 369.2 103.8 369.4 101.9 368.3 M 105.4 369.9 L 104.8 368.7 104.1 366.4 103.6 365.2 104.3 366.1 105.5 366.1 106.5 367.5 106.3 368.0 105.5 366.5 105.7 367.4 106.5 368.3 106.6 369.7 105.2 371.3 105.0 370.3 105.4 369.9 M 29.2 330.4 L 29.5 330.7 30.3 330.5 30.9 330.8 30.9 331.8 31.7 332.8 33.2 333.7 32.8 334.2 31.9 333.7 30.6 334.3 30.7 333.4 29.6 331.7 28.9 331.1 28.1 331.3 27.6 330.8 27.7 330.1 28.5 329.1 28.5 330.0 29.2 330.4 M 107.5 372.1 L 107.1 374.0 107.4 374.6 106.7 375.4 106.4 374.1 106.9 373.5 106.2 373.2 105.8 372.0 106.5 371.8 107.2 372.4 107.5 372.1 107.5 371.9 106.6 370.8 107.2 370.7 109.2 371.1 109.4 372.6 108.4 371.7 109.2 372.9 109.2 373.3 107.9 373.4 107.5 372.1 Z" vector-effect="non-scaling-stroke" stroke="silver" stroke-width="1" class="highcharts-drilldown-point" style="cursor:pointer;">
				</path>
			</g>
		</g>
		<g class="highcharts-markers highcharts-series-0 highcharts-tracker" transform="translate(10,46) scale(1 1)" style="" clip-path="none">
		</g>
	</g>
	<text x="292" text-anchor="middle" class="highcharts-title" style="color:#333333;font-size:18px;fill:#333333;width:520px;" y="24">
		<tspan>Highcharts Map Drilldown
		</tspan>
	</text>
	<text x="574" text-anchor="end" class="highcharts-subtitle" style="color:#555555;font-size:16px;fill:#555555;width:520px;" y="60">USA
	</text>
	<g class="highcharts-button" style="cursor:default;text-align:center;" transform="translate(10,429)">
		<title>Zoom in
		</title>
		<path fill="url(#highcharts-1)" d="M 1.5 -0.5 L 25.5 -0.5 C 26.5 -0.5 27.5 0.5 27.5 1.5 L 27.5 27.5 C 27.5 27.5 27.5 27.5 27.5 27.5 L -0.5 27.5 C -0.5 27.5 -0.5 27.5 -0.5 27.5 L -0.5 1.5 C -0.5 0.5 0.5 -0.5 1.5 -0.5 Z" stroke="#CCCCCC" stroke-width="1">
		</path>
		<text x="8.0" style="font-size:15px;font-weight:bold;color:black;fill:black;" y="19">+
		</text>
	</g>
	<g class="highcharts-button" style="cursor:default;text-align:center;" transform="translate(10,457)">
		<title>Zoom out
		</title>
		<path fill="url(#highcharts-1)" d="M -0.5 -0.5 L 27.5 -0.5 C 27.5 -0.5 27.5 -0.5 27.5 -0.5 L 27.5 25.5 C 27.5 26.5 26.5 27.5 25.5 27.5 L 1.5 27.5 C 0.5 27.5 -0.5 26.5 -0.5 25.5 L -0.5 -0.5 C -0.5 -0.5 -0.5 -0.5 -0.5 -0.5 Z" stroke="#CCCCCC" stroke-width="1">
		</path>
		<text x="9.2" style="font-size:15px;font-weight:bold;color:black;fill:black;" y="19">-
		</text>
	</g>
	<g class="highcharts-data-labels highcharts-series-0 highcharts-tracker" visibility="visible" transform="translate(10,46) scale(1 1)" clip-path="url(#highcharts-3)" style="">
		<g style="cursor:pointer;" transform="translate(443,132)" class="highcharts-drilldown-data-label">
			<text x="0" style="font-size:11px;font-weight:bold;color:#ffffff;text-shadow:0 0 3px #000000;fill:#ffffff;text-rendering:geometricprecision;text-decoration:none;" y="11">
				<tspan>MA
				</tspan>
			</text>
		</g>
		<g style="cursor:pointer;" transform="translate(50,76)" class="highcharts-drilldown-data-label">
			<text x="0" style="font-size:11px;font-weight:bold;color:#ffffff;text-shadow:0 0 3px #000000;fill:#ffffff;text-rendering:geometricprecision;text-decoration:none;" y="11">
				<tspan>WA
				</tspan>
			</text>
		</g>
		<g style="cursor:pointer;" transform="translate(30,211)" class="highcharts-drilldown-data-label">
			<text x="0" style="font-size:11px;font-weight:bold;color:#ffffff;text-shadow:0 0 3px #000000;fill:#ffffff;text-rendering:geometricprecision;text-decoration:none;" y="11">
				<tspan>CA
				</tspan>
			</text>
		</g>
		<g style="cursor:pointer;" transform="translate(34,113)" class="highcharts-drilldown-data-label">
			<text x="0" style="font-size:11px;font-weight:bold;color:#ffffff;text-shadow:0 0 3px #000000;fill:#ffffff;text-rendering:geometricprecision;text-decoration:none;" y="11">
				<tspan>OR
				</tspan>
			</text>
		</g>
		<g style="cursor:pointer;" transform="translate(287,125)" class="highcharts-drilldown-data-label">
			<text x="0" style="font-size:11px;font-weight:bold;color:#ffffff;text-shadow:0 0 3px #000000;fill:#ffffff;text-rendering:geometricprecision;text-decoration:none;" y="11">
				<tspan>WI
				</tspan>
			</text>
		</g>
		<g style="cursor:pointer;" transform="translate(458,90)" class="highcharts-drilldown-data-label">
			<text x="0" style="font-size:11px;font-weight:bold;color:#ffffff;text-shadow:0 0 3px #000000;fill:#ffffff;text-rendering:geometricprecision;text-decoration:none;" y="11">
				<tspan>ME
				</tspan>
			</text>
		</g>
		<g style="cursor:pointer;" transform="translate(337,139)" class="highcharts-drilldown-data-label">
			<text x="0" style="font-size:11px;font-weight:bold;color:#ffffff;text-shadow:0 0 3px #000000;fill:#ffffff;text-rendering:geometricprecision;text-decoration:none;" y="11">
				<tspan>MI
				</tspan>
			</text>
		</g>
		<g style="cursor:pointer;" transform="translate(53,171)" class="highcharts-drilldown-data-label">
			<text x="0" style="font-size:11px;font-weight:bold;color:#ffffff;text-shadow:0 0 3px #000000;fill:#ffffff;text-rendering:geometricprecision;text-decoration:none;" y="11">
				<tspan>NV
				</tspan>
			</text>
		</g>
		<g style="cursor:pointer;" transform="translate(142,247)" class="highcharts-drilldown-data-label">
			<text x="0" style="font-size:11px;font-weight:bold;color:#ffffff;text-shadow:0 0 3px #000000;fill:#ffffff;text-rendering:geometricprecision;text-decoration:none;" y="11">
				<tspan>NM
				</tspan>
			</text>
		</g>
		<g style="cursor:pointer;" transform="translate(153,194)" class="highcharts-drilldown-data-label">
			<text x="0" style="font-size:11px;font-weight:bold;color:#ffffff;text-shadow:0 0 3px #000000;fill:#ffffff;text-rendering:geometricprecision;text-decoration:none;" y="11">
				<tspan>CO
				</tspan>
			</text>
		</g>
		<g style="cursor:pointer;" transform="translate(141,146)" class="highcharts-drilldown-data-label">
			<text x="0" style="font-size:11px;font-weight:bold;color:#ffffff;text-shadow:0 0 3px #000000;fill:#ffffff;text-rendering:geometricprecision;text-decoration:none;" y="11">
				<tspan>WY
				</tspan>
			</text>
		</g>
		<g style="cursor:pointer;" transform="translate(206,204)" class="highcharts-drilldown-data-label">
			<text x="0" style="font-size:11px;font-weight:bold;color:#ffffff;text-shadow:0 0 3px #000000;fill:#ffffff;text-rendering:geometricprecision;text-decoration:none;" y="11">
				<tspan>KS
				</tspan>
			</text>
		</g>
		<g style="cursor:pointer;" transform="translate(203,168)" class="highcharts-drilldown-data-label">
			<text x="0" style="font-size:11px;font-weight:bold;color:#ffffff;text-shadow:0 0 3px #000000;fill:#ffffff;text-rendering:geometricprecision;text-decoration:none;" y="11">
				<tspan>NE
				</tspan>
			</text>
		</g>
		<g style="cursor:pointer;" transform="translate(237,241)" class="highcharts-drilldown-data-label">
			<text x="0" style="font-size:11px;font-weight:bold;color:#ffffff;text-shadow:0 0 3px #000000;fill:#ffffff;text-rendering:geometricprecision;text-decoration:none;" y="11">
				<tspan>OK
				</tspan>
			</text>
		</g>
		<g style="cursor:pointer;" transform="translate(271,206)" class="highcharts-drilldown-data-label">
			<text x="0" style="font-size:11px;font-weight:bold;color:#ffffff;text-shadow:0 0 3px #000000;fill:#ffffff;text-rendering:geometricprecision;text-decoration:none;" y="11">
				<tspan>MO
				</tspan>
			</text>
		</g>
		<g style="cursor:pointer;" transform="translate(304,184)" class="highcharts-drilldown-data-label">
			<text x="0" style="font-size:11px;font-weight:bold;color:#ffffff;text-shadow:0 0 3px #000000;fill:#ffffff;text-rendering:geometricprecision;text-decoration:none;" y="11">
				<tspan>IL
				</tspan>
			</text>
		</g>
		<g style="cursor:pointer;" transform="translate(329,182)" class="highcharts-drilldown-data-label">
			<text x="0" style="font-size:11px;font-weight:bold;color:#ffffff;text-shadow:0 0 3px #000000;fill:#ffffff;text-rendering:geometricprecision;text-decoration:none;" y="11">
				<tspan>IN
				</tspan>
			</text>
		</g>
		<g style="cursor:pointer;" transform="translate(433,114)" class="highcharts-drilldown-data-label" opacity="0" visibility="hidden">
			<text x="0" style="font-size:11px;font-weight:bold;color:#ffffff;text-shadow:0 0 3px #000000;fill:#ffffff;text-rendering:geometricprecision;text-decoration:none;" y="11">
				<tspan>VT
				</tspan>
			</text>
		</g>
		<g style="cursor:pointer;" transform="translate(275,244)" class="highcharts-drilldown-data-label">
			<text x="0" style="font-size:11px;font-weight:bold;color:#ffffff;text-shadow:0 0 3px #000000;fill:#ffffff;text-rendering:geometricprecision;text-decoration:none;" y="11">
				<tspan>AR
				</tspan>
			</text>
		</g>
		<g style="cursor:pointer;" transform="translate(225,292)" class="highcharts-drilldown-data-label">
			<text x="0" style="font-size:11px;font-weight:bold;color:#ffffff;text-shadow:0 0 3px #000000;fill:#ffffff;text-rendering:geometricprecision;text-decoration:none;" y="11">
				<tspan>TX
				</tspan>
			</text>
		</g>
		<g style="cursor:pointer;" transform="translate(454,142)" class="highcharts-drilldown-data-label" opacity="0" visibility="hidden">
			<text x="0" style="font-size:11px;font-weight:bold;color:#ffffff;text-shadow:0 0 3px #000000;fill:#ffffff;text-rendering:geometricprecision;text-decoration:none;" y="11">
				<tspan>RI
				</tspan>
			</text>
		</g>
		<g style="cursor:pointer;" transform="translate(333,264)" class="highcharts-drilldown-data-label">
			<text x="0" style="font-size:11px;font-weight:bold;color:#ffffff;text-shadow:0 0 3px #000000;fill:#ffffff;text-rendering:geometricprecision;text-decoration:none;" y="11">
				<tspan>AL
				</tspan>
			</text>
		</g>
		<g style="cursor:pointer;" transform="translate(301,270)" class="highcharts-drilldown-data-label">
			<text x="0" style="font-size:11px;font-weight:bold;color:#ffffff;text-shadow:0 0 3px #000000;fill:#ffffff;text-rendering:geometricprecision;text-decoration:none;" y="11">
				<tspan>MS
				</tspan>
			</text>
		</g>
		<g style="cursor:pointer;" transform="translate(402,224)" class="highcharts-drilldown-data-label">
			<text x="0" style="font-size:11px;font-weight:bold;color:#ffffff;text-shadow:0 0 3px #000000;fill:#ffffff;text-rendering:geometricprecision;text-decoration:none;" y="11">
				<tspan>NC
				</tspan>
			</text>
		</g>
		<g style="cursor:pointer;" transform="translate(403,200)" class="highcharts-drilldown-data-label">
			<text x="0" style="font-size:11px;font-weight:bold;color:#ffffff;text-shadow:0 0 3px #000000;fill:#ffffff;text-rendering:geometricprecision;text-decoration:none;" y="11">
				<tspan>VA
				</tspan>
			</text>
		</g>
		<g style="cursor:pointer;" transform="translate(257,163)" class="highcharts-drilldown-data-label">
			<text x="0" style="font-size:11px;font-weight:bold;color:#ffffff;text-shadow:0 0 3px #000000;fill:#ffffff;text-rendering:geometricprecision;text-decoration:none;" y="11">
				<tspan>IA
				</tspan>
			</text>
		</g>
		<g style="cursor:pointer;" transform="translate(412,176)" class="highcharts-drilldown-data-label">
			<text x="0" style="font-size:11px;font-weight:bold;color:#ffffff;text-shadow:0 0 3px #000000;fill:#ffffff;text-rendering:geometricprecision;text-decoration:none;" y="11">
				<tspan>MD
				</tspan>
			</text>
		</g>
		<g style="cursor:pointer;" transform="translate(429,181)" class="highcharts-drilldown-data-label" opacity="0" visibility="hidden">
			<text x="0" style="font-size:11px;font-weight:bold;color:#ffffff;text-shadow:0 0 3px #000000;fill:#ffffff;text-rendering:geometricprecision;text-decoration:none;" y="11">
				<tspan>DE
				</tspan>
			</text>
		</g>
		<g style="cursor:pointer;" transform="translate(402,161)" class="highcharts-drilldown-data-label">
			<text x="0" style="font-size:11px;font-weight:bold;color:#ffffff;text-shadow:0 0 3px #000000;fill:#ffffff;text-rendering:geometricprecision;text-decoration:none;" y="11">
				<tspan>PA
				</tspan>
			</text>
		</g>
		<g style="cursor:pointer;" transform="translate(432,168)" class="highcharts-drilldown-data-label">
			<text x="0" style="font-size:11px;font-weight:bold;color:#ffffff;text-shadow:0 0 3px #000000;fill:#ffffff;text-rendering:geometricprecision;text-decoration:none;" y="11">
				<tspan>NJ
				</tspan>
			</text>
		</g>
		<g style="cursor:pointer;" transform="translate(418,132)" class="highcharts-drilldown-data-label">
			<text x="0" style="font-size:11px;font-weight:bold;color:#ffffff;text-shadow:0 0 3px #000000;fill:#ffffff;text-rendering:geometricprecision;text-decoration:none;" y="11">
				<tspan>NY
				</tspan>
			</text>
		</g>
		<g style="cursor:pointer;" transform="translate(90,131)" class="highcharts-drilldown-data-label">
			<text x="0" style="font-size:11px;font-weight:bold;color:#ffffff;text-shadow:0 0 3px #000000;fill:#ffffff;text-rendering:geometricprecision;text-decoration:none;" y="11">
				<tspan>ID
				</tspan>
			</text>
		</g>
		<g style="cursor:pointer;" transform="translate(205,134)" class="highcharts-drilldown-data-label">
			<text x="0" style="font-size:11px;font-weight:bold;color:#ffffff;text-shadow:0 0 3px #000000;fill:#ffffff;text-rendering:geometricprecision;text-decoration:none;" y="11">
				<tspan>SD
				</tspan>
			</text>
		</g>
		<g style="cursor:pointer;" transform="translate(442,144)" class="highcharts-drilldown-data-label" opacity="0" visibility="hidden">
			<text x="0" style="font-size:11px;font-weight:bold;color:#ffffff;text-shadow:0 0 3px #000000;fill:#ffffff;text-rendering:geometricprecision;text-decoration:none;" y="11">
				<tspan>CT
				</tspan>
			</text>
		</g>
		<g style="cursor:pointer;" transform="translate(444,116)" class="highcharts-drilldown-data-label">
			<text x="0" style="font-size:11px;font-weight:bold;color:#ffffff;text-shadow:0 0 3px #000000;fill:#ffffff;text-rendering:geometricprecision;text-decoration:none;" y="11">
				<tspan>NH
				</tspan>
			</text>
		</g>
		<g style="cursor:pointer;" transform="translate(346,209)" class="highcharts-drilldown-data-label">
			<text x="0" style="font-size:11px;font-weight:bold;color:#ffffff;text-shadow:0 0 3px #000000;fill:#ffffff;text-rendering:geometricprecision;text-decoration:none;" y="11">
				<tspan>KY
				</tspan>
			</text>
		</g>
		<g style="cursor:pointer;" transform="translate(354,176)" class="highcharts-drilldown-data-label">
			<text x="0" style="font-size:11px;font-weight:bold;color:#ffffff;text-shadow:0 0 3px #000000;fill:#ffffff;text-rendering:geometricprecision;text-decoration:none;" y="11">
				<tspan>OH
				</tspan>
			</text>
		</g>
		<g style="cursor:pointer;" transform="translate(329,231)" class="highcharts-drilldown-data-label">
			<text x="0" style="font-size:11px;font-weight:bold;color:#ffffff;text-shadow:0 0 3px #000000;fill:#ffffff;text-rendering:geometricprecision;text-decoration:none;" y="11">
				<tspan>TN
				</tspan>
			</text>
		</g>
		<g style="cursor:pointer;" transform="translate(376,191)" class="highcharts-drilldown-data-label">
			<text x="0" style="font-size:11px;font-weight:bold;color:#ffffff;text-shadow:0 0 3px #000000;fill:#ffffff;text-rendering:geometricprecision;text-decoration:none;" y="11">
				<tspan>WV
				</tspan>
			</text>
		</g>
		<g style="cursor:pointer;" transform="translate(411,182)" class="highcharts-drilldown-data-label" opacity="0" visibility="hidden">
			<text x="0" style="font-size:11px;font-weight:bold;color:#ffffff;text-shadow:0 0 3px #000000;fill:#ffffff;text-rendering:geometricprecision;text-decoration:none;" y="11">
				<tspan>DC
				</tspan>
			</text>
		</g>
		<g style="cursor:pointer;" transform="translate(278,288)" class="highcharts-drilldown-data-label">
			<text x="0" style="font-size:11px;font-weight:bold;color:#ffffff;text-shadow:0 0 3px #000000;fill:#ffffff;text-rendering:geometricprecision;text-decoration:none;" y="11">
				<tspan>LA
				</tspan>
			</text>
		</g>
		<g style="cursor:pointer;" transform="translate(392,316)" class="highcharts-drilldown-data-label">
			<text x="0" style="font-size:11px;font-weight:bold;color:#ffffff;text-shadow:0 0 3px #000000;fill:#ffffff;text-rendering:geometricprecision;text-decoration:none;" y="11">
				<tspan>FL
				</tspan>
			</text>
		</g>
		<g style="cursor:pointer;" transform="translate(361,264)" class="highcharts-drilldown-data-label">
			<text x="0" style="font-size:11px;font-weight:bold;color:#ffffff;text-shadow:0 0 3px #000000;fill:#ffffff;text-rendering:geometricprecision;text-decoration:none;" y="11">
				<tspan>GA
				</tspan>
			</text>
		</g>
		<g style="cursor:pointer;" transform="translate(388,244)" class="highcharts-drilldown-data-label">
			<text x="0" style="font-size:11px;font-weight:bold;color:#ffffff;text-shadow:0 0 3px #000000;fill:#ffffff;text-rendering:geometricprecision;text-decoration:none;" y="11">
				<tspan>SC
				</tspan>
			</text>
		</g>
		<g style="cursor:pointer;" transform="translate(252,119)" class="highcharts-drilldown-data-label">
			<text x="0" style="font-size:11px;font-weight:bold;color:#ffffff;text-shadow:0 0 3px #000000;fill:#ffffff;text-rendering:geometricprecision;text-decoration:none;" y="11">
				<tspan>MN
				</tspan>
			</text>
		</g>
		<g style="cursor:pointer;" transform="translate(134,98)" class="highcharts-drilldown-data-label">
			<text x="0" style="font-size:11px;font-weight:bold;color:#ffffff;text-shadow:0 0 3px #000000;fill:#ffffff;text-rendering:geometricprecision;text-decoration:none;" y="11">
				<tspan>MT
				</tspan>
			</text>
		</g>
		<g style="cursor:pointer;" transform="translate(203,99)" class="highcharts-drilldown-data-label">
			<text x="0" style="font-size:11px;font-weight:bold;color:#ffffff;text-shadow:0 0 3px #000000;fill:#ffffff;text-rendering:geometricprecision;text-decoration:none;" y="11">
				<tspan>ND
				</tspan>
			</text>
		</g>
		<g style="cursor:pointer;" transform="translate(88,239)" class="highcharts-drilldown-data-label">
			<text x="0" style="font-size:11px;font-weight:bold;color:#ffffff;text-shadow:0 0 3px #000000;fill:#ffffff;text-rendering:geometricprecision;text-decoration:none;" y="11">
				<tspan>AZ
				</tspan>
			</text>
		</g>
		<g style="cursor:pointer;" transform="translate(101,187)" class="highcharts-drilldown-data-label">
			<text x="0" style="font-size:11px;font-weight:bold;color:#ffffff;text-shadow:0 0 3px #000000;fill:#ffffff;text-rendering:geometricprecision;text-decoration:none;" y="11">
				<tspan>UT
				</tspan>
			</text>
		</g>
		<g style="cursor:pointer;" transform="translate(168,366)" class="highcharts-drilldown-data-label">
			<text x="0" style="font-size:11px;font-weight:bold;color:#ffffff;text-shadow:0 0 3px #000000;fill:#ffffff;text-rendering:geometricprecision;text-decoration:none;" y="11">
				<tspan>HI
				</tspan>
			</text>
		</g>
		<g style="cursor:pointer;" transform="translate(56,325)" class="highcharts-drilldown-data-label">
			<text x="0" style="font-size:11px;font-weight:bold;color:#ffffff;text-shadow:0 0 3px #000000;fill:#ffffff;text-rendering:geometricprecision;text-decoration:none;" y="11">
				<tspan>AK
				</tspan>
			</text>
		</g>
	</g>
	<g class="highcharts-legend" transform="translate(508,138)">
		<g>
			<g>
				<g class="highcharts-legend-item" transform="translate(8,3)">
					<rect x="0" y="4" width="12" height="200" fill="url(#highcharts-2)">
					</rect>
					<g class="highcharts-grid">
						<path fill="none" d="M 0 3.5 L 12 3.5" stroke="#D8D8D8" stroke-width="1" opacity="1">
						</path>
						<path fill="none" d="M 0 71.5 L 12 71.5" stroke="#D8D8D8" stroke-width="1" opacity="1">
						</path>
						<path fill="none" d="M 0 137.5 L 12 137.5" stroke="#D8D8D8" stroke-width="1" opacity="1">
						</path>
						<path fill="none" d="M 0 204.5 L 12 204.5" stroke="#D8D8D8" stroke-width="1" opacity="1">
						</path>
					</g>
					<text x="21" style="color:#333333;font-size:12px;font-weight:bold;cursor:pointer;fill:#333333;" text-anchor="start" y="15">
					</text>
					<g class="highcharts-axis">
					</g>
					<g class="highcharts-axis-labels highcharts-coloraxis-labels">
						<text x="27" style="color:#606060;cursor:default;font-size:11px;fill:#606060;width:183px;text-overflow:clip;" text-anchor="start" transform="translate(0,0)" y="9" opacity="1">0
						</text>
						<text x="27" style="color:#606060;cursor:default;font-size:11px;fill:#606060;width:183px;text-overflow:clip;" text-anchor="start" transform="translate(0,0)" y="75" opacity="1">20
						</text>
						<text x="27" style="color:#606060;cursor:default;font-size:11px;fill:#606060;width:183px;text-overflow:clip;" text-anchor="start" transform="translate(0,0)" y="142" opacity="1">40
						</text>
						<text x="27" style="color:#606060;cursor:default;font-size:11px;fill:#606060;width:183px;text-overflow:clip;" text-anchor="start" transform="translate(0,0)" y="209" opacity="1">60
						</text>
					</g>
				</g>
			</g>
		</g>
	</g>
	<g class="highcharts-axis-labels highcharts-xaxis-labels">
	</g>
	<g class="highcharts-axis-labels highcharts-yaxis-labels">
	</g>
	<g class="highcharts-tooltip" style="cursor:default;padding:0;pointer-events:none;white-space:nowrap;" transform="translate(0,-9999)">
		<path fill="none" d="M 3.5 0.5 L 13.5 0.5 C 16.5 0.5 16.5 0.5 16.5 3.5 L 16.5 13.5 C 16.5 16.5 16.5 16.5 13.5 16.5 L 3.5 16.5 C 0.5 16.5 0.5 16.5 0.5 13.5 L 0.5 3.5 C 0.5 0.5 0.5 0.5 3.5 0.5"  stroke="black" stroke-opacity="0.0" stroke-width="5" transform="translate(1, 1)">
		</path>
		<path fill="none" d="M 3.5 0.5 L 13.5 0.5 C 16.5 0.5 16.5 0.5 16.5 3.5 L 16.5 13.5 C 16.5 16.5 16.5 16.5 13.5 16.5 L 3.5 16.5 C 0.5 16.5 0.5 16.5 0.5 13.5 L 0.5 3.5 C 0.5 0.5 0.5 0.5 3.5 0.5"  stroke="black" stroke-opacity="0.0" stroke-width="3" transform="translate(1, 1)">
		</path>
		<path fill="none" d="M 3.5 0.5 L 13.5 0.5 C 16.5 0.5 16.5 0.5 16.5 3.5 L 16.5 13.5 C 16.5 16.5 16.5 16.5 13.5 16.5 L 3.5 16.5 C 0.5 16.5 0.5 16.5 0.5 13.5 L 0.5 3.5 C 0.5 0.5 0.5 0.5 3.5 0.5"  stroke="black" stroke-opacity="0.1" stroke-width="1" transform="translate(1, 1)">
		</path>
		<path fill="rgb(249, 249, 249)" fill-opacity=" .85" d="M 3.5 0.5 L 13.5 0.5 C 16.5 0.5 16.5 0.5 16.5 3.5 L 16.5 13.5 C 16.5 16.5 16.5 16.5 13.5 16.5 L 3.5 16.5 C 0.5 16.5 0.5 16.5 0.5 13.5 L 0.5 3.5 C 0.5 0.5 0.5 0.5 3.5 0.5">
		</path>
		<text x="8" style="font-size:12px;color:#333333;fill:#333333;" y="20">
		</text>
	</g>
</svg>