<?xml version="1.0" encoding="UTF-8" standalone="no"?>
<!DOCTYPE svg PUBLIC "-//W3C//DTD SVG 1.1//EN"
"http://www.w3.org/Graphics/SVG/1.1/DTD/svg11.dtd">
<svg version="1.1" style="font-family:&quot;lucida grande&quot;, &quot;lucida sans unicode&quot;, arial, helvetica, sans-serif;font-size:12px;" xmlns="http://www.w3.org/2000/svg" viewBox="0 0 584 400">
	<desc>Created with Highcharts 4.2.4
	</desc>
	<defs>
		<clipPath id="highcharts-1">
			<rect x="0" y="0" width="501" height="318">
			</rect>
		</clipPath>
	</defs>
	<rect x="0" y="0" width="584" height="400" fill="#FFFFFF" class=" highcharts-background" stroke="transparent">
	</rect>
	<path fill="rgb(68, 170, 213)" fill-opacity=" .2" d="M 430.5 46 L 430.5 364 573.5 364 573.5 46">
	</path>
	<g class="highcharts-grid">
	</g>
	<g class="highcharts-grid">
		<path fill="none" d="M 73 364.5 L 574 364.5" stroke="#D8D8D8" stroke-width="1" opacity="1">
		</path>
		<path fill="none" d="M 73 311.5 L 574 311.5" stroke="#D8D8D8" stroke-width="1" opacity="1">
		</path>
		<path fill="none" d="M 73 258.5 L 574 258.5" stroke="#D8D8D8" stroke-width="1" opacity="1">
		</path>
		<path fill="none" d="M 73 205.5 L 574 205.5" stroke="#D8D8D8" stroke-width="1" opacity="1">
		</path>
		<path fill="none" d="M 73 152.5 L 574 152.5" stroke="#D8D8D8" stroke-width="1" opacity="1">
		</path>
		<path fill="none" d="M 73 99.5 L 574 99.5" stroke="#D8D8D8" stroke-width="1" opacity="1">
		</path>
		<path fill="none" d="M 73 45.5 L 574 45.5" stroke="#D8D8D8" stroke-width="1" opacity="1">
		</path>
	</g>
	<g class="highcharts-axis">
		<path fill="none" d="M 144.5 364 L 144.5 374" stroke="#C0D0E0" stroke-width="1" opacity="1">
		</path>
		<path fill="none" d="M 215.5 364 L 215.5 374" stroke="#C0D0E0" stroke-width="1" opacity="1">
		</path>
		<path fill="none" d="M 287.5 364 L 287.5 374" stroke="#C0D0E0" stroke-width="1" opacity="1">
		</path>
		<path fill="none" d="M 358.5 364 L 358.5 374" stroke="#C0D0E0" stroke-width="1" opacity="1">
		</path>
		<path fill="none" d="M 430.5 364 L 430.5 374" stroke="#C0D0E0" stroke-width="1" opacity="1">
		</path>
		<path fill="none" d="M 501.5 364 L 501.5 374" stroke="#C0D0E0" stroke-width="1" opacity="1">
		</path>
		<path fill="none" d="M 574.5 364 L 574.5 374" stroke="#C0D0E0" stroke-width="1" opacity="1">
		</path>
		<path fill="none" d="M 72.5 364 L 72.5 374" stroke="#C0D0E0" stroke-width="1" opacity="1">
		</path>
		<path fill="none" d="M 73 364.5 L 574 364.5" stroke="#C0D0E0" stroke-width="1">
		</path>
	</g>
	<g class="highcharts-axis">
		<text x="23.6" text-anchor="middle" transform="translate(0,0) rotate(270 23.6 205)" class=" highcharts-yaxis-title" style="color:#707070;fill:#707070;" y="205">
			<tspan>Fruit units
			</tspan>
		</text>
	</g>
	<g class="highcharts-series-group">
		<g class="highcharts-series highcharts-series-0" transform="translate(73,46) scale(1 1)" clip-path="url(#highcharts-1)">
			<path fill="#7cb5ec" d="M 35.7 254.4 C 35.7 254.4 78.7 233.2 107.3 233.2 C 135.9 233.2 150.3 254.4 178.9 254.4 C 207.5 254.4 221.8 212 250.5 212 C 279.1 212 293.4 233.2 322.0 233.2 C 350.7 233.2 365.0 139.9 393.6 106 C 422.2 72.0 465.2 63.6 465.2 63.6 L 465.2 318 C 465.2 318 422.2 318 393.6 318 C 365.0 318 350.7 318 322.0 318 C 293.4 318 279.1 318 250.5 318 C 221.8 318 207.5 318 178.9 318 C 150.3 318 135.9 318 107.3 318 C 78.7 318 35.7 318 35.7 318" fill-opacity="0.5">
			</path>
			<path fill="none" d="M 35.7 254.4 C 35.7 254.4 78.7 233.2 107.3 233.2 C 135.9 233.2 150.3 254.4 178.9 254.4 C 207.5 254.4 221.8 212 250.5 212 C 279.1 212 293.4 233.2 322.0 233.2 C 350.7 233.2 365.0 139.9 393.6 106 C 422.2 72.0 465.2 63.6 465.2 63.6" stroke="#7cb5ec" stroke-width="2" stroke-linejoin="round" stroke-linecap="round">
			</path>
			<path fill="none" d="M 25.7 254.4 L 35.7 254.4 C 35.7 254.4 78.7 233.2 107.3 233.2 C 135.9 233.2 150.3 254.4 178.9 254.4 C 207.5 254.4 221.8 212 250.5 212 C 279.1 212 293.4 233.2 322.0 233.2 C 350.7 233.2 365.0 139.9 393.6 106 C 422.2 72.0 465.2 63.6 465.2 63.6 L 475.2 63.6" stroke-linejoin="round" visibility="visible" stroke="rgb(192,192,192)" stroke-opacity="0.0" stroke-width="22" class=" highcharts-tracker" style="">
			</path>
		</g>
		<g class="highcharts-markers highcharts-series-0 highcharts-tracker" transform="translate(73,46) scale(1 1)" style="" clip-path="none">
			<path fill="#7cb5ec" d="M 465 59.6 C 470.3 59.6 470.3 67.6 465 67.6 C 459.6 67.6 459.6 59.6 465 59.6 Z">
			</path>
			<path fill="#7cb5ec" d="M 393 102 C 398.3 102 398.3 110 393 110 C 387.6 110 387.6 102 393 102 Z">
			</path>
			<path fill="#7cb5ec" d="M 322 229.2 C 327.3 229.2 327.3 237.2 322 237.2 C 316.6 237.2 316.6 229.2 322 229.2 Z">
			</path>
			<path fill="#7cb5ec" d="M 250 208 C 255.3 208 255.3 216 250 216 C 244.6 216 244.6 208 250 208 Z">
			</path>
			<path fill="#7cb5ec" d="M 178 250.4 C 183.3 250.4 183.3 258.4 178 258.4 C 172.6 258.4 172.6 250.4 178 250.4 Z">
			</path>
			<path fill="#7cb5ec" d="M 107 229.2 C 112.3 229.2 112.3 237.2 107 237.2 C 101.6 237.2 101.6 229.2 107 229.2 Z">
			</path>
			<path fill="#7cb5ec" d="M 35 250.4 C 40.3 250.4 40.3 258.4 35 258.4 C 29.6 258.4 29.6 250.4 35 250.4 Z">
			</path>
		</g>
		<g class="highcharts-series highcharts-series-1" transform="translate(73,46) scale(1 1)" clip-path="url(#highcharts-1)">
			<path fill="#434348" d="M 35.7 296.8 C 35.7 296.8 78.7 267.1 107.3 254.4 C 135.9 241.6 150.3 233.2 178.9 233.2 C 207.5 233.2 221.8 254.4 250.5 254.4 C 279.1 254.4 293.4 254.4 322.0 254.4 C 350.7 254.4 365.0 212 393.6 212 C 422.2 212 465.2 233.2 465.2 233.2 L 465.2 318 C 465.2 318 422.2 318 393.6 318 C 365.0 318 350.7 318 322.0 318 C 293.4 318 279.1 318 250.5 318 C 221.8 318 207.5 318 178.9 318 C 150.3 318 135.9 318 107.3 318 C 78.7 318 35.7 318 35.7 318" fill-opacity="0.5">
			</path>
			<path fill="none" d="M 35.7 296.8 C 35.7 296.8 78.7 267.1 107.3 254.4 C 135.9 241.6 150.3 233.2 178.9 233.2 C 207.5 233.2 221.8 254.4 250.5 254.4 C 279.1 254.4 293.4 254.4 322.0 254.4 C 350.7 254.4 365.0 212 393.6 212 C 422.2 212 465.2 233.2 465.2 233.2" stroke="#434348" stroke-width="2" stroke-linejoin="round" stroke-linecap="round">
			</path>
			<path fill="none" d="M 25.7 296.8 L 35.7 296.8 C 35.7 296.8 78.7 267.1 107.3 254.4 C 135.9 241.6 150.3 233.2 178.9 233.2 C 207.5 233.2 221.8 254.4 250.5 254.4 C 279.1 254.4 293.4 254.4 322.0 254.4 C 350.7 254.4 365.0 212 393.6 212 C 422.2 212 465.2 233.2 465.2 233.2 L 475.2 233.2" stroke-linejoin="round" visibility="visible" stroke="rgb(192,192,192)" stroke-opacity="0.0" stroke-width="22" class=" highcharts-tracker" style="">
			</path>
		</g>
		<g class="highcharts-markers highcharts-series-1 highcharts-tracker" transform="translate(73,46) scale(1 1)" style="" clip-path="none">
			<path fill="#434348" d="M 465 229.2 L 469 233.2 465 237.2 461 233.2 Z">
			</path>
			<path fill="#434348" d="M 393 208 L 397 212 393 216 389 212 Z">
			</path>
			<path fill="#434348" d="M 322 250.4 L 326 254.4 322 258.4 318 254.4 Z">
			</path>
			<path fill="#434348" d="M 250 250.4 L 254 254.4 250 258.4 246 254.4 Z">
			</path>
			<path fill="#434348" d="M 178 229.2 L 182 233.2 178 237.2 174 233.2 Z">
			</path>
			<path fill="#434348" d="M 107 250.4 L 111 254.4 107 258.4 103 254.4 Z">
			</path>
			<path fill="#434348" d="M 35 292.8 L 39 296.8 35 300.8 31 296.8 Z">
			</path>
		</g>
	</g>
	<text x="292" text-anchor="middle" class="highcharts-title" style="color:#333333;font-size:18px;fill:#333333;width:520px;" y="24">
		<tspan>Average fruit consumption during one week
		</tspan>
	</text>
	<g class="highcharts-legend" transform="translate(160,110)">
		<rect x="0.5" y="0.5" width="64" height="38" stroke="#909090" stroke-width="1" fill="#FFFFFF" visibility="visible">
		</rect>
		<g>
			<g>
				<g class="highcharts-legend-item" transform="translate(8,3)">
					<text x="21" style="color:#333333;font-size:12px;font-weight:bold;cursor:pointer;fill:#333333;" text-anchor="start" y="15">John
					</text>
					<rect x="0" y="4" width="16" height="12" fill="#7cb5ec">
					</rect>
				</g>
				<g class="highcharts-legend-item" transform="translate(8,17)">
					<text x="21" y="15" style="color:#333333;font-size:12px;font-weight:bold;cursor:pointer;fill:#333333;" text-anchor="start">Jane
					</text>
					<rect x="0" y="4" width="16" height="12" fill="#434348">
					</rect>
				</g>
			</g>
		</g>
	</g>
	<g class="highcharts-axis-labels highcharts-xaxis-labels">
		<text x="108.7" style="color:#606060;cursor:default;font-size:11px;fill:#606060;width:71.5;text-overflow:ellipsis;" text-anchor="middle" transform="translate(0,0)" y="383" opacity="1">
			<tspan>Monday
			</tspan>
		</text>
		<text x="180.3" style="color:#606060;cursor:default;font-size:11px;fill:#606060;width:71.5;text-overflow:ellipsis;" text-anchor="middle" transform="translate(0,0)" y="383" opacity="1">
			<tspan>Tuesday
			</tspan>
		</text>
		<text x="251.9" style="color:#606060;cursor:default;font-size:11px;fill:#606060;width:71.5;text-overflow:ellipsis;" text-anchor="middle" transform="translate(0,0)" y="383" opacity="1">
			<tspan>Wednesday
			</tspan>
		</text>
		<text x="323.5" style="color:#606060;cursor:default;font-size:11px;fill:#606060;width:71.5;text-overflow:ellipsis;" text-anchor="middle" transform="translate(0,0)" y="383" opacity="1">
			<tspan>Thursday
			</tspan>
		</text>
		<text x="395.0" style="color:#606060;cursor:default;font-size:11px;fill:#606060;width:71.5;text-overflow:ellipsis;" text-anchor="middle" transform="translate(0,0)" y="383" opacity="1">
			<tspan>Friday
			</tspan>
		</text>
		<text x="466.6" style="color:#606060;cursor:default;font-size:11px;fill:#606060;width:71.5;text-overflow:ellipsis;" text-anchor="middle" transform="translate(0,0)" y="383" opacity="1">
			<tspan>Saturday
			</tspan>
		</text>
		<text x="538.2" style="color:#606060;cursor:default;font-size:11px;fill:#606060;width:71.5;text-overflow:ellipsis;" text-anchor="middle" transform="translate(0,0)" y="383" opacity="1">
			<tspan>Sunday
			</tspan>
		</text>
	</g>
	<g class="highcharts-axis-labels highcharts-yaxis-labels">
		<text x="58" style="color:#606060;cursor:default;font-size:11px;fill:#606060;width:183px;text-overflow:clip;" text-anchor="end" transform="translate(0,0)" y="369" opacity="1">0
		</text>
		<text x="58" style="color:#606060;cursor:default;font-size:11px;fill:#606060;width:183px;text-overflow:clip;" text-anchor="end" transform="translate(0,0)" y="316" opacity="1">2.5
		</text>
		<text x="58" style="color:#606060;cursor:default;font-size:11px;fill:#606060;width:183px;text-overflow:clip;" text-anchor="end" transform="translate(0,0)" y="263" opacity="1">5
		</text>
		<text x="58" style="color:#606060;cursor:default;font-size:11px;fill:#606060;width:183px;text-overflow:clip;" text-anchor="end" transform="translate(0,0)" y="210" opacity="1">7.5
		</text>
		<text x="58" style="color:#606060;cursor:default;font-size:11px;fill:#606060;width:183px;text-overflow:clip;" text-anchor="end" transform="translate(0,0)" y="157" opacity="1">10
		</text>
		<text x="58" style="color:#606060;cursor:default;font-size:11px;fill:#606060;width:183px;text-overflow:clip;" text-anchor="end" transform="translate(0,0)" y="104" opacity="1">12.5
		</text>
		<text x="58" style="color:#606060;cursor:default;font-size:11px;fill:#606060;width:183px;text-overflow:clip;" text-anchor="end" transform="translate(0,0)" y="51" opacity="1">15
		</text>
	</g>
	<g class="highcharts-tooltip" style="cursor:default;padding:0;pointer-events:none;white-space:nowrap;" transform="translate(0,-9999)">
		<path fill="none" d="M 3.5 0.5 L 13.5 0.5 C 16.5 0.5 16.5 0.5 16.5 3.5 L 16.5 13.5 C 16.5 16.5 16.5 16.5 13.5 16.5 L 3.5 16.5 C 0.5 16.5 0.5 16.5 0.5 13.5 L 0.5 3.5 C 0.5 0.5 0.5 0.5 3.5 0.5"  stroke="black" stroke-opacity="0.0" stroke-width="5" transform="translate(1, 1)">
		</path>
		<path fill="none" d="M 3.5 0.5 L 13.5 0.5 C 16.5 0.5 16.5 0.5 16.5 3.5 L 16.5 13.5 C 16.5 16.5 16.5 16.5 13.5 16.5 L 3.5 16.5 C 0.5 16.5 0.5 16.5 0.5 13.5 L 0.5 3.5 C 0.5 0.5 0.5 0.5 3.5 0.5"  stroke="black" stroke-opacity="0.0" stroke-width="3" transform="translate(1, 1)">
		</path>
		<path fill="none" d="M 3.5 0.5 L 13.5 0.5 C 16.5 0.5 16.5 0.5 16.5 3.5 L 16.5 13.5 C 16.5 16.5 16.5 16.5 13.5 16.5 L 3.5 16.5 C 0.5 16.5 0.5 16.5 0.5 13.5 L 0.5 3.5 C 0.5 0.5 0.5 0.5 3.5 0.5"  stroke="black" stroke-opacity="0.1" stroke-width="1" transform="translate(1, 1)">
		</path>
		<path fill="rgb(249, 249, 249)" fill-opacity=" .85" d="M 3.5 0.5 L 13.5 0.5 C 16.5 0.5 16.5 0.5 16.5 3.5 L 16.5 13.5 C 16.5 16.5 16.5 16.5 13.5 16.5 L 3.5 16.5 C 0.5 16.5 0.5 16.5 0.5 13.5 L 0.5 3.5 C 0.5 0.5 0.5 0.5 3.5 0.5">
		</path>
		<text x="8" style="font-size:12px;color:#333333;fill:#333333;" y="20">
		</text>
	</g>
</svg>