<?xml version="1.0" encoding="UTF-8" standalone="no"?>
<!DOCTYPE svg PUBLIC "-//W3C//DTD SVG 1.1//EN"
"http://www.w3.org/Graphics/SVG/1.1/DTD/svg11.dtd">
<svg version="1.1" style="font-family:&quot;lucida grande&quot;, &quot;lucida sans unicode&quot;, arial, helvetica, sans-serif;font-size:12px;" xmlns="http://www.w3.org/2000/svg" viewBox="0 0 584 400">
	<desc>Created with Highstock 4.2.4
	</desc>
	<defs>
		<clipPath id="highcharts-1">
			<rect x="0" y="0" width="564" height="206">
			</rect>
		</clipPath>
		<clipPath id="highcharts-2">
			<rect x="0" y="0" width="564" height="206">
			</rect>
		</clipPath>
		<clipPath id="highcharts-3">
			<rect x="0" y="0" width="536" height="40">
			</rect>
		</clipPath>
	</defs>
	<rect x="0" y="0" width="584" height="400" fill="#FFFFFF" class=" highcharts-background">
	</rect>
	<g class="highcharts-scrollbar" transform="translate(10,372)">
		<rect x="0" y="-0.5" fill="#eeeeee" stroke="#eeeeee" stroke-width="1" rx="0" ry="0" height="14" width="564">
		</rect>
		<rect y="-0.5" height="14" fill="#bfc8d1" stroke="#bfc8d1" stroke-width="1" rx="0" ry="0" x="512.5" width="37">
		</rect>
		<path fill="none" stroke="#666" stroke-width="1" visibility="visible" d="M 527.5 3.5 L 527.5 9.3 M 530.5 3.5 L 530.5 9.3 M 533.5 3.5 L 533.5 9.3">
		</path>
		<g>
			<rect x="-0.5" y="-0.5" width="14" height="14" stroke="#bbb" stroke-width="1" fill="#ebe7e8">
			</rect>
			<path fill="#666" d="M 8 4 L 8 10 5 7">
			</path>
		</g>
		<g transform="translate(550,0)">
			<rect x="-0.5" y="-0.5" width="14" height="14" stroke="#bbb" stroke-width="1" fill="#ebe7e8">
			</rect>
			<path fill="#666" d="M 6 4 L 6 10 9 7">
			</path>
		</g>
	</g>
	<g class="highcharts-range-selector-buttons" transform="translate(0,44)">
		<text x="10" y="15" style="color:#666;fill:#666;">Zoom
		</text>
		<g class="highcharts-button" states="[object Object]" style="cursor:pointer;text-align:center;" transform="translate(48,0)">
			<rect x="0" y="0" width="32" height="22" fill="#f7f7f7" rx="0" ry="0">
			</rect>
			<text x="6.6" style="font-weight:normal;color:#444;fill:#444;" y="14">1m
			</text>
		</g>
		<g class="highcharts-button" states="[object Object]" style="cursor:pointer;text-align:center;" transform="translate(85,0)">
			<rect x="0" y="0" width="32" height="22" fill="#f7f7f7" rx="0" ry="0">
			</rect>
			<text x="6.6" style="font-weight:normal;color:#444;fill:#444;" y="14">3m
			</text>
		</g>
		<g class="highcharts-button" states="[object Object]" style="cursor:pointer;text-align:center;" transform="translate(122,0)">
			<rect x="0" y="0" width="32" height="22" fill="#e7f0f9" rx="0" ry="0">
			</rect>
			<text x="6.6" style="font-weight:bold;color:black;fill:black;" y="14">6m
			</text>
		</g>
		<g class="highcharts-button" states="[object Object]" style="cursor:pointer;text-align:center;" transform="translate(159,0)">
			<rect x="0" y="0" width="32" height="22" fill="#f7f7f7" rx="0" ry="0">
			</rect>
			<text x="3.9" style="font-weight:normal;color:#444;fill:#444;" y="14">YTD
			</text>
		</g>
		<g class="highcharts-button" states="[object Object]" style="cursor:pointer;text-align:center;" transform="translate(196,0)">
			<rect x="0" y="0" width="32" height="22" fill="#f7f7f7" rx="0" ry="0">
			</rect>
			<text x="9.0" style="font-weight:normal;color:#444;fill:#444;" y="14">1y
			</text>
		</g>
		<g class="highcharts-button" states="[object Object]" style="cursor:pointer;text-align:center;" transform="translate(233,0)">
			<rect x="0" y="0" width="32" height="22" fill="#f7f7f7" rx="0" ry="0">
			</rect>
			<text x="8.3" style="font-weight:normal;color:#444;fill:#444;" y="14">All
			</text>
		</g>
	</g>
	<g class="highcharts-input-group" transform="translate(313,44)" visibility="visible">
		<g style="fill:#666;" transform="translate(0,0)">
			<text x="2" style="font-size:12px;font-family:&quot;lucida grande&quot;, &quot;lucida sans unicode&quot;, arial, helvetica, sans-serif;color:#666;fill:#666;" y="14">From
			</text>
		</g>
		<g style="text-align:center;" transform="translate(39,0)">
			<rect x="0.5" y="0.5" width="94" height="21" fill="none" stroke="silver" stroke-width="1">
			</rect>
			<text x="8.6" style="font-size:12px;font-family:&quot;lucida grande&quot;, &quot;lucida sans unicode&quot;, arial, helvetica, sans-serif;color:#444;fill:#444;" y="14">
				<tspan>Oct 21, 2015
				</tspan>
			</text>
		</g>
		<g style="fill:#666;" transform="translate(143,0)">
			<text x="2" style="font-size:12px;font-family:&quot;lucida grande&quot;, &quot;lucida sans unicode&quot;, arial, helvetica, sans-serif;color:#666;fill:#666;" y="14">To
			</text>
		</g>
		<g style="text-align:center;" transform="translate(167,0)">
			<rect x="0.5" y="0.5" width="94" height="21" fill="none" stroke="silver" stroke-width="1">
			</rect>
			<text x="8.2" style="font-size:12px;font-family:&quot;lucida grande&quot;, &quot;lucida sans unicode&quot;, arial, helvetica, sans-serif;color:#444;fill:#444;" y="14">
				<tspan>Apr 21, 2016
				</tspan>
			</text>
		</g>
	</g>
	<g class="highcharts-grid">
	</g>
	<g class="highcharts-grid">
		<path fill="none" d="M 76.5 331 L 76.5 371" stroke="#EEE" stroke-width="1" opacity="1">
		</path>
		<path fill="none" d="M 229.5 331 L 229.5 371" stroke="#EEE" stroke-width="1" opacity="1">
		</path>
		<path fill="none" d="M 383.5 331 L 383.5 371" stroke="#EEE" stroke-width="1" opacity="1">
		</path>
		<path fill="none" d="M 536.5 331 L 536.5 371" stroke="#EEE" stroke-width="1" opacity="1">
		</path>
	</g>
	<g class="highcharts-grid">
		<path fill="none" d="M 10 285.5 L 574 285.5" stroke="#D8D8D8" stroke-width="1" opacity="1">
		</path>
		<path fill="none" d="M 10 234.5 L 574 234.5" stroke="#D8D8D8" stroke-width="1" opacity="1">
		</path>
		<path fill="none" d="M 10 182.5 L 574 182.5" stroke="#D8D8D8" stroke-width="1" opacity="1">
		</path>
		<path fill="none" d="M 10 131.5 L 574 131.5" stroke="#D8D8D8" stroke-width="1" opacity="1">
		</path>
		<path fill="none" d="M 10 78.5 L 574 78.5" stroke="#D8D8D8" stroke-width="1" opacity="1">
		</path>
	</g>
	<g class="highcharts-grid">
	</g>
	<g class="highcharts-axis">
		<path fill="none" d="M 44.5 285 L 44.5 295" stroke="#C0D0E0" stroke-width="1" opacity="1">
		</path>
		<path fill="none" d="M 135.5 285 L 135.5 295" stroke="#C0D0E0" stroke-width="1" opacity="1">
		</path>
		<path fill="none" d="M 231.5 285 L 231.5 295" stroke="#C0D0E0" stroke-width="1" opacity="1">
		</path>
		<path fill="none" d="M 320.5 285 L 320.5 295" stroke="#C0D0E0" stroke-width="1" opacity="1">
		</path>
		<path fill="none" d="M 411.5 285 L 411.5 295" stroke="#C0D0E0" stroke-width="1" opacity="1">
		</path>
		<path fill="none" d="M 510.5 285 L 510.5 295" stroke="#C0D0E0" stroke-width="1" opacity="1">
		</path>
		<path fill="none" d="M 10 285.5 L 574 285.5" stroke="#C0D0E0" stroke-width="1">
		</path>
	</g>
	<g class="highcharts-axis">
	</g>
	<g class="highcharts-axis">
	</g>
	<g class="highcharts-axis">
	</g>
	<g class="highcharts-series-group">
		<g class="highcharts-series highcharts-series-0" transform="translate(10,79) scale(1 1)" clip-path="url(#highcharts-2)">
			<path fill="none" d="M -4.5 83.5 L 0 83.6 L 4.5 74.6 L 9.0 56.2 L 13.5 75.8 L 18.0 79.5 L 22.5 55.2 L 27.0 48.7 L 31.5 54.0 L 36.0 45.4 L 40.6 38.2 L 45.1 41.1 L 49.6 46.7 L 54.1 46.0 L 58.6 48.5 L 63.1 68.1 L 67.6 71.5 L 72.1 73.5 L 76.7 90.9 L 81.2 81.4 L 85.7 83.9 L 90.2 65.4 L 94.7 57.7 L 99.2 55.1 L 103.7 63.0 L 108.2 57.2 L 112.8 61.6 L 117.3 62.7 L 121.8 60.2 L 126.3 65.1 L 130.8 70.6 L 135.3 76.2 L 139.8 56.4 L 144.3 60.3 L 148.8 60.6 L 153.4 74.0 L 157.9 71.2 L 162.4 86.6 L 166.9 90.2 L 171.4 100.4 L 175.9 96.0 L 180.4 108.2 L 184.9 123.4 L 189.5 116.7 L 194.0 117.2 L 198.5 110.1 L 203.0 113.1 L 207.5 119.3 L 212.0 109.4 L 216.5 116.8 L 221.0 127.4 L 225.6 126.9 L 230.1 140.5 L 234.6 150.8 L 239.1 172.7 L 243.6 170.1 L 248.1 162.0 L 252.6 154.7 L 257.1 167.9 L 261.6 156.9 L 266.2 169.2 L 270.7 171.7 L 275.2 171.0 L 279.7 173.5 L 284.2 147.1 L 288.7 157.3 L 293.2 154.5 L 297.7 188.3 L 302.3 184.9 L 306.8 168.1 L 311.3 172.8 L 315.8 182.9 L 320.3 173.2 L 324.8 172.0 L 329.3 185.2 L 333.8 180.1 L 338.4 180.3 L 342.9 184.0 L 347.4 186.9 L 351.9 185.4 L 356.4 171.8 L 360.9 164.1 L 365.4 173.7 L 369.9 174.8 L 374.4 170.5 L 379.0 181.8 L 383.5 174.5 L 388.0 171.1 L 392.5 170.4 L 397.0 171.5 L 401.5 151.7 L 406.0 150.6 L 410.5 146.7 L 415.1 138.9 L 419.6 144.8 L 424.1 149.1 L 428.6 148.7 L 433.1 148.4 L 437.6 142.8 L 442.1 141.5 L 446.6 130.9 L 451.2 123.7 L 455.7 124.6 L 460.2 124.0 L 464.7 124.0 L 469.2 119.8 L 473.7 122.9 L 478.2 125.2 L 482.7 127.7 L 487.2 114.9 L 491.8 105.2 L 496.3 108.2 L 500.8 103.0 L 505.3 97.2 L 509.8 103.9 L 514.3 98.0 L 518.8 110.5 L 523.3 109.9 L 527.9 108.0 L 532.4 100.7 L 536.9 92.4 L 541.4 92.1 L 545.9 103.7 L 550.4 115.9 L 554.9 118.9 L 559.4 117.7 L 564 123.7" stroke-linejoin="round" stroke-linecap="round">
			</path>
			<path fill="none" d="M -14.5 83.5 L -4.5 83.5 L 0 83.6 L 4.5 74.6 L 9.0 56.2 L 13.5 75.8 L 18.0 79.5 L 22.5 55.2 L 27.0 48.7 L 31.5 54.0 L 36.0 45.4 L 40.6 38.2 L 45.1 41.1 L 49.6 46.7 L 54.1 46.0 L 58.6 48.5 L 63.1 68.1 L 67.6 71.5 L 72.1 73.5 L 76.7 90.9 L 81.2 81.4 L 85.7 83.9 L 90.2 65.4 L 94.7 57.7 L 99.2 55.1 L 103.7 63.0 L 108.2 57.2 L 112.8 61.6 L 117.3 62.7 L 121.8 60.2 L 126.3 65.1 L 130.8 70.6 L 135.3 76.2 L 139.8 56.4 L 144.3 60.3 L 148.8 60.6 L 153.4 74.0 L 157.9 71.2 L 162.4 86.6 L 166.9 90.2 L 171.4 100.4 L 175.9 96.0 L 180.4 108.2 L 184.9 123.4 L 189.5 116.7 L 194.0 117.2 L 198.5 110.1 L 203.0 113.1 L 207.5 119.3 L 212.0 109.4 L 216.5 116.8 L 221.0 127.4 L 225.6 126.9 L 230.1 140.5 L 234.6 150.8 L 239.1 172.7 L 243.6 170.1 L 248.1 162.0 L 252.6 154.7 L 257.1 167.9 L 261.6 156.9 L 266.2 169.2 L 270.7 171.7 L 275.2 171.0 L 279.7 173.5 L 284.2 147.1 L 288.7 157.3 L 293.2 154.5 L 297.7 188.3 L 302.3 184.9 L 306.8 168.1 L 311.3 172.8 L 315.8 182.9 L 320.3 173.2 L 324.8 172.0 L 329.3 185.2 L 333.8 180.1 L 338.4 180.3 L 342.9 184.0 L 347.4 186.9 L 351.9 185.4 L 356.4 171.8 L 360.9 164.1 L 365.4 173.7 L 369.9 174.8 L 374.4 170.5 L 379.0 181.8 L 383.5 174.5 L 388.0 171.1 L 392.5 170.4 L 397.0 171.5 L 401.5 151.7 L 406.0 150.6 L 410.5 146.7 L 415.1 138.9 L 419.6 144.8 L 424.1 149.1 L 428.6 148.7 L 433.1 148.4 L 437.6 142.8 L 442.1 141.5 L 446.6 130.9 L 451.2 123.7 L 455.7 124.6 L 460.2 124.0 L 464.7 124.0 L 469.2 119.8 L 473.7 122.9 L 478.2 125.2 L 482.7 127.7 L 487.2 114.9 L 491.8 105.2 L 496.3 108.2 L 500.8 103.0 L 505.3 97.2 L 509.8 103.9 L 514.3 98.0 L 518.8 110.5 L 523.3 109.9 L 527.9 108.0 L 532.4 100.7 L 536.9 92.4 L 541.4 92.1 L 545.9 103.7 L 550.4 115.9 L 554.9 118.9 L 559.4 117.7 L 564 123.7 L 574 123.7" stroke-linejoin="round" visibility="visible" stroke="rgb(192,192,192)" stroke-opacity="0.0" stroke-width="20" class=" highcharts-tracker" style="">
			</path>
		</g>
		<g class="highcharts-markers highcharts-series-0 highcharts-tracker" transform="translate(10,79) scale(1 1)" style="" clip-path="none">
			<path fill="#7cb5ec" d="M 564 121.7 C 566.6 121.7 566.6 125.7 564 125.7 C 561.3 125.7 561.3 121.7 564 121.7 Z">
			</path>
			<path fill="#7cb5ec" d="M 559 115.7 C 561.6 115.7 561.6 119.7 559 119.7 C 556.3 119.7 556.3 115.7 559 115.7 Z">
			</path>
			<path fill="#7cb5ec" d="M 554 116.9 C 556.6 116.9 556.6 120.9 554 120.9 C 551.3 120.9 551.3 116.9 554 116.9 Z">
			</path>
			<path fill="#7cb5ec" d="M 550 113.9 C 552.6 113.9 552.6 117.9 550 117.9 C 547.3 117.9 547.3 113.9 550 113.9 Z">
			</path>
			<path fill="#7cb5ec" d="M 545 101.7 C 547.6 101.7 547.6 105.7 545 105.7 C 542.3 105.7 542.3 101.7 545 101.7 Z">
			</path>
			<path fill="#7cb5ec" d="M 541 90.1 C 543.6 90.1 543.6 94.1 541 94.1 C 538.3 94.1 538.3 90.1 541 90.1 Z">
			</path>
			<path fill="#7cb5ec" d="M 536 90.4 C 538.6 90.4 538.6 94.4 536 94.4 C 533.3 94.4 533.3 90.4 536 90.4 Z">
			</path>
			<path fill="#7cb5ec" d="M 532 98.7 C 534.6 98.7 534.6 102.7 532 102.7 C 529.3 102.7 529.3 98.7 532 98.7 Z">
			</path>
			<path fill="#7cb5ec" d="M 527 106.0 C 529.6 106.0 529.6 110.0 527 110.0 C 524.3 110.0 524.3 106.0 527 106.0 Z">
			</path>
			<path fill="#7cb5ec" d="M 523 107.9 C 525.6 107.9 525.6 111.9 523 111.9 C 520.3 111.9 520.3 107.9 523 107.9 Z">
			</path>
			<path fill="#7cb5ec" d="M 518 108.5 C 520.6 108.5 520.6 112.5 518 112.5 C 515.3 112.5 515.3 108.5 518 108.5 Z">
			</path>
			<path fill="#7cb5ec" d="M 514 96.0 C 516.6 96.0 516.6 100.0 514 100.0 C 511.3 100.0 511.3 96.0 514 96.0 Z">
			</path>
			<path fill="#7cb5ec" d="M 509 101.9 C 511.6 101.9 511.6 105.9 509 105.9 C 506.3 105.9 506.3 101.9 509 101.9 Z">
			</path>
			<path fill="#7cb5ec" d="M 505 95.2 C 507.6 95.2 507.6 99.2 505 99.2 C 502.3 99.2 502.3 95.2 505 95.2 Z">
			</path>
			<path fill="#7cb5ec" d="M 500 101.0 C 502.6 101.0 502.6 105.0 500 105.0 C 497.3 105.0 497.3 101.0 500 101.0 Z">
			</path>
			<path fill="#7cb5ec" d="M 496 106.2 C 498.6 106.2 498.6 110.2 496 110.2 C 493.3 110.2 493.3 106.2 496 106.2 Z">
			</path>
			<path fill="#7cb5ec" d="M 491 103.2 C 493.6 103.2 493.6 107.2 491 107.2 C 488.3 107.2 488.3 103.2 491 103.2 Z">
			</path>
			<path fill="#7cb5ec" d="M 487 112.9 C 489.6 112.9 489.6 116.9 487 116.9 C 484.3 116.9 484.3 112.9 487 112.9 Z">
			</path>
			<path fill="#7cb5ec" d="M 482 125.7 C 484.6 125.7 484.6 129.7 482 129.7 C 479.3 129.7 479.3 125.7 482 125.7 Z">
			</path>
			<path fill="#7cb5ec" d="M 478 123.2 C 480.6 123.2 480.6 127.2 478 127.2 C 475.3 127.2 475.3 123.2 478 123.2 Z">
			</path>
			<path fill="#7cb5ec" d="M 473 120.9 C 475.6 120.9 475.6 124.9 473 124.9 C 470.3 124.9 470.3 120.9 473 120.9 Z">
			</path>
			<path fill="#7cb5ec" d="M 469 117.8 C 471.6 117.8 471.6 121.8 469 121.8 C 466.3 121.8 466.3 117.8 469 117.8 Z">
			</path>
			<path fill="#7cb5ec" d="M 464 122.0 C 466.6 122.0 466.6 126.0 464 126.0 C 461.3 126.0 461.3 122.0 464 122.0 Z">
			</path>
			<path fill="#7cb5ec" d="M 460 122.0 C 462.6 122.0 462.6 126.0 460 126.0 C 457.3 126.0 457.3 122.0 460 122.0 Z">
			</path>
			<path fill="#7cb5ec" d="M 455 122.6 C 457.6 122.6 457.6 126.6 455 126.6 C 452.3 126.6 452.3 122.6 455 122.6 Z">
			</path>
			<path fill="#7cb5ec" d="M 451 121.7 C 453.6 121.7 453.6 125.7 451 125.7 C 448.3 125.7 448.3 121.7 451 121.7 Z">
			</path>
			<path fill="#7cb5ec" d="M 446 128.9 C 448.6 128.9 448.6 132.9 446 132.9 C 443.3 132.9 443.3 128.9 446 128.9 Z">
			</path>
			<path fill="#7cb5ec" d="M 442 139.5 C 444.6 139.5 444.6 143.5 442 143.5 C 439.3 143.5 439.3 139.5 442 139.5 Z">
			</path>
			<path fill="#7cb5ec" d="M 437 140.8 C 439.6 140.8 439.6 144.8 437 144.8 C 434.3 144.8 434.3 140.8 437 140.8 Z">
			</path>
			<path fill="#7cb5ec" d="M 433 146.4 C 435.6 146.4 435.6 150.4 433 150.4 C 430.3 150.4 430.3 146.4 433 146.4 Z">
			</path>
			<path fill="#7cb5ec" d="M 428 146.7 C 430.6 146.7 430.6 150.7 428 150.7 C 425.3 150.7 425.3 146.7 428 146.7 Z">
			</path>
			<path fill="#7cb5ec" d="M 424 147.1 C 426.6 147.1 426.6 151.1 424 151.1 C 421.3 151.1 421.3 147.1 424 147.1 Z">
			</path>
			<path fill="#7cb5ec" d="M 419 142.8 C 421.6 142.8 421.6 146.8 419 146.8 C 416.3 146.8 416.3 142.8 419 142.8 Z">
			</path>
			<path fill="#7cb5ec" d="M 415 136.9 C 417.6 136.9 417.6 140.9 415 140.9 C 412.3 140.9 412.3 136.9 415 136.9 Z">
			</path>
			<path fill="#7cb5ec" d="M 410 144.7 C 412.6 144.7 412.6 148.7 410 148.7 C 407.3 148.7 407.3 144.7 410 144.7 Z">
			</path>
			<path fill="#7cb5ec" d="M 406 148.6 C 408.6 148.6 408.6 152.6 406 152.6 C 403.3 152.6 403.3 148.6 406 148.6 Z">
			</path>
			<path fill="#7cb5ec" d="M 401 149.7 C 403.6 149.7 403.6 153.7 401 153.7 C 398.3 153.7 398.3 149.7 401 149.7 Z">
			</path>
			<path fill="#7cb5ec" d="M 397 169.5 C 399.6 169.5 399.6 173.5 397 173.5 C 394.3 173.5 394.3 169.5 397 169.5 Z">
			</path>
			<path fill="#7cb5ec" d="M 392 168.4 C 394.6 168.4 394.6 172.4 392 172.4 C 389.3 172.4 389.3 168.4 392 168.4 Z">
			</path>
			<path fill="#7cb5ec" d="M 388 169.1 C 390.6 169.1 390.6 173.1 388 173.1 C 385.3 173.1 385.3 169.1 388 169.1 Z">
			</path>
			<path fill="#7cb5ec" d="M 383 172.5 C 385.6 172.5 385.6 176.5 383 176.5 C 380.3 176.5 380.3 172.5 383 172.5 Z">
			</path>
			<path fill="#7cb5ec" d="M 379 179.8 C 381.6 179.8 381.6 183.8 379 183.8 C 376.3 183.8 376.3 179.8 379 179.8 Z">
			</path>
			<path fill="#7cb5ec" d="M 374 168.5 C 376.6 168.5 376.6 172.5 374 172.5 C 371.3 172.5 371.3 168.5 374 168.5 Z">
			</path>
			<path fill="#7cb5ec" d="M 369 172.8 C 371.6 172.8 371.6 176.8 369 176.8 C 366.3 176.8 366.3 172.8 369 172.8 Z">
			</path>
			<path fill="#7cb5ec" d="M 365 171.7 C 367.6 171.7 367.6 175.7 365 175.7 C 362.3 175.7 362.3 171.7 365 171.7 Z">
			</path>
			<path fill="#7cb5ec" d="M 360 162.1 C 362.6 162.1 362.6 166.1 360 166.1 C 357.3 166.1 357.3 162.1 360 162.1 Z">
			</path>
			<path fill="#7cb5ec" d="M 356 169.8 C 358.6 169.8 358.6 173.8 356 173.8 C 353.3 173.8 353.3 169.8 356 169.8 Z">
			</path>
			<path fill="#7cb5ec" d="M 351 183.4 C 353.6 183.4 353.6 187.4 351 187.4 C 348.3 187.4 348.3 183.4 351 183.4 Z">
			</path>
			<path fill="#7cb5ec" d="M 347 184.9 C 349.6 184.9 349.6 188.9 347 188.9 C 344.3 188.9 344.3 184.9 347 184.9 Z">
			</path>
			<path fill="#7cb5ec" d="M 342 182.0 C 344.6 182.0 344.6 186.0 342 186.0 C 339.3 186.0 339.3 182.0 342 182.0 Z">
			</path>
			<path fill="#7cb5ec" d="M 338 178.3 C 340.6 178.3 340.6 182.3 338 182.3 C 335.3 182.3 335.3 178.3 338 178.3 Z">
			</path>
			<path fill="#7cb5ec" d="M 333 178.1 C 335.6 178.1 335.6 182.1 333 182.1 C 330.3 182.1 330.3 178.1 333 178.1 Z">
			</path>
			<path fill="#7cb5ec" d="M 329 183.2 C 331.6 183.2 331.6 187.2 329 187.2 C 326.3 187.2 326.3 183.2 329 183.2 Z">
			</path>
			<path fill="#7cb5ec" d="M 324 170.0 C 326.6 170.0 326.6 174.0 324 174.0 C 321.3 174.0 321.3 170.0 324 170.0 Z">
			</path>
			<path fill="#7cb5ec" d="M 320 171.2 C 322.6 171.2 322.6 175.2 320 175.2 C 317.3 175.2 317.3 171.2 320 171.2 Z">
			</path>
			<path fill="#7cb5ec" d="M 315 180.9 C 317.6 180.9 317.6 184.9 315 184.9 C 312.3 184.9 312.3 180.9 315 180.9 Z">
			</path>
			<path fill="#7cb5ec" d="M 311 170.8 C 313.6 170.8 313.6 174.8 311 174.8 C 308.3 174.8 308.3 170.8 311 170.8 Z">
			</path>
			<path fill="#7cb5ec" d="M 306 166.1 C 308.6 166.1 308.6 170.1 306 170.1 C 303.3 170.1 303.3 166.1 306 166.1 Z">
			</path>
			<path fill="#7cb5ec" d="M 302 182.9 C 304.6 182.9 304.6 186.9 302 186.9 C 299.3 186.9 299.3 182.9 302 182.9 Z">
			</path>
			<path fill="#7cb5ec" d="M 297 186.3 C 299.6 186.3 299.6 190.3 297 190.3 C 294.3 190.3 294.3 186.3 297 186.3 Z">
			</path>
			<path fill="#7cb5ec" d="M 293 152.5 C 295.6 152.5 295.6 156.5 293 156.5 C 290.3 156.5 290.3 152.5 293 152.5 Z">
			</path>
			<path fill="#7cb5ec" d="M 288 155.3 C 290.6 155.3 290.6 159.3 288 159.3 C 285.3 159.3 285.3 155.3 288 155.3 Z">
			</path>
			<path fill="#7cb5ec" d="M 284 145.1 C 286.6 145.1 286.6 149.1 284 149.1 C 281.3 149.1 281.3 145.1 284 145.1 Z">
			</path>
			<path fill="#7cb5ec" d="M 279 171.5 C 281.6 171.5 281.6 175.5 279 175.5 C 276.3 175.5 276.3 171.5 279 171.5 Z">
			</path>
			<path fill="#7cb5ec" d="M 275 169.0 C 277.6 169.0 277.6 173.0 275 173.0 C 272.3 173.0 272.3 169.0 275 169.0 Z">
			</path>
			<path fill="#7cb5ec" d="M 270 169.7 C 272.6 169.7 272.6 173.7 270 173.7 C 267.3 173.7 267.3 169.7 270 169.7 Z">
			</path>
			<path fill="#7cb5ec" d="M 266 167.2 C 268.6 167.2 268.6 171.2 266 171.2 C 263.3 171.2 263.3 167.2 266 167.2 Z">
			</path>
			<path fill="#7cb5ec" d="M 261 154.9 C 263.6 154.9 263.6 158.9 261 158.9 C 258.3 158.9 258.3 154.9 261 154.9 Z">
			</path>
			<path fill="#7cb5ec" d="M 257 165.9 C 259.6 165.9 259.6 169.9 257 169.9 C 254.3 169.9 254.3 165.9 257 165.9 Z">
			</path>
			<path fill="#7cb5ec" d="M 252 152.7 C 254.6 152.7 254.6 156.7 252 156.7 C 249.3 156.7 249.3 152.7 252 152.7 Z">
			</path>
			<path fill="#7cb5ec" d="M 248 160.0 C 250.6 160.0 250.6 164.0 248 164.0 C 245.3 164.0 245.3 160.0 248 160.0 Z">
			</path>
			<path fill="#7cb5ec" d="M 243 168.1 C 245.6 168.1 245.6 172.1 243 172.1 C 240.3 172.1 240.3 168.1 243 168.1 Z">
			</path>
			<path fill="#7cb5ec" d="M 239 170.7 C 241.6 170.7 241.6 174.7 239 174.7 C 236.3 174.7 236.3 170.7 239 170.7 Z">
			</path>
			<path fill="#7cb5ec" d="M 234 148.8 C 236.6 148.8 236.6 152.8 234 152.8 C 231.3 152.8 231.3 148.8 234 148.8 Z">
			</path>
			<path fill="#7cb5ec" d="M 230 138.5 C 232.6 138.5 232.6 142.5 230 142.5 C 227.3 142.5 227.3 138.5 230 138.5 Z">
			</path>
			<path fill="#7cb5ec" d="M 225 124.9 C 227.6 124.9 227.6 128.9 225 128.9 C 222.3 128.9 222.3 124.9 225 124.9 Z">
			</path>
			<path fill="#7cb5ec" d="M 221 125.4 C 223.6 125.4 223.6 129.4 221 129.4 C 218.3 129.4 218.3 125.4 221 125.4 Z">
			</path>
			<path fill="#7cb5ec" d="M 216 114.8 C 218.6 114.8 218.6 118.8 216 118.8 C 213.3 118.8 213.3 114.8 216 114.8 Z">
			</path>
			<path fill="#7cb5ec" d="M 212 107.4 C 214.6 107.4 214.6 111.4 212 111.4 C 209.3 111.4 209.3 107.4 212 107.4 Z">
			</path>
			<path fill="#7cb5ec" d="M 207 117.3 C 209.6 117.3 209.6 121.3 207 121.3 C 204.3 121.3 204.3 117.3 207 117.3 Z">
			</path>
			<path fill="#7cb5ec" d="M 203 111.1 C 205.6 111.1 205.6 115.1 203 115.1 C 200.3 115.1 200.3 111.1 203 111.1 Z">
			</path>
			<path fill="#7cb5ec" d="M 198 108.1 C 200.6 108.1 200.6 112.1 198 112.1 C 195.3 112.1 195.3 108.1 198 108.1 Z">
			</path>
			<path fill="#7cb5ec" d="M 194 115.2 C 196.6 115.2 196.6 119.2 194 119.2 C 191.3 119.2 191.3 115.2 194 115.2 Z">
			</path>
			<path fill="#7cb5ec" d="M 189 114.7 C 191.6 114.7 191.6 118.7 189 118.7 C 186.3 118.7 186.3 114.7 189 114.7 Z">
			</path>
			<path fill="#7cb5ec" d="M 184 121.4 C 186.6 121.4 186.6 125.4 184 125.4 C 181.3 125.4 181.3 121.4 184 121.4 Z">
			</path>
			<path fill="#7cb5ec" d="M 180 106.2 C 182.6 106.2 182.6 110.2 180 110.2 C 177.3 110.2 177.3 106.2 180 106.2 Z">
			</path>
			<path fill="#7cb5ec" d="M 175 94.0 C 177.6 94.0 177.6 98.0 175 98.0 C 172.3 98.0 172.3 94.0 175 94.0 Z">
			</path>
			<path fill="#7cb5ec" d="M 171 98.4 C 173.6 98.4 173.6 102.4 171 102.4 C 168.3 102.4 168.3 98.4 171 98.4 Z">
			</path>
			<path fill="#7cb5ec" d="M 166 88.2 C 168.6 88.2 168.6 92.2 166 92.2 C 163.3 92.2 163.3 88.2 166 88.2 Z">
			</path>
			<path fill="#7cb5ec" d="M 162 84.6 C 164.6 84.6 164.6 88.6 162 88.6 C 159.3 88.6 159.3 84.6 162 84.6 Z">
			</path>
			<path fill="#7cb5ec" d="M 157 69.2 C 159.6 69.2 159.6 73.2 157 73.2 C 154.3 73.2 154.3 69.2 157 69.2 Z">
			</path>
			<path fill="#7cb5ec" d="M 153 72.0 C 155.6 72.0 155.6 76.0 153 76.0 C 150.3 76.0 150.3 72.0 153 72.0 Z">
			</path>
			<path fill="#7cb5ec" d="M 148 58.6 C 150.6 58.6 150.6 62.6 148 62.6 C 145.3 62.6 145.3 58.6 148 58.6 Z">
			</path>
			<path fill="#7cb5ec" d="M 144 58.3 C 146.6 58.3 146.6 62.3 144 62.3 C 141.3 62.3 141.3 58.3 144 58.3 Z">
			</path>
			<path fill="#7cb5ec" d="M 139 54.4 C 141.6 54.4 141.6 58.4 139 58.4 C 136.3 58.4 136.3 54.4 139 54.4 Z">
			</path>
			<path fill="#7cb5ec" d="M 135 74.2 C 137.6 74.2 137.6 78.2 135 78.2 C 132.3 78.2 132.3 74.2 135 74.2 Z">
			</path>
			<path fill="#7cb5ec" d="M 130 68.6 C 132.6 68.6 132.6 72.6 130 72.6 C 127.3 72.6 127.3 68.6 130 68.6 Z">
			</path>
			<path fill="#7cb5ec" d="M 126 63.1 C 128.6 63.1 128.6 67.1 126 67.1 C 123.3 67.1 123.3 63.1 126 63.1 Z">
			</path>
			<path fill="#7cb5ec" d="M 121 58.2 C 123.6 58.2 123.6 62.2 121 62.2 C 118.3 62.2 118.3 58.2 121 58.2 Z">
			</path>
			<path fill="#7cb5ec" d="M 117 60.7 C 119.6 60.7 119.6 64.7 117 64.7 C 114.3 64.7 114.3 60.7 117 60.7 Z">
			</path>
			<path fill="#7cb5ec" d="M 112 59.6 C 114.6 59.6 114.6 63.6 112 63.6 C 109.3 63.6 109.3 59.6 112 59.6 Z">
			</path>
			<path fill="#7cb5ec" d="M 108 55.2 C 110.6 55.2 110.6 59.2 108 59.2 C 105.3 59.2 105.3 55.2 108 55.2 Z">
			</path>
			<path fill="#7cb5ec" d="M 103 61.0 C 105.6 61.0 105.6 65.0 103 65.0 C 100.3 65.0 100.3 61.0 103 61.0 Z">
			</path>
			<path fill="#7cb5ec" d="M 99 53.1 C 101.6 53.1 101.6 57.1 99 57.1 C 96.3 57.1 96.3 53.1 99 53.1 Z">
			</path>
			<path fill="#7cb5ec" d="M 94 55.7 C 96.6 55.7 96.6 59.7 94 59.7 C 91.3 59.7 91.3 55.7 94 55.7 Z">
			</path>
			<path fill="#7cb5ec" d="M 90 63.4 C 92.6 63.4 92.6 67.4 90 67.4 C 87.3 67.4 87.3 63.4 90 63.4 Z">
			</path>
			<path fill="#7cb5ec" d="M 85 81.9 C 87.6 81.9 87.6 85.9 85 85.9 C 82.3 85.9 82.3 81.9 85 81.9 Z">
			</path>
			<path fill="#7cb5ec" d="M 81 79.4 C 83.6 79.4 83.6 83.4 81 83.4 C 78.3 83.4 78.3 79.4 81 79.4 Z">
			</path>
			<path fill="#7cb5ec" d="M 76 88.9 C 78.6 88.9 78.6 92.9 76 92.9 C 73.3 92.9 73.3 88.9 76 88.9 Z">
			</path>
			<path fill="#7cb5ec" d="M 72 71.5 C 74.6 71.5 74.6 75.5 72 75.5 C 69.3 75.5 69.3 71.5 72 71.5 Z">
			</path>
			<path fill="#7cb5ec" d="M 67 69.5 C 69.6 69.5 69.6 73.5 67 73.5 C 64.3 73.5 64.3 69.5 67 69.5 Z">
			</path>
			<path fill="#7cb5ec" d="M 63 66.1 C 65.6 66.1 65.6 70.1 63 70.1 C 60.3 70.1 60.3 66.1 63 66.1 Z">
			</path>
			<path fill="#7cb5ec" d="M 58 46.5 C 60.6 46.5 60.6 50.5 58 50.5 C 55.3 50.5 55.3 46.5 58 46.5 Z">
			</path>
			<path fill="#7cb5ec" d="M 54 44.0 C 56.6 44.0 56.6 48.0 54 48.0 C 51.3 48.0 51.3 44.0 54 44.0 Z">
			</path>
			<path fill="#7cb5ec" d="M 49 44.7 C 51.6 44.7 51.6 48.7 49 48.7 C 46.3 48.7 46.3 44.7 49 44.7 Z">
			</path>
			<path fill="#7cb5ec" d="M 45 39.1 C 47.6 39.1 47.6 43.1 45 43.1 C 42.3 43.1 42.3 39.1 45 39.1 Z">
			</path>
			<path fill="#7cb5ec" d="M 40 36.2 C 42.6 36.2 42.6 40.2 40 40.2 C 37.3 40.2 37.3 36.2 40 36.2 Z">
			</path>
			<path fill="#7cb5ec" d="M 36 43.4 C 38.6 43.4 38.6 47.4 36 47.4 C 33.3 47.4 33.3 43.4 36 43.4 Z">
			</path>
			<path fill="#7cb5ec" d="M 31 52.0 C 33.6 52.0 33.6 56.0 31 56.0 C 28.3 56.0 28.3 52.0 31 52.0 Z">
			</path>
			<path fill="#7cb5ec" d="M 27 46.7 C 29.6 46.7 29.6 50.7 27 50.7 C 24.3 50.7 24.3 46.7 27 46.7 Z">
			</path>
			<path fill="#7cb5ec" d="M 22 53.2 C 24.6 53.2 24.6 57.2 22 57.2 C 19.3 57.2 19.3 53.2 22 53.2 Z">
			</path>
			<path fill="#7cb5ec" d="M 18 77.5 C 20.6 77.5 20.6 81.5 18 81.5 C 15.3 81.5 15.3 77.5 18 77.5 Z">
			</path>
			<path fill="#7cb5ec" d="M 13 73.8 C 15.6 73.8 15.6 77.8 13 77.8 C 10.3 77.8 10.3 73.8 13 73.8 Z">
			</path>
			<path fill="#7cb5ec" d="M 9 54.2 C 11.6 54.2 11.6 58.2 9 58.2 C 6.3 58.2 6.3 54.2 9 54.2 Z">
			</path>
			<path fill="#7cb5ec" d="M 4 72.6 C 6.6 72.6 6.6 76.6 4 76.6 C 1.3 76.6 1.3 72.6 4 72.6 Z">
			</path>
			<path fill="#7cb5ec" d="M 0 81.6 C 2.6 81.6 2.6 85.6 0 85.6 C -2.6 85.6 -2.6 81.6 0 81.6 Z">
			</path>
		</g>
		<g class="highcharts-series highcharts-series-1" transform="translate(24,331) scale(1 1)" clip-path="url(#highcharts-3)">
			<path fill="#4572A7" d="M 0 36.6 C 0 36.6 0.8 36.6 1.4 36.5 C 2.0 36.5 2.3 36.3 2.9 36.3 C 3.5 36.3 3.8 36.6 4.4 36.6 C 4.9 36.6 5.2 36.6 5.8 36.6 C 6.4 36.5 6.7 36.3 7.3 36.2 C 7.9 36.1 8.2 35.9 8.8 35.9 C 9.3 35.9 9.6 35.9 10.2 35.9 C 10.8 35.9 11.1 36.1 11.7 36.1 C 12.3 36.1 12.6 36.1 13.2 36.0 C 13.8 36.0 14.0 35.9 14.6 35.9 C 15.2 35.9 15.5 36.1 16.1 36.1 C 16.7 36.1 17.0 35.8 17.6 35.7 C 18.2 35.5 18.5 35.4 19.0 35.3 C 19.6 35.1 19.9 35.1 20.5 35.0 C 21.1 35.0 21.4 34.9 22.0 34.9 C 22.6 34.9 22.9 34.9 23.4 34.9 C 24.0 34.9 24.3 34.9 24.9 34.9 C 25.5 34.9 25.8 34.7 26.4 34.7 C 27.0 34.7 27.3 34.8 27.9 34.8 C 28.4 34.8 28.7 34.7 29.3 34.6 C 29.9 34.5 30.2 34.3 30.8 34.2 C 31.4 34.2 31.7 34.1 32.3 34.1 C 32.8 34.1 33.1 34.1 33.7 34.1 C 34.3 34.0 34.6 33.9 35.2 33.9 C 35.8 33.8 36.1 33.9 36.7 33.8 C 37.2 33.8 37.5 33.4 38.1 33.4 C 38.7 33.4 39.0 33.5 39.6 33.6 C 40.2 33.7 40.5 33.8 41.1 33.8 C 41.7 33.8 41.9 33.3 42.5 33.3 C 43.1 33.2 43.4 33.2 44.0 33.2 C 44.6 33.2 44.9 33.2 45.5 33.3 C 46.1 33.3 46.4 33.5 46.9 33.6 C 47.5 33.6 47.8 33.7 48.4 33.7 C 49.0 33.7 49.3 33.7 49.9 33.6 C 50.5 33.6 50.8 33.4 51.3 33.3 C 51.9 33.2 52.2 33.0 52.8 33.0 C 53.4 32.9 53.7 32.9 54.3 32.9 C 54.9 32.9 55.2 33.0 55.8 33.0 C 56.3 33.1 56.6 33.0 57.2 33.1 C 57.8 33.1 58.1 33.2 58.7 33.3 C 59.3 33.4 59.6 33.6 60.2 33.6 C 60.7 33.6 61.0 33.6 61.6 33.5 C 62.2 33.5 62.5 33.3 63.1 33.3 C 63.7 33.3 64.0 33.4 64.6 33.4 C 65.2 33.4 65.4 33.1 66.0 32.9 C 66.6 32.7 66.9 32.4 67.5 32.4 C 68.1 32.4 68.4 32.4 69.0 32.4 C 69.6 32.4 69.9 32.3 70.4 32.2 C 71.0 32.1 71.3 32.1 71.9 32.0 C 72.5 31.9 72.8 31.8 73.4 31.7 C 74.0 31.6 74.3 31.7 74.8 31.5 C 75.4 31.4 75.7 31.1 76.3 31.0 C 76.9 30.8 77.2 30.7 77.8 30.7 C 78.4 30.7 78.7 31.2 79.2 31.2 C 79.8 31.2 80.1 31.0 80.7 31.0 C 81.3 31.0 81.6 31.4 82.2 31.4 C 82.8 31.4 83.1 31.4 83.7 31.3 C 84.2 31.2 84.5 30.8 85.1 30.8 C 85.7 30.8 86.0 31.3 86.6 31.3 C 87.2 31.3 87.5 30.8 88.1 30.7 C 88.6 30.5 88.9 30.5 89.5 30.5 C 90.1 30.5 90.4 31.1 91.0 31.1 C 91.6 31.1 91.9 31.0 92.5 31.0 C 93.1 31.0 93.3 31.2 93.9 31.2 C 94.5 31.2 94.8 31.2 95.4 31.1 C 96.0 31.1 96.3 31.0 96.9 30.9 C 97.5 30.8 97.8 30.8 98.3 30.8 C 98.9 30.8 99.2 31.0 99.8 31.1 C 100.4 31.2 100.7 31.2 101.3 31.3 C 101.9 31.4 102.2 31.6 102.7 31.6 C 103.3 31.6 103.6 31.5 104.2 31.3 C 104.8 31.2 105.1 31.0 105.7 30.8 C 106.3 30.6 106.6 30.6 107.1 30.4 C 107.7 30.2 108.0 29.7 108.6 29.7 C 109.2 29.7 109.5 29.8 110.1 29.8 C 110.7 29.8 111.0 29.8 111.6 29.7 C 112.1 29.6 112.4 29.3 113.0 29.1 C 113.6 28.9 113.9 28.7 114.5 28.7 C 115.1 28.7 115.4 28.9 116.0 28.9 C 116.5 28.9 116.8 28.8 117.4 28.7 C 118.0 28.6 118.3 28.6 118.9 28.6 C 119.5 28.6 119.8 29.0 120.4 29.0 C 121.0 29.0 121.2 28.8 121.8 28.7 C 122.4 28.6 122.7 28.6 123.3 28.5 C 123.9 28.5 124.2 28.4 124.8 28.4 C 125.4 28.3 125.7 28.4 126.2 28.3 C 126.8 28.3 127.1 28.2 127.7 28.2 C 128.3 28.2 128.6 28.2 129.2 28.2 C 129.8 28.2 130.1 28.0 130.6 27.8 C 131.2 27.7 131.5 27.3 132.1 27.3 C 132.7 27.3 133.0 27.7 133.6 27.7 C 134.2 27.7 134.5 27.6 135.1 27.5 C 135.6 27.4 135.9 27.5 136.5 27.4 C 137.1 27.2 137.4 27.0 138.0 26.9 C 138.6 26.8 138.9 26.8 139.5 26.8 C 140.0 26.8 140.3 27.4 140.9 27.4 C 141.5 27.4 141.8 26.9 142.4 26.9 C 143.0 26.9 143.3 26.9 143.9 27.0 C 144.4 27.1 144.7 27.6 145.3 27.6 C 145.9 27.6 146.2 27.5 146.8 27.4 C 147.4 27.3 147.7 27.2 148.3 27.2 C 148.9 27.2 149.1 27.5 149.7 27.6 C 150.3 27.7 150.6 27.9 151.2 27.9 C 151.8 27.9 152.1 27.6 152.7 27.5 C 153.3 27.3 153.6 27.1 154.1 27.1 C 154.7 27.1 155.0 27.2 155.6 27.2 C 156.2 27.2 156.5 27.2 157.1 27.3 C 157.7 27.3 158.0 27.6 158.5 27.7 C 159.1 27.7 159.4 27.7 160.0 27.7 C 160.6 27.7 160.9 27.3 161.5 27.3 C 162.1 27.3 162.4 27.7 163.0 27.9 C 163.5 28.0 163.8 28.0 164.4 28.1 C 165.0 28.2 165.3 28.2 165.9 28.2 C 166.5 28.2 166.8 27.9 167.4 27.7 C 167.9 27.4 168.2 27.0 168.8 26.9 C 169.4 26.8 169.7 26.9 170.3 26.8 C 170.9 26.6 171.2 26.0 171.8 25.7 C 172.4 25.4 172.6 25.2 173.2 25.2 C 173.8 25.2 174.1 25.4 174.7 25.6 C 175.3 25.8 175.6 26.3 176.2 26.3 C 176.8 26.3 177.1 26.1 177.6 26.1 C 178.2 26.1 178.5 26.1 179.1 26.1 C 179.7 26.1 180.0 25.7 180.6 25.7 C 181.2 25.7 181.5 25.8 182.0 25.8 C 182.6 25.8 182.9 25.7 183.5 25.4 C 184.1 25.2 184.4 24.6 185.0 24.6 C 185.6 24.6 185.9 25.0 186.4 25.2 C 187.0 25.5 187.3 26.1 187.9 26.1 C 188.5 26.1 188.8 24.9 189.4 24.8 C 190.0 24.8 190.3 24.8 190.9 24.8 C 191.4 24.8 191.7 24.8 192.3 24.9 C 192.9 24.9 193.2 24.9 193.8 25.0 C 194.4 25.1 194.7 25.1 195.3 25.2 C 195.8 25.4 196.1 25.6 196.7 25.8 C 197.3 26.0 197.6 26.3 198.2 26.3 C 198.8 26.3 199.1 26.0 199.7 25.8 C 200.3 25.6 200.5 25.4 201.1 25.4 C 201.7 25.4 202.0 25.7 202.6 25.7 C 203.2 25.7 203.5 25.4 204.1 25.2 C 204.7 25.0 205.0 25.0 205.5 24.8 C 206.1 24.6 206.4 24.5 207.0 24.3 C 207.6 24.2 207.9 24.2 208.5 24.1 C 209.1 24.0 209.4 24.1 209.9 23.9 C 210.5 23.8 210.8 23.7 211.4 23.4 C 212.0 23.2 212.3 23.0 212.9 22.6 C 213.5 22.3 213.8 22.1 214.3 21.7 C 214.9 21.3 215.2 21.0 215.8 20.7 C 216.4 20.4 216.7 20.4 217.3 20.1 C 217.9 19.8 218.2 19.2 218.8 19.2 C 219.3 19.2 219.6 19.3 220.2 19.3 C 220.8 19.3 221.1 18.1 221.7 17.6 C 222.3 17.0 222.6 16.8 223.2 16.6 C 223.7 16.3 224.0 16.4 224.6 16.2 C 225.2 16.0 225.5 15.5 226.1 15.5 C 226.7 15.5 227.0 15.5 227.6 15.6 C 228.2 15.7 228.4 16.9 229.0 16.9 C 229.6 17.0 229.9 16.9 230.5 17.0 C 231.1 17.0 231.4 17.3 232.0 17.4 C 232.6 17.6 232.9 17.6 233.4 17.9 C 234.0 18.2 234.3 19.0 234.9 19.0 C 235.5 19.0 235.8 18.4 236.4 18.1 C 237.0 17.9 237.3 17.7 237.8 17.7 C 238.4 17.7 238.7 17.8 239.3 17.8 C 239.9 17.8 240.2 17.8 240.8 17.7 C 241.4 17.6 241.7 17.3 242.3 17.3 C 242.8 17.3 243.1 17.7 243.7 17.7 C 244.3 17.7 244.6 16.7 245.2 16.5 C 245.8 16.3 246.1 16.4 246.7 16.3 C 247.2 16.3 247.5 16.3 248.1 16.3 C 248.7 16.3 249.0 17.1 249.6 17.1 C 250.2 17.1 250.5 16.6 251.1 16.3 C 251.6 16.0 251.9 15.9 252.5 15.7 C 253.1 15.5 253.4 15.5 254.0 15.1 C 254.6 14.7 254.9 14.2 255.5 13.9 C 256.1 13.6 256.3 13.7 256.9 13.6 C 257.5 13.5 257.8 13.4 258.4 13.4 C 259.0 13.4 259.3 13.5 259.9 13.5 C 260.5 13.5 260.8 12.4 261.3 12.4 C 261.9 12.4 262.2 13.1 262.8 13.4 C 263.4 13.7 263.7 13.6 264.3 14.0 C 264.9 14.3 265.2 15.1 265.7 15.1 C 266.3 15.1 266.6 15.1 267.2 15.1 C 267.8 15.2 268.1 15.6 268.7 15.9 C 269.3 16.3 269.6 16.6 270.2 17.0 C 270.7 17.5 271.0 17.7 271.6 18.2 C 272.2 18.6 272.5 19.3 273.1 19.3 C 273.7 19.3 274.0 18.5 274.6 18.1 C 275.1 17.6 275.4 17.2 276.0 17.2 C 276.6 17.2 276.9 18.0 277.5 18.4 C 278.1 18.9 278.4 19.3 279.0 19.5 C 279.6 19.8 279.8 19.7 280.4 19.8 C 281.0 19.9 281.3 20.2 281.9 20.2 C 282.5 20.2 282.8 19.2 283.4 19.2 C 284.0 19.2 284.3 19.6 284.8 19.9 C 285.4 20.2 285.7 20.5 286.3 20.8 C 286.9 21.2 287.2 21.4 287.8 21.8 C 288.4 22.1 288.7 22.7 289.2 22.7 C 289.8 22.7 290.1 22.6 290.7 22.5 C 291.3 22.4 291.6 22.1 292.2 22.1 C 292.8 22.1 293.1 22.6 293.6 22.8 C 294.2 23.1 294.5 23.1 295.1 23.2 C 295.7 23.4 296.0 23.8 296.6 23.8 C 297.2 23.8 297.5 23.8 298.1 23.6 C 298.6 23.3 298.9 22.7 299.5 22.7 C 300.1 22.7 300.4 22.7 301.0 22.7 C 301.6 22.7 301.9 23.8 302.5 23.8 C 303.0 23.8 303.3 23.7 303.9 23.7 C 304.5 23.7 304.8 24.7 305.4 24.7 C 306.0 24.7 306.3 24.7 306.9 24.7 C 307.5 24.7 307.7 23.7 308.3 23.3 C 308.9 22.8 309.2 22.5 309.8 22.5 C 310.4 22.5 310.7 23.4 311.3 23.4 C 311.9 23.4 312.2 23.3 312.7 23.2 C 313.3 23.2 313.6 23.0 314.2 23.0 C 314.8 23.0 315.1 23.0 315.7 23.1 C 316.3 23.2 316.6 23.3 317.1 23.5 C 317.7 23.7 318.0 23.7 318.6 24.0 C 319.2 24.3 319.5 25.1 320.1 25.1 C 320.7 25.1 321.0 24.5 321.5 24.3 C 322.1 24.1 322.4 24.2 323.0 24.1 C 323.6 24.0 323.9 23.9 324.5 23.8 C 325.1 23.7 325.4 23.8 326.0 23.6 C 326.5 23.4 326.8 23.0 327.4 22.7 C 328.0 22.5 328.3 22.7 328.9 22.4 C 329.5 22.0 329.8 21.5 330.4 21.2 C 330.9 20.8 331.2 20.7 331.8 20.7 C 332.4 20.7 332.7 21.1 333.3 21.1 C 333.9 21.1 334.2 21.0 334.8 21.0 C 335.4 21.0 335.6 21.3 336.2 21.6 C 336.8 21.9 337.1 22.4 337.7 22.4 C 338.3 22.4 338.6 21.4 339.2 21.4 C 339.8 21.4 340.1 21.5 340.6 21.5 C 341.2 21.5 341.5 21.5 342.1 21.3 C 342.7 21.2 343.0 21.0 343.6 20.7 C 344.2 20.4 344.5 19.8 345.0 19.8 C 345.6 19.8 345.9 19.8 346.5 19.8 C 347.1 19.9 347.4 19.9 348.0 19.9 C 348.6 19.9 348.9 19.8 349.5 19.8 C 350.0 19.8 350.3 20.0 350.9 20.0 C 351.5 20.0 351.8 19.5 352.4 19.1 C 353.0 18.8 353.3 18.2 353.9 18.2 C 354.4 18.2 354.7 18.2 355.3 18.2 C 355.9 18.2 356.2 18.6 356.8 18.6 C 357.4 18.6 357.7 18.0 358.3 18.0 C 358.8 18.0 359.1 18.4 359.7 18.6 C 360.3 18.8 360.6 19.1 361.2 19.1 C 361.8 19.1 362.1 18.9 362.7 18.8 C 363.3 18.7 363.5 18.7 364.1 18.7 C 364.7 18.7 365.0 20.3 365.6 20.3 C 366.2 20.3 366.5 20.3 367.1 20.3 C 367.7 20.3 368.0 19.2 368.5 19.2 C 369.1 19.2 369.4 19.2 370.0 19.3 C 370.6 19.4 370.9 19.8 371.5 19.8 C 372.1 19.8 372.4 19.6 372.9 19.5 C 373.5 19.5 373.8 19.5 374.4 19.5 C 375.0 19.5 375.3 19.5 375.9 19.5 C 376.5 19.5 376.8 19.1 377.4 19.1 C 377.9 19.1 378.2 19.1 378.8 19.2 C 379.4 19.2 379.7 19.7 380.3 19.8 C 380.9 19.9 381.2 19.9 381.8 19.9 C 382.3 19.9 382.6 19.5 383.2 18.9 C 383.8 18.3 384.1 16.9 384.7 16.9 C 385.3 16.9 385.6 16.9 386.2 16.9 C 386.8 16.9 387.0 16.9 387.6 16.9 C 388.2 16.8 388.5 16.6 389.1 16.3 C 389.7 16.0 390.0 15.6 390.6 15.4 C 391.2 15.1 391.5 15.1 392.0 14.9 C 392.6 14.7 392.9 14.4 393.5 14.4 C 394.1 14.4 394.4 14.7 395.0 14.8 C 395.6 14.9 395.9 15.1 396.4 15.1 C 397.0 15.1 397.3 14.6 397.9 14.3 C 398.5 14.0 398.8 13.7 399.4 13.7 C 400.0 13.7 400.3 13.9 400.8 13.9 C 401.4 13.9 401.7 13.7 402.3 13.5 C 402.9 13.4 403.2 13.1 403.8 13.1 C 404.4 13.1 404.7 13.9 405.3 13.9 C 405.8 13.9 406.1 13.6 406.7 13.3 C 407.3 13.0 407.6 12.5 408.2 12.3 C 408.8 12.0 409.1 11.8 409.7 11.8 C 410.2 11.8 410.5 12.4 411.1 12.4 C 411.7 12.4 412.0 12.4 412.6 12.4 C 413.2 12.3 413.5 12.0 414.1 12.0 C 414.7 12.0 414.9 12.1 415.5 12.1 C 416.1 12.2 416.4 12.4 417.0 12.4 C 417.6 12.4 417.9 12.3 418.5 12.3 C 419.1 12.3 419.4 13.0 419.9 13.0 C 420.5 13.0 420.8 12.0 421.4 11.5 C 422.0 11.0 422.3 10.7 422.9 10.4 C 423.5 10.0 423.8 10.0 424.3 9.8 C 424.9 9.5 425.2 9.4 425.8 9.0 C 426.4 8.7 426.7 8.3 427.3 7.9 C 427.9 7.4 428.2 6.9 428.7 6.9 C 429.3 6.9 429.6 7.5 430.2 7.9 C 430.8 8.3 431.1 8.5 431.7 8.9 C 432.3 9.2 432.6 9.5 433.2 9.5 C 433.7 9.5 434.0 8.6 434.6 8.6 C 435.2 8.6 435.5 8.8 436.1 9.0 C 436.7 9.2 437.0 9.7 437.6 9.8 C 438.1 9.9 438.4 9.9 439.0 9.9 C 439.6 9.9 439.9 9.5 440.5 9.2 C 441.1 8.8 441.4 8.5 442.0 8.1 C 442.6 7.6 442.8 7.3 443.4 6.8 C 444.0 6.2 444.3 5.9 444.9 5.3 C 445.5 4.8 445.8 4.3 446.4 4.0 C 447.0 3.6 447.3 3.4 447.8 3.4 C 448.4 3.4 448.7 3.8 449.3 4.1 C 449.9 4.5 450.2 5.2 450.8 5.2 C 451.4 5.2 451.7 4.5 452.2 4.5 C 452.8 4.5 453.1 5.0 453.7 5.0 C 454.3 5.0 454.6 5.0 455.2 5.0 C 455.8 5.0 456.1 4.6 456.7 4.6 C 457.2 4.6 457.5 4.7 458.1 4.7 C 458.7 4.7 459.0 4.1 459.6 4.0 C 460.2 3.8 460.5 3.8 461.1 3.8 C 461.6 3.8 461.9 4.6 462.5 4.6 C 463.1 4.6 463.4 4.6 464.0 4.4 C 464.6 4.2 464.9 3.3 465.5 3.3 C 466.0 3.3 466.3 3.3 466.9 3.3 C 467.5 3.3 467.8 3.5 468.4 3.6 C 469.0 3.8 469.3 4.0 469.9 4.2 C 470.5 4.3 470.7 4.4 471.3 4.4 C 471.9 4.4 472.2 4.3 472.8 4.3 C 473.4 4.3 473.7 4.6 474.3 4.8 C 474.9 5.0 475.2 5.5 475.7 5.5 C 476.3 5.5 476.6 4.5 477.2 4.4 C 477.8 4.3 478.1 4.3 478.7 4.3 C 479.3 4.3 479.6 5.1 480.1 5.7 C 480.7 6.4 481.0 7.7 481.6 7.7 C 482.2 7.7 482.5 7.7 483.1 7.7 C 483.7 7.7 484.0 8.0 484.6 8.4 C 485.1 8.9 485.4 9.9 486.0 9.9 C 486.6 9.9 486.9 9.5 487.5 9.3 C 488.1 9.1 488.4 9.0 489.0 8.8 C 489.5 8.5 489.8 8.0 490.4 8.0 C 491.0 8.0 491.3 8.0 491.9 8.1 C 492.5 8.3 492.8 9.3 493.4 9.3 C 494.0 9.3 494.2 9.2 494.8 9.2 C 495.4 9.1 495.7 9.2 496.3 9.1 C 496.9 8.9 497.2 8.4 497.8 8.0 C 498.4 7.7 498.7 7.5 499.2 7.1 C 499.8 6.7 500.1 6.0 500.7 6.0 C 501.3 6.0 501.6 7.6 502.2 7.6 C 502.8 7.6 503.1 7.6 503.6 7.5 C 504.2 7.4 504.5 7.1 505.1 7.1 C 505.7 7.1 506.0 7.2 506.6 7.3 C 507.2 7.4 507.5 7.3 508.0 7.6 C 508.6 7.9 508.9 9.0 509.5 9.5 C 510.1 10.0 510.4 9.9 511.0 10.1 C 511.6 10.3 511.9 10.1 512.5 10.3 C 513.0 10.5 513.3 11.8 513.9 12.3 C 514.5 12.8 514.8 12.7 515.4 12.8 C 516.0 13.0 516.3 12.9 516.9 13.0 C 517.4 13.1 517.7 13.2 518.3 13.3 C 518.9 13.4 519.2 13.5 519.8 13.7 C 520.4 13.8 520.7 14.0 521.3 14.0 C 521.9 14.0 522.1 13.3 522.7 13.3 C 523.3 13.3 523.6 13.5 524.2 13.5 C 524.8 13.5 525.1 12.5 525.7 12.2 C 526.3 11.9 526.6 12.2 527.1 11.9 C 527.7 11.7 528.0 11.2 528.6 10.9 C 529.2 10.7 529.5 10.8 530.1 10.6 C 530.7 10.4 531.0 10.2 531.5 9.9 C 532.1 9.7 532.4 9.6 533.0 9.5 C 533.6 9.4 533.9 9.2 534.5 9.2 C 535.1 9.2 536 10.4 536 10.4 L 536 40 C 536 40 535.1 40 534.5 40 C 533.9 40 533.6 40 533.0 40 C 532.4 40 532.1 40 531.5 40 C 531.0 40 530.7 40 530.1 40 C 529.5 40 529.2 40 528.6 40 C 528.0 40 527.7 40 527.1 40 C 526.6 40 526.3 40 525.7 40 C 525.1 40 524.8 40 524.2 40 C 523.6 40 523.3 40 522.7 40 C 522.1 40 521.9 40 521.3 40 C 520.7 40 520.4 40 519.8 40 C 519.2 40 518.9 40 518.3 40 C 517.7 40 517.4 40 516.9 40 C 516.3 40 516.0 40 515.4 40 C 514.8 40 514.5 40 513.9 40 C 513.3 40 513.0 40 512.5 40 C 511.9 40 511.6 40 511.0 40 C 510.4 40 510.1 40 509.5 40 C 508.9 40 508.6 40 508.0 40 C 507.5 40 507.2 40 506.6 40 C 506.0 40 505.7 40 505.1 40 C 504.5 40 504.2 40 503.6 40 C 503.1 40 502.8 40 502.2 40 C 501.6 40 501.3 40 500.7 40 C 500.1 40 499.8 40 499.2 40 C 498.7 40 498.4 40 497.8 40 C 497.2 40 496.9 40 496.3 40 C 495.7 40 495.4 40 494.8 40 C 494.2 40 494.0 40 493.4 40 C 492.8 40 492.5 40 491.9 40 C 491.3 40 491.0 40 490.4 40 C 489.8 40 489.5 40 489.0 40 C 488.4 40 488.1 40 487.5 40 C 486.9 40 486.6 40 486.0 40 C 485.4 40 485.1 40 484.6 40 C 484.0 40 483.7 40 483.1 40 C 482.5 40 482.2 40 481.6 40 C 481.0 40 480.7 40 480.1 40 C 479.6 40 479.3 40 478.7 40 C 478.1 40 477.8 40 477.2 40 C 476.6 40 476.3 40 475.7 40 C 475.2 40 474.9 40 474.3 40 C 473.7 40 473.4 40 472.8 40 C 472.2 40 471.9 40 471.3 40 C 470.7 40 470.5 40 469.9 40 C 469.3 40 469.0 40 468.4 40 C 467.8 40 467.5 40 466.9 40 C 466.3 40 466.0 40 465.5 40 C 464.9 40 464.6 40 464.0 40 C 463.4 40 463.1 40 462.5 40 C 461.9 40 461.6 40 461.1 40 C 460.5 40 460.2 40 459.6 40 C 459.0 40 458.7 40 458.1 40 C 457.5 40 457.2 40 456.7 40 C 456.1 40 455.8 40 455.2 40 C 454.6 40 454.3 40 453.7 40 C 453.1 40 452.8 40 452.2 40 C 451.7 40 451.4 40 450.8 40 C 450.2 40 449.9 40 449.3 40 C 448.7 40 448.4 40 447.8 40 C 447.3 40 447.0 40 446.4 40 C 445.8 40 445.5 40 444.9 40 C 444.3 40 444.0 40 443.4 40 C 442.8 40 442.6 40 442.0 40 C 441.4 40 441.1 40 440.5 40 C 439.9 40 439.6 40 439.0 40 C 438.4 40 438.1 40 437.6 40 C 437.0 40 436.7 40 436.1 40 C 435.5 40 435.2 40 434.6 40 C 434.0 40 433.7 40 433.2 40 C 432.6 40 432.3 40 431.7 40 C 431.1 40 430.8 40 430.2 40 C 429.6 40 429.3 40 428.7 40 C 428.2 40 427.9 40 427.3 40 C 426.7 40 426.4 40 425.8 40 C 425.2 40 424.9 40 424.3 40 C 423.8 40 423.5 40 422.9 40 C 422.3 40 422.0 40 421.4 40 C 420.8 40 420.5 40 419.9 40 C 419.4 40 419.1 40 418.5 40 C 417.9 40 417.6 40 417.0 40 C 416.4 40 416.1 40 415.5 40 C 414.9 40 414.7 40 414.1 40 C 413.5 40 413.2 40 412.6 40 C 412.0 40 411.7 40 411.1 40 C 410.5 40 410.2 40 409.7 40 C 409.1 40 408.8 40 408.2 40 C 407.6 40 407.3 40 406.7 40 C 406.1 40 405.8 40 405.3 40 C 404.7 40 404.4 40 403.8 40 C 403.2 40 402.9 40 402.3 40 C 401.7 40 401.4 40 400.8 40 C 400.3 40 400.0 40 399.4 40 C 398.8 40 398.5 40 397.9 40 C 397.3 40 397.0 40 396.4 40 C 395.9 40 395.6 40 395.0 40 C 394.4 40 394.1 40 393.5 40 C 392.9 40 392.6 40 392.0 40 C 391.5 40 391.2 40 390.6 40 C 390.0 40 389.7 40 389.1 40 C 388.5 40 388.2 40 387.6 40 C 387.0 40 386.8 40 386.2 40 C 385.6 40 385.3 40 384.7 40 C 384.1 40 383.8 40 383.2 40 C 382.6 40 382.3 40 381.8 40 C 381.2 40 380.9 40 380.3 40 C 379.7 40 379.4 40 378.8 40 C 378.2 40 377.9 40 377.4 40 C 376.8 40 376.5 40 375.9 40 C 375.3 40 375.0 40 374.4 40 C 373.8 40 373.5 40 372.9 40 C 372.4 40 372.1 40 371.5 40 C 370.9 40 370.6 40 370.0 40 C 369.4 40 369.1 40 368.5 40 C 368.0 40 367.7 40 367.1 40 C 366.5 40 366.2 40 365.6 40 C 365.0 40 364.7 40 364.1 40 C 363.5 40 363.3 40 362.7 40 C 362.1 40 361.8 40 361.2 40 C 360.6 40 360.3 40 359.7 40 C 359.1 40 358.8 40 358.3 40 C 357.7 40 357.4 40 356.8 40 C 356.2 40 355.9 40 355.3 40 C 354.7 40 354.4 40 353.9 40 C 353.3 40 353.0 40 352.4 40 C 351.8 40 351.5 40 350.9 40 C 350.3 40 350.0 40 349.5 40 C 348.9 40 348.6 40 348.0 40 C 347.4 40 347.1 40 346.5 40 C 345.9 40 345.6 40 345.0 40 C 344.5 40 344.2 40 343.6 40 C 343.0 40 342.7 40 342.1 40 C 341.5 40 341.2 40 340.6 40 C 340.1 40 339.8 40 339.2 40 C 338.6 40 338.3 40 337.7 40 C 337.1 40 336.8 40 336.2 40 C 335.6 40 335.4 40 334.8 40 C 334.2 40 333.9 40 333.3 40 C 332.7 40 332.4 40 331.8 40 C 331.2 40 330.9 40 330.4 40 C 329.8 40 329.5 40 328.9 40 C 328.3 40 328.0 40 327.4 40 C 326.8 40 326.5 40 326.0 40 C 325.4 40 325.1 40 324.5 40 C 323.9 40 323.6 40 323.0 40 C 322.4 40 322.1 40 321.5 40 C 321.0 40 320.7 40 320.1 40 C 319.5 40 319.2 40 318.6 40 C 318.0 40 317.7 40 317.1 40 C 316.6 40 316.3 40 315.7 40 C 315.1 40 314.8 40 314.2 40 C 313.6 40 313.3 40 312.7 40 C 312.2 40 311.9 40 311.3 40 C 310.7 40 310.4 40 309.8 40 C 309.2 40 308.9 40 308.3 40 C 307.7 40 307.5 40 306.9 40 C 306.3 40 306.0 40 305.4 40 C 304.8 40 304.5 40 303.9 40 C 303.3 40 303.0 40 302.5 40 C 301.9 40 301.6 40 301.0 40 C 300.4 40 300.1 40 299.5 40 C 298.9 40 298.6 40 298.1 40 C 297.5 40 297.2 40 296.6 40 C 296.0 40 295.7 40 295.1 40 C 294.5 40 294.2 40 293.6 40 C 293.1 40 292.8 40 292.2 40 C 291.6 40 291.3 40 290.7 40 C 290.1 40 289.8 40 289.2 40 C 288.7 40 288.4 40 287.8 40 C 287.2 40 286.9 40 286.3 40 C 285.7 40 285.4 40 284.8 40 C 284.3 40 284.0 40 283.4 40 C 282.8 40 282.5 40 281.9 40 C 281.3 40 281.0 40 280.4 40 C 279.8 40 279.6 40 279.0 40 C 278.4 40 278.1 40 277.5 40 C 276.9 40 276.6 40 276.0 40 C 275.4 40 275.1 40 274.6 40 C 274.0 40 273.7 40 273.1 40 C 272.5 40 272.2 40 271.6 40 C 271.0 40 270.7 40 270.2 40 C 269.6 40 269.3 40 268.7 40 C 268.1 40 267.8 40 267.2 40 C 266.6 40 266.3 40 265.7 40 C 265.2 40 264.9 40 264.3 40 C 263.7 40 263.4 40 262.8 40 C 262.2 40 261.9 40 261.3 40 C 260.8 40 260.5 40 259.9 40 C 259.3 40 259.0 40 258.4 40 C 257.8 40 257.5 40 256.9 40 C 256.3 40 256.1 40 255.5 40 C 254.9 40 254.6 40 254.0 40 C 253.4 40 253.1 40 252.5 40 C 251.9 40 251.6 40 251.1 40 C 250.5 40 250.2 40 249.6 40 C 249.0 40 248.7 40 248.1 40 C 247.5 40 247.2 40 246.7 40 C 246.1 40 245.8 40 245.2 40 C 244.6 40 244.3 40 243.7 40 C 243.1 40 242.8 40 242.3 40 C 241.7 40 241.4 40 240.8 40 C 240.2 40 239.9 40 239.3 40 C 238.7 40 238.4 40 237.8 40 C 237.3 40 237.0 40 236.4 40 C 235.8 40 235.5 40 234.9 40 C 234.3 40 234.0 40 233.4 40 C 232.9 40 232.6 40 232.0 40 C 231.4 40 231.1 40 230.5 40 C 229.9 40 229.6 40 229.0 40 C 228.4 40 228.2 40 227.6 40 C 227.0 40 226.7 40 226.1 40 C 225.5 40 225.2 40 224.6 40 C 224.0 40 223.7 40 223.2 40 C 222.6 40 222.3 40 221.7 40 C 221.1 40 220.8 40 220.2 40 C 219.6 40 219.3 40 218.8 40 C 218.2 40 217.9 40 217.3 40 C 216.7 40 216.4 40 215.8 40 C 215.2 40 214.9 40 214.3 40 C 213.8 40 213.5 40 212.9 40 C 212.3 40 212.0 40 211.4 40 C 210.8 40 210.5 40 209.9 40 C 209.4 40 209.1 40 208.5 40 C 207.9 40 207.6 40 207.0 40 C 206.4 40 206.1 40 205.5 40 C 205.0 40 204.7 40 204.1 40 C 203.5 40 203.2 40 202.6 40 C 202.0 40 201.7 40 201.1 40 C 200.5 40 200.3 40 199.7 40 C 199.1 40 198.8 40 198.2 40 C 197.6 40 197.3 40 196.7 40 C 196.1 40 195.8 40 195.3 40 C 194.7 40 194.4 40 193.8 40 C 193.2 40 192.9 40 192.3 40 C 191.7 40 191.4 40 190.9 40 C 190.3 40 190.0 40 189.4 40 C 188.8 40 188.5 40 187.9 40 C 187.3 40 187.0 40 186.4 40 C 185.9 40 185.6 40 185.0 40 C 184.4 40 184.1 40 183.5 40 C 182.9 40 182.6 40 182.0 40 C 181.5 40 181.2 40 180.6 40 C 180.0 40 179.7 40 179.1 40 C 178.5 40 178.2 40 177.6 40 C 177.1 40 176.8 40 176.2 40 C 175.6 40 175.3 40 174.7 40 C 174.1 40 173.8 40 173.2 40 C 172.6 40 172.4 40 171.8 40 C 171.2 40 170.9 40 170.3 40 C 169.7 40 169.4 40 168.8 40 C 168.2 40 167.9 40 167.4 40 C 166.8 40 166.5 40 165.9 40 C 165.3 40 165.0 40 164.4 40 C 163.8 40 163.5 40 163.0 40 C 162.4 40 162.1 40 161.5 40 C 160.9 40 160.6 40 160.0 40 C 159.4 40 159.1 40 158.5 40 C 158.0 40 157.7 40 157.1 40 C 156.5 40 156.2 40 155.6 40 C 155.0 40 154.7 40 154.1 40 C 153.6 40 153.3 40 152.7 40 C 152.1 40 151.8 40 151.2 40 C 150.6 40 150.3 40 149.7 40 C 149.1 40 148.9 40 148.3 40 C 147.7 40 147.4 40 146.8 40 C 146.2 40 145.9 40 145.3 40 C 144.7 40 144.4 40 143.9 40 C 143.3 40 143.0 40 142.4 40 C 141.8 40 141.5 40 140.9 40 C 140.3 40 140.0 40 139.5 40 C 138.9 40 138.6 40 138.0 40 C 137.4 40 137.1 40 136.5 40 C 135.9 40 135.6 40 135.1 40 C 134.5 40 134.2 40 133.6 40 C 133.0 40 132.7 40 132.1 40 C 131.5 40 131.2 40 130.6 40 C 130.1 40 129.8 40 129.2 40 C 128.6 40 128.3 40 127.7 40 C 127.1 40 126.8 40 126.2 40 C 125.7 40 125.4 40 124.8 40 C 124.2 40 123.9 40 123.3 40 C 122.7 40 122.4 40 121.8 40 C 121.2 40 121.0 40 120.4 40 C 119.8 40 119.5 40 118.9 40 C 118.3 40 118.0 40 117.4 40 C 116.8 40 116.5 40 116.0 40 C 115.4 40 115.1 40 114.5 40 C 113.9 40 113.6 40 113.0 40 C 112.4 40 112.1 40 111.6 40 C 111.0 40 110.7 40 110.1 40 C 109.5 40 109.2 40 108.6 40 C 108.0 40 107.7 40 107.1 40 C 106.6 40 106.3 40 105.7 40 C 105.1 40 104.8 40 104.2 40 C 103.6 40 103.3 40 102.7 40 C 102.2 40 101.9 40 101.3 40 C 100.7 40 100.4 40 99.8 40 C 99.2 40 98.9 40 98.3 40 C 97.8 40 97.5 40 96.9 40 C 96.3 40 96.0 40 95.4 40 C 94.8 40 94.5 40 93.9 40 C 93.3 40 93.1 40 92.5 40 C 91.9 40 91.6 40 91.0 40 C 90.4 40 90.1 40 89.5 40 C 88.9 40 88.6 40 88.1 40 C 87.5 40 87.2 40 86.6 40 C 86.0 40 85.7 40 85.1 40 C 84.5 40 84.2 40 83.7 40 C 83.1 40 82.8 40 82.2 40 C 81.6 40 81.3 40 80.7 40 C 80.1 40 79.8 40 79.2 40 C 78.7 40 78.4 40 77.8 40 C 77.2 40 76.9 40 76.3 40 C 75.7 40 75.4 40 74.8 40 C 74.3 40 74.0 40 73.4 40 C 72.8 40 72.5 40 71.9 40 C 71.3 40 71.0 40 70.4 40 C 69.9 40 69.6 40 69.0 40 C 68.4 40 68.1 40 67.5 40 C 66.9 40 66.6 40 66.0 40 C 65.4 40 65.2 40 64.6 40 C 64.0 40 63.7 40 63.1 40 C 62.5 40 62.2 40 61.6 40 C 61.0 40 60.7 40 60.2 40 C 59.6 40 59.3 40 58.7 40 C 58.1 40 57.8 40 57.2 40 C 56.6 40 56.3 40 55.8 40 C 55.2 40 54.9 40 54.3 40 C 53.7 40 53.4 40 52.8 40 C 52.2 40 51.9 40 51.3 40 C 50.8 40 50.5 40 49.9 40 C 49.3 40 49.0 40 48.4 40 C 47.8 40 47.5 40 46.9 40 C 46.4 40 46.1 40 45.5 40 C 44.9 40 44.6 40 44.0 40 C 43.4 40 43.1 40 42.5 40 C 41.9 40 41.7 40 41.1 40 C 40.5 40 40.2 40 39.6 40 C 39.0 40 38.7 40 38.1 40 C 37.5 40 37.2 40 36.7 40 C 36.1 40 35.8 40 35.2 40 C 34.6 40 34.3 40 33.7 40 C 33.1 40 32.8 40 32.3 40 C 31.7 40 31.4 40 30.8 40 C 30.2 40 29.9 40 29.3 40 C 28.7 40 28.4 40 27.9 40 C 27.3 40 27.0 40 26.4 40 C 25.8 40 25.5 40 24.9 40 C 24.3 40 24.0 40 23.4 40 C 22.9 40 22.6 40 22.0 40 C 21.4 40 21.1 40 20.5 40 C 19.9 40 19.6 40 19.0 40 C 18.5 40 18.2 40 17.6 40 C 17.0 40 16.7 40 16.1 40 C 15.5 40 15.2 40 14.6 40 C 14.0 40 13.8 40 13.2 40 C 12.6 40 12.3 40 11.7 40 C 11.1 40 10.8 40 10.2 40 C 9.6 40 9.3 40 8.8 40 C 8.2 40 7.9 40 7.3 40 C 6.7 40 6.4 40 5.8 40 C 5.2 40 4.9 40 4.4 40 C 3.8 40 3.5 40 2.9 40 C 2.3 40 2.0 40 1.4 40 C 0.8 40 0 40 0 40" fill-opacity="0.0">
			</path>
			<path fill="none" d="M 0 36.6 C 0 36.6 0.8 36.6 1.4 36.5 C 2.0 36.5 2.3 36.3 2.9 36.3 C 3.5 36.3 3.8 36.6 4.4 36.6 C 4.9 36.6 5.2 36.6 5.8 36.6 C 6.4 36.5 6.7 36.3 7.3 36.2 C 7.9 36.1 8.2 35.9 8.8 35.9 C 9.3 35.9 9.6 35.9 10.2 35.9 C 10.8 35.9 11.1 36.1 11.7 36.1 C 12.3 36.1 12.6 36.1 13.2 36.0 C 13.8 36.0 14.0 35.9 14.6 35.9 C 15.2 35.9 15.5 36.1 16.1 36.1 C 16.7 36.1 17.0 35.8 17.6 35.7 C 18.2 35.5 18.5 35.4 19.0 35.3 C 19.6 35.1 19.9 35.1 20.5 35.0 C 21.1 35.0 21.4 34.9 22.0 34.9 C 22.6 34.9 22.9 34.9 23.4 34.9 C 24.0 34.9 24.3 34.9 24.9 34.9 C 25.5 34.9 25.8 34.7 26.4 34.7 C 27.0 34.7 27.3 34.8 27.9 34.8 C 28.4 34.8 28.7 34.7 29.3 34.6 C 29.9 34.5 30.2 34.3 30.8 34.2 C 31.4 34.2 31.7 34.1 32.3 34.1 C 32.8 34.1 33.1 34.1 33.7 34.1 C 34.3 34.0 34.6 33.9 35.2 33.9 C 35.8 33.8 36.1 33.9 36.7 33.8 C 37.2 33.8 37.5 33.4 38.1 33.4 C 38.7 33.4 39.0 33.5 39.6 33.6 C 40.2 33.7 40.5 33.8 41.1 33.8 C 41.7 33.8 41.9 33.3 42.5 33.3 C 43.1 33.2 43.4 33.2 44.0 33.2 C 44.6 33.2 44.9 33.2 45.5 33.3 C 46.1 33.3 46.4 33.5 46.9 33.6 C 47.5 33.6 47.8 33.7 48.4 33.7 C 49.0 33.7 49.3 33.7 49.9 33.6 C 50.5 33.6 50.8 33.4 51.3 33.3 C 51.9 33.2 52.2 33.0 52.8 33.0 C 53.4 32.9 53.7 32.9 54.3 32.9 C 54.9 32.9 55.2 33.0 55.8 33.0 C 56.3 33.1 56.6 33.0 57.2 33.1 C 57.8 33.1 58.1 33.2 58.7 33.3 C 59.3 33.4 59.6 33.6 60.2 33.6 C 60.7 33.6 61.0 33.6 61.6 33.5 C 62.2 33.5 62.5 33.3 63.1 33.3 C 63.7 33.3 64.0 33.4 64.6 33.4 C 65.2 33.4 65.4 33.1 66.0 32.9 C 66.6 32.7 66.9 32.4 67.5 32.4 C 68.1 32.4 68.4 32.4 69.0 32.4 C 69.6 32.4 69.9 32.3 70.4 32.2 C 71.0 32.1 71.3 32.1 71.9 32.0 C 72.5 31.9 72.8 31.8 73.4 31.7 C 74.0 31.6 74.3 31.7 74.8 31.5 C 75.4 31.4 75.7 31.1 76.3 31.0 C 76.9 30.8 77.2 30.7 77.8 30.7 C 78.4 30.7 78.7 31.2 79.2 31.2 C 79.8 31.2 80.1 31.0 80.7 31.0 C 81.3 31.0 81.6 31.4 82.2 31.4 C 82.8 31.4 83.1 31.4 83.7 31.3 C 84.2 31.2 84.5 30.8 85.1 30.8 C 85.7 30.8 86.0 31.3 86.6 31.3 C 87.2 31.3 87.5 30.8 88.1 30.7 C 88.6 30.5 88.9 30.5 89.5 30.5 C 90.1 30.5 90.4 31.1 91.0 31.1 C 91.6 31.1 91.9 31.0 92.5 31.0 C 93.1 31.0 93.3 31.2 93.9 31.2 C 94.5 31.2 94.8 31.2 95.4 31.1 C 96.0 31.1 96.3 31.0 96.9 30.9 C 97.5 30.8 97.8 30.8 98.3 30.8 C 98.9 30.8 99.2 31.0 99.8 31.1 C 100.4 31.2 100.7 31.2 101.3 31.3 C 101.9 31.4 102.2 31.6 102.7 31.6 C 103.3 31.6 103.6 31.5 104.2 31.3 C 104.8 31.2 105.1 31.0 105.7 30.8 C 106.3 30.6 106.6 30.6 107.1 30.4 C 107.7 30.2 108.0 29.7 108.6 29.7 C 109.2 29.7 109.5 29.8 110.1 29.8 C 110.7 29.8 111.0 29.8 111.6 29.7 C 112.1 29.6 112.4 29.3 113.0 29.1 C 113.6 28.9 113.9 28.7 114.5 28.7 C 115.1 28.7 115.4 28.9 116.0 28.9 C 116.5 28.9 116.8 28.8 117.4 28.7 C 118.0 28.6 118.3 28.6 118.9 28.6 C 119.5 28.6 119.8 29.0 120.4 29.0 C 121.0 29.0 121.2 28.8 121.8 28.7 C 122.4 28.6 122.7 28.6 123.3 28.5 C 123.9 28.5 124.2 28.4 124.8 28.4 C 125.4 28.3 125.7 28.4 126.2 28.3 C 126.8 28.3 127.1 28.2 127.7 28.2 C 128.3 28.2 128.6 28.2 129.2 28.2 C 129.8 28.2 130.1 28.0 130.6 27.8 C 131.2 27.7 131.5 27.3 132.1 27.3 C 132.7 27.3 133.0 27.7 133.6 27.7 C 134.2 27.7 134.5 27.6 135.1 27.5 C 135.6 27.4 135.9 27.5 136.5 27.4 C 137.1 27.2 137.4 27.0 138.0 26.9 C 138.6 26.8 138.9 26.8 139.5 26.8 C 140.0 26.8 140.3 27.4 140.9 27.4 C 141.5 27.4 141.8 26.9 142.4 26.9 C 143.0 26.9 143.3 26.9 143.9 27.0 C 144.4 27.1 144.7 27.6 145.3 27.6 C 145.9 27.6 146.2 27.5 146.8 27.4 C 147.4 27.3 147.7 27.2 148.3 27.2 C 148.9 27.2 149.1 27.5 149.7 27.6 C 150.3 27.7 150.6 27.9 151.2 27.9 C 151.8 27.9 152.1 27.6 152.7 27.5 C 153.3 27.3 153.6 27.1 154.1 27.1 C 154.7 27.1 155.0 27.2 155.6 27.2 C 156.2 27.2 156.5 27.2 157.1 27.3 C 157.7 27.3 158.0 27.6 158.5 27.7 C 159.1 27.7 159.4 27.7 160.0 27.7 C 160.6 27.7 160.9 27.3 161.5 27.3 C 162.1 27.3 162.4 27.7 163.0 27.9 C 163.5 28.0 163.8 28.0 164.4 28.1 C 165.0 28.2 165.3 28.2 165.9 28.2 C 166.5 28.2 166.8 27.9 167.4 27.7 C 167.9 27.4 168.2 27.0 168.8 26.9 C 169.4 26.8 169.7 26.9 170.3 26.8 C 170.9 26.6 171.2 26.0 171.8 25.7 C 172.4 25.4 172.6 25.2 173.2 25.2 C 173.8 25.2 174.1 25.4 174.7 25.6 C 175.3 25.8 175.6 26.3 176.2 26.3 C 176.8 26.3 177.1 26.1 177.6 26.1 C 178.2 26.1 178.5 26.1 179.1 26.1 C 179.7 26.1 180.0 25.7 180.6 25.7 C 181.2 25.7 181.5 25.8 182.0 25.8 C 182.6 25.8 182.9 25.7 183.5 25.4 C 184.1 25.2 184.4 24.6 185.0 24.6 C 185.6 24.6 185.9 25.0 186.4 25.2 C 187.0 25.5 187.3 26.1 187.9 26.1 C 188.5 26.1 188.8 24.9 189.4 24.8 C 190.0 24.8 190.3 24.8 190.9 24.8 C 191.4 24.8 191.7 24.8 192.3 24.9 C 192.9 24.9 193.2 24.9 193.8 25.0 C 194.4 25.1 194.7 25.1 195.3 25.2 C 195.8 25.4 196.1 25.6 196.7 25.8 C 197.3 26.0 197.6 26.3 198.2 26.3 C 198.8 26.3 199.1 26.0 199.7 25.8 C 200.3 25.6 200.5 25.4 201.1 25.4 C 201.7 25.4 202.0 25.7 202.6 25.7 C 203.2 25.7 203.5 25.4 204.1 25.2 C 204.7 25.0 205.0 25.0 205.5 24.8 C 206.1 24.6 206.4 24.5 207.0 24.3 C 207.6 24.2 207.9 24.2 208.5 24.1 C 209.1 24.0 209.4 24.1 209.9 23.9 C 210.5 23.8 210.8 23.7 211.4 23.4 C 212.0 23.2 212.3 23.0 212.9 22.6 C 213.5 22.3 213.8 22.1 214.3 21.7 C 214.9 21.3 215.2 21.0 215.8 20.7 C 216.4 20.4 216.7 20.4 217.3 20.1 C 217.9 19.8 218.2 19.2 218.8 19.2 C 219.3 19.2 219.6 19.3 220.2 19.3 C 220.8 19.3 221.1 18.1 221.7 17.6 C 222.3 17.0 222.6 16.8 223.2 16.6 C 223.7 16.3 224.0 16.4 224.6 16.2 C 225.2 16.0 225.5 15.5 226.1 15.5 C 226.7 15.5 227.0 15.5 227.6 15.6 C 228.2 15.7 228.4 16.9 229.0 16.9 C 229.6 17.0 229.9 16.9 230.5 17.0 C 231.1 17.0 231.4 17.3 232.0 17.4 C 232.6 17.6 232.9 17.6 233.4 17.9 C 234.0 18.2 234.3 19.0 234.9 19.0 C 235.5 19.0 235.8 18.4 236.4 18.1 C 237.0 17.9 237.3 17.7 237.8 17.7 C 238.4 17.7 238.7 17.8 239.3 17.8 C 239.9 17.8 240.2 17.8 240.8 17.7 C 241.4 17.6 241.7 17.3 242.3 17.3 C 242.8 17.3 243.1 17.7 243.7 17.7 C 244.3 17.7 244.6 16.7 245.2 16.5 C 245.8 16.3 246.1 16.4 246.7 16.3 C 247.2 16.3 247.5 16.3 248.1 16.3 C 248.7 16.3 249.0 17.1 249.6 17.1 C 250.2 17.1 250.5 16.6 251.1 16.3 C 251.6 16.0 251.9 15.9 252.5 15.7 C 253.1 15.5 253.4 15.5 254.0 15.1 C 254.6 14.7 254.9 14.2 255.5 13.9 C 256.1 13.6 256.3 13.7 256.9 13.6 C 257.5 13.5 257.8 13.4 258.4 13.4 C 259.0 13.4 259.3 13.5 259.9 13.5 C 260.5 13.5 260.8 12.4 261.3 12.4 C 261.9 12.4 262.2 13.1 262.8 13.4 C 263.4 13.7 263.7 13.6 264.3 14.0 C 264.9 14.3 265.2 15.1 265.7 15.1 C 266.3 15.1 266.6 15.1 267.2 15.1 C 267.8 15.2 268.1 15.6 268.7 15.9 C 269.3 16.3 269.6 16.6 270.2 17.0 C 270.7 17.5 271.0 17.7 271.6 18.2 C 272.2 18.6 272.5 19.3 273.1 19.3 C 273.7 19.3 274.0 18.5 274.6 18.1 C 275.1 17.6 275.4 17.2 276.0 17.2 C 276.6 17.2 276.9 18.0 277.5 18.4 C 278.1 18.9 278.4 19.3 279.0 19.5 C 279.6 19.8 279.8 19.7 280.4 19.8 C 281.0 19.9 281.3 20.2 281.9 20.2 C 282.5 20.2 282.8 19.2 283.4 19.2 C 284.0 19.2 284.3 19.6 284.8 19.9 C 285.4 20.2 285.7 20.5 286.3 20.8 C 286.9 21.2 287.2 21.4 287.8 21.8 C 288.4 22.1 288.7 22.7 289.2 22.7 C 289.8 22.7 290.1 22.6 290.7 22.5 C 291.3 22.4 291.6 22.1 292.2 22.1 C 292.8 22.1 293.1 22.6 293.6 22.8 C 294.2 23.1 294.5 23.1 295.1 23.2 C 295.7 23.4 296.0 23.8 296.6 23.8 C 297.2 23.8 297.5 23.8 298.1 23.6 C 298.6 23.3 298.9 22.7 299.5 22.7 C 300.1 22.7 300.4 22.7 301.0 22.7 C 301.6 22.7 301.9 23.8 302.5 23.8 C 303.0 23.8 303.3 23.7 303.9 23.7 C 304.5 23.7 304.8 24.7 305.4 24.7 C 306.0 24.7 306.3 24.7 306.9 24.7 C 307.5 24.7 307.7 23.7 308.3 23.3 C 308.9 22.8 309.2 22.5 309.8 22.5 C 310.4 22.5 310.7 23.4 311.3 23.4 C 311.9 23.4 312.2 23.3 312.7 23.2 C 313.3 23.2 313.6 23.0 314.2 23.0 C 314.8 23.0 315.1 23.0 315.7 23.1 C 316.3 23.2 316.6 23.3 317.1 23.5 C 317.7 23.7 318.0 23.7 318.6 24.0 C 319.2 24.3 319.5 25.1 320.1 25.1 C 320.7 25.1 321.0 24.5 321.5 24.3 C 322.1 24.1 322.4 24.2 323.0 24.1 C 323.6 24.0 323.9 23.9 324.5 23.8 C 325.1 23.7 325.4 23.8 326.0 23.6 C 326.5 23.4 326.8 23.0 327.4 22.7 C 328.0 22.5 328.3 22.7 328.9 22.4 C 329.5 22.0 329.8 21.5 330.4 21.2 C 330.9 20.8 331.2 20.7 331.8 20.7 C 332.4 20.7 332.7 21.1 333.3 21.1 C 333.9 21.1 334.2 21.0 334.8 21.0 C 335.4 21.0 335.6 21.3 336.2 21.6 C 336.8 21.9 337.1 22.4 337.7 22.4 C 338.3 22.4 338.6 21.4 339.2 21.4 C 339.8 21.4 340.1 21.5 340.6 21.5 C 341.2 21.5 341.5 21.5 342.1 21.3 C 342.7 21.2 343.0 21.0 343.6 20.7 C 344.2 20.4 344.5 19.8 345.0 19.8 C 345.6 19.8 345.9 19.8 346.5 19.8 C 347.1 19.9 347.4 19.9 348.0 19.9 C 348.6 19.9 348.9 19.8 349.5 19.8 C 350.0 19.8 350.3 20.0 350.9 20.0 C 351.5 20.0 351.8 19.5 352.4 19.1 C 353.0 18.8 353.3 18.2 353.9 18.2 C 354.4 18.2 354.7 18.2 355.3 18.2 C 355.9 18.2 356.2 18.6 356.8 18.6 C 357.4 18.6 357.7 18.0 358.3 18.0 C 358.8 18.0 359.1 18.4 359.7 18.6 C 360.3 18.8 360.6 19.1 361.2 19.1 C 361.8 19.1 362.1 18.9 362.7 18.8 C 363.3 18.7 363.5 18.7 364.1 18.7 C 364.7 18.7 365.0 20.3 365.6 20.3 C 366.2 20.3 366.5 20.3 367.1 20.3 C 367.7 20.3 368.0 19.2 368.5 19.2 C 369.1 19.2 369.4 19.2 370.0 19.3 C 370.6 19.4 370.9 19.8 371.5 19.8 C 372.1 19.8 372.4 19.6 372.9 19.5 C 373.5 19.5 373.8 19.5 374.4 19.5 C 375.0 19.5 375.3 19.5 375.9 19.5 C 376.5 19.5 376.8 19.1 377.4 19.1 C 377.9 19.1 378.2 19.1 378.8 19.2 C 379.4 19.2 379.7 19.7 380.3 19.8 C 380.9 19.9 381.2 19.9 381.8 19.9 C 382.3 19.9 382.6 19.5 383.2 18.9 C 383.8 18.3 384.1 16.9 384.7 16.9 C 385.3 16.9 385.6 16.9 386.2 16.9 C 386.8 16.9 387.0 16.9 387.6 16.9 C 388.2 16.8 388.5 16.6 389.1 16.3 C 389.7 16.0 390.0 15.6 390.6 15.4 C 391.2 15.1 391.5 15.1 392.0 14.9 C 392.6 14.7 392.9 14.4 393.5 14.4 C 394.1 14.4 394.4 14.7 395.0 14.8 C 395.6 14.9 395.9 15.1 396.4 15.1 C 397.0 15.1 397.3 14.6 397.9 14.3 C 398.5 14.0 398.8 13.7 399.4 13.7 C 400.0 13.7 400.3 13.9 400.8 13.9 C 401.4 13.9 401.7 13.7 402.3 13.5 C 402.9 13.4 403.2 13.1 403.8 13.1 C 404.4 13.1 404.7 13.9 405.3 13.9 C 405.8 13.9 406.1 13.6 406.7 13.3 C 407.3 13.0 407.6 12.5 408.2 12.3 C 408.8 12.0 409.1 11.8 409.7 11.8 C 410.2 11.8 410.5 12.4 411.1 12.4 C 411.7 12.4 412.0 12.4 412.6 12.4 C 413.2 12.3 413.5 12.0 414.1 12.0 C 414.7 12.0 414.9 12.1 415.5 12.1 C 416.1 12.2 416.4 12.4 417.0 12.4 C 417.6 12.4 417.9 12.3 418.5 12.3 C 419.1 12.3 419.4 13.0 419.9 13.0 C 420.5 13.0 420.8 12.0 421.4 11.5 C 422.0 11.0 422.3 10.7 422.9 10.4 C 423.5 10.0 423.8 10.0 424.3 9.8 C 424.9 9.5 425.2 9.4 425.8 9.0 C 426.4 8.7 426.7 8.3 427.3 7.9 C 427.9 7.4 428.2 6.9 428.7 6.9 C 429.3 6.9 429.6 7.5 430.2 7.9 C 430.8 8.3 431.1 8.5 431.7 8.9 C 432.3 9.2 432.6 9.5 433.2 9.5 C 433.7 9.5 434.0 8.6 434.6 8.6 C 435.2 8.6 435.5 8.8 436.1 9.0 C 436.7 9.2 437.0 9.7 437.6 9.8 C 438.1 9.9 438.4 9.9 439.0 9.9 C 439.6 9.9 439.9 9.5 440.5 9.2 C 441.1 8.8 441.4 8.5 442.0 8.1 C 442.6 7.6 442.8 7.3 443.4 6.8 C 444.0 6.2 444.3 5.9 444.9 5.3 C 445.5 4.8 445.8 4.3 446.4 4.0 C 447.0 3.6 447.3 3.4 447.8 3.4 C 448.4 3.4 448.7 3.8 449.3 4.1 C 449.9 4.5 450.2 5.2 450.8 5.2 C 451.4 5.2 451.7 4.5 452.2 4.5 C 452.8 4.5 453.1 5.0 453.7 5.0 C 454.3 5.0 454.6 5.0 455.2 5.0 C 455.8 5.0 456.1 4.6 456.7 4.6 C 457.2 4.6 457.5 4.7 458.1 4.7 C 458.7 4.7 459.0 4.1 459.6 4.0 C 460.2 3.8 460.5 3.8 461.1 3.8 C 461.6 3.8 461.9 4.6 462.5 4.6 C 463.1 4.6 463.4 4.6 464.0 4.4 C 464.6 4.2 464.9 3.3 465.5 3.3 C 466.0 3.3 466.3 3.3 466.9 3.3 C 467.5 3.3 467.8 3.5 468.4 3.6 C 469.0 3.8 469.3 4.0 469.9 4.2 C 470.5 4.3 470.7 4.4 471.3 4.4 C 471.9 4.4 472.2 4.3 472.8 4.3 C 473.4 4.3 473.7 4.6 474.3 4.8 C 474.9 5.0 475.2 5.5 475.7 5.5 C 476.3 5.5 476.6 4.5 477.2 4.4 C 477.8 4.3 478.1 4.3 478.7 4.3 C 479.3 4.3 479.6 5.1 480.1 5.7 C 480.7 6.4 481.0 7.7 481.6 7.7 C 482.2 7.7 482.5 7.7 483.1 7.7 C 483.7 7.7 484.0 8.0 484.6 8.4 C 485.1 8.9 485.4 9.9 486.0 9.9 C 486.6 9.9 486.9 9.5 487.5 9.3 C 488.1 9.1 488.4 9.0 489.0 8.8 C 489.5 8.5 489.8 8.0 490.4 8.0 C 491.0 8.0 491.3 8.0 491.9 8.1 C 492.5 8.3 492.8 9.3 493.4 9.3 C 494.0 9.3 494.2 9.2 494.8 9.2 C 495.4 9.1 495.7 9.2 496.3 9.1 C 496.9 8.9 497.2 8.4 497.8 8.0 C 498.4 7.7 498.7 7.5 499.2 7.1 C 499.8 6.7 500.1 6.0 500.7 6.0 C 501.3 6.0 501.6 7.6 502.2 7.6 C 502.8 7.6 503.1 7.6 503.6 7.5 C 504.2 7.4 504.5 7.1 505.1 7.1 C 505.7 7.1 506.0 7.2 506.6 7.3 C 507.2 7.4 507.5 7.3 508.0 7.6 C 508.6 7.9 508.9 9.0 509.5 9.5 C 510.1 10.0 510.4 9.9 511.0 10.1 C 511.6 10.3 511.9 10.1 512.5 10.3 C 513.0 10.5 513.3 11.8 513.9 12.3 C 514.5 12.8 514.8 12.7 515.4 12.8 C 516.0 13.0 516.3 12.9 516.9 13.0 C 517.4 13.1 517.7 13.2 518.3 13.3 C 518.9 13.4 519.2 13.5 519.8 13.7 C 520.4 13.8 520.7 14.0 521.3 14.0 C 521.9 14.0 522.1 13.3 522.7 13.3 C 523.3 13.3 523.6 13.5 524.2 13.5 C 524.8 13.5 525.1 12.5 525.7 12.2 C 526.3 11.9 526.6 12.2 527.1 11.9 C 527.7 11.7 528.0 11.2 528.6 10.9 C 529.2 10.7 529.5 10.8 530.1 10.6 C 530.7 10.4 531.0 10.2 531.5 9.9 C 532.1 9.7 532.4 9.6 533.0 9.5 C 533.6 9.4 533.9 9.2 534.5 9.2 C 535.1 9.2 536 10.4 536 10.4" stroke="#4572A7" stroke-width="1" stroke-linejoin="round" stroke-linecap="round">
			</path>
		</g>
		<g class="highcharts-markers highcharts-series-1" transform="translate(24,331) scale(1 1)" clip-path="none">
		</g>
	</g>
	<g class="highcharts-navigator">
		<rect fill="rgb(128,179,236)" fill-opacity="0.3" style="cursor:ew-resize;" x="522" y="331" width="38" height="40">
		</rect>
		<path fill="none" stroke="#b2b1b6" stroke-width="1" d="M 10 331.5 L 521.5 331.5 521.5 385.5 L 559.5 385.5 L 559.5 331.5 574 331.5 M 522.5 331.5 L 559.5 331.5">
		</path>
	</g>
	<text x="292" text-anchor="middle" class="highcharts-title" style="color:#333333;font-size:16px;fill:#333333;width:520px;" y="22">
		<tspan>AAPL Stock Price
		</tspan>
	</text>
	<g class="highcharts-axis-labels highcharts-xaxis-labels">
		<text x="44.5" style="color:#606060;cursor:default;font-size:11px;fill:#606060;" text-anchor="middle" transform="translate(0,0)" y="304" opacity="1">
			<tspan>Nov '15
			</tspan>
		</text>
		<text x="136.3" style="color:#606060;cursor:default;font-size:11px;fill:#606060;" text-anchor="middle" transform="translate(0,0)" y="304" opacity="1">
			<tspan>Dec '15
			</tspan>
		</text>
		<text x="232.2" style="color:#606060;cursor:default;font-size:11px;fill:#606060;" text-anchor="middle" transform="translate(0,0)" y="304" opacity="1">
			<tspan>Jan '16
			</tspan>
		</text>
		<text x="321.3" style="color:#606060;cursor:default;font-size:11px;fill:#606060;" text-anchor="middle" transform="translate(0,0)" y="304" opacity="1">
			<tspan>Feb '16
			</tspan>
		</text>
		<text x="411.5" style="color:#606060;cursor:default;font-size:11px;fill:#606060;" text-anchor="middle" transform="translate(0,0)" y="304" opacity="1">
			<tspan>Mar '16
			</tspan>
		</text>
		<text x="510.8" style="color:#606060;cursor:default;font-size:11px;fill:#606060;" text-anchor="middle" transform="translate(0,0)" y="304" opacity="1">
			<tspan>Apr '16
			</tspan>
		</text>
	</g>
	<g class="highcharts-axis-labels highcharts-xaxis-labels">
		<text x="80.0" style="color:#888;cursor:default;font-size:11px;fill:#888;width:178px;text-overflow:clip;" text-anchor="start" transform="translate(0,0)" y="367" opacity="1">2010
		</text>
		<text x="233.1" style="color:#888;cursor:default;font-size:11px;fill:#888;width:178px;text-overflow:clip;" text-anchor="start" transform="translate(0,0)" y="367" opacity="1">2012
		</text>
		<text x="386.5" style="color:#888;cursor:default;font-size:11px;fill:#888;width:178px;text-overflow:clip;" text-anchor="start" transform="translate(0,0)" y="367" opacity="1">2014
		</text>
		<text x="539.6" style="color:#888;cursor:default;font-size:11px;fill:#888;width:178px;text-overflow:clip;" text-anchor="start" transform="translate(0,0)" y="367" opacity="1">2016
		</text>
	</g>
	<g class="highcharts-axis-labels highcharts-yaxis-labels">
		<text x="574" style="color:#606060;cursor:default;font-size:11px;fill:#606060;width:183px;text-overflow:clip;" text-anchor="end" transform="translate(0,0)" y="283" opacity="1">90
		</text>
		<text x="574" style="color:#606060;cursor:default;font-size:11px;fill:#606060;width:183px;text-overflow:clip;" text-anchor="end" transform="translate(0,0)" y="232" opacity="1">100
		</text>
		<text x="574" style="color:#606060;cursor:default;font-size:11px;fill:#606060;width:183px;text-overflow:clip;" text-anchor="end" transform="translate(0,0)" y="180" opacity="1">110
		</text>
		<text x="574" style="color:#606060;cursor:default;font-size:11px;fill:#606060;width:183px;text-overflow:clip;" text-anchor="end" transform="translate(0,0)" y="129" opacity="1">120
		</text>
		<text x="0" style="color:#606060;cursor:default;font-size:11px;fill:#606060;width:183px;text-overflow:clip;" text-anchor="end" transform="translate(0,0)" y="-9999">130
		</text>
	</g>
	<g class="highcharts-axis-labels highcharts-yaxis-labels">
	</g>
	<g class="highcharts-tooltip" style="cursor:default;padding:0;pointer-events:none;white-space:nowrap;" transform="translate(0,-9999)">
		<path fill="none" d="M 3.5 0.5 L 13.5 0.5 C 16.5 0.5 16.5 0.5 16.5 3.5 L 16.5 13.5 C 16.5 16.5 16.5 16.5 13.5 16.5 L 3.5 16.5 C 0.5 16.5 0.5 16.5 0.5 13.5 L 0.5 3.5 C 0.5 0.5 0.5 0.5 3.5 0.5"  stroke="black" stroke-opacity="0.0" stroke-width="5" transform="translate(1, 1)">
		</path>
		<path fill="none" d="M 3.5 0.5 L 13.5 0.5 C 16.5 0.5 16.5 0.5 16.5 3.5 L 16.5 13.5 C 16.5 16.5 16.5 16.5 13.5 16.5 L 3.5 16.5 C 0.5 16.5 0.5 16.5 0.5 13.5 L 0.5 3.5 C 0.5 0.5 0.5 0.5 3.5 0.5"  stroke="black" stroke-opacity="0.0" stroke-width="3" transform="translate(1, 1)">
		</path>
		<path fill="none" d="M 3.5 0.5 L 13.5 0.5 C 16.5 0.5 16.5 0.5 16.5 3.5 L 16.5 13.5 C 16.5 16.5 16.5 16.5 13.5 16.5 L 3.5 16.5 C 0.5 16.5 0.5 16.5 0.5 13.5 L 0.5 3.5 C 0.5 0.5 0.5 0.5 3.5 0.5"  stroke="black" stroke-opacity="0.1" stroke-width="1" transform="translate(1, 1)">
		</path>
		<path fill="rgb(249, 249, 249)" fill-opacity=" .85" d="M 3.5 0.5 L 13.5 0.5 C 16.5 0.5 16.5 0.5 16.5 3.5 L 16.5 13.5 C 16.5 16.5 16.5 16.5 13.5 16.5 L 3.5 16.5 C 0.5 16.5 0.5 16.5 0.5 13.5 L 0.5 3.5 C 0.5 0.5 0.5 0.5 3.5 0.5">
		</path>
		<text x="8" style="font-size:12px;color:#333333;fill:#333333;" y="20">
		</text>
	</g>
	<g class="highcharts-navigator-handle-right" style="cursor:ew-resize;" transform="translate(560,343)">
		<rect x="-4.5" y="0.5" width="8" height="15" fill="#ebe7e8" stroke="#b2b1b6" stroke-width="1">
		</rect>
		<path fill="#ebe7e8" d="M -1.5 4 L -1.5 12 M 0.5 4 L 0.5 12" stroke="#b2b1b6" stroke-width="1">
		</path>
	</g>
	<g class="highcharts-navigator-handle-left" style="cursor:ew-resize;" transform="translate(522,343)">
		<rect x="-4.5" y="0.5" width="8" height="15" fill="#ebe7e8" stroke="#b2b1b6" stroke-width="1">
		</rect>
		<path fill="#ebe7e8" d="M -1.5 4 L -1.5 12 M 0.5 4 L 0.5 12" stroke="#b2b1b6" stroke-width="1">
		</path>
	</g>
</svg>