<?xml version="1.0" encoding="UTF-8" standalone="no"?>
<!DOCTYPE svg PUBLIC "-//W3C//DTD SVG 1.1//EN"
"http://www.w3.org/Graphics/SVG/1.1/DTD/svg11.dtd">
<svg version="1.1" style="font-family:&quot;lucida grande&quot;, &quot;lucida sans unicode&quot;, arial, helvetica, sans-serif;font-size:12px;" xmlns="http://www.w3.org/2000/svg" viewBox="0 0 584 400">
	<desc>Created with Highcharts 4.2.4
	</desc>
	<defs>
		<clipPath id="highcharts-1">
			<rect x="0" y="0" width="511" height="275">
			</rect>
		</clipPath>
	</defs>
	<rect x="0" y="0" width="584" height="400" fill="#FFFFFF" class=" highcharts-background" stroke="transparent">
	</rect>
	<g class="highcharts-grid">
	</g>
	<g class="highcharts-grid">
		<path fill="none" d="M 63 336.5 L 574 336.5" stroke="#D8D8D8" stroke-width="1" opacity="1">
		</path>
		<path fill="none" d="M 63 244.5 L 574 244.5" stroke="#D8D8D8" stroke-width="1" opacity="1">
		</path>
		<path fill="none" d="M 63 153.5 L 574 153.5" stroke="#D8D8D8" stroke-width="1" opacity="1">
		</path>
		<path fill="none" d="M 63 60.5 L 574 60.5" stroke="#D8D8D8" stroke-width="1" opacity="1">
		</path>
	</g>
	<g class="highcharts-axis">
		<path fill="none" d="M 147.5 336 L 147.5 346" stroke="#C0D0E0" stroke-width="1" opacity="1">
		</path>
		<path fill="none" d="M 232.5 336 L 232.5 346" stroke="#C0D0E0" stroke-width="1" opacity="1">
		</path>
		<path fill="none" d="M 318.5 336 L 318.5 346" stroke="#C0D0E0" stroke-width="1" opacity="1">
		</path>
		<path fill="none" d="M 403.5 336 L 403.5 346" stroke="#C0D0E0" stroke-width="1" opacity="1">
		</path>
		<path fill="none" d="M 488.5 336 L 488.5 346" stroke="#C0D0E0" stroke-width="1" opacity="1">
		</path>
		<path fill="none" d="M 574.5 336 L 574.5 346" stroke="#C0D0E0" stroke-width="1" opacity="1">
		</path>
		<path fill="none" d="M 62.5 336 L 62.5 346" stroke="#C0D0E0" stroke-width="1" opacity="1">
		</path>
		<path fill="none" d="M 63 336.5 L 574 336.5" stroke="#C0D0E0" stroke-width="1">
		</path>
	</g>
	<g class="highcharts-axis">
		<text x="24.0" text-anchor="middle" transform="translate(0,0) rotate(270 24.0 198.5)" class=" highcharts-yaxis-title" style="color:#707070;fill:#707070;" y="198.5">
			<tspan>Total percent market share
			</tspan>
		</text>
	</g>
	<g class="highcharts-series-group">
		<g class="highcharts-series highcharts-series-0 highcharts-tracker" transform="translate(63,61) scale(1 1)" style="" clip-path="url(#highcharts-1)">
			<rect x="22" y="18" width="41" height="258" fill="#7cb5ec" rx="0" ry="0" class="highcharts-drilldown-point" style="cursor:pointer;">
			</rect>
			<rect x="107" y="166" width="41" height="110" fill="#434348" rx="0" ry="0" class="highcharts-drilldown-point" style="cursor:pointer;">
			</rect>
			<rect x="192" y="228" width="41" height="48" fill="#90ed7d" rx="0" ry="0" class="highcharts-drilldown-point" style="cursor:pointer;">
			</rect>
			<rect x="278" y="254" width="41" height="22" fill="#f7a35c" rx="0" ry="0" class="highcharts-drilldown-point" style="cursor:pointer;">
			</rect>
			<rect x="363" y="272" width="41" height="4" fill="#8085e9" rx="0" ry="0" class="highcharts-drilldown-point" style="cursor:pointer;">
			</rect>
			<rect x="448" y="275" width="41" height="1" fill="#f15c80" rx="0" ry="0">
			</rect>
		</g>
		<g class="highcharts-markers highcharts-series-0" transform="translate(63,61) scale(1 1)" clip-path="none">
		</g>
	</g>
	<text x="292" text-anchor="middle" class="highcharts-title" style="color:#333333;font-size:18px;fill:#333333;width:520px;" y="24">
		<tspan>Browser market shares. January, 2015 to May, 2015
		</tspan>
	</text>
	<text x="292" text-anchor="middle" class="highcharts-subtitle" style="color:#555555;fill:#555555;width:520px;" y="45">
		<tspan>Click the columns to view versions. Source: 
		</tspan>
		<tspan onclick="location.href=&quot;http://netmarketshare.com&quot;" dx="0" style="cursor: pointer;">netmarketshare.com
		</tspan>
		<tspan dx="0">.
		</tspan>
	</text>
	<g class="highcharts-data-labels highcharts-series-0 highcharts-tracker" visibility="visible" transform="translate(63,61) scale(1 1)" style="">
		<g style="cursor:pointer;" transform="translate(21,-5)" class="highcharts-drilldown-data-label">
			<text x="5" style="font-size:11px;font-weight:bold;color:#0d233a;text-shadow:0 0 6px #ffffff, 0 0 3px #ffffff;fill:#0d233a;text-rendering:geometricprecision;text-decoration:underline;" y="16">
				<tspan>56.3%
				</tspan>
			</text>
		</g>
		<g style="cursor:pointer;" transform="translate(106,143)" class="highcharts-drilldown-data-label">
			<text x="5" style="font-size:11px;font-weight:bold;color:#0d233a;text-shadow:0 0 6px #ffffff, 0 0 3px #ffffff;fill:#0d233a;text-rendering:geometricprecision;text-decoration:underline;" y="16">
				<tspan>24.0%
				</tspan>
			</text>
		</g>
		<g style="cursor:pointer;" transform="translate(191,205)" class="highcharts-drilldown-data-label">
			<text x="5" style="font-size:11px;font-weight:bold;color:#0d233a;text-shadow:0 0 6px #ffffff, 0 0 3px #ffffff;fill:#0d233a;text-rendering:geometricprecision;text-decoration:underline;" y="16">
				<tspan>10.4%
				</tspan>
			</text>
		</g>
		<g style="cursor:pointer;" transform="translate(281,231)" class="highcharts-drilldown-data-label">
			<text x="5" style="font-size:11px;font-weight:bold;color:#0d233a;text-shadow:0 0 6px #ffffff, 0 0 3px #ffffff;fill:#0d233a;text-rendering:geometricprecision;text-decoration:underline;" y="16">
				<tspan>4.8%
				</tspan>
			</text>
		</g>
		<g style="cursor:pointer;" transform="translate(366,249)" class="highcharts-drilldown-data-label">
			<text x="5" style="font-size:11px;font-weight:bold;color:#0d233a;text-shadow:0 0 6px #ffffff, 0 0 3px #ffffff;fill:#0d233a;text-rendering:geometricprecision;text-decoration:underline;" y="16">
				<tspan>0.9%
				</tspan>
			</text>
		</g>
		<g style="" transform="translate(451,252)">
			<text x="5" style="font-size:11px;font-weight:bold;color:#000000;text-shadow:0 0 6px #ffffff, 0 0 3px #ffffff;fill:#000000;text-rendering:geometricprecision;" y="16">
				<tspan>0.2%
				</tspan>
			</text>
		</g>
	</g>
	<g class="highcharts-axis-labels highcharts-xaxis-labels">
		<text x="105.5" style="color:#0d233a;cursor:pointer;font-size:11px;fill:#0d233a;width:75px;text-overflow:clip;font-weight:bold;text-decoration:underline;" text-anchor="middle" transform="translate(0,0)" y="355" opacity="1" class=" highcharts-drilldown-axis-label">
			<tspan>Microsoft
			</tspan>
			<tspan dy="14" x="105.5">Internet
			</tspan>
			<tspan dy="14" x="105.5">Explorer
			</tspan>
			<title>Microsoft Internet Explorer
			</title>
		</text>
		<text x="190.7" style="color:#0d233a;cursor:pointer;font-size:11px;fill:#0d233a;width:75px;text-overflow:clip;font-weight:bold;text-decoration:underline;" text-anchor="middle" transform="translate(0,0)" y="355" opacity="1" class=" highcharts-drilldown-axis-label">Chrome
		</text>
		<text x="275.9" style="color:#0d233a;cursor:pointer;font-size:11px;fill:#0d233a;width:75px;text-overflow:clip;font-weight:bold;text-decoration:underline;" text-anchor="middle" transform="translate(0,0)" y="355" opacity="1" class=" highcharts-drilldown-axis-label">Firefox
		</text>
		<text x="361.0" style="color:#0d233a;cursor:pointer;font-size:11px;fill:#0d233a;width:75px;text-overflow:clip;font-weight:bold;text-decoration:underline;" text-anchor="middle" transform="translate(0,0)" y="355" opacity="1" class=" highcharts-drilldown-axis-label">Safari
		</text>
		<text x="446.2" style="color:#0d233a;cursor:pointer;font-size:11px;fill:#0d233a;width:75px;text-overflow:clip;font-weight:bold;text-decoration:underline;" text-anchor="middle" transform="translate(0,0)" y="355" opacity="1" class=" highcharts-drilldown-axis-label">Opera
		</text>
		<text x="531.4" style="color:#606060;cursor:default;font-size:11px;fill:#606060;width:75px;text-overflow:clip;" text-anchor="middle" transform="translate(0,0)" y="355" opacity="1">
			<tspan>Proprietary or
			</tspan>
			<tspan dy="14" x="531.4">Undetectable
			</tspan>
			<title>Proprietary or Undetectable
			</title>
		</text>
	</g>
	<g class="highcharts-axis-labels highcharts-yaxis-labels">
		<text x="48" style="color:#606060;cursor:default;font-size:11px;fill:#606060;width:183px;text-overflow:clip;" text-anchor="end" transform="translate(0,0)" y="341" opacity="1">0
		</text>
		<text x="48" style="color:#606060;cursor:default;font-size:11px;fill:#606060;width:183px;text-overflow:clip;" text-anchor="end" transform="translate(0,0)" y="249" opacity="1">20
		</text>
		<text x="48" style="color:#606060;cursor:default;font-size:11px;fill:#606060;width:183px;text-overflow:clip;" text-anchor="end" transform="translate(0,0)" y="157" opacity="1">40
		</text>
		<text x="48" style="color:#606060;cursor:default;font-size:11px;fill:#606060;width:183px;text-overflow:clip;" text-anchor="end" transform="translate(0,0)" y="66" opacity="1">60
		</text>
	</g>
	<g class="highcharts-tooltip" style="cursor:default;padding:0;pointer-events:none;white-space:nowrap;" transform="translate(0,-9999)">
		<path fill="none" d="M 3.5 0.5 L 13.5 0.5 C 16.5 0.5 16.5 0.5 16.5 3.5 L 16.5 13.5 C 16.5 16.5 16.5 16.5 13.5 16.5 L 3.5 16.5 C 0.5 16.5 0.5 16.5 0.5 13.5 L 0.5 3.5 C 0.5 0.5 0.5 0.5 3.5 0.5"  stroke="black" stroke-opacity="0.0" stroke-width="5" transform="translate(1, 1)">
		</path>
		<path fill="none" d="M 3.5 0.5 L 13.5 0.5 C 16.5 0.5 16.5 0.5 16.5 3.5 L 16.5 13.5 C 16.5 16.5 16.5 16.5 13.5 16.5 L 3.5 16.5 C 0.5 16.5 0.5 16.5 0.5 13.5 L 0.5 3.5 C 0.5 0.5 0.5 0.5 3.5 0.5"  stroke="black" stroke-opacity="0.0" stroke-width="3" transform="translate(1, 1)">
		</path>
		<path fill="none" d="M 3.5 0.5 L 13.5 0.5 C 16.5 0.5 16.5 0.5 16.5 3.5 L 16.5 13.5 C 16.5 16.5 16.5 16.5 13.5 16.5 L 3.5 16.5 C 0.5 16.5 0.5 16.5 0.5 13.5 L 0.5 3.5 C 0.5 0.5 0.5 0.5 3.5 0.5"  stroke="black" stroke-opacity="0.1" stroke-width="1" transform="translate(1, 1)">
		</path>
		<path fill="rgb(249, 249, 249)" fill-opacity=" .85" d="M 3.5 0.5 L 13.5 0.5 C 16.5 0.5 16.5 0.5 16.5 3.5 L 16.5 13.5 C 16.5 16.5 16.5 16.5 13.5 16.5 L 3.5 16.5 C 0.5 16.5 0.5 16.5 0.5 13.5 L 0.5 3.5 C 0.5 0.5 0.5 0.5 3.5 0.5">
		</path>
		<text x="8" style="font-size:12px;color:#333333;fill:#333333;" y="20">
		</text>
	</g>
</svg>