<?xml version="1.0" encoding="UTF-8" standalone="no"?>
<!DOCTYPE svg PUBLIC "-//W3C//DTD SVG 1.1//EN"
"http://www.w3.org/Graphics/SVG/1.1/DTD/svg11.dtd">
<svg version="1.1" style="font-family:&quot;lucida grande&quot;, &quot;lucida sans unicode&quot;, arial, helvetica, sans-serif;font-size:12px;" xmlns="http://www.w3.org/2000/svg" viewBox="0 0 400 500">
	<desc>Created with Highmaps 4.2.4
	</desc>
	<defs>
		<linearGradient x1="0" y1="0" x2="0" y2="1" id="highcharts-1">
			<stop offset="0" stop-color="#FEFEFE" stop-opacity="1">
			</stop>
			<stop offset="1" stop-color="#F6F6F6" stop-opacity="1">
			</stop>
		</linearGradient>
		<linearGradient x1="0" y1="0" x2="1" y2="0" id="highcharts-2">
			<stop offset="0" stop-color="#EFEFFF" stop-opacity="1">
			</stop>
			<stop offset="1" stop-color="#003875" stop-opacity="1">
			</stop>
		</linearGradient>
		<clipPath id="highcharts-3">
			<rect x="0" y="0" width="380" height="380">
			</rect>
		</clipPath>
	</defs>
	<rect x="0" y="0" width="400" height="500" fill="#FFFFFF" class=" highcharts-background">
	</rect>
	<g class="highcharts-grid">
	</g>
	<g class="highcharts-grid">
	</g>
	<g class="highcharts-axis">
	</g>
	<g class="highcharts-axis">
	</g>
	<g class="highcharts-series-group">
		<g class="highcharts-series highcharts-series-0 highcharts-tracker" transform="translate(10,46) scale(1 1)" style="" clip-path="url(#highcharts-3)">
			<g transform="translate(0,0) scale(1 1)">
				<path fill="rgb(65,106,155)" d="M 125.9 9.6 L 133.3 8.8 126.3 14.2 124.5 11.8 124.5 0.6 125.9 9.6 M 184.5 73.0 L 180.2 68.5 179.8 66.1 181.2 63.1 179.4 60.6 180.3 58.6 177.3 58.8 176.5 60.8 169.5 65.0 167.7 63.5 166.9 66.3 161.3 63.3 156.6 53.5 153.7 52.7 150.5 51.9 145.2 50.5 140.1 43.3 144.9 43.6 144.3 37.9 140.9 38.9 140.3 32.4 143.9 29.3 134.8 31.4 134.7 24.8 140.9 24.5 140.5 19.2 144.6 18.7 136.0 8.4 135.2 0.4 139.9 0 158.0 4.7 161.6 1.9 168.7 7.3 171.3 5.5 174.8 11.4 174.5 17.7 170.6 21.9 177.6 20.1 196.8 28.8 206.2 24.6 203.2 20.9 206.5 17.5 212.3 23.4 205.5 27.2 205.4 35.1 196.4 42.3 201.0 46.3 201.0 47.8 202.7 48.7 201.4 49.2 200.4 48.4 196.9 51.2 196.6 52.3 197.2 54.8 197.0 57.1 198.3 57.3 200.1 59.4 202.3 60.0 203.0 65.9 199.2 66.0 199.0 68.6 193.6 72.2 192.7 75.9 190.5 75.9 184.5 73.0 Z" vector-effect="non-scaling-stroke" stroke="silver" stroke-width="1" class=" highcharts-name-schleswig-holstein">
				</path>
				<path fill="rgb(69,109,157)" d="M 281.4 108.5 L 281.5 110.1 283.7 112.3 286.1 113.4 285.7 116.0 286.8 115.8 289.6 117.6 288.4 121.5 286.7 123.2 286.4 121.5 280.8 119.8 279.9 121.7 275.8 120.2 271.6 121.4 269.7 120.4 270.8 115.1 271.1 111.2 272.6 111.8 272.9 109.8 275.3 108.2 277.8 109.5 280.3 107.5 281.4 108.5 Z" vector-effect="non-scaling-stroke" stroke="silver" stroke-width="1" class=" highcharts-name-berlin">
				</path>
				<path fill="rgb(9,63,122)" d="M 264.1 14.2 L 269.2 14.4 271.4 12.0 273.5 16.5 275.7 16.6 275.3 13.2 271.3 10.7 268.7 13.4 269.0 9.1 267.8 8.2 271.7 6.8 272.1 11.0 274.3 12.2 279.3 11.5 280.5 13.7 277.8 17.3 278.9 20.1 283.7 23.2 276.0 23.7 272.3 28.1 269.5 28.6 264.8 24.8 265.7 22.8 268.6 22.1 265.8 20.3 268.6 18.0 264.1 14.2 M 305.7 72.2 L 301.8 76.3 297.4 75.9 301.0 70.2 301.0 67.9 291.4 68.6 289.6 64.7 284.9 66.6 280.1 70.9 276.6 77.2 269.1 78.4 264.8 83.3 263.1 81.9 247.4 79.1 240.0 74.4 236.3 75.2 234.9 78.1 227.1 82.6 225.7 81.1 220.8 83.4 221.5 86.3 216.8 88.4 213.2 88.0 209.2 85.4 207.6 86.9 192.7 75.9 193.6 72.2 199.0 68.6 199.2 66.0 203.0 65.9 202.3 60.0 200.1 59.4 198.3 57.3 197.0 57.1 197.2 54.8 196.6 52.3 196.9 51.2 200.4 48.4 201.4 49.2 202.7 48.7 201.0 47.8 201.0 46.3 208.8 43.2 210.9 46.8 213.6 45.9 217.3 48.5 214.8 44.8 218.1 43.7 224.8 35.7 235.7 34.5 238.0 30.9 242.4 27.7 246.6 19.0 249.3 19.9 257.6 19.6 257.5 21.2 252.3 20.7 247.6 24.0 245.5 23.1 243.0 27.3 244.6 30.2 246.3 26.1 251.9 22.8 257.8 23.8 262.2 20.1 265.0 27.7 270.2 29.6 275.7 36.1 276.1 34.7 282.4 32.9 285.4 34.9 285.7 31.7 291.1 36.4 298.1 42.5 298.1 45.6 288.6 47.9 289.9 36.7 285.0 39.3 285.3 36.1 284.2 38.6 289.2 43.0 286.8 46.4 292.1 51.2 295.8 52.5 299.3 51.5 302.5 63.7 305.7 72.2 Z" vector-effect="non-scaling-stroke" stroke="silver" stroke-width="1" class=" highcharts-name-mecklenburg-vorpommern">
				</path>
				<path fill="rgb(110,140,180)" d="M 131.8 84.3 L 137.4 85.4 142.3 88.0 144.2 88.2 144.2 92.3 142.4 93.7 140.9 92.6 136.0 92.4 136.0 91.0 133.3 86.0 130.4 85.0 131.8 84.3 M 131.8 69.0 L 132.1 67.7 130.5 64.2 133.9 64.8 134.3 69.2 133.2 70.5 131.8 69.0 Z" vector-effect="non-scaling-stroke" stroke="silver" stroke-width="1" class=" highcharts-name-bremen">
				</path>
				<path fill="rgb(90,125,169)" d="M 167.6 67.5 L 169.3 67.1 166.9 66.3 167.7 63.5 169.5 65.0 176.5 60.8 177.3 58.8 180.3 58.6 179.4 60.6 181.2 63.1 179.8 66.1 180.2 68.5 184.5 73.0 180.3 74.5 177.2 72.2 174.3 74.1 170.5 73.2 167.6 67.5 Z" vector-effect="non-scaling-stroke" stroke="silver" stroke-width="1" class=" highcharts-name-hamburg">
				</path>
				<path fill="rgb(32,81,135)" d="M 118.7 296.2 L 110.0 292.3 100.3 292.0 91.8 285.4 89.3 283.4 92.5 276.9 88.0 271.4 90.1 269.4 88.9 264.8 87.3 265.5 84.5 263.5 78.2 262.1 70.8 265.7 67.3 266.6 59.0 266.6 61.5 259.4 63.9 258.0 64.4 253.3 61.6 252.7 55.6 248.4 51.8 240.2 53.8 232.0 57.3 230.0 58.8 227.5 61.2 226.9 62.9 226.5 62.1 223.9 63.9 226.1 68.1 224.4 69.1 225.7 72.2 226.3 74.7 225.7 73.8 219.9 77.8 219.7 77.8 217.5 83.2 214.2 86.5 213.8 87.8 212.0 90.5 213.0 93.4 211.9 93.9 208.8 100.7 207.5 103.9 205.1 103.2 203.7 106.1 202.4 105.8 198.7 109.1 198.2 108.6 200.2 111.6 202.7 115.1 209.8 117.6 210.2 118.5 215.1 116.6 218.0 113.4 218.3 112.5 224.5 114.7 225.7 117.0 230.4 110.5 234.2 110.4 238.8 108.3 238.4 105.6 241.4 110.2 245.5 118.5 242.0 120.2 242.4 123.6 246.3 123.7 249.8 126.4 255.9 124.3 261.1 126.1 265.3 128.5 272.1 128.0 279.4 118.7 296.2 Z" vector-effect="non-scaling-stroke" stroke="silver" stroke-width="1" class=" highcharts-name-rheinland-pfalz">
				</path>
				<path fill="rgb(144,166,200)" d="M 91.8 285.4 L 88.3 288.3 74.3 282.8 73.4 285.9 69.9 284.5 63.6 271.2 58.8 270.0 59.0 266.6 67.3 266.6 70.8 265.7 78.2 262.1 84.5 263.5 87.3 265.5 88.9 264.8 90.1 269.4 88.0 271.4 92.5 276.9 89.3 283.4 91.8 285.4 Z" vector-effect="non-scaling-stroke" stroke="silver" stroke-width="1" class=" highcharts-name-saarland">
				</path>
				<path fill="rgb(51,95,147)" d="M 243.9 226.7 L 243.3 230.3 249.1 239.9 256.4 243.3 258.3 246.5 254.2 254.8 262.5 266.0 263.3 270.0 268.6 274.8 275.2 276.1 281.6 284.6 285.6 285.6 292.0 293.0 296.1 292.3 303.5 300.9 303.5 308.6 301.0 313.2 294.3 310.5 291.1 321.1 286.9 324.8 279.0 327.4 269.8 335.0 270.5 337.7 278.7 348.2 275.7 354.5 280.0 354.8 282.0 359.2 281.2 365.7 278.1 367.0 272.3 363.1 271.5 357.6 264.0 359.7 260.1 356.8 251.7 356.5 251.6 361.6 243.8 361.5 233.2 363.0 231.0 366.8 226.4 367.4 221.3 372.8 211.9 373.5 205.4 367.4 192.6 364.9 194.0 371.5 189.2 378.4 184.1 380 185.2 374.6 177.0 367.5 165.5 364.7 167.9 363.3 169.0 363.6 174.0 360.1 177.0 360.8 180.5 359.8 181.2 361.2 181.7 359.7 183.0 359.3 182.4 355.4 181.2 354.4 182.9 352.9 181.8 349.9 182.1 346.9 181.3 345.8 182.7 342.0 182.9 338.4 181.9 336.4 180.0 328.6 177.5 324.8 180.3 320.3 182.5 319.5 183.2 320.6 186.4 318.5 188.5 317.2 188.3 313.4 189.0 312.6 187.5 311.5 186.9 309.8 187.8 308.6 190.2 310.5 191.9 308.6 192.2 310.1 194.3 308.7 192.1 305.5 192.9 302.1 192.8 296.8 189.3 292.2 186.7 291.4 186.3 287.6 182.4 283.7 181.9 280.4 182.8 280.2 181.5 275.6 183.0 274.8 182.1 272.5 181.2 272.0 181.5 268.5 180.1 266.9 179.5 268.6 178.1 270.1 175.4 270.1 174.5 265.2 172.7 267.1 172.2 266.6 173.5 263.7 171.9 261.6 171.8 259.7 170.6 258.1 168.5 259.9 167.9 258.3 166.9 259.7 165.3 259.3 165.8 255.1 164.4 255.8 160.8 254.6 156.3 255.1 155.0 256.1 155.1 257.8 158.8 258.9 158.1 262.3 157.2 261.8 154.2 263.0 153.2 265.5 148.6 265.6 147.3 263.8 148.6 262.4 149.3 259.6 149.5 255.0 147.2 252.9 145.8 249.0 145.8 242.3 144.2 241.8 145.3 239.6 148.4 238.2 149.9 238.8 152.3 237.3 155.5 237.5 158.0 239.8 161.2 239.0 161.9 236.0 160.9 235.6 161.3 232.6 166.1 232.7 166.7 230.4 168.9 229.1 169.4 224.3 172.3 224.4 176.8 221.9 178.5 218.5 180.7 216.1 182.7 216.8 184.3 218.7 186.9 219.5 189.5 222.9 189.7 224.3 191.1 224.1 192.8 226.3 194.4 226.0 195.7 227.6 196.6 232.7 200.2 233.3 200.3 231.7 203.8 231.6 203.6 230.2 199.7 227.8 200.0 225.8 201.9 224.5 206.9 224.3 208.3 226.2 210.3 226.2 212.3 225.3 213.7 227.3 213.1 228.0 215.0 229.9 217.0 229.6 217.6 225.5 216.5 219.8 218.6 218.7 219.5 217.4 222.1 217.6 222.0 221.1 223.8 221.8 224.1 223.2 225.6 224.2 234.0 222.2 235.1 223.2 237.4 221.9 240.1 225.0 243.9 226.7 Z" vector-effect="non-scaling-stroke" stroke="silver" stroke-width="1" class=" highcharts-name-bayern">
				</path>
				<path fill="rgb(186,198,224)" d="M 322.2 160.7 L 330.0 164.7 333.2 175.1 331.9 183.9 327.2 196.8 322.0 195.6 322.4 192.3 317.5 187.3 311.0 186.8 309.7 189.6 313.4 194.5 299.5 200.4 297.8 203.4 290.5 204.4 286.0 210.4 279.2 211.6 277.1 216.0 272.4 216.4 269.7 220.9 266.7 219.3 256.8 222.4 251.5 229.2 250.0 234.0 248.2 229.3 243.9 226.7 240.1 225.0 237.4 221.9 237.9 218.3 239.9 215.3 241.8 216.0 244.8 214.3 245.9 211.1 248.0 211.0 250.1 208.5 247.5 206.2 247.8 202.7 253.0 200.9 256.1 198.1 259.9 196.8 256.5 193.4 254.3 189.1 247.4 188.2 246.1 188.0 243.7 184.0 242.8 178.0 244.3 176.3 243.2 170.1 245.4 164.4 251.5 163.6 251.8 162.1 258.6 161.8 262.2 160.3 264.6 158.2 270.9 160.5 274.5 162.7 275.5 171.7 282.3 169.5 286.0 172.0 293.7 172.4 300.0 171.5 305.3 162.7 310.9 163.1 316.0 160.4 322.2 160.7 Z" vector-effect="non-scaling-stroke" stroke="silver" stroke-width="1" class=" highcharts-name-sachsen">
				</path>
				<path fill="rgb(94,128,172)" d="M 270.9 160.5 L 264.6 158.2 262.2 160.3 258.6 161.8 251.8 162.1 251.5 163.6 245.4 164.4 243.2 170.1 244.3 176.3 242.8 178.0 243.7 184.0 246.1 188.0 247.4 188.2 247.9 191.8 245.7 196.0 244.4 194.9 239.5 195.2 234.8 191.7 230.8 192.2 229.3 188.5 221.1 188.4 220.8 185.4 218.0 182.7 221.6 179.8 217.1 174.4 207.3 173.4 204.3 165.4 205.3 164.2 197.6 162.2 196.5 158.8 194.0 155.3 193.7 152.0 195.5 150.0 194.7 148.0 195.6 146.3 193.3 143.9 195.7 142.1 201.8 141.6 205.4 140.8 204.7 139.2 207.5 137.3 206.8 134.6 208.7 132.7 206.5 129.6 206.0 126.9 208.2 125.3 204.0 121.0 205.8 119.1 204.3 116.8 205.0 113.4 203.2 113.1 200.6 108.7 199.5 108.1 198.1 104.9 198.1 102.4 204.1 100.9 205.7 98.5 211.7 99.0 212.8 100.0 217.7 98.4 220.3 96.4 220.3 93.6 222.0 93.1 222.5 91.4 228.0 93.6 230.2 96.9 234.4 98.8 238.2 98.3 241.6 99.5 242.6 101.9 241.5 105.8 242.7 108.2 239.9 115.1 242.4 115.7 244.9 118.4 243.8 120.5 243.0 128.7 244.3 130.0 242.9 133.0 245.0 136.1 250.1 141.7 251.5 141.2 256.0 143.8 257.7 142.2 264.3 146.0 266.7 146.1 270.4 148.6 275.7 148.2 273.6 151.6 274.4 155.6 270.9 160.5 Z" vector-effect="non-scaling-stroke" stroke="silver" stroke-width="1" class=" highcharts-name-sachsen-anhalt">
				</path>
				<path fill="rgb(153,173,205)" d="M 305.7 72.2 L 307.6 76.2 305.4 86.5 299.7 91.4 299.5 96.9 316.3 109.3 313.7 117.3 321.8 133.9 317.5 147.9 322.1 154.0 322.2 160.7 316.0 160.4 310.9 163.1 305.3 162.7 300.0 171.5 293.7 172.4 286.0 172.0 282.3 169.5 275.5 171.7 274.5 162.7 270.9 160.5 274.4 155.6 273.6 151.6 275.7 148.2 270.4 148.6 266.7 146.1 264.3 146.0 257.7 142.2 256.0 143.8 251.5 141.2 250.1 141.7 245.0 136.1 242.9 133.0 244.3 130.0 243.0 128.7 243.8 120.5 244.9 118.4 242.4 115.7 239.9 115.1 242.7 108.2 241.5 105.8 242.6 101.9 241.6 99.5 238.2 98.3 234.4 98.8 230.2 96.9 228.0 93.6 222.5 91.4 217.5 89.7 213.2 88.0 216.8 88.4 221.5 86.3 220.8 83.4 225.7 81.1 227.1 82.6 234.9 78.1 236.3 75.2 240.0 74.4 247.4 79.1 263.1 81.9 264.8 83.3 269.1 78.4 276.6 77.2 280.1 70.9 284.9 66.6 289.6 64.7 291.4 68.6 301.0 67.9 301.0 70.2 297.4 75.9 301.8 76.3 305.7 72.2 M 281.4 108.5 L 280.3 107.5 277.8 109.5 275.3 108.2 272.9 109.8 272.6 111.8 271.1 111.2 270.8 115.1 269.7 120.4 271.6 121.4 275.8 120.2 279.9 121.7 280.8 119.8 286.4 121.5 286.7 123.2 288.4 121.5 289.6 117.6 286.8 115.8 285.7 116.0 286.1 113.4 283.7 112.3 281.5 110.1 281.4 108.5 Z" vector-effect="non-scaling-stroke" stroke="silver" stroke-width="1" class=" highcharts-name-brandenburg">
				</path>
				<path fill="rgb(182,196,222)" d="M 117.6 210.2 L 115.1 209.8 111.6 202.7 108.6 200.2 109.1 198.2 105.8 198.7 106.1 202.4 103.2 203.7 103.9 205.1 100.7 207.5 93.9 208.8 93.4 211.9 90.5 213.0 87.8 212.0 86.5 213.8 83.2 214.2 77.8 217.5 77.8 219.7 73.8 219.9 74.7 225.7 72.2 226.3 69.1 225.7 68.1 224.4 63.9 226.1 62.1 223.9 62.9 226.5 61.2 226.9 60.3 219.0 56.0 218.3 55.6 212.1 49.4 203.5 52.5 197.4 50.7 194.0 46.7 194.3 48.2 191.1 55.6 185.3 53.2 181.2 57.9 173.6 57.7 167.6 54.6 163.1 55.1 160.7 50.3 156.2 50.1 152.4 56.4 148.2 64.2 151.9 77.6 145.7 73.5 141.9 84.6 132.1 93.0 130.6 96.6 128.6 102.4 123.7 102.6 120.7 109.3 126.4 111.6 125.7 113.6 129.0 111.3 134.2 114.9 135.9 114.0 138.4 111.0 140.1 113.3 142.6 119.8 140.5 122.5 138.0 126.4 139.2 129.6 135.3 128.6 134.5 127.5 126.4 124.7 124.8 123.7 122.2 128.2 122.1 129.7 119.5 133.8 118.7 136.0 120.8 136.0 124.5 139.7 125.4 143.8 124.4 147.4 120.0 148.9 124.4 145.5 127.8 144.5 131.6 147.1 133.0 144.6 135.4 144.9 138.1 149.1 138.2 150.8 141.0 150.2 145.5 153.8 146.1 152.8 148.6 155.3 149.5 154.9 151.9 159.0 151.3 158.5 156.2 156.5 162.3 158.6 162.2 157.9 163.3 155.3 164.4 156.0 165.1 154.2 168.8 151.9 170.3 151.7 171.8 149.9 172.7 148.4 172.5 147.6 170.5 145.5 169.2 142.1 170.7 142.9 175.1 139.2 175.6 135.2 176.5 131.8 180.8 132.6 182.5 136.1 181.1 137.1 186.0 135.4 188.1 135.7 189.4 134.3 190.2 130.1 189.9 130.7 193.5 127.5 198.7 124.9 201.4 122.9 200.4 119.6 203.1 117.8 205.2 118.9 207.3 117.6 210.2 Z" vector-effect="non-scaling-stroke" stroke="silver" stroke-width="1" class=" highcharts-name-nordrhein-westfalen">
				</path>
				<path fill="rgb(201,210,233)" d="M 118.7 296.2 L 128.0 279.4 128.5 272.1 126.1 265.3 128.7 265.6 130.9 267.9 132.6 267.0 132.1 263.8 134.3 263.2 135.8 267.2 141.4 269.0 140.1 270.2 138.9 274.1 140.0 274.5 143.2 271.6 143.6 269.1 146.1 269.3 149.0 268.5 147.6 265.7 148.6 265.6 153.2 265.5 154.2 263.0 157.2 261.8 158.1 262.3 158.8 258.9 155.1 257.8 155.0 256.1 156.3 255.1 160.8 254.6 164.4 255.8 165.8 255.1 165.3 259.3 166.9 259.7 167.9 258.3 168.5 259.9 170.6 258.1 171.8 259.7 171.9 261.6 173.5 263.7 172.2 266.6 172.7 267.1 174.5 265.2 175.4 270.1 178.1 270.1 179.5 268.6 180.1 266.9 181.5 268.5 181.2 272.0 182.1 272.5 183.0 274.8 181.5 275.6 182.8 280.2 181.9 280.4 182.4 283.7 186.3 287.6 186.7 291.4 189.3 292.2 192.8 296.8 192.9 302.1 192.1 305.5 194.3 308.7 192.2 310.1 191.9 308.6 190.2 310.5 187.8 308.6 186.9 309.8 187.5 311.5 189.0 312.6 188.3 313.4 188.5 317.2 186.4 318.5 183.2 320.6 182.5 319.5 180.3 320.3 177.5 324.8 180.0 328.6 181.9 336.4 182.9 338.4 182.7 342.0 181.3 345.8 182.1 346.9 181.8 349.9 182.9 352.9 181.2 354.4 182.4 355.4 183.0 359.3 181.7 359.7 181.2 361.2 180.5 359.8 177.0 360.8 174.0 360.1 169.0 363.6 167.9 363.3 165.5 364.7 162.0 361.8 155.8 359.9 147.4 353.2 151.1 360.4 145.5 360.0 141.8 361.4 131.6 354.2 127.0 355.7 124.5 360.6 130.4 360.8 126.4 364.7 117.3 363.0 114.2 365.4 108.3 365.7 105.2 363.9 100.6 366.4 95.3 360.0 95.5 354.4 98.8 343.5 97.4 338.9 103.6 326.0 103.1 323.4 105.7 317.9 105.7 313.1 111.1 306.1 115.5 303.0 118.7 296.2 Z" vector-effect="non-scaling-stroke" stroke="silver" stroke-width="1" class=" highcharts-name-baden-württemberg">
				</path>
				<path fill="rgb(207,214,237)" d="M 178.5 218.5 L 176.8 221.9 172.3 224.4 169.4 224.3 168.9 229.1 166.7 230.4 166.1 232.7 161.3 232.6 160.9 235.6 161.9 236.0 161.2 239.0 158.0 239.8 155.5 237.5 152.3 237.3 149.9 238.8 148.4 238.2 145.3 239.6 144.2 241.8 145.8 242.3 145.8 249.0 147.2 252.9 149.5 255.0 149.3 259.6 148.6 262.4 147.3 263.8 148.6 265.6 147.6 265.7 149.0 268.5 146.1 269.3 143.6 269.1 143.2 271.6 140.0 274.5 138.9 274.1 140.1 270.2 141.4 269.0 135.8 267.2 134.3 263.2 132.1 263.8 132.6 267.0 130.9 267.9 128.7 265.6 126.1 265.3 124.3 261.1 126.4 255.9 123.7 249.8 123.6 246.3 120.2 242.4 118.5 242.0 110.2 245.5 105.6 241.4 108.3 238.4 110.4 238.8 110.5 234.2 117.0 230.4 114.7 225.7 112.5 224.5 113.4 218.3 116.6 218.0 118.5 215.1 117.6 210.2 118.9 207.3 117.8 205.2 119.6 203.1 122.9 200.4 124.9 201.4 127.5 198.7 130.7 193.5 130.1 189.9 134.3 190.2 135.7 189.4 135.4 188.1 137.1 186.0 136.1 181.1 132.6 182.5 131.8 180.8 135.2 176.5 139.2 175.6 142.9 175.1 142.1 170.7 145.5 169.2 147.6 170.5 148.4 172.5 149.9 172.7 151.7 171.8 151.9 170.3 154.2 168.8 156.0 165.1 155.3 164.4 157.9 163.3 158.6 162.2 160.3 163.1 162.0 162.7 164.3 163.2 166.3 166.0 165.0 166.0 163.5 169.0 164.8 171.2 164.7 174.6 163.1 174.7 162.7 177.5 166.3 178.8 167.2 180.0 168.8 179.1 167.2 176.4 170.7 174.5 171.7 175.9 171.9 174.1 173.1 173.7 174.6 175.4 173.8 176.5 174.5 179.3 177.8 180.6 178.8 183.2 183.5 185.1 182.5 188.5 181.8 187.1 180.3 187.6 181.6 188.6 180.8 191.6 182.4 192.1 182.3 194.5 178.0 194.0 177.2 195.3 177.7 197.3 175.1 197.3 175.7 199.1 176.7 198.3 178.3 200.2 177.1 202.8 174.9 203.6 174.9 205.6 173.9 209.7 172.8 212.2 174.9 213.0 175.1 211.2 176.6 210.5 178.3 210.8 179.1 213.2 178.1 214.0 178.5 218.5 Z" vector-effect="non-scaling-stroke" stroke="silver" stroke-width="1" class=" highcharts-name-hessen">
				</path>
				<path fill="rgb(206,214,236)" d="M 167.6 67.5 L 170.5 73.2 174.3 74.1 177.2 72.2 180.3 74.5 184.5 73.0 190.5 75.9 192.7 75.9 207.6 86.9 209.2 85.4 213.2 88.0 217.5 89.7 222.5 91.4 222.0 93.1 220.3 93.6 220.3 96.4 217.7 98.4 212.8 100.0 211.7 99.0 205.7 98.5 204.1 100.9 198.1 102.4 198.1 104.9 199.5 108.1 200.6 108.7 203.2 113.1 205.0 113.4 204.3 116.8 205.8 119.1 204.0 121.0 208.2 125.3 206.0 126.9 206.5 129.6 208.7 132.7 206.8 134.6 207.5 137.3 204.7 139.2 205.4 140.8 201.8 141.6 195.7 142.1 193.3 143.9 195.6 146.3 194.7 148.0 195.5 150.0 193.7 152.0 194.0 155.3 196.5 158.8 197.6 162.2 195.0 165.5 192.0 166.4 189.1 164.7 187.6 165.0 187.4 167.2 183.5 170.8 182.1 170.4 180.8 172.8 177.5 172.9 174.6 175.4 173.1 173.7 171.9 174.1 171.7 175.9 170.7 174.5 167.2 176.4 168.8 179.1 167.2 180.0 166.3 178.8 162.7 177.5 163.1 174.7 164.7 174.6 164.8 171.2 163.5 169.0 165.0 166.0 166.3 166.0 164.3 163.2 162.0 162.7 160.3 163.1 158.6 162.2 156.5 162.3 158.5 156.2 159.0 151.3 154.9 151.9 155.3 149.5 152.8 148.6 153.8 146.1 150.2 145.5 150.8 141.0 149.1 138.2 144.9 138.1 144.6 135.4 147.1 133.0 144.5 131.6 145.5 127.8 148.9 124.4 147.4 120.0 143.8 124.4 139.7 125.4 136.0 124.5 136.0 120.8 133.8 118.7 129.7 119.5 128.2 122.1 123.7 122.2 124.7 124.8 127.5 126.4 128.6 134.5 129.6 135.3 126.4 139.2 122.5 138.0 119.8 140.5 113.3 142.6 111.0 140.1 114.0 138.4 114.9 135.9 111.3 134.2 113.6 129.0 111.6 125.7 109.3 126.4 102.6 120.7 102.4 123.7 96.6 128.6 93.0 130.6 84.6 132.1 83.3 121.4 74.8 120.0 77.4 111.8 85.5 111.7 90.3 96.0 91.0 82.1 94.3 77.8 86.1 75.4 88.2 64.9 92.5 61.1 114.0 58.7 120.3 67.2 117.0 69.8 121.3 74.4 124.8 69.5 123.0 64.7 131.8 69.0 133.2 70.5 134.3 69.2 133.9 64.8 130.5 64.2 132.4 52.2 150.5 51.9 153.1 51.8 153.7 52.7 161.8 65.0 167.6 67.5 M 131.8 84.3 L 130.4 85.0 133.3 86.0 136.0 91.0 136.0 92.4 140.9 92.6 142.4 93.7 144.2 92.3 144.2 88.2 142.3 88.0 137.4 85.4 131.8 84.3 Z" vector-effect="non-scaling-stroke" stroke="silver" stroke-width="1" class=" highcharts-name-niedersachsen">
				</path>
				<path fill="rgb(71,110,158)" d="M 247.4 188.2 L 254.3 189.1 256.5 193.4 259.9 196.8 256.1 198.1 253.0 200.9 247.8 202.7 247.5 206.2 250.1 208.5 248.0 211.0 245.9 211.1 244.8 214.3 241.8 216.0 239.9 215.3 237.9 218.3 237.4 221.9 235.1 223.2 234.0 222.2 225.6 224.2 224.1 223.2 223.8 221.8 222.0 221.1 222.1 217.6 219.5 217.4 218.6 218.7 216.5 219.8 217.6 225.5 217.0 229.6 215.0 229.9 213.1 228.0 213.7 227.3 212.3 225.3 210.3 226.2 208.3 226.2 206.9 224.3 201.9 224.5 200.0 225.8 199.7 227.8 203.6 230.2 203.8 231.6 200.3 231.7 200.2 233.3 196.6 232.7 195.7 227.6 194.4 226.0 192.8 226.3 191.1 224.1 189.7 224.3 189.5 222.9 186.9 219.5 184.3 218.7 182.7 216.8 180.7 216.1 178.5 218.5 178.1 214.0 179.1 213.2 178.3 210.8 176.6 210.5 175.1 211.2 174.9 213.0 172.8 212.2 173.9 209.7 174.9 205.6 174.9 203.6 177.1 202.8 178.3 200.2 176.7 198.3 175.7 199.1 175.1 197.3 177.7 197.3 177.2 195.3 178.0 194.0 182.3 194.5 182.4 192.1 180.8 191.6 181.6 188.6 180.3 187.6 181.8 187.1 182.5 188.5 183.5 185.1 178.8 183.2 177.8 180.6 174.5 179.3 173.8 176.5 174.6 175.4 177.5 172.9 180.8 172.8 182.1 170.4 183.5 170.8 187.4 167.2 187.6 165.0 189.1 164.7 192.0 166.4 195.0 165.5 197.6 162.2 205.3 164.2 204.3 165.4 207.3 173.4 217.1 174.4 221.6 179.8 218.0 182.7 220.8 185.4 221.1 188.4 229.3 188.5 230.8 192.2 234.8 191.7 239.5 195.2 244.4 194.9 245.7 196.0 247.9 191.8 247.4 188.2 Z" vector-effect="non-scaling-stroke" stroke="silver" stroke-width="1" class=" highcharts-name-thüringen">
				</path>
			</g>
		</g>
		<g class="highcharts-markers highcharts-series-0 highcharts-tracker" transform="translate(10,46) scale(1 1)" style="" clip-path="none">
		</g>
	</g>
	<text x="200" text-anchor="middle" class="highcharts-title" style="color:#333333;font-size:18px;fill:#333333;width:336px;" y="24">
		<tspan>GeoJSON in Highmaps
		</tspan>
	</text>
	<g class="highcharts-button" style="cursor:default;text-align:center;" transform="translate(10,429)">
		<title>Zoom in
		</title>
		<path fill="url(#highcharts-1)" d="M 1.5 -0.5 L 25.5 -0.5 C 26.5 -0.5 27.5 0.5 27.5 1.5 L 27.5 27.5 C 27.5 27.5 27.5 27.5 27.5 27.5 L -0.5 27.5 C -0.5 27.5 -0.5 27.5 -0.5 27.5 L -0.5 1.5 C -0.5 0.5 0.5 -0.5 1.5 -0.5 Z" stroke="#CCCCCC" stroke-width="1">
		</path>
		<text x="8.0" style="font-size:15px;font-weight:bold;color:black;fill:black;" y="19">+
		</text>
	</g>
	<g class="highcharts-button" style="cursor:default;text-align:center;" transform="translate(10,457)">
		<title>Zoom out
		</title>
		<path fill="url(#highcharts-1)" d="M -0.5 -0.5 L 27.5 -0.5 C 27.5 -0.5 27.5 -0.5 27.5 -0.5 L 27.5 25.5 C 27.5 26.5 26.5 27.5 25.5 27.5 L 1.5 27.5 C 0.5 27.5 -0.5 26.5 -0.5 25.5 L -0.5 -0.5 C -0.5 -0.5 -0.5 -0.5 -0.5 -0.5 Z" stroke="#CCCCCC" stroke-width="1">
		</path>
		<text x="9.2" style="font-size:15px;font-weight:bold;color:black;fill:black;" y="19">-
		</text>
	</g>
	<g class="highcharts-data-labels highcharts-series-0 highcharts-tracker" visibility="visible" transform="translate(10,46) scale(1 1)" clip-path="url(#highcharts-3)" style="">
		<g style="" transform="translate(161,32)">
			<text x="0" style="font-size:11px;font-weight:bold;color:#ffffff;text-shadow:0 0 6px #000000, 0 0 3px #000000;fill:#ffffff;text-rendering:geometricprecision;" y="11">
				<tspan>SH
				</tspan>
			</text>
		</g>
		<g style="" transform="translate(273,109)" opacity="0" visibility="hidden">
			<text x="0" style="font-size:11px;font-weight:bold;color:#ffffff;text-shadow:0 0 6px #000000, 0 0 3px #000000;fill:#ffffff;text-rendering:geometricprecision;" y="11">
				<tspan>BE
				</tspan>
			</text>
		</g>
		<g style="" transform="translate(240,42)">
			<text x="0" style="font-size:11px;font-weight:bold;color:#ffffff;text-shadow:0 0 6px #000000, 0 0 3px #000000;fill:#ffffff;text-rendering:geometricprecision;" y="11">
				<tspan>MV
				</tspan>
			</text>
		</g>
		<g style="" transform="translate(130,73)">
			<text x="0" style="font-size:11px;font-weight:bold;color:#000000;text-shadow:0 0 6px #ffffff, 0 0 3px #ffffff;fill:#000000;text-rendering:geometricprecision;" y="11">
				<tspan>HB
				</tspan>
			</text>
		</g>
		<g style="" transform="translate(167,61)">
			<text x="0" style="font-size:11px;font-weight:bold;color:#ffffff;text-shadow:0 0 6px #000000, 0 0 3px #000000;fill:#ffffff;text-rendering:geometricprecision;" y="11">
				<tspan>HH
				</tspan>
			</text>
		</g>
		<g style="" transform="translate(83,241)">
			<text x="0" style="font-size:11px;font-weight:bold;color:#ffffff;text-shadow:0 0 6px #000000, 0 0 3px #000000;fill:#ffffff;text-rendering:geometricprecision;" y="11">
				<tspan>RP
				</tspan>
			</text>
		</g>
		<g style="" transform="translate(69,269)">
			<text x="0" style="font-size:11px;font-weight:bold;color:#000000;text-shadow:0 0 6px #ffffff, 0 0 3px #ffffff;fill:#000000;text-rendering:geometricprecision;" y="11">
				<tspan>SL
				</tspan>
			</text>
		</g>
		<g style="" transform="translate(217,292)">
			<text x="0" style="font-size:11px;font-weight:bold;color:#ffffff;text-shadow:0 0 6px #000000, 0 0 3px #000000;fill:#ffffff;text-rendering:geometricprecision;" y="11">
				<tspan>BY
				</tspan>
			</text>
		</g>
		<g style="" transform="translate(278,190)">
			<text x="0" style="font-size:11px;font-weight:bold;color:#000000;text-shadow:0 0 6px #ffffff, 0 0 3px #ffffff;fill:#000000;text-rendering:geometricprecision;" y="11">
				<tspan>SN
				</tspan>
			</text>
		</g>
		<g style="" transform="translate(228,138)">
			<text x="0" style="font-size:11px;font-weight:bold;color:#000000;text-shadow:0 0 6px #ffffff, 0 0 3px #ffffff;fill:#000000;text-rendering:geometricprecision;" y="11">
				<tspan>ST
				</tspan>
			</text>
		</g>
		<g style="" transform="translate(261,113)">
			<text x="0" style="font-size:11px;font-weight:bold;color:#000000;text-shadow:0 0 6px #ffffff, 0 0 3px #ffffff;fill:#000000;text-rendering:geometricprecision;" y="11">
				<tspan>BE
				</tspan>
			</text>
		</g>
		<g style="" transform="translate(94,167)">
			<text x="0" style="font-size:11px;font-weight:bold;color:#000000;text-shadow:0 0 6px #ffffff, 0 0 3px #ffffff;fill:#000000;text-rendering:geometricprecision;" y="11">
				<tspan>NW
				</tspan>
			</text>
		</g>
		<g style="" transform="translate(136,305)">
			<text x="0" style="font-size:11px;font-weight:bold;color:#000000;text-shadow:0 0 6px #ffffff, 0 0 3px #ffffff;fill:#000000;text-rendering:geometricprecision;" y="11">
				<tspan>BW
				</tspan>
			</text>
		</g>
		<g style="" transform="translate(137,212)">
			<text x="0" style="font-size:11px;font-weight:bold;color:#000000;text-shadow:0 0 6px #ffffff, 0 0 3px #ffffff;fill:#000000;text-rendering:geometricprecision;" y="11">
				<tspan>HE
				</tspan>
			</text>
		</g>
		<g style="" transform="translate(143,110)">
			<text x="0" style="font-size:11px;font-weight:bold;color:#000000;text-shadow:0 0 6px #ffffff, 0 0 3px #ffffff;fill:#000000;text-rendering:geometricprecision;" y="11">
				<tspan>NI
				</tspan>
			</text>
		</g>
		<g style="" transform="translate(208,192)">
			<text x="0" style="font-size:11px;font-weight:bold;color:#ffffff;text-shadow:0 0 6px #000000, 0 0 3px #000000;fill:#ffffff;text-rendering:geometricprecision;" y="11">
				<tspan>TH
				</tspan>
			</text>
		</g>
	</g>
	<g class="highcharts-legend" transform="translate(93,438)">
		<g>
			<g>
				<g class="highcharts-legend-item" transform="translate(8,3)">
					<rect x="0" y="4" width="200" height="12" fill="url(#highcharts-2)">
					</rect>
					<g class="highcharts-grid">
						<path fill="none" d="M -0.5 4 L -0.5 16" stroke="#D8D8D8" stroke-width="1" opacity="1">
						</path>
						<path fill="none" d="M 49.5 4 L 49.5 16" stroke="#D8D8D8" stroke-width="1" opacity="1">
						</path>
						<path fill="none" d="M 99.5 4 L 99.5 16" stroke="#D8D8D8" stroke-width="1" opacity="1">
						</path>
						<path fill="none" d="M 149.5 4 L 149.5 16" stroke="#D8D8D8" stroke-width="1" opacity="1">
						</path>
						<path fill="none" d="M 200.5 4 L 200.5 16" stroke="#D8D8D8" stroke-width="1" opacity="1">
						</path>
					</g>
					<text x="21" style="color:#333333;font-size:12px;font-weight:bold;cursor:pointer;fill:#333333;" text-anchor="start" y="15">
					</text>
					<g class="highcharts-axis">
					</g>
					<g class="highcharts-axis-labels highcharts-coloraxis-labels">
						<text x="3.4" style="color:#606060;cursor:default;font-size:11px;fill:#606060;" text-anchor="middle" transform="translate(0,0)" y="35" opacity="1">0
						</text>
						<text x="50" style="color:#606060;cursor:default;font-size:11px;fill:#606060;" text-anchor="middle" transform="translate(0,0)" y="35" opacity="1">250
						</text>
						<text x="100" style="color:#606060;cursor:default;font-size:11px;fill:#606060;" text-anchor="middle" transform="translate(0,0)" y="35" opacity="1">500
						</text>
						<text x="150" style="color:#606060;cursor:default;font-size:11px;fill:#606060;" text-anchor="middle" transform="translate(0,0)" y="35" opacity="1">750
						</text>
						<text x="186.0" style="color:#606060;cursor:default;font-size:11px;fill:#606060;" text-anchor="middle" transform="translate(0,0)" y="35" opacity="1">1000
						</text>
					</g>
				</g>
			</g>
		</g>
	</g>
	<g class="highcharts-axis-labels highcharts-xaxis-labels">
	</g>
	<g class="highcharts-axis-labels highcharts-yaxis-labels">
	</g>
	<g class="highcharts-tooltip" style="cursor:default;padding:0;pointer-events:none;white-space:nowrap;" transform="translate(0,-9999)">
		<path fill="none" d="M 3.5 0.5 L 13.5 0.5 C 16.5 0.5 16.5 0.5 16.5 3.5 L 16.5 13.5 C 16.5 16.5 16.5 16.5 13.5 16.5 L 3.5 16.5 C 0.5 16.5 0.5 16.5 0.5 13.5 L 0.5 3.5 C 0.5 0.5 0.5 0.5 3.5 0.5"  stroke="black" stroke-opacity="0.0" stroke-width="5" transform="translate(1, 1)">
		</path>
		<path fill="none" d="M 3.5 0.5 L 13.5 0.5 C 16.5 0.5 16.5 0.5 16.5 3.5 L 16.5 13.5 C 16.5 16.5 16.5 16.5 13.5 16.5 L 3.5 16.5 C 0.5 16.5 0.5 16.5 0.5 13.5 L 0.5 3.5 C 0.5 0.5 0.5 0.5 3.5 0.5"  stroke="black" stroke-opacity="0.0" stroke-width="3" transform="translate(1, 1)">
		</path>
		<path fill="none" d="M 3.5 0.5 L 13.5 0.5 C 16.5 0.5 16.5 0.5 16.5 3.5 L 16.5 13.5 C 16.5 16.5 16.5 16.5 13.5 16.5 L 3.5 16.5 C 0.5 16.5 0.5 16.5 0.5 13.5 L 0.5 3.5 C 0.5 0.5 0.5 0.5 3.5 0.5"  stroke="black" stroke-opacity="0.1" stroke-width="1" transform="translate(1, 1)">
		</path>
		<path fill="rgb(249, 249, 249)" fill-opacity=" .85" d="M 3.5 0.5 L 13.5 0.5 C 16.5 0.5 16.5 0.5 16.5 3.5 L 16.5 13.5 C 16.5 16.5 16.5 16.5 13.5 16.5 L 3.5 16.5 C 0.5 16.5 0.5 16.5 0.5 13.5 L 0.5 3.5 C 0.5 0.5 0.5 0.5 3.5 0.5">
		</path>
		<text x="8" style="font-size:12px;color:#333333;fill:#333333;" y="20">
		</text>
	</g>
</svg>