<?xml version="1.0" encoding="UTF-8" standalone="no"?>
<!DOCTYPE svg PUBLIC "-//W3C//DTD SVG 1.1//EN"
"http://www.w3.org/Graphics/SVG/1.1/DTD/svg11.dtd">
<svg version="1.1" style="font-family:&quot;lucida grande&quot;, &quot;lucida sans unicode&quot;, arial, helvetica, sans-serif;font-size:12px;" xmlns="http://www.w3.org/2000/svg" viewBox="0 0 584 400">
	<desc>Created with Highstock 4.2.4
	</desc>
	<defs>
		<clipPath id="highcharts-1">
			<rect x="0" y="0" width="564" height="206">
			</rect>
		</clipPath>
		<clipPath id="highcharts-3">
			<rect x="0" y="0" width="536" height="40">
			</rect>
		</clipPath>
	</defs>
	<rect x="0" y="0" width="584" height="400" fill="#FFFFFF" class=" highcharts-background">
	</rect>
	<g class="highcharts-scrollbar" transform="translate(10,372)">
		<rect x="0" y="-0.5" fill="#eeeeee" stroke="#eeeeee" stroke-width="1" rx="0" ry="0" height="14" width="564">
		</rect>
		<rect y="-0.5" height="14" fill="#bfc8d1" stroke="#bfc8d1" stroke-width="1" rx="0" ry="0" x="531.5" width="18">
		</rect>
		<path fill="none" stroke="#666" stroke-width="1" visibility="visible" d="M 537 3.5 L 537 9.3 M 540 3.5 L 540 9.3 M 543 3.5 L 543 9.3">
		</path>
		<g>
			<rect x="-0.5" y="-0.5" width="14" height="14" stroke="#bbb" stroke-width="1" fill="#ebe7e8">
			</rect>
			<path fill="#666" d="M 8 4 L 8 10 5 7">
			</path>
		</g>
		<g transform="translate(550,0)">
			<rect x="-0.5" y="-0.5" width="14" height="14" stroke="#bbb" stroke-width="1" fill="#ebe7e8">
			</rect>
			<path fill="#666" d="M 6 4 L 6 10 9 7">
			</path>
		</g>
	</g>
	<g class="highcharts-range-selector-buttons" transform="translate(0,44)">
		<text x="10" y="15" style="color:#666;fill:#666;">Zoom
		</text>
		<g class="highcharts-button" states="[object Object]" style="cursor:pointer;text-align:center;" transform="translate(48,0)">
			<rect x="0" y="0" width="32" height="22" fill="#f7f7f7" rx="0" ry="0">
			</rect>
			<text x="6.6" style="font-weight:normal;color:#444;fill:#444;" y="14">1m
			</text>
		</g>
		<g class="highcharts-button" states="[object Object]" style="cursor:pointer;text-align:center;" transform="translate(85,0)">
			<rect x="0" y="0" width="32" height="22" fill="#e7f0f9" rx="0" ry="0">
			</rect>
			<text x="6.6" style="font-weight:bold;color:black;fill:black;" y="14">3m
			</text>
		</g>
		<g class="highcharts-button" states="[object Object]" style="cursor:pointer;text-align:center;" transform="translate(122,0)">
			<rect x="0" y="0" width="32" height="22" fill="#f7f7f7" rx="0" ry="0">
			</rect>
			<text x="6.6" style="font-weight:normal;color:#444;fill:#444;" y="14">6m
			</text>
		</g>
		<g class="highcharts-button" states="[object Object]" style="cursor:pointer;text-align:center;" transform="translate(159,0)">
			<rect x="0" y="0" width="32" height="22" fill="#f7f7f7" rx="0" ry="0">
			</rect>
			<text x="3.9" style="font-weight:normal;color:#444;fill:#444;" y="14">YTD
			</text>
		</g>
		<g class="highcharts-button" states="[object Object]" style="cursor:pointer;text-align:center;" transform="translate(196,0)">
			<rect x="0" y="0" width="32" height="22" fill="#f7f7f7" rx="0" ry="0">
			</rect>
			<text x="9.0" style="font-weight:normal;color:#444;fill:#444;" y="14">1y
			</text>
		</g>
		<g class="highcharts-button" states="[object Object]" style="cursor:pointer;text-align:center;" transform="translate(233,0)">
			<rect x="0" y="0" width="32" height="22" fill="#f7f7f7" rx="0" ry="0">
			</rect>
			<text x="8.3" style="font-weight:normal;color:#444;fill:#444;" y="14">All
			</text>
		</g>
	</g>
	<g class="highcharts-input-group" transform="translate(313,44)" visibility="visible">
		<g style="fill:#666;" transform="translate(0,0)">
			<text x="2" style="font-size:12px;font-family:&quot;lucida grande&quot;, &quot;lucida sans unicode&quot;, arial, helvetica, sans-serif;color:#666;fill:#666;" y="14">From
			</text>
		</g>
		<g style="text-align:center;" transform="translate(39,0)">
			<rect x="0.5" y="0.5" width="94" height="21" fill="none" stroke="silver" stroke-width="1">
			</rect>
			<text x="9.6" style="font-size:12px;font-family:&quot;lucida grande&quot;, &quot;lucida sans unicode&quot;, arial, helvetica, sans-serif;color:#444;fill:#444;" y="14">
				<tspan>Jan 21, 2016
				</tspan>
			</text>
		</g>
		<g style="fill:#666;" transform="translate(143,0)">
			<text x="2" style="font-size:12px;font-family:&quot;lucida grande&quot;, &quot;lucida sans unicode&quot;, arial, helvetica, sans-serif;color:#666;fill:#666;" y="14">To
			</text>
		</g>
		<g style="text-align:center;" transform="translate(167,0)">
			<rect x="0.5" y="0.5" width="94" height="21" fill="none" stroke="silver" stroke-width="1">
			</rect>
			<text x="8.2" style="font-size:12px;font-family:&quot;lucida grande&quot;, &quot;lucida sans unicode&quot;, arial, helvetica, sans-serif;color:#444;fill:#444;" y="14">
				<tspan>Apr 21, 2016
				</tspan>
			</text>
		</g>
	</g>
	<g class="highcharts-grid">
	</g>
	<g class="highcharts-grid">
		<path fill="none" d="M 76.5 331 L 76.5 371" stroke="#EEE" stroke-width="1" opacity="1">
		</path>
		<path fill="none" d="M 229.5 331 L 229.5 371" stroke="#EEE" stroke-width="1" opacity="1">
		</path>
		<path fill="none" d="M 383.5 331 L 383.5 371" stroke="#EEE" stroke-width="1" opacity="1">
		</path>
		<path fill="none" d="M 536.5 331 L 536.5 371" stroke="#EEE" stroke-width="1" opacity="1">
		</path>
	</g>
	<g class="highcharts-grid">
		<path fill="none" d="M 10 285.5 L 574 285.5" stroke="#D8D8D8" stroke-width="1" opacity="1">
		</path>
		<path fill="none" d="M 10 216.5 L 574 216.5" stroke="#D8D8D8" stroke-width="1" opacity="1">
		</path>
		<path fill="none" d="M 10 148.5 L 574 148.5" stroke="#D8D8D8" stroke-width="1" opacity="1">
		</path>
		<path fill="none" d="M 10 78.5 L 574 78.5" stroke="#D8D8D8" stroke-width="1" opacity="1">
		</path>
	</g>
	<g class="highcharts-grid">
	</g>
	<g class="highcharts-axis">
		<path fill="none" d="M 12.5 285 L 12.5 295" stroke="#C0D0E0" stroke-width="1" opacity="1">
		</path>
		<path fill="none" d="M 92.5 285 L 92.5 295" stroke="#C0D0E0" stroke-width="1" opacity="1">
		</path>
		<path fill="none" d="M 173.5 285 L 173.5 295" stroke="#C0D0E0" stroke-width="1" opacity="1">
		</path>
		<path fill="none" d="M 253.5 285 L 253.5 295" stroke="#C0D0E0" stroke-width="1" opacity="1">
		</path>
		<path fill="none" d="M 334.5 285 L 334.5 295" stroke="#C0D0E0" stroke-width="1" opacity="1">
		</path>
		<path fill="none" d="M 415.5 285 L 415.5 295" stroke="#C0D0E0" stroke-width="1" opacity="1">
		</path>
		<path fill="none" d="M 495.5 285 L 495.5 295" stroke="#C0D0E0" stroke-width="1" opacity="1">
		</path>
		<path fill="none" d="M 10 285.5 L 574 285.5" stroke="#C0D0E0" stroke-width="1">
		</path>
	</g>
	<g class="highcharts-axis">
	</g>
	<g class="highcharts-axis">
	</g>
	<g class="highcharts-axis">
	</g>
	<g class="highcharts-series-group">
		<g class="highcharts-series highcharts-series-0 highcharts-tracker" transform="translate(10,79) scale(1 1)" style="" clip-path="url(#highcharts-1)">
			<path fill="white" d="M -7.5 147.5 L -7.5 128.5 L 12.5 128.5 L 12.5 147.5 Z M 2.5 128.5 L 2.5 127 M 2.5 147.5 L 2.5 149" stroke="black" stroke-width="1">
			</path>
			<path fill="#7cb5ec" d="M 32.5 156.5 L 32.5 127.5 L 52.5 127.5 L 52.5 156.5 Z M 42.5 127.5 L 42.5 127.5 M 42.5 156.5 L 42.5 190" stroke="black" stroke-width="1">
			</path>
			<path fill="#7cb5ec" d="M 72.5 178.5 L 72.5 162.5 L 92.5 162.5 L 92.5 178.5 Z M 82.5 162.5 L 82.5 156 M 82.5 178.5 L 82.5 181" stroke="black" stroke-width="1">
			</path>
			<path fill="white" d="M 113.5 185.5 L 113.5 179.5 L 133.5 179.5 L 133.5 185.5 Z M 123.5 179.5 L 123.5 162 M 123.5 185.5 L 123.5 188" stroke="black" stroke-width="1">
			</path>
			<path fill="white" d="M 153.5 172.5 L 153.5 165.5 L 173.5 165.5 L 173.5 172.5 Z M 163.5 165.5 L 163.5 145 M 163.5 172.5 L 163.5 174" stroke="black" stroke-width="1">
			</path>
			<path fill="white" d="M 193.5 163.5 L 193.5 159.5 L 213.5 159.5 L 213.5 163.5 Z M 203.5 159.5 L 203.5 151 M 203.5 163.5 L 203.5 183" stroke="black" stroke-width="1">
			</path>
			<path fill="white" d="M 233.5 159.5 L 233.5 117.5 L 253.5 117.5 L 253.5 159.5 Z M 243.5 117.5 L 243.5 112 M 243.5 159.5 L 243.5 160" stroke="black" stroke-width="1">
			</path>
			<path fill="#7cb5ec" d="M 274.5 122.5 L 274.5 121.5 L 294.5 121.5 L 294.5 122.5 Z M 284.5 121.5 L 284.5 118 M 284.5 122.5 L 284.5 136" stroke="black" stroke-width="1">
			</path>
			<path fill="white" d="M 314.5 124.5 L 314.5 97.5 L 334.5 97.5 L 334.5 124.5 Z M 324.5 97.5 L 324.5 93 M 324.5 124.5 L 324.5 125" stroke="black" stroke-width="1">
			</path>
			<path fill="#7cb5ec" d="M 354.5 98.5 L 354.5 97.5 L 374.5 97.5 L 374.5 98.5 Z M 364.5 97.5 L 364.5 85 M 364.5 98.5 L 364.5 104" stroke="black" stroke-width="1">
			</path>
			<path fill="white" d="M 395.5 96.5 L 395.5 69.5 L 415.5 69.5 L 415.5 96.5 Z M 405.5 69.5 L 405.5 66 M 405.5 96.5 L 405.5 104" stroke="black" stroke-width="1">
			</path>
			<path fill="#7cb5ec" d="M 435.5 78.5 L 435.5 66.5 L 455.5 66.5 L 455.5 78.5 Z M 445.5 66.5 L 445.5 54 M 445.5 78.5 L 445.5 82" stroke="black" stroke-width="1">
			</path>
			<path fill="white" d="M 475.5 76.5 L 475.5 70.5 L 495.5 70.5 L 495.5 76.5 Z M 485.5 70.5 L 485.5 52 M 485.5 76.5 L 485.5 78" stroke="black" stroke-width="1">
			</path>
			<path fill="#7cb5ec" d="M 516.5 96.5 L 516.5 76.5 L 536.5 76.5 L 536.5 96.5 Z M 526.5 76.5 L 526.5 76.5 M 526.5 96.5 L 526.5 99" stroke="black" stroke-width="1">
			</path>
		</g>
		<g class="highcharts-markers highcharts-series-0" transform="translate(10,79) scale(1 1)" clip-path="none">
		</g>
		<g class="highcharts-series highcharts-series-1" transform="translate(24,331) scale(1 1)" clip-path="url(#highcharts-3)">
			<path fill="#4572A7" d="M 0 36.6 C 0 36.6 0.8 36.6 1.4 36.6 C 2.0 36.6 2.3 36.3 2.9 36.3 C 3.5 36.3 3.8 36.6 4.4 36.6 C 4.9 36.6 5.2 36.6 5.8 36.6 C 6.4 36.5 6.7 36.5 7.3 36.3 C 7.9 36.2 8.2 36.0 8.8 36.0 C 9.3 35.9 9.6 35.9 10.2 35.9 C 10.8 35.9 11.1 36.1 11.7 36.1 C 12.3 36.1 12.6 36.1 13.2 36.1 C 13.8 36.0 14.0 35.9 14.6 35.9 C 15.2 35.9 15.5 36.1 16.1 36.1 C 16.7 36.1 17.0 35.9 17.6 35.8 C 18.2 35.6 18.5 35.4 19.0 35.3 C 19.6 35.2 19.9 35.2 20.5 35.1 C 21.1 35.0 21.4 34.9 22.0 34.9 C 22.6 34.9 22.9 34.9 23.4 34.9 C 24.0 34.9 24.3 35.0 24.9 35.0 C 25.5 35.0 25.8 34.7 26.4 34.7 C 27.0 34.7 27.3 34.8 27.9 34.8 C 28.4 34.8 28.7 34.7 29.3 34.6 C 29.9 34.5 30.2 34.5 30.8 34.4 C 31.4 34.3 31.7 34.1 32.3 34.1 C 32.8 34.1 33.1 34.1 33.7 34.1 C 34.3 34.1 34.6 34.0 35.2 33.9 C 35.8 33.9 36.1 33.9 36.7 33.8 C 37.2 33.8 37.5 33.5 38.1 33.5 C 38.7 33.5 39.0 33.5 39.6 33.5 C 40.2 33.5 40.5 33.8 41.1 33.8 C 41.7 33.8 41.9 33.5 42.5 33.4 C 43.1 33.3 43.4 33.3 44.0 33.3 C 44.6 33.3 44.9 33.3 45.5 33.3 C 46.1 33.4 46.4 33.4 46.9 33.5 C 47.5 33.5 47.8 33.7 48.4 33.7 C 49.0 33.7 49.3 33.7 49.9 33.7 C 50.5 33.7 50.8 33.6 51.3 33.4 C 51.9 33.3 52.2 33.0 52.8 33.0 C 53.4 32.9 53.7 32.9 54.3 32.9 C 54.9 32.9 55.2 33.0 55.8 33.0 C 56.3 33.0 56.6 33.0 57.2 33.0 C 57.8 33.0 58.1 33.1 58.7 33.3 C 59.3 33.4 59.6 33.7 60.2 33.7 C 60.7 33.7 61.0 33.7 61.6 33.6 C 62.2 33.5 62.5 33.4 63.1 33.4 C 63.7 33.4 64.0 33.5 64.6 33.5 C 65.2 33.5 65.4 33.2 66.0 33.0 C 66.6 32.9 66.9 32.6 67.5 32.5 C 68.1 32.4 68.4 32.5 69.0 32.4 C 69.6 32.4 69.9 32.4 70.4 32.3 C 71.0 32.2 71.3 32.1 71.9 32.0 C 72.5 31.9 72.8 31.9 73.4 31.8 C 74.0 31.7 74.3 31.7 74.8 31.6 C 75.4 31.4 75.7 31.3 76.3 31.1 C 76.9 30.9 77.2 30.7 77.8 30.7 C 78.4 30.7 78.7 31.1 79.2 31.1 C 79.8 31.1 80.1 31.1 80.7 31.1 C 81.3 31.1 81.6 31.5 82.2 31.5 C 82.8 31.5 83.1 31.5 83.7 31.4 C 84.2 31.3 84.5 30.9 85.1 30.9 C 85.7 30.9 86.0 31.3 86.6 31.3 C 87.2 31.3 87.5 31.0 88.1 30.8 C 88.6 30.6 88.9 30.4 89.5 30.4 C 90.1 30.4 90.4 30.9 91.0 31.0 C 91.6 31.1 91.9 31.1 92.5 31.1 C 93.1 31.2 93.3 31.2 93.9 31.2 C 94.5 31.2 94.8 31.2 95.4 31.2 C 96.0 31.1 96.3 31.0 96.9 30.9 C 97.5 30.9 97.8 30.9 98.3 30.9 C 98.9 30.9 99.2 31.1 99.8 31.1 C 100.4 31.2 100.7 31.2 101.3 31.3 C 101.9 31.4 102.2 31.6 102.7 31.6 C 103.3 31.6 103.6 31.6 104.2 31.5 C 104.8 31.3 105.1 31.1 105.7 30.9 C 106.3 30.7 106.6 30.7 107.1 30.5 C 107.7 30.3 108.0 30.1 108.6 29.9 C 109.2 29.8 109.5 29.7 110.1 29.7 C 110.7 29.7 111.0 29.8 111.6 29.8 C 112.1 29.8 112.4 29.5 113.0 29.3 C 113.6 29.1 113.9 28.8 114.5 28.8 C 115.1 28.8 115.4 29.0 116.0 29.0 C 116.5 29.0 116.8 28.9 117.4 28.8 C 118.0 28.7 118.3 28.5 118.9 28.5 C 119.5 28.5 119.8 29.0 120.4 29.0 C 121.0 29.0 121.2 28.9 121.8 28.8 C 122.4 28.7 122.7 28.7 123.3 28.6 C 123.9 28.5 124.2 28.4 124.8 28.4 C 125.4 28.4 125.7 28.4 126.2 28.4 C 126.8 28.3 127.1 28.3 127.7 28.3 C 128.3 28.3 128.6 28.3 129.2 28.2 C 129.8 28.2 130.1 28.1 130.6 28.0 C 131.2 27.8 131.5 27.4 132.1 27.4 C 132.7 27.4 133.0 27.7 133.6 27.7 C 134.2 27.7 134.5 27.7 135.1 27.6 C 135.6 27.6 135.9 27.6 136.5 27.5 C 137.1 27.4 137.4 27.2 138.0 27.0 C 138.6 26.9 138.9 26.8 139.5 26.8 C 140.0 26.8 140.3 27.5 140.9 27.5 C 141.5 27.5 141.8 27.0 142.4 27.0 C 143.0 27.0 143.3 27.0 143.9 27.0 C 144.4 27.1 144.7 27.5 145.3 27.5 C 145.9 27.5 146.2 27.5 146.8 27.5 C 147.4 27.5 147.7 27.2 148.3 27.2 C 148.9 27.2 149.1 27.5 149.7 27.6 C 150.3 27.7 150.6 27.9 151.2 27.9 C 151.8 27.9 152.1 27.8 152.7 27.6 C 153.3 27.5 153.6 27.2 154.1 27.2 C 154.7 27.2 155.0 27.2 155.6 27.2 C 156.2 27.2 156.5 27.2 157.1 27.3 C 157.7 27.3 158.0 27.6 158.5 27.7 C 159.1 27.8 159.4 27.8 160.0 27.8 C 160.6 27.8 160.9 27.4 161.5 27.4 C 162.1 27.4 162.4 27.6 163.0 27.8 C 163.5 27.9 163.8 28.0 164.4 28.1 C 165.0 28.2 165.3 28.3 165.9 28.3 C 166.5 28.3 166.8 28.1 167.4 27.9 C 167.9 27.6 168.2 27.4 168.8 27.2 C 169.4 27.0 169.7 27.1 170.3 26.8 C 170.9 26.6 171.2 26.1 171.8 25.8 C 172.4 25.5 172.6 25.3 173.2 25.3 C 173.8 25.3 174.1 25.3 174.7 25.5 C 175.3 25.6 175.6 26.4 176.2 26.4 C 176.8 26.4 177.1 26.1 177.6 26.1 C 178.2 26.1 178.5 26.5 179.1 26.5 C 179.7 26.5 180.0 25.7 180.6 25.7 C 181.2 25.7 181.5 25.9 182.0 25.9 C 182.6 25.9 182.9 25.9 183.5 25.7 C 184.1 25.4 184.4 24.8 185.0 24.8 C 185.6 24.8 185.9 24.8 186.4 25.1 C 187.0 25.4 187.3 26.2 187.9 26.2 C 188.5 26.2 188.8 25.4 189.4 25.1 C 190.0 24.8 190.3 24.7 190.9 24.7 C 191.4 24.7 191.7 24.9 192.3 25.0 C 192.9 25.0 193.2 25.0 193.8 25.1 C 194.4 25.1 194.7 25.1 195.3 25.2 C 195.8 25.4 196.1 25.6 196.7 25.8 C 197.3 26.0 197.6 26.3 198.2 26.3 C 198.8 26.3 199.1 26.1 199.7 25.9 C 200.3 25.7 200.5 25.4 201.1 25.4 C 201.7 25.4 202.0 25.6 202.6 25.6 C 203.2 25.6 203.5 25.5 204.1 25.4 C 204.7 25.2 205.0 25.1 205.5 24.9 C 206.1 24.7 206.4 24.7 207.0 24.5 C 207.6 24.4 207.9 24.2 208.5 24.1 C 209.1 24.0 209.4 24.1 209.9 23.9 C 210.5 23.8 210.8 23.7 211.4 23.4 C 212.0 23.2 212.3 23.1 212.9 22.8 C 213.5 22.5 213.8 22.4 214.3 22.0 C 214.9 21.6 215.2 21.1 215.8 20.8 C 216.4 20.4 216.7 20.6 217.3 20.3 C 217.9 20.0 218.2 19.4 218.8 19.4 C 219.3 19.3 219.6 19.4 220.2 19.3 C 220.8 19.3 221.1 18.3 221.7 17.8 C 222.3 17.3 222.6 17.0 223.2 16.7 C 223.7 16.4 224.0 16.5 224.6 16.3 C 225.2 16.2 225.5 16.0 226.1 15.9 C 226.7 15.7 227.0 15.4 227.6 15.4 C 228.2 15.4 228.4 16.5 229.0 16.8 C 229.6 17.0 229.9 16.9 230.5 17.0 C 231.1 17.1 231.4 17.1 232.0 17.3 C 232.6 17.5 232.9 17.8 233.4 18.1 C 234.0 18.4 234.3 18.7 234.9 18.7 C 235.5 18.7 235.8 18.5 236.4 18.4 C 237.0 18.2 237.3 17.9 237.8 17.9 C 238.4 17.9 238.7 18.0 239.3 18.0 C 239.9 18.0 240.2 17.8 240.8 17.7 C 241.4 17.6 241.7 17.5 242.3 17.5 C 242.8 17.5 243.1 17.8 243.7 17.8 C 244.3 17.8 244.6 17.1 245.2 16.8 C 245.8 16.6 246.1 16.5 246.7 16.4 C 247.2 16.3 247.5 16.3 248.1 16.3 C 248.7 16.3 249.0 17.3 249.6 17.3 C 250.2 17.3 250.5 16.8 251.1 16.5 C 251.6 16.2 251.9 16.1 252.5 15.9 C 253.1 15.7 253.4 15.7 254.0 15.4 C 254.6 15.0 254.9 14.5 255.5 14.2 C 256.1 13.8 256.3 13.6 256.9 13.6 C 257.5 13.6 257.8 13.6 258.4 13.6 C 259.0 13.6 259.3 13.6 259.9 13.5 C 260.5 13.4 260.8 12.5 261.3 12.5 C 261.9 12.5 262.2 13.2 262.8 13.5 C 263.4 13.7 263.7 13.6 264.3 13.9 C 264.9 14.2 265.2 14.9 265.7 15.0 C 266.3 15.1 266.6 15.0 267.2 15.1 C 267.8 15.3 268.1 15.6 268.7 15.9 C 269.3 16.3 269.6 16.4 270.2 16.9 C 270.7 17.3 271.0 17.5 271.6 18.0 C 272.2 18.4 272.5 19.2 273.1 19.2 C 273.7 19.2 274.0 18.7 274.6 18.3 C 275.1 18.0 275.4 17.4 276.0 17.4 C 276.6 17.4 276.9 17.7 277.5 18.2 C 278.1 18.6 278.4 19.2 279.0 19.6 C 279.6 19.9 279.8 19.9 280.4 20.0 C 281.0 20.1 281.3 20.2 281.9 20.2 C 282.5 20.2 282.8 19.3 283.4 19.3 C 284.0 19.3 284.3 19.6 284.8 19.9 C 285.4 20.2 285.7 20.5 286.3 20.9 C 286.9 21.2 287.2 21.3 287.8 21.7 C 288.4 22.1 288.7 22.8 289.2 22.8 C 289.8 22.8 290.1 22.8 290.7 22.6 C 291.3 22.5 291.6 22.1 292.2 22.1 C 292.8 22.1 293.1 22.6 293.6 22.8 C 294.2 23.1 294.5 23.0 295.1 23.2 C 295.7 23.4 296.0 23.9 296.6 23.9 C 297.2 23.9 297.5 23.9 298.1 23.7 C 298.6 23.5 298.9 23.1 299.5 22.9 C 300.1 22.7 300.4 22.6 301.0 22.6 C 301.6 22.6 301.9 23.6 302.5 23.7 C 303.0 23.8 303.3 23.7 303.9 23.8 C 304.5 23.9 304.8 24.3 305.4 24.6 C 306.0 24.8 306.3 25.0 306.9 25.0 C 307.5 25.0 307.7 23.9 308.3 23.5 C 308.9 23.0 309.2 22.6 309.8 22.6 C 310.4 22.6 310.7 23.2 311.3 23.3 C 311.9 23.5 312.2 23.5 312.7 23.5 C 313.3 23.5 313.6 23.1 314.2 23.1 C 314.8 23.1 315.1 23.1 315.7 23.2 C 316.3 23.2 316.6 23.3 317.1 23.5 C 317.7 23.7 318.0 23.7 318.6 24.0 C 319.2 24.3 319.5 25.0 320.1 25.0 C 320.7 25.0 321.0 24.7 321.5 24.5 C 322.1 24.4 322.4 24.3 323.0 24.2 C 323.6 24.1 323.9 24.0 324.5 23.8 C 325.1 23.7 325.4 23.8 326.0 23.7 C 326.5 23.5 326.8 23.2 327.4 22.9 C 328.0 22.7 328.3 22.7 328.9 22.4 C 329.5 22.1 329.8 21.9 330.4 21.5 C 330.9 21.2 331.2 20.7 331.8 20.7 C 332.4 20.7 332.7 21.2 333.3 21.2 C 333.9 21.2 334.2 21.0 334.8 21.0 C 335.4 21.0 335.6 21.3 336.2 21.6 C 336.8 21.9 337.1 22.4 337.7 22.4 C 338.3 22.4 338.6 21.3 339.2 21.3 C 339.8 21.3 340.1 21.6 340.6 21.6 C 341.2 21.6 341.5 21.5 342.1 21.4 C 342.7 21.3 343.0 21.2 343.6 20.9 C 344.2 20.7 344.5 20.1 345.0 19.9 C 345.6 19.8 345.9 19.8 346.5 19.8 C 347.1 19.8 347.4 20.0 348.0 20.0 C 348.6 20.0 348.9 20.0 349.5 20.0 C 350.0 20.0 350.3 20.1 350.9 20.1 C 351.5 20.1 351.8 19.9 352.4 19.5 C 353.0 19.2 353.3 18.2 353.9 18.2 C 354.4 18.2 354.7 18.2 355.3 18.2 C 355.9 18.3 356.2 18.8 356.8 18.8 C 357.4 18.8 357.7 18.1 358.3 18.1 C 358.8 18.1 359.1 18.4 359.7 18.6 C 360.3 18.8 360.6 19.2 361.2 19.2 C 361.8 19.2 362.1 19.0 362.7 19.0 C 363.3 18.9 363.5 18.8 364.1 18.8 C 364.7 18.8 365.0 20.3 365.6 20.4 C 366.2 20.5 366.5 20.5 367.1 20.5 C 367.7 20.5 368.0 19.8 368.5 19.5 C 369.1 19.3 369.4 19.3 370.0 19.3 C 370.6 19.3 370.9 19.9 371.5 19.9 C 372.1 19.9 372.4 19.7 372.9 19.6 C 373.5 19.6 373.8 19.5 374.4 19.5 C 375.0 19.5 375.3 19.7 375.9 19.7 C 376.5 19.7 376.8 19.2 377.4 19.2 C 377.9 19.2 378.2 19.2 378.8 19.2 C 379.4 19.2 379.7 19.7 380.3 19.8 C 380.9 20.0 381.2 20.1 381.8 20.1 C 382.3 20.1 382.6 19.7 383.2 19.1 C 383.8 18.5 384.1 17.3 384.7 17.2 C 385.3 17.0 385.6 17.0 386.2 17.0 C 386.8 17.0 387.0 17.1 387.6 17.1 C 388.2 17.1 388.5 16.8 389.1 16.5 C 389.7 16.2 390.0 15.9 390.6 15.6 C 391.2 15.3 391.5 15.3 392.0 15.1 C 392.6 14.8 392.9 14.4 393.5 14.4 C 394.1 14.4 394.4 14.7 395.0 14.8 C 395.6 15.0 395.9 15.2 396.4 15.2 C 397.0 15.2 397.3 14.7 397.9 14.5 C 398.5 14.2 398.8 14.1 399.4 14.0 C 400.0 13.8 400.3 13.8 400.8 13.8 C 401.4 13.8 401.7 13.8 402.3 13.8 C 402.9 13.7 403.2 13.2 403.8 13.2 C 404.4 13.2 404.7 13.9 405.3 13.9 C 405.8 13.9 406.1 13.8 406.7 13.5 C 407.3 13.3 407.6 12.9 408.2 12.6 C 408.8 12.3 409.1 12.0 409.7 12.0 C 410.2 12.0 410.5 12.1 411.1 12.2 C 411.7 12.4 412.0 12.6 412.6 12.6 C 413.2 12.6 413.5 12.0 414.1 12.0 C 414.7 12.0 414.9 12.2 415.5 12.3 C 416.1 12.4 416.4 12.6 417.0 12.6 C 417.6 12.6 417.9 12.5 418.5 12.5 C 419.1 12.5 419.4 12.9 419.9 12.9 C 420.5 12.9 420.8 12.2 421.4 11.7 C 422.0 11.3 422.3 11.0 422.9 10.6 C 423.5 10.3 423.8 10.2 424.3 9.9 C 424.9 9.7 425.2 9.8 425.8 9.5 C 426.4 9.1 426.7 8.5 427.3 8.1 C 427.9 7.6 428.2 7.2 428.7 7.2 C 429.3 7.2 429.6 7.5 430.2 7.8 C 430.8 8.2 431.1 8.5 431.7 8.9 C 432.3 9.3 432.6 9.7 433.2 9.7 C 433.7 9.7 434.0 9.0 434.6 8.8 C 435.2 8.7 435.5 8.7 436.1 8.7 C 436.7 8.7 437.0 9.9 437.6 9.9 C 438.1 9.9 438.4 9.6 439.0 9.6 C 439.6 9.6 439.9 9.6 440.5 9.6 C 441.1 9.6 441.4 8.5 442.0 7.9 C 442.6 7.4 442.8 7.4 443.4 6.9 C 444.0 6.5 444.3 6.3 444.9 5.8 C 445.5 5.3 445.8 4.7 446.4 4.3 C 447.0 3.8 447.3 3.5 447.8 3.5 C 448.4 3.5 448.7 3.7 449.3 4.1 C 449.9 4.4 450.2 5.1 450.8 5.1 C 451.4 5.1 451.7 4.7 452.2 4.7 C 452.8 4.7 453.1 4.9 453.7 5.0 C 454.3 5.1 454.6 5.2 455.2 5.2 C 455.8 5.2 456.1 5.0 456.7 4.9 C 457.2 4.8 457.5 4.8 458.1 4.7 C 458.7 4.6 459.0 4.6 459.6 4.3 C 460.2 4.1 460.5 3.6 461.1 3.6 C 461.6 3.6 461.9 4.6 462.5 4.6 C 463.1 4.6 463.4 4.6 464.0 4.6 C 464.6 4.6 464.9 3.9 465.5 3.7 C 466.0 3.4 466.3 3.3 466.9 3.3 C 467.5 3.3 467.8 3.5 468.4 3.7 C 469.0 3.9 469.3 4.1 469.9 4.3 C 470.5 4.4 470.7 4.6 471.3 4.6 C 471.9 4.6 472.2 4.4 472.8 4.4 C 473.4 4.4 473.7 4.7 474.3 4.9 C 474.9 5.1 475.2 5.4 475.7 5.4 C 476.3 5.4 476.6 4.9 477.2 4.7 C 477.8 4.5 478.1 4.5 478.7 4.5 C 479.3 4.5 479.6 5.2 480.1 5.8 C 480.7 6.4 481.0 7.4 481.6 7.7 C 482.2 8.0 482.5 7.9 483.1 8.0 C 483.7 8.1 484.0 8.0 484.6 8.2 C 485.1 8.5 485.4 10.3 486.0 10.3 C 486.6 10.3 486.9 9.6 487.5 9.4 C 488.1 9.1 488.4 9.3 489.0 9.0 C 489.5 8.8 489.8 8.0 490.4 8.0 C 491.0 8.0 491.3 8.1 491.9 8.4 C 492.5 8.7 492.8 9.3 493.4 9.4 C 494.0 9.4 494.2 9.4 494.8 9.4 C 495.4 9.4 495.7 9.3 496.3 9.1 C 496.9 9.0 497.2 8.8 497.8 8.5 C 498.4 8.1 498.7 7.6 499.2 7.2 C 499.8 6.8 500.1 6.2 500.7 6.2 C 501.3 6.2 501.6 7.2 502.2 7.5 C 502.8 7.8 503.1 7.9 503.6 7.9 C 504.2 7.9 504.5 7.1 505.1 7.1 C 505.7 7.1 506.0 7.4 506.6 7.5 C 507.2 7.6 507.5 7.5 508.0 7.7 C 508.6 7.9 508.9 8.7 509.5 9.2 C 510.1 9.7 510.4 10.2 511.0 10.3 C 511.6 10.3 511.9 10.3 512.5 10.3 C 513.0 10.4 513.3 11.6 513.9 12.2 C 514.5 12.7 514.8 12.6 515.4 12.9 C 516.0 13.1 516.3 13.3 516.9 13.3 C 517.4 13.3 517.7 13.3 518.3 13.3 C 518.9 13.4 519.2 13.6 519.8 13.7 C 520.4 13.9 520.7 14.2 521.3 14.2 C 521.9 14.2 522.1 13.5 522.7 13.5 C 523.3 13.5 523.6 13.7 524.2 13.7 C 524.8 13.7 525.1 13.0 525.7 12.6 C 526.3 12.3 526.6 12.3 527.1 12.0 C 527.7 11.8 528.0 11.5 528.6 11.2 C 529.2 11.0 529.5 11.0 530.1 10.8 C 530.7 10.6 531.0 10.5 531.5 10.3 C 532.1 10.1 532.4 9.8 533.0 9.6 C 533.6 9.5 533.9 9.4 534.5 9.4 C 535.1 9.4 536 10.3 536 10.3 L 536 40 C 536 40 535.1 40 534.5 40 C 533.9 40 533.6 40 533.0 40 C 532.4 40 532.1 40 531.5 40 C 531.0 40 530.7 40 530.1 40 C 529.5 40 529.2 40 528.6 40 C 528.0 40 527.7 40 527.1 40 C 526.6 40 526.3 40 525.7 40 C 525.1 40 524.8 40 524.2 40 C 523.6 40 523.3 40 522.7 40 C 522.1 40 521.9 40 521.3 40 C 520.7 40 520.4 40 519.8 40 C 519.2 40 518.9 40 518.3 40 C 517.7 40 517.4 40 516.9 40 C 516.3 40 516.0 40 515.4 40 C 514.8 40 514.5 40 513.9 40 C 513.3 40 513.0 40 512.5 40 C 511.9 40 511.6 40 511.0 40 C 510.4 40 510.1 40 509.5 40 C 508.9 40 508.6 40 508.0 40 C 507.5 40 507.2 40 506.6 40 C 506.0 40 505.7 40 505.1 40 C 504.5 40 504.2 40 503.6 40 C 503.1 40 502.8 40 502.2 40 C 501.6 40 501.3 40 500.7 40 C 500.1 40 499.8 40 499.2 40 C 498.7 40 498.4 40 497.8 40 C 497.2 40 496.9 40 496.3 40 C 495.7 40 495.4 40 494.8 40 C 494.2 40 494.0 40 493.4 40 C 492.8 40 492.5 40 491.9 40 C 491.3 40 491.0 40 490.4 40 C 489.8 40 489.5 40 489.0 40 C 488.4 40 488.1 40 487.5 40 C 486.9 40 486.6 40 486.0 40 C 485.4 40 485.1 40 484.6 40 C 484.0 40 483.7 40 483.1 40 C 482.5 40 482.2 40 481.6 40 C 481.0 40 480.7 40 480.1 40 C 479.6 40 479.3 40 478.7 40 C 478.1 40 477.8 40 477.2 40 C 476.6 40 476.3 40 475.7 40 C 475.2 40 474.9 40 474.3 40 C 473.7 40 473.4 40 472.8 40 C 472.2 40 471.9 40 471.3 40 C 470.7 40 470.5 40 469.9 40 C 469.3 40 469.0 40 468.4 40 C 467.8 40 467.5 40 466.9 40 C 466.3 40 466.0 40 465.5 40 C 464.9 40 464.6 40 464.0 40 C 463.4 40 463.1 40 462.5 40 C 461.9 40 461.6 40 461.1 40 C 460.5 40 460.2 40 459.6 40 C 459.0 40 458.7 40 458.1 40 C 457.5 40 457.2 40 456.7 40 C 456.1 40 455.8 40 455.2 40 C 454.6 40 454.3 40 453.7 40 C 453.1 40 452.8 40 452.2 40 C 451.7 40 451.4 40 450.8 40 C 450.2 40 449.9 40 449.3 40 C 448.7 40 448.4 40 447.8 40 C 447.3 40 447.0 40 446.4 40 C 445.8 40 445.5 40 444.9 40 C 444.3 40 444.0 40 443.4 40 C 442.8 40 442.6 40 442.0 40 C 441.4 40 441.1 40 440.5 40 C 439.9 40 439.6 40 439.0 40 C 438.4 40 438.1 40 437.6 40 C 437.0 40 436.7 40 436.1 40 C 435.5 40 435.2 40 434.6 40 C 434.0 40 433.7 40 433.2 40 C 432.6 40 432.3 40 431.7 40 C 431.1 40 430.8 40 430.2 40 C 429.6 40 429.3 40 428.7 40 C 428.2 40 427.9 40 427.3 40 C 426.7 40 426.4 40 425.8 40 C 425.2 40 424.9 40 424.3 40 C 423.8 40 423.5 40 422.9 40 C 422.3 40 422.0 40 421.4 40 C 420.8 40 420.5 40 419.9 40 C 419.4 40 419.1 40 418.5 40 C 417.9 40 417.6 40 417.0 40 C 416.4 40 416.1 40 415.5 40 C 414.9 40 414.7 40 414.1 40 C 413.5 40 413.2 40 412.6 40 C 412.0 40 411.7 40 411.1 40 C 410.5 40 410.2 40 409.7 40 C 409.1 40 408.8 40 408.2 40 C 407.6 40 407.3 40 406.7 40 C 406.1 40 405.8 40 405.3 40 C 404.7 40 404.4 40 403.8 40 C 403.2 40 402.9 40 402.3 40 C 401.7 40 401.4 40 400.8 40 C 400.3 40 400.0 40 399.4 40 C 398.8 40 398.5 40 397.9 40 C 397.3 40 397.0 40 396.4 40 C 395.9 40 395.6 40 395.0 40 C 394.4 40 394.1 40 393.5 40 C 392.9 40 392.6 40 392.0 40 C 391.5 40 391.2 40 390.6 40 C 390.0 40 389.7 40 389.1 40 C 388.5 40 388.2 40 387.6 40 C 387.0 40 386.8 40 386.2 40 C 385.6 40 385.3 40 384.7 40 C 384.1 40 383.8 40 383.2 40 C 382.6 40 382.3 40 381.8 40 C 381.2 40 380.9 40 380.3 40 C 379.7 40 379.4 40 378.8 40 C 378.2 40 377.9 40 377.4 40 C 376.8 40 376.5 40 375.9 40 C 375.3 40 375.0 40 374.4 40 C 373.8 40 373.5 40 372.9 40 C 372.4 40 372.1 40 371.5 40 C 370.9 40 370.6 40 370.0 40 C 369.4 40 369.1 40 368.5 40 C 368.0 40 367.7 40 367.1 40 C 366.5 40 366.2 40 365.6 40 C 365.0 40 364.7 40 364.1 40 C 363.5 40 363.3 40 362.7 40 C 362.1 40 361.8 40 361.2 40 C 360.6 40 360.3 40 359.7 40 C 359.1 40 358.8 40 358.3 40 C 357.7 40 357.4 40 356.8 40 C 356.2 40 355.9 40 355.3 40 C 354.7 40 354.4 40 353.9 40 C 353.3 40 353.0 40 352.4 40 C 351.8 40 351.5 40 350.9 40 C 350.3 40 350.0 40 349.5 40 C 348.9 40 348.6 40 348.0 40 C 347.4 40 347.1 40 346.5 40 C 345.9 40 345.6 40 345.0 40 C 344.5 40 344.2 40 343.6 40 C 343.0 40 342.7 40 342.1 40 C 341.5 40 341.2 40 340.6 40 C 340.1 40 339.8 40 339.2 40 C 338.6 40 338.3 40 337.7 40 C 337.1 40 336.8 40 336.2 40 C 335.6 40 335.4 40 334.8 40 C 334.2 40 333.9 40 333.3 40 C 332.7 40 332.4 40 331.8 40 C 331.2 40 330.9 40 330.4 40 C 329.8 40 329.5 40 328.9 40 C 328.3 40 328.0 40 327.4 40 C 326.8 40 326.5 40 326.0 40 C 325.4 40 325.1 40 324.5 40 C 323.9 40 323.6 40 323.0 40 C 322.4 40 322.1 40 321.5 40 C 321.0 40 320.7 40 320.1 40 C 319.5 40 319.2 40 318.6 40 C 318.0 40 317.7 40 317.1 40 C 316.6 40 316.3 40 315.7 40 C 315.1 40 314.8 40 314.2 40 C 313.6 40 313.3 40 312.7 40 C 312.2 40 311.9 40 311.3 40 C 310.7 40 310.4 40 309.8 40 C 309.2 40 308.9 40 308.3 40 C 307.7 40 307.5 40 306.9 40 C 306.3 40 306.0 40 305.4 40 C 304.8 40 304.5 40 303.9 40 C 303.3 40 303.0 40 302.5 40 C 301.9 40 301.6 40 301.0 40 C 300.4 40 300.1 40 299.5 40 C 298.9 40 298.6 40 298.1 40 C 297.5 40 297.2 40 296.6 40 C 296.0 40 295.7 40 295.1 40 C 294.5 40 294.2 40 293.6 40 C 293.1 40 292.8 40 292.2 40 C 291.6 40 291.3 40 290.7 40 C 290.1 40 289.8 40 289.2 40 C 288.7 40 288.4 40 287.8 40 C 287.2 40 286.9 40 286.3 40 C 285.7 40 285.4 40 284.8 40 C 284.3 40 284.0 40 283.4 40 C 282.8 40 282.5 40 281.9 40 C 281.3 40 281.0 40 280.4 40 C 279.8 40 279.6 40 279.0 40 C 278.4 40 278.1 40 277.5 40 C 276.9 40 276.6 40 276.0 40 C 275.4 40 275.1 40 274.6 40 C 274.0 40 273.7 40 273.1 40 C 272.5 40 272.2 40 271.6 40 C 271.0 40 270.7 40 270.2 40 C 269.6 40 269.3 40 268.7 40 C 268.1 40 267.8 40 267.2 40 C 266.6 40 266.3 40 265.7 40 C 265.2 40 264.9 40 264.3 40 C 263.7 40 263.4 40 262.8 40 C 262.2 40 261.9 40 261.3 40 C 260.8 40 260.5 40 259.9 40 C 259.3 40 259.0 40 258.4 40 C 257.8 40 257.5 40 256.9 40 C 256.3 40 256.1 40 255.5 40 C 254.9 40 254.6 40 254.0 40 C 253.4 40 253.1 40 252.5 40 C 251.9 40 251.6 40 251.1 40 C 250.5 40 250.2 40 249.6 40 C 249.0 40 248.7 40 248.1 40 C 247.5 40 247.2 40 246.7 40 C 246.1 40 245.8 40 245.2 40 C 244.6 40 244.3 40 243.7 40 C 243.1 40 242.8 40 242.3 40 C 241.7 40 241.4 40 240.8 40 C 240.2 40 239.9 40 239.3 40 C 238.7 40 238.4 40 237.8 40 C 237.3 40 237.0 40 236.4 40 C 235.8 40 235.5 40 234.9 40 C 234.3 40 234.0 40 233.4 40 C 232.9 40 232.6 40 232.0 40 C 231.4 40 231.1 40 230.5 40 C 229.9 40 229.6 40 229.0 40 C 228.4 40 228.2 40 227.6 40 C 227.0 40 226.7 40 226.1 40 C 225.5 40 225.2 40 224.6 40 C 224.0 40 223.7 40 223.2 40 C 222.6 40 222.3 40 221.7 40 C 221.1 40 220.8 40 220.2 40 C 219.6 40 219.3 40 218.8 40 C 218.2 40 217.9 40 217.3 40 C 216.7 40 216.4 40 215.8 40 C 215.2 40 214.9 40 214.3 40 C 213.8 40 213.5 40 212.9 40 C 212.3 40 212.0 40 211.4 40 C 210.8 40 210.5 40 209.9 40 C 209.4 40 209.1 40 208.5 40 C 207.9 40 207.6 40 207.0 40 C 206.4 40 206.1 40 205.5 40 C 205.0 40 204.7 40 204.1 40 C 203.5 40 203.2 40 202.6 40 C 202.0 40 201.7 40 201.1 40 C 200.5 40 200.3 40 199.7 40 C 199.1 40 198.8 40 198.2 40 C 197.6 40 197.3 40 196.7 40 C 196.1 40 195.8 40 195.3 40 C 194.7 40 194.4 40 193.8 40 C 193.2 40 192.9 40 192.3 40 C 191.7 40 191.4 40 190.9 40 C 190.3 40 190.0 40 189.4 40 C 188.8 40 188.5 40 187.9 40 C 187.3 40 187.0 40 186.4 40 C 185.9 40 185.6 40 185.0 40 C 184.4 40 184.1 40 183.5 40 C 182.9 40 182.6 40 182.0 40 C 181.5 40 181.2 40 180.6 40 C 180.0 40 179.7 40 179.1 40 C 178.5 40 178.2 40 177.6 40 C 177.1 40 176.8 40 176.2 40 C 175.6 40 175.3 40 174.7 40 C 174.1 40 173.8 40 173.2 40 C 172.6 40 172.4 40 171.8 40 C 171.2 40 170.9 40 170.3 40 C 169.7 40 169.4 40 168.8 40 C 168.2 40 167.9 40 167.4 40 C 166.8 40 166.5 40 165.9 40 C 165.3 40 165.0 40 164.4 40 C 163.8 40 163.5 40 163.0 40 C 162.4 40 162.1 40 161.5 40 C 160.9 40 160.6 40 160.0 40 C 159.4 40 159.1 40 158.5 40 C 158.0 40 157.7 40 157.1 40 C 156.5 40 156.2 40 155.6 40 C 155.0 40 154.7 40 154.1 40 C 153.6 40 153.3 40 152.7 40 C 152.1 40 151.8 40 151.2 40 C 150.6 40 150.3 40 149.7 40 C 149.1 40 148.9 40 148.3 40 C 147.7 40 147.4 40 146.8 40 C 146.2 40 145.9 40 145.3 40 C 144.7 40 144.4 40 143.9 40 C 143.3 40 143.0 40 142.4 40 C 141.8 40 141.5 40 140.9 40 C 140.3 40 140.0 40 139.5 40 C 138.9 40 138.6 40 138.0 40 C 137.4 40 137.1 40 136.5 40 C 135.9 40 135.6 40 135.1 40 C 134.5 40 134.2 40 133.6 40 C 133.0 40 132.7 40 132.1 40 C 131.5 40 131.2 40 130.6 40 C 130.1 40 129.8 40 129.2 40 C 128.6 40 128.3 40 127.7 40 C 127.1 40 126.8 40 126.2 40 C 125.7 40 125.4 40 124.8 40 C 124.2 40 123.9 40 123.3 40 C 122.7 40 122.4 40 121.8 40 C 121.2 40 121.0 40 120.4 40 C 119.8 40 119.5 40 118.9 40 C 118.3 40 118.0 40 117.4 40 C 116.8 40 116.5 40 116.0 40 C 115.4 40 115.1 40 114.5 40 C 113.9 40 113.6 40 113.0 40 C 112.4 40 112.1 40 111.6 40 C 111.0 40 110.7 40 110.1 40 C 109.5 40 109.2 40 108.6 40 C 108.0 40 107.7 40 107.1 40 C 106.6 40 106.3 40 105.7 40 C 105.1 40 104.8 40 104.2 40 C 103.6 40 103.3 40 102.7 40 C 102.2 40 101.9 40 101.3 40 C 100.7 40 100.4 40 99.8 40 C 99.2 40 98.9 40 98.3 40 C 97.8 40 97.5 40 96.9 40 C 96.3 40 96.0 40 95.4 40 C 94.8 40 94.5 40 93.9 40 C 93.3 40 93.1 40 92.5 40 C 91.9 40 91.6 40 91.0 40 C 90.4 40 90.1 40 89.5 40 C 88.9 40 88.6 40 88.1 40 C 87.5 40 87.2 40 86.6 40 C 86.0 40 85.7 40 85.1 40 C 84.5 40 84.2 40 83.7 40 C 83.1 40 82.8 40 82.2 40 C 81.6 40 81.3 40 80.7 40 C 80.1 40 79.8 40 79.2 40 C 78.7 40 78.4 40 77.8 40 C 77.2 40 76.9 40 76.3 40 C 75.7 40 75.4 40 74.8 40 C 74.3 40 74.0 40 73.4 40 C 72.8 40 72.5 40 71.9 40 C 71.3 40 71.0 40 70.4 40 C 69.9 40 69.6 40 69.0 40 C 68.4 40 68.1 40 67.5 40 C 66.9 40 66.6 40 66.0 40 C 65.4 40 65.2 40 64.6 40 C 64.0 40 63.7 40 63.1 40 C 62.5 40 62.2 40 61.6 40 C 61.0 40 60.7 40 60.2 40 C 59.6 40 59.3 40 58.7 40 C 58.1 40 57.8 40 57.2 40 C 56.6 40 56.3 40 55.8 40 C 55.2 40 54.9 40 54.3 40 C 53.7 40 53.4 40 52.8 40 C 52.2 40 51.9 40 51.3 40 C 50.8 40 50.5 40 49.9 40 C 49.3 40 49.0 40 48.4 40 C 47.8 40 47.5 40 46.9 40 C 46.4 40 46.1 40 45.5 40 C 44.9 40 44.6 40 44.0 40 C 43.4 40 43.1 40 42.5 40 C 41.9 40 41.7 40 41.1 40 C 40.5 40 40.2 40 39.6 40 C 39.0 40 38.7 40 38.1 40 C 37.5 40 37.2 40 36.7 40 C 36.1 40 35.8 40 35.2 40 C 34.6 40 34.3 40 33.7 40 C 33.1 40 32.8 40 32.3 40 C 31.7 40 31.4 40 30.8 40 C 30.2 40 29.9 40 29.3 40 C 28.7 40 28.4 40 27.9 40 C 27.3 40 27.0 40 26.4 40 C 25.8 40 25.5 40 24.9 40 C 24.3 40 24.0 40 23.4 40 C 22.9 40 22.6 40 22.0 40 C 21.4 40 21.1 40 20.5 40 C 19.9 40 19.6 40 19.0 40 C 18.5 40 18.2 40 17.6 40 C 17.0 40 16.7 40 16.1 40 C 15.5 40 15.2 40 14.6 40 C 14.0 40 13.8 40 13.2 40 C 12.6 40 12.3 40 11.7 40 C 11.1 40 10.8 40 10.2 40 C 9.6 40 9.3 40 8.8 40 C 8.2 40 7.9 40 7.3 40 C 6.7 40 6.4 40 5.8 40 C 5.2 40 4.9 40 4.4 40 C 3.8 40 3.5 40 2.9 40 C 2.3 40 2.0 40 1.4 40 C 0.8 40 0 40 0 40" fill-opacity="0.0">
			</path>
			<path fill="none" d="M 0 36.6 C 0 36.6 0.8 36.6 1.4 36.6 C 2.0 36.6 2.3 36.3 2.9 36.3 C 3.5 36.3 3.8 36.6 4.4 36.6 C 4.9 36.6 5.2 36.6 5.8 36.6 C 6.4 36.5 6.7 36.5 7.3 36.3 C 7.9 36.2 8.2 36.0 8.8 36.0 C 9.3 35.9 9.6 35.9 10.2 35.9 C 10.8 35.9 11.1 36.1 11.7 36.1 C 12.3 36.1 12.6 36.1 13.2 36.1 C 13.8 36.0 14.0 35.9 14.6 35.9 C 15.2 35.9 15.5 36.1 16.1 36.1 C 16.7 36.1 17.0 35.9 17.6 35.8 C 18.2 35.6 18.5 35.4 19.0 35.3 C 19.6 35.2 19.9 35.2 20.5 35.1 C 21.1 35.0 21.4 34.9 22.0 34.9 C 22.6 34.9 22.9 34.9 23.4 34.9 C 24.0 34.9 24.3 35.0 24.9 35.0 C 25.5 35.0 25.8 34.7 26.4 34.7 C 27.0 34.7 27.3 34.8 27.9 34.8 C 28.4 34.8 28.7 34.7 29.3 34.6 C 29.9 34.5 30.2 34.5 30.8 34.4 C 31.4 34.3 31.7 34.1 32.3 34.1 C 32.8 34.1 33.1 34.1 33.7 34.1 C 34.3 34.1 34.6 34.0 35.2 33.9 C 35.8 33.9 36.1 33.9 36.7 33.8 C 37.2 33.8 37.5 33.5 38.1 33.5 C 38.7 33.5 39.0 33.5 39.6 33.5 C 40.2 33.5 40.5 33.8 41.1 33.8 C 41.7 33.8 41.9 33.5 42.5 33.4 C 43.1 33.3 43.4 33.3 44.0 33.3 C 44.6 33.3 44.9 33.3 45.5 33.3 C 46.1 33.4 46.4 33.4 46.9 33.5 C 47.5 33.5 47.8 33.7 48.4 33.7 C 49.0 33.7 49.3 33.7 49.9 33.7 C 50.5 33.7 50.8 33.6 51.3 33.4 C 51.9 33.3 52.2 33.0 52.8 33.0 C 53.4 32.9 53.7 32.9 54.3 32.9 C 54.9 32.9 55.2 33.0 55.8 33.0 C 56.3 33.0 56.6 33.0 57.2 33.0 C 57.8 33.0 58.1 33.1 58.7 33.3 C 59.3 33.4 59.6 33.7 60.2 33.7 C 60.7 33.7 61.0 33.7 61.6 33.6 C 62.2 33.5 62.5 33.4 63.1 33.4 C 63.7 33.4 64.0 33.5 64.6 33.5 C 65.2 33.5 65.4 33.2 66.0 33.0 C 66.6 32.9 66.9 32.6 67.5 32.5 C 68.1 32.4 68.4 32.5 69.0 32.4 C 69.6 32.4 69.9 32.4 70.4 32.3 C 71.0 32.2 71.3 32.1 71.9 32.0 C 72.5 31.9 72.8 31.9 73.4 31.8 C 74.0 31.7 74.3 31.7 74.8 31.6 C 75.4 31.4 75.7 31.3 76.3 31.1 C 76.9 30.9 77.2 30.7 77.8 30.7 C 78.4 30.7 78.7 31.1 79.2 31.1 C 79.8 31.1 80.1 31.1 80.7 31.1 C 81.3 31.1 81.6 31.5 82.2 31.5 C 82.8 31.5 83.1 31.5 83.7 31.4 C 84.2 31.3 84.5 30.9 85.1 30.9 C 85.7 30.9 86.0 31.3 86.6 31.3 C 87.2 31.3 87.5 31.0 88.1 30.8 C 88.6 30.6 88.9 30.4 89.5 30.4 C 90.1 30.4 90.4 30.9 91.0 31.0 C 91.6 31.1 91.9 31.1 92.5 31.1 C 93.1 31.2 93.3 31.2 93.9 31.2 C 94.5 31.2 94.8 31.2 95.4 31.2 C 96.0 31.1 96.3 31.0 96.9 30.9 C 97.5 30.9 97.8 30.9 98.3 30.9 C 98.9 30.9 99.2 31.1 99.8 31.1 C 100.4 31.2 100.7 31.2 101.3 31.3 C 101.9 31.4 102.2 31.6 102.7 31.6 C 103.3 31.6 103.6 31.6 104.2 31.5 C 104.8 31.3 105.1 31.1 105.7 30.9 C 106.3 30.7 106.6 30.7 107.1 30.5 C 107.7 30.3 108.0 30.1 108.6 29.9 C 109.2 29.8 109.5 29.7 110.1 29.7 C 110.7 29.7 111.0 29.8 111.6 29.8 C 112.1 29.8 112.4 29.5 113.0 29.3 C 113.6 29.1 113.9 28.8 114.5 28.8 C 115.1 28.8 115.4 29.0 116.0 29.0 C 116.5 29.0 116.8 28.9 117.4 28.8 C 118.0 28.7 118.3 28.5 118.9 28.5 C 119.5 28.5 119.8 29.0 120.4 29.0 C 121.0 29.0 121.2 28.9 121.8 28.8 C 122.4 28.7 122.7 28.7 123.3 28.6 C 123.9 28.5 124.2 28.4 124.8 28.4 C 125.4 28.4 125.7 28.4 126.2 28.4 C 126.8 28.3 127.1 28.3 127.7 28.3 C 128.3 28.3 128.6 28.3 129.2 28.2 C 129.8 28.2 130.1 28.1 130.6 28.0 C 131.2 27.8 131.5 27.4 132.1 27.4 C 132.7 27.4 133.0 27.7 133.6 27.7 C 134.2 27.7 134.5 27.7 135.1 27.6 C 135.6 27.6 135.9 27.6 136.5 27.5 C 137.1 27.4 137.4 27.2 138.0 27.0 C 138.6 26.9 138.9 26.8 139.5 26.8 C 140.0 26.8 140.3 27.5 140.9 27.5 C 141.5 27.5 141.8 27.0 142.4 27.0 C 143.0 27.0 143.3 27.0 143.9 27.0 C 144.4 27.1 144.7 27.5 145.3 27.5 C 145.9 27.5 146.2 27.5 146.8 27.5 C 147.4 27.5 147.7 27.2 148.3 27.2 C 148.9 27.2 149.1 27.5 149.7 27.6 C 150.3 27.7 150.6 27.9 151.2 27.9 C 151.8 27.9 152.1 27.8 152.7 27.6 C 153.3 27.5 153.6 27.2 154.1 27.2 C 154.7 27.2 155.0 27.2 155.6 27.2 C 156.2 27.2 156.5 27.2 157.1 27.3 C 157.7 27.3 158.0 27.6 158.5 27.7 C 159.1 27.8 159.4 27.8 160.0 27.8 C 160.6 27.8 160.9 27.4 161.5 27.4 C 162.1 27.4 162.4 27.6 163.0 27.8 C 163.5 27.9 163.8 28.0 164.4 28.1 C 165.0 28.2 165.3 28.3 165.9 28.3 C 166.5 28.3 166.8 28.1 167.4 27.9 C 167.9 27.6 168.2 27.4 168.8 27.2 C 169.4 27.0 169.7 27.1 170.3 26.8 C 170.9 26.6 171.2 26.1 171.8 25.8 C 172.4 25.5 172.6 25.3 173.2 25.3 C 173.8 25.3 174.1 25.3 174.7 25.5 C 175.3 25.6 175.6 26.4 176.2 26.4 C 176.8 26.4 177.1 26.1 177.6 26.1 C 178.2 26.1 178.5 26.5 179.1 26.5 C 179.7 26.5 180.0 25.7 180.6 25.7 C 181.2 25.7 181.5 25.9 182.0 25.9 C 182.6 25.9 182.9 25.9 183.5 25.7 C 184.1 25.4 184.4 24.8 185.0 24.8 C 185.6 24.8 185.9 24.8 186.4 25.1 C 187.0 25.4 187.3 26.2 187.9 26.2 C 188.5 26.2 188.8 25.4 189.4 25.1 C 190.0 24.8 190.3 24.7 190.9 24.7 C 191.4 24.7 191.7 24.9 192.3 25.0 C 192.9 25.0 193.2 25.0 193.8 25.1 C 194.4 25.1 194.7 25.1 195.3 25.2 C 195.8 25.4 196.1 25.6 196.7 25.8 C 197.3 26.0 197.6 26.3 198.2 26.3 C 198.8 26.3 199.1 26.1 199.7 25.9 C 200.3 25.7 200.5 25.4 201.1 25.4 C 201.7 25.4 202.0 25.6 202.6 25.6 C 203.2 25.6 203.5 25.5 204.1 25.4 C 204.7 25.2 205.0 25.1 205.5 24.9 C 206.1 24.7 206.4 24.7 207.0 24.5 C 207.6 24.4 207.9 24.2 208.5 24.1 C 209.1 24.0 209.4 24.1 209.9 23.9 C 210.5 23.8 210.8 23.7 211.4 23.4 C 212.0 23.2 212.3 23.1 212.9 22.8 C 213.5 22.5 213.8 22.4 214.3 22.0 C 214.9 21.6 215.2 21.1 215.8 20.8 C 216.4 20.4 216.7 20.6 217.3 20.3 C 217.9 20.0 218.2 19.4 218.8 19.4 C 219.3 19.3 219.6 19.4 220.2 19.3 C 220.8 19.3 221.1 18.3 221.7 17.8 C 222.3 17.3 222.6 17.0 223.2 16.7 C 223.7 16.4 224.0 16.5 224.6 16.3 C 225.2 16.2 225.5 16.0 226.1 15.9 C 226.7 15.7 227.0 15.4 227.6 15.4 C 228.2 15.4 228.4 16.5 229.0 16.8 C 229.6 17.0 229.9 16.9 230.5 17.0 C 231.1 17.1 231.4 17.1 232.0 17.3 C 232.6 17.5 232.9 17.8 233.4 18.1 C 234.0 18.4 234.3 18.7 234.9 18.7 C 235.5 18.7 235.8 18.5 236.4 18.4 C 237.0 18.2 237.3 17.9 237.8 17.9 C 238.4 17.9 238.7 18.0 239.3 18.0 C 239.9 18.0 240.2 17.8 240.8 17.7 C 241.4 17.6 241.7 17.5 242.3 17.5 C 242.8 17.5 243.1 17.8 243.7 17.8 C 244.3 17.8 244.6 17.1 245.2 16.8 C 245.8 16.6 246.1 16.5 246.7 16.4 C 247.2 16.3 247.5 16.3 248.1 16.3 C 248.7 16.3 249.0 17.3 249.6 17.3 C 250.2 17.3 250.5 16.8 251.1 16.5 C 251.6 16.2 251.9 16.1 252.5 15.9 C 253.1 15.7 253.4 15.7 254.0 15.4 C 254.6 15.0 254.9 14.5 255.5 14.2 C 256.1 13.8 256.3 13.6 256.9 13.6 C 257.5 13.6 257.8 13.6 258.4 13.6 C 259.0 13.6 259.3 13.6 259.9 13.5 C 260.5 13.4 260.8 12.5 261.3 12.5 C 261.9 12.5 262.2 13.2 262.8 13.5 C 263.4 13.7 263.7 13.6 264.3 13.9 C 264.9 14.2 265.2 14.9 265.7 15.0 C 266.3 15.1 266.6 15.0 267.2 15.1 C 267.8 15.3 268.1 15.6 268.7 15.9 C 269.3 16.3 269.6 16.4 270.2 16.9 C 270.7 17.3 271.0 17.5 271.6 18.0 C 272.2 18.4 272.5 19.2 273.1 19.2 C 273.7 19.2 274.0 18.7 274.6 18.3 C 275.1 18.0 275.4 17.4 276.0 17.4 C 276.6 17.4 276.9 17.7 277.5 18.2 C 278.1 18.6 278.4 19.2 279.0 19.6 C 279.6 19.9 279.8 19.9 280.4 20.0 C 281.0 20.1 281.3 20.2 281.9 20.2 C 282.5 20.2 282.8 19.3 283.4 19.3 C 284.0 19.3 284.3 19.6 284.8 19.9 C 285.4 20.2 285.7 20.5 286.3 20.9 C 286.9 21.2 287.2 21.3 287.8 21.7 C 288.4 22.1 288.7 22.8 289.2 22.8 C 289.8 22.8 290.1 22.8 290.7 22.6 C 291.3 22.5 291.6 22.1 292.2 22.1 C 292.8 22.1 293.1 22.6 293.6 22.8 C 294.2 23.1 294.5 23.0 295.1 23.2 C 295.7 23.4 296.0 23.9 296.6 23.9 C 297.2 23.9 297.5 23.9 298.1 23.7 C 298.6 23.5 298.9 23.1 299.5 22.9 C 300.1 22.7 300.4 22.6 301.0 22.6 C 301.6 22.6 301.9 23.6 302.5 23.7 C 303.0 23.8 303.3 23.7 303.9 23.8 C 304.5 23.9 304.8 24.3 305.4 24.6 C 306.0 24.8 306.3 25.0 306.9 25.0 C 307.5 25.0 307.7 23.9 308.3 23.5 C 308.9 23.0 309.2 22.6 309.8 22.6 C 310.4 22.6 310.7 23.2 311.3 23.3 C 311.9 23.5 312.2 23.5 312.7 23.5 C 313.3 23.5 313.6 23.1 314.2 23.1 C 314.8 23.1 315.1 23.1 315.7 23.2 C 316.3 23.2 316.6 23.3 317.1 23.5 C 317.7 23.7 318.0 23.7 318.6 24.0 C 319.2 24.3 319.5 25.0 320.1 25.0 C 320.7 25.0 321.0 24.7 321.5 24.5 C 322.1 24.4 322.4 24.3 323.0 24.2 C 323.6 24.1 323.9 24.0 324.5 23.8 C 325.1 23.7 325.4 23.8 326.0 23.7 C 326.5 23.5 326.8 23.2 327.4 22.9 C 328.0 22.7 328.3 22.7 328.9 22.4 C 329.5 22.1 329.8 21.9 330.4 21.5 C 330.9 21.2 331.2 20.7 331.8 20.7 C 332.4 20.7 332.7 21.2 333.3 21.2 C 333.9 21.2 334.2 21.0 334.8 21.0 C 335.4 21.0 335.6 21.3 336.2 21.6 C 336.8 21.9 337.1 22.4 337.7 22.4 C 338.3 22.4 338.6 21.3 339.2 21.3 C 339.8 21.3 340.1 21.6 340.6 21.6 C 341.2 21.6 341.5 21.5 342.1 21.4 C 342.7 21.3 343.0 21.2 343.6 20.9 C 344.2 20.7 344.5 20.1 345.0 19.9 C 345.6 19.8 345.9 19.8 346.5 19.8 C 347.1 19.8 347.4 20.0 348.0 20.0 C 348.6 20.0 348.9 20.0 349.5 20.0 C 350.0 20.0 350.3 20.1 350.9 20.1 C 351.5 20.1 351.8 19.9 352.4 19.5 C 353.0 19.2 353.3 18.2 353.9 18.2 C 354.4 18.2 354.7 18.2 355.3 18.2 C 355.9 18.3 356.2 18.8 356.8 18.8 C 357.4 18.8 357.7 18.1 358.3 18.1 C 358.8 18.1 359.1 18.4 359.7 18.6 C 360.3 18.8 360.6 19.2 361.2 19.2 C 361.8 19.2 362.1 19.0 362.7 19.0 C 363.3 18.9 363.5 18.8 364.1 18.8 C 364.7 18.8 365.0 20.3 365.6 20.4 C 366.2 20.5 366.5 20.5 367.1 20.5 C 367.7 20.5 368.0 19.8 368.5 19.5 C 369.1 19.3 369.4 19.3 370.0 19.3 C 370.6 19.3 370.9 19.9 371.5 19.9 C 372.1 19.9 372.4 19.7 372.9 19.6 C 373.5 19.6 373.8 19.5 374.4 19.5 C 375.0 19.5 375.3 19.7 375.9 19.7 C 376.5 19.7 376.8 19.2 377.4 19.2 C 377.9 19.2 378.2 19.2 378.8 19.2 C 379.4 19.2 379.7 19.7 380.3 19.8 C 380.9 20.0 381.2 20.1 381.8 20.1 C 382.3 20.1 382.6 19.7 383.2 19.1 C 383.8 18.5 384.1 17.3 384.7 17.2 C 385.3 17.0 385.6 17.0 386.2 17.0 C 386.8 17.0 387.0 17.1 387.6 17.1 C 388.2 17.1 388.5 16.8 389.1 16.5 C 389.7 16.2 390.0 15.9 390.6 15.6 C 391.2 15.3 391.5 15.3 392.0 15.1 C 392.6 14.8 392.9 14.4 393.5 14.4 C 394.1 14.4 394.4 14.7 395.0 14.8 C 395.6 15.0 395.9 15.2 396.4 15.2 C 397.0 15.2 397.3 14.7 397.9 14.5 C 398.5 14.2 398.8 14.1 399.4 14.0 C 400.0 13.8 400.3 13.8 400.8 13.8 C 401.4 13.8 401.7 13.8 402.3 13.8 C 402.9 13.7 403.2 13.2 403.8 13.2 C 404.4 13.2 404.7 13.9 405.3 13.9 C 405.8 13.9 406.1 13.8 406.7 13.5 C 407.3 13.3 407.6 12.9 408.2 12.6 C 408.8 12.3 409.1 12.0 409.7 12.0 C 410.2 12.0 410.5 12.1 411.1 12.2 C 411.7 12.4 412.0 12.6 412.6 12.6 C 413.2 12.6 413.5 12.0 414.1 12.0 C 414.7 12.0 414.9 12.2 415.5 12.3 C 416.1 12.4 416.4 12.6 417.0 12.6 C 417.6 12.6 417.9 12.5 418.5 12.5 C 419.1 12.5 419.4 12.9 419.9 12.9 C 420.5 12.9 420.8 12.2 421.4 11.7 C 422.0 11.3 422.3 11.0 422.9 10.6 C 423.5 10.3 423.8 10.2 424.3 9.9 C 424.9 9.7 425.2 9.8 425.8 9.5 C 426.4 9.1 426.7 8.5 427.3 8.1 C 427.9 7.6 428.2 7.2 428.7 7.2 C 429.3 7.2 429.6 7.5 430.2 7.8 C 430.8 8.2 431.1 8.5 431.7 8.9 C 432.3 9.3 432.6 9.7 433.2 9.7 C 433.7 9.7 434.0 9.0 434.6 8.8 C 435.2 8.7 435.5 8.7 436.1 8.7 C 436.7 8.7 437.0 9.9 437.6 9.9 C 438.1 9.9 438.4 9.6 439.0 9.6 C 439.6 9.6 439.9 9.6 440.5 9.6 C 441.1 9.6 441.4 8.5 442.0 7.9 C 442.6 7.4 442.8 7.4 443.4 6.9 C 444.0 6.5 444.3 6.3 444.9 5.8 C 445.5 5.3 445.8 4.7 446.4 4.3 C 447.0 3.8 447.3 3.5 447.8 3.5 C 448.4 3.5 448.7 3.7 449.3 4.1 C 449.9 4.4 450.2 5.1 450.8 5.1 C 451.4 5.1 451.7 4.7 452.2 4.7 C 452.8 4.7 453.1 4.9 453.7 5.0 C 454.3 5.1 454.6 5.2 455.2 5.2 C 455.8 5.2 456.1 5.0 456.7 4.9 C 457.2 4.8 457.5 4.8 458.1 4.7 C 458.7 4.6 459.0 4.6 459.6 4.3 C 460.2 4.1 460.5 3.6 461.1 3.6 C 461.6 3.6 461.9 4.6 462.5 4.6 C 463.1 4.6 463.4 4.6 464.0 4.6 C 464.6 4.6 464.9 3.9 465.5 3.7 C 466.0 3.4 466.3 3.3 466.9 3.3 C 467.5 3.3 467.8 3.5 468.4 3.7 C 469.0 3.9 469.3 4.1 469.9 4.3 C 470.5 4.4 470.7 4.6 471.3 4.6 C 471.9 4.6 472.2 4.4 472.8 4.4 C 473.4 4.4 473.7 4.7 474.3 4.9 C 474.9 5.1 475.2 5.4 475.7 5.4 C 476.3 5.4 476.6 4.9 477.2 4.7 C 477.8 4.5 478.1 4.5 478.7 4.5 C 479.3 4.5 479.6 5.2 480.1 5.8 C 480.7 6.4 481.0 7.4 481.6 7.7 C 482.2 8.0 482.5 7.9 483.1 8.0 C 483.7 8.1 484.0 8.0 484.6 8.2 C 485.1 8.5 485.4 10.3 486.0 10.3 C 486.6 10.3 486.9 9.6 487.5 9.4 C 488.1 9.1 488.4 9.3 489.0 9.0 C 489.5 8.8 489.8 8.0 490.4 8.0 C 491.0 8.0 491.3 8.1 491.9 8.4 C 492.5 8.7 492.8 9.3 493.4 9.4 C 494.0 9.4 494.2 9.4 494.8 9.4 C 495.4 9.4 495.7 9.3 496.3 9.1 C 496.9 9.0 497.2 8.8 497.8 8.5 C 498.4 8.1 498.7 7.6 499.2 7.2 C 499.8 6.8 500.1 6.2 500.7 6.2 C 501.3 6.2 501.6 7.2 502.2 7.5 C 502.8 7.8 503.1 7.9 503.6 7.9 C 504.2 7.9 504.5 7.1 505.1 7.1 C 505.7 7.1 506.0 7.4 506.6 7.5 C 507.2 7.6 507.5 7.5 508.0 7.7 C 508.6 7.9 508.9 8.7 509.5 9.2 C 510.1 9.7 510.4 10.2 511.0 10.3 C 511.6 10.3 511.9 10.3 512.5 10.3 C 513.0 10.4 513.3 11.6 513.9 12.2 C 514.5 12.7 514.8 12.6 515.4 12.9 C 516.0 13.1 516.3 13.3 516.9 13.3 C 517.4 13.3 517.7 13.3 518.3 13.3 C 518.9 13.4 519.2 13.6 519.8 13.7 C 520.4 13.9 520.7 14.2 521.3 14.2 C 521.9 14.2 522.1 13.5 522.7 13.5 C 523.3 13.5 523.6 13.7 524.2 13.7 C 524.8 13.7 525.1 13.0 525.7 12.6 C 526.3 12.3 526.6 12.3 527.1 12.0 C 527.7 11.8 528.0 11.5 528.6 11.2 C 529.2 11.0 529.5 11.0 530.1 10.8 C 530.7 10.6 531.0 10.5 531.5 10.3 C 532.1 10.1 532.4 9.8 533.0 9.6 C 533.6 9.5 533.9 9.4 534.5 9.4 C 535.1 9.4 536 10.3 536 10.3" stroke="#4572A7" stroke-width="1" stroke-linejoin="round" stroke-linecap="round">
			</path>
		</g>
		<g class="highcharts-markers highcharts-series-1" transform="translate(24,331) scale(1 1)" clip-path="none">
		</g>
	</g>
	<g class="highcharts-navigator">
		<rect fill="rgb(128,179,236)" fill-opacity="0.3" style="cursor:ew-resize;" x="541" y="331" width="19" height="40">
		</rect>
		<path fill="none" stroke="#b2b1b6" stroke-width="1" d="M 10 331.5 L 540.5 331.5 540.5 385.5 L 559.5 385.5 L 559.5 331.5 574 331.5 M 541.5 331.5 L 559.5 331.5">
		</path>
	</g>
	<text x="292" text-anchor="middle" class="highcharts-title" style="color:#333333;font-size:16px;fill:#333333;width:520px;" y="22">
		<tspan>AAPL Stock Price
		</tspan>
	</text>
	<g class="highcharts-axis-labels highcharts-xaxis-labels">
		<text x="28.5" style="color:#606060;cursor:default;font-size:11px;fill:#606060;width:84px;text-overflow:clip;" text-anchor="middle" transform="translate(0,0)" y="304" opacity="1">
			<tspan>18. Jan
			</tspan>
		</text>
		<text x="93.2" style="color:#606060;cursor:default;font-size:11px;fill:#606060;width:84px;text-overflow:clip;" text-anchor="middle" transform="translate(0,0)" y="304" opacity="1">
			<tspan> 1. Feb
			</tspan>
		</text>
		<text x="173.8" style="color:#606060;cursor:default;font-size:11px;fill:#606060;width:84px;text-overflow:clip;" text-anchor="middle" transform="translate(0,0)" y="304" opacity="1">
			<tspan>15. Feb
			</tspan>
		</text>
		<text x="254.4" style="color:#606060;cursor:default;font-size:11px;fill:#606060;width:84px;text-overflow:clip;" text-anchor="middle" transform="translate(0,0)" y="304" opacity="1">
			<tspan>29. Feb
			</tspan>
		</text>
		<text x="335.0" style="color:#606060;cursor:default;font-size:11px;fill:#606060;width:84px;text-overflow:clip;" text-anchor="middle" transform="translate(0,0)" y="304" opacity="1">
			<tspan>14. Mar
			</tspan>
		</text>
		<text x="415.6" style="color:#606060;cursor:default;font-size:11px;fill:#606060;width:84px;text-overflow:clip;" text-anchor="middle" transform="translate(0,0)" y="304" opacity="1">
			<tspan>28. Mar
			</tspan>
		</text>
		<text x="496.2" style="color:#606060;cursor:default;font-size:11px;fill:#606060;width:84px;text-overflow:clip;" text-anchor="middle" transform="translate(0,0)" y="304" opacity="1">
			<tspan>11. Apr
			</tspan>
		</text>
	</g>
	<g class="highcharts-axis-labels highcharts-xaxis-labels">
		<text x="80.0" style="color:#888;cursor:default;font-size:11px;fill:#888;width:178px;text-overflow:clip;" text-anchor="start" transform="translate(0,0)" y="367" opacity="1">2010
		</text>
		<text x="233.1" style="color:#888;cursor:default;font-size:11px;fill:#888;width:178px;text-overflow:clip;" text-anchor="start" transform="translate(0,0)" y="367" opacity="1">2012
		</text>
		<text x="386.5" style="color:#888;cursor:default;font-size:11px;fill:#888;width:178px;text-overflow:clip;" text-anchor="start" transform="translate(0,0)" y="367" opacity="1">2014
		</text>
		<text x="539.6" style="color:#888;cursor:default;font-size:11px;fill:#888;width:178px;text-overflow:clip;" text-anchor="start" transform="translate(0,0)" y="367" opacity="1">2016
		</text>
	</g>
	<g class="highcharts-axis-labels highcharts-yaxis-labels">
		<text x="574" style="color:#606060;cursor:default;font-size:11px;fill:#606060;width:183px;text-overflow:clip;" text-anchor="end" transform="translate(0,0)" y="283" opacity="1">90
		</text>
		<text x="574" style="color:#606060;cursor:default;font-size:11px;fill:#606060;width:183px;text-overflow:clip;" text-anchor="end" transform="translate(0,0)" y="214" opacity="1">100
		</text>
		<text x="574" style="color:#606060;cursor:default;font-size:11px;fill:#606060;width:183px;text-overflow:clip;" text-anchor="end" transform="translate(0,0)" y="146" opacity="1">110
		</text>
		<text x="0" style="color:#606060;cursor:default;font-size:11px;fill:#606060;width:183px;text-overflow:clip;" text-anchor="end" transform="translate(0,0)" y="-9999">120
		</text>
	</g>
	<g class="highcharts-axis-labels highcharts-yaxis-labels">
	</g>
	<g class="highcharts-tooltip" style="cursor:default;padding:0;pointer-events:none;white-space:nowrap;" transform="translate(0,-9999)">
		<path fill="none" d="M 3.5 0.5 L 13.5 0.5 C 16.5 0.5 16.5 0.5 16.5 3.5 L 16.5 13.5 C 16.5 16.5 16.5 16.5 13.5 16.5 L 3.5 16.5 C 0.5 16.5 0.5 16.5 0.5 13.5 L 0.5 3.5 C 0.5 0.5 0.5 0.5 3.5 0.5"  stroke="black" stroke-opacity="0.0" stroke-width="5" transform="translate(1, 1)">
		</path>
		<path fill="none" d="M 3.5 0.5 L 13.5 0.5 C 16.5 0.5 16.5 0.5 16.5 3.5 L 16.5 13.5 C 16.5 16.5 16.5 16.5 13.5 16.5 L 3.5 16.5 C 0.5 16.5 0.5 16.5 0.5 13.5 L 0.5 3.5 C 0.5 0.5 0.5 0.5 3.5 0.5"  stroke="black" stroke-opacity="0.0" stroke-width="3" transform="translate(1, 1)">
		</path>
		<path fill="none" d="M 3.5 0.5 L 13.5 0.5 C 16.5 0.5 16.5 0.5 16.5 3.5 L 16.5 13.5 C 16.5 16.5 16.5 16.5 13.5 16.5 L 3.5 16.5 C 0.5 16.5 0.5 16.5 0.5 13.5 L 0.5 3.5 C 0.5 0.5 0.5 0.5 3.5 0.5"  stroke="black" stroke-opacity="0.1" stroke-width="1" transform="translate(1, 1)">
		</path>
		<path fill="rgb(249, 249, 249)" fill-opacity=" .85" d="M 3.5 0.5 L 13.5 0.5 C 16.5 0.5 16.5 0.5 16.5 3.5 L 16.5 13.5 C 16.5 16.5 16.5 16.5 13.5 16.5 L 3.5 16.5 C 0.5 16.5 0.5 16.5 0.5 13.5 L 0.5 3.5 C 0.5 0.5 0.5 0.5 3.5 0.5">
		</path>
		<text x="8" style="font-size:12px;color:#333333;fill:#333333;" y="20">
		</text>
	</g>
	<g class="highcharts-navigator-handle-right" style="cursor:ew-resize;" transform="translate(560,343)">
		<rect x="-4.5" y="0.5" width="8" height="15" fill="#ebe7e8" stroke="#b2b1b6" stroke-width="1">
		</rect>
		<path fill="#ebe7e8" d="M -1.5 4 L -1.5 12 M 0.5 4 L 0.5 12" stroke="#b2b1b6" stroke-width="1">
		</path>
	</g>
	<g class="highcharts-navigator-handle-left" style="cursor:ew-resize;" transform="translate(541,343)">
		<rect x="-4.5" y="0.5" width="8" height="15" fill="#ebe7e8" stroke="#b2b1b6" stroke-width="1">
		</rect>
		<path fill="#ebe7e8" d="M -1.5 4 L -1.5 12 M 0.5 4 L 0.5 12" stroke="#b2b1b6" stroke-width="1">
		</path>
	</g>
</svg>