<?xml version="1.0" encoding="UTF-8" standalone="no"?>
<!DOCTYPE svg PUBLIC "-//W3C//DTD SVG 1.1//EN"
"http://www.w3.org/Graphics/SVG/1.1/DTD/svg11.dtd">
<svg version="1.1" style="font-family:&quot;lucida grande&quot;, &quot;lucida sans unicode&quot;, arial, helvetica, sans-serif;font-size:12px;" xmlns="http://www.w3.org/2000/svg" viewBox="0 0 584 400">
	<desc>Created with Highcharts 4.2.4
	</desc>
	<defs>
		<clipPath id="highcharts-1">
			<rect x="0" y="0" width="584" height="400">
			</rect>
		</clipPath>
	</defs>
	<rect x="0" y="0" width="584" height="400" fill="#FFFFFF" class=" highcharts-background" stroke="transparent">
	</rect>
	<g class="highcharts-series-group">
		<g class="highcharts-series highcharts-series-0 highcharts-tracker" transform="translate(10,46) scale(1 1)" style="cursor:pointer;">
			<path fill="rgb(99,156,211)" d="M 331.2 276.7 L 331.2 295.3 L 282 188.0 L 282 169.5 Z" transform="translate(0,0)" visibility="visible">
			</path>
			<path fill="rgb(216,67,103)" d="M 274.9 56.8 L 274.9 75.3 L 282 188.0 L 282 169.5 Z" transform="translate(0,0)" visibility="visible">
			</path>
			<path fill="rgb(216,67,103)" d="M 281.9 56.7 L 281.9 75.2 L 282 188.0 L 282 169.5 Z" transform="translate(0,0)" visibility="visible">
			</path>
			<path fill="rgb(103,108,208)" d="M 215.0 67.1 L 215.0 85.7 L 282 188.0 L 282 169.5 Z" transform="translate(0,0)" visibility="visible">
			</path>
			<path fill="rgb(216,67,103)" d="M 274.9 56.8 C 277.3 56.7 279.4 56.7 281.9 56.7 L 281.9 75.2 C 279.4 75.2 277.3 75.3 274.9 75.3 Z" transform="translate(0,0)" visibility="visible">
			</path>
			<path fill="rgb(216,67,103)" d="M 282 169.5 C 282 169.5 282 169.5 282 169.5 L 282 188.0 C 282 188.0 282 188.0 282 188.0 Z" transform="translate(0,0)" visibility="visible">
			</path>
			<path fill="rgb(103,108,208)" d="M 274.9 56.8 L 274.9 75.3 L 282 188.0 L 282 169.5 Z" transform="translate(0,0)" visibility="visible">
			</path>
			<path fill="rgb(222,138,67)" d="M 150.6 105.5 L 150.6 124.0 L 282 188.0 L 282 169.5 Z" transform="translate(0,0)" visibility="visible">
			</path>
			<path fill="rgb(103,108,208)" d="M 215.0 67.1 C 234.8 60.6 253.1 57.5 274.9 56.8 L 274.9 75.3 C 253.1 76.0 234.8 79.2 215.0 85.7 Z" transform="translate(0,0)" visibility="visible">
			</path>
			<path fill="rgb(103,108,208)" d="M 282 169.5 C 282 169.5 282 169.5 282 169.5 L 282 188.0 C 282 188.0 282 188.0 282 188.0 Z" transform="translate(0,0)" visibility="visible">
			</path>
			<path fill="rgb(222,138,67)" d="M 215.0 67.1 L 215.0 85.7 L 282 188.0 L 282 169.5 Z" transform="translate(0,0)" visibility="visible">
			</path>
			<path fill="rgb(119,212,100)" d="M 125.6 191.9 L 125.6 210.5 L 282 188.0 L 282 169.5 Z" transform="translate(-7,-1)" visibility="visible">
			</path>
			<path fill="rgb(222,138,67)" d="M 150.6 105.5 C 167.6 88.0 187.8 76.0 215.0 67.1 L 215.0 85.7 C 187.8 94.5 167.6 106.6 150.6 124.0 Z" transform="translate(0,0)" visibility="visible">
			</path>
			<path fill="rgb(222,138,67)" d="M 282 169.5 C 282 169.5 282 169.5 282 169.5 L 282 188.0 C 282 188.0 282 188.0 282 188.0 Z" transform="translate(0,0)" visibility="visible">
			</path>
			<path fill="rgb(119,212,100)" d="M 150.6 105.5 L 150.6 124.0 L 282 188.0 L 282 169.5 Z" transform="translate(-7,-1)" visibility="visible">
			</path>
			<path fill="rgb(42,42,47)" d="M 331.2 276.7 L 331.2 295.3 L 282 188.0 L 282 169.5 Z" transform="translate(0,0)" visibility="visible">
			</path>
			<path fill="rgb(119,212,100)" d="M 125.6 191.9 C 123.4 184.1 122.5 177.4 122.5 169.5 L 122.5 188.0 C 122.5 164.1 131.4 143.7 150.6 124.0 L 150.6 105.5 C 131.4 125.2 122.5 145.5 122.5 169.5 L 122.5 188.0 C 122.5 196.0 123.4 202.7 125.6 210.5 Z" transform="translate(-7,-1)" visibility="visible">
			</path>
			<path fill="rgb(119,212,100)" d="M 282 169.5 C 282 169.5 282 169.5 282 169.5 L 282 188.0 C 282 188.0 282 188.0 282 188.0 Z" transform="translate(-7,-1)" visibility="visible">
			</path>
			<path fill="rgb(99,156,211)" d="M 281.9 56.7 L 281.9 75.2 L 282 188.0 L 282 169.5 Z" transform="translate(0,0)" visibility="visible">
			</path>
			<path fill="rgb(42,42,47)" d="M 125.6 191.9 L 125.6 210.5 L 282 188.0 L 282 169.5 Z" transform="translate(0,0)" visibility="visible">
			</path>
			<path fill="rgb(99,156,211)" d="M 441.5 169.5 C 441.5 219.3 398.2 261.3 331.2 276.7 L 331.2 295.3 C 398.2 279.9 441.5 237.9 441.5 188.0 Z" transform="translate(0,0)" visibility="visible">
			</path>
			<path fill="rgb(99,156,211)" d="M 282 169.5 C 282 169.5 282 169.5 282 169.5 C 282 169.5 282 169.5 282 169.5 L 282 188.0 C 282 188.0 282 188.0 282 188.0 C 282 188.0 282 188.0 282 188.0 Z" transform="translate(0,0)" visibility="visible">
			</path>
			<path fill="rgb(42,42,47)" d="M 331.2 276.7 C 247.4 296.0 157.4 263.5 130.2 204.3 C 128.3 200.0 126.9 196.3 125.6 191.9 L 125.6 210.5 C 143.2 271.5 227.4 310.9 313.7 298.5 C 320.0 297.6 325.1 296.7 331.2 295.3 Z" transform="translate(0,0)" visibility="visible">
			</path>
			<path fill="rgb(42,42,47)" d="M 282 169.5 C 282 169.5 282 169.5 282 169.5 C 282 169.5 282 169.5 282 169.5 L 282 188.0 C 282 188.0 282 188.0 282 188.0 C 282 188.0 282 188.0 282 188.0 Z" transform="translate(0,0)" visibility="visible">
			</path>
			<g stroke="#7cb5ec" stroke-width="1" stroke-linejoin="round">
				<path fill="#7cb5ec" d="M 281.9 56.7 C 370.0 56.7 441.4 107.1 441.4 169.4 C 441.5 219.3 398.2 261.3 331.2 276.7 L 282 169.5 C 282 169.5 282 169.5 282 169.5 C 282 169.5 282 169.5 282 169.5 Z" transform="translate(0,0)" visibility="visible">
				</path>
			</g>
			<g stroke="#434348" stroke-width="1" stroke-linejoin="round">
				<path fill="#434348" d="M 331.2 276.7 C 247.4 296.0 157.4 263.5 130.2 204.3 C 128.3 200.0 126.9 196.3 125.6 191.9 L 282 169.5 C 282 169.5 282 169.5 282 169.5 C 282 169.5 282 169.5 282 169.5 Z" transform="translate(0,0)" visibility="visible">
				</path>
			</g>
			<g stroke="#90ed7d" stroke-width="1" stroke-linejoin="round">
				<path fill="#90ed7d" d="M 125.6 191.9 C 116.7 160.7 125.0 131.7 150.6 105.5 L 282 169.5 C 282 169.5 282 169.5 282 169.5 Z" transform="translate(-7,-1)" visibility="visible">
				</path>
			</g>
			<g stroke="#f7a35c" stroke-width="1" stroke-linejoin="round">
				<path fill="#f7a35c" d="M 150.6 105.5 C 167.6 88.0 187.8 76.0 215.0 67.1 L 282 169.5 C 282 169.5 282 169.5 282 169.5 Z" transform="translate(0,0)" visibility="visible">
				</path>
			</g>
			<g stroke="#8085e9" stroke-width="1" stroke-linejoin="round">
				<path fill="#8085e9" d="M 215.0 67.1 C 234.8 60.6 253.1 57.5 274.9 56.8 L 282 169.5 C 282 169.5 282 169.5 282 169.5 Z" transform="translate(0,0)" visibility="visible">
				</path>
			</g>
			<g stroke="#f15c80" stroke-width="1" stroke-linejoin="round">
				<path fill="#f15c80" d="M 274.9 56.8 C 277.3 56.7 279.4 56.7 281.9 56.7 L 282 169.5 C 282 169.5 282 169.5 282 169.5 Z" transform="translate(0,0)" visibility="visible">
				</path>
			</g>
		</g>
		<g class="highcharts-markers highcharts-series-0" transform="translate(10,46) scale(1 1)">
		</g>
	</g>
	<text x="292" text-anchor="middle" class="highcharts-title" style="color:#333333;font-size:18px;fill:#333333;width:520px;" y="24">
		<tspan>Browser market shares at a specific website, 2014
		</tspan>
	</text>
	<g class="highcharts-data-labels highcharts-series-0 highcharts-tracker" visibility="visible" transform="translate(10,46) scale(1 1)" style="cursor:pointer;">
		<path fill="none" d="M 475.1 147.1 C 470.1 147.1 461.2 148.4 450.4 150.1 L 439.5 151.8" stroke="#7cb5ec" stroke-width="1">
		</path>
		<path fill="none" d="M 133.1 292.8 C 138.1 292.8 190.5 285.9 196.1 276.4 L 201.6 266.9" stroke="#434348" stroke-width="1">
		</path>
		<path fill="none" d="M 89.6 141.0 C 94.6 141.0 104.1 142.5 114.9 144.7 L 125.7 146.9" stroke="#90ed7d" stroke-width="1">
		</path>
		<path fill="none" d="M 116.4 68.8 C 121.4 68.8 164.9 66.4 172.0 74.8 L 179.1 83.2" stroke="#f7a35c" stroke-width="1">
		</path>
		<path fill="none" d="M 133.3 45.8 C 138.3 45.8 239.0 38.5 241.6 49.2 L 244.2 59.9" stroke="#8085e9" stroke-width="1">
		</path>
		<path fill="none" d="M 156.8 22.9 C 161.8 22.9 278.0 34.7 278.2 45.7 L 278.4 56.7" stroke="#f15c80" stroke-width="1">
		</path>
		<g style="cursor:pointer;" transform="translate(480,137)">
			<text x="5" style="font-size:11px;font-weight:bold;color:#000000;text-shadow:0 0 6px #ffffff, 0 0 3px #ffffff;fill:#000000;text-rendering:geometricprecision;" y="16">
				<tspan>Firefox
				</tspan>
			</text>
		</g>
		<g style="cursor:pointer;" transform="translate(108,283)">
			<text x="5" style="font-size:11px;font-weight:bold;color:#000000;text-shadow:0 0 6px #ffffff, 0 0 3px #ffffff;fill:#000000;text-rendering:geometricprecision;" y="16">
				<tspan>IE
				</tspan>
			</text>
		</g>
		<g style="cursor:pointer;" transform="translate(30,131)">
			<text x="5" style="font-size:11px;font-weight:bold;color:#000000;text-shadow:0 0 6px #ffffff, 0 0 3px #ffffff;fill:#000000;text-rendering:geometricprecision;" y="16">
				<tspan>Chrome
				</tspan>
			</text>
		</g>
		<g style="cursor:pointer;" transform="translate(69,59)">
			<text x="5" style="font-size:11px;font-weight:bold;color:#000000;text-shadow:0 0 6px #ffffff, 0 0 3px #ffffff;fill:#000000;text-rendering:geometricprecision;" y="16">
				<tspan>Safari
				</tspan>
			</text>
		</g>
		<g style="cursor:pointer;" transform="translate(84,36)">
			<text x="5" style="font-size:11px;font-weight:bold;color:#000000;text-shadow:0 0 6px #ffffff, 0 0 3px #ffffff;fill:#000000;text-rendering:geometricprecision;" y="16">
				<tspan>Opera
				</tspan>
			</text>
		</g>
		<g style="cursor:pointer;" transform="translate(104,13)">
			<text x="5" style="font-size:11px;font-weight:bold;color:#000000;text-shadow:0 0 6px #ffffff, 0 0 3px #ffffff;fill:#000000;text-rendering:geometricprecision;" y="16">
				<tspan>Others
				</tspan>
			</text>
		</g>
	</g>
	<g class="highcharts-legend">
		<g>
			<g>
			</g>
		</g>
	</g>
	<g class="highcharts-tooltip" style="cursor:default;padding:0;pointer-events:none;white-space:nowrap;" transform="translate(0,-9999)">
		<path fill="none" d="M 3.5 0.5 L 13.5 0.5 C 16.5 0.5 16.5 0.5 16.5 3.5 L 16.5 13.5 C 16.5 16.5 16.5 16.5 13.5 16.5 L 3.5 16.5 C 0.5 16.5 0.5 16.5 0.5 13.5 L 0.5 3.5 C 0.5 0.5 0.5 0.5 3.5 0.5"  stroke="black" stroke-opacity="0.0" stroke-width="5" transform="translate(1, 1)">
		</path>
		<path fill="none" d="M 3.5 0.5 L 13.5 0.5 C 16.5 0.5 16.5 0.5 16.5 3.5 L 16.5 13.5 C 16.5 16.5 16.5 16.5 13.5 16.5 L 3.5 16.5 C 0.5 16.5 0.5 16.5 0.5 13.5 L 0.5 3.5 C 0.5 0.5 0.5 0.5 3.5 0.5"  stroke="black" stroke-opacity="0.0" stroke-width="3" transform="translate(1, 1)">
		</path>
		<path fill="none" d="M 3.5 0.5 L 13.5 0.5 C 16.5 0.5 16.5 0.5 16.5 3.5 L 16.5 13.5 C 16.5 16.5 16.5 16.5 13.5 16.5 L 3.5 16.5 C 0.5 16.5 0.5 16.5 0.5 13.5 L 0.5 3.5 C 0.5 0.5 0.5 0.5 3.5 0.5"  stroke="black" stroke-opacity="0.1" stroke-width="1" transform="translate(1, 1)">
		</path>
		<path fill="rgb(249, 249, 249)" fill-opacity=" .85" d="M 3.5 0.5 L 13.5 0.5 C 16.5 0.5 16.5 0.5 16.5 3.5 L 16.5 13.5 C 16.5 16.5 16.5 16.5 13.5 16.5 L 3.5 16.5 C 0.5 16.5 0.5 16.5 0.5 13.5 L 0.5 3.5 C 0.5 0.5 0.5 0.5 3.5 0.5">
		</path>
		<text x="8" style="font-size:12px;color:#333333;fill:#333333;" y="20">
		</text>
	</g>
</svg>