<?xml version="1.0" encoding="utf-8"?>
<!-- Generator: Adobe Illustrator 18.0.0, SVG Export Plug-In . SVG Version: 6.00 Build 0)  -->
<!DOCTYPE svg PUBLIC "-//W3C//DTD SVG 1.1//EN" "http://www.w3.org/Graphics/SVG/1.1/DTD/svg11.dtd">
<svg version="1.1" id="Layer_1" xmlns="http://www.w3.org/2000/svg" xmlns:xlink="http://www.w3.org/1999/xlink" x="0px" y="0px"
	 width="584.4px" height="588.9px" viewBox="10.2 377.4 584.4 588.9" enable-background="new 10.2 377.4 584.4 588.9"
	 xml:space="preserve">
<g>
	<g>
		<path fill="#BE1E2D" d="M254.4,839.8H16.7c-3.5,0-6.5-3.1-6.5-6.5V435c0-31.4,26.2-57.6,57.6-57.6h425.7
			c29.7,0,53.2,25.3,53.2,57.6v130c0,3.5-3.1,6.5-6.5,6.5c-3.5,0-6.5-3.1-6.5-6.5V435c0-24.9-17.4-44.5-40.1-44.5H67.3
			c-23.6,0-44.5,20.9-44.5,44.5v391.7H254c3.5,0,6.5,3.1,6.5,6.5C260.5,836.7,257.9,839.8,254.4,839.8z"/>
		<circle fill="#BE1E2D" cx="62" cy="429.8" r="15.7"/>
		<circle fill="#BE1E2D" cx="111.8" cy="429.8" r="15.7"/>
		<circle fill="#BE1E2D" cx="161.5" cy="429.8" r="15.7"/>
		<path fill="#BE1E2D" d="M516.1,490.8H40.7c-3.5,0-6.5-3.1-6.5-6.5c0-3.5,3.1-6.5,6.5-6.5h475.5c3.5,0,6.5,3.1,6.5,6.5
			C522.7,487.8,519.6,490.8,516.1,490.8z"/>
		<path fill="#BE1E2D" d="M588.1,966.3H304.6c-3.5,0-6.5-3.1-6.5-6.5v-205c0-3.5,3.1-6.5,6.5-6.5h283.5c3.5,0,6.5,3.1,6.5,6.5v205
			C594.7,963.2,591.6,966.3,588.1,966.3z M311.1,953.2h270.4V761.3H311.1V953.2z"/>
		<path fill="#BE1E2D" d="M509.6,728.6c-3.5,0-6.5-3.1-6.5-6.5v-51.6c0-30.1-24-53.7-54.5-53.7h-2.2c-31,0-56.7,24-56.7,53.7v51
			c0,3.5-3.1,6.5-6.5,6.5c-3.5,0-6.5-3.1-6.5-6.5v-51c0-36.6,31.4-66.7,69.8-66.7h2.2c38,0,67.6,29.2,67.6,66.7v51
			C516.1,725.5,513.1,728.6,509.6,728.6z"/>
		<path fill="#BE1E2D" d="M553.2,728.6c-3.5,0-6.5-3.1-6.5-6.5v-49.3c0-55-44.1-99.5-98.1-99.5h-2.2c-54.1,0-100.3,45.4-100.3,99.5
			v48.9c0,3.5-3.1,6.5-6.5,6.5s-6.5-3.1-6.5-6.5v-48.9c0-61.1,51.9-112.5,113.4-112.5h2.2c61.5,0,111.2,50.6,111.2,112.5v48.9
			C559.8,725.5,556.7,728.6,553.2,728.6z"/>
	</g>
</g>
</svg>
