<?xml version="1.0" encoding="utf-8"?>
<!-- Generator: Adobe Illustrator 18.0.0, SVG Export Plug-In . SVG Version: 6.00 Build 0)  -->
<!DOCTYPE svg PUBLIC "-//W3C//DTD SVG 1.1//EN" "http://www.w3.org/Graphics/SVG/1.1/DTD/svg11.dtd">
<svg version="1.1" id="Layer_1" xmlns="http://www.w3.org/2000/svg" xmlns:xlink="http://www.w3.org/1999/xlink" x="0px" y="0px"
	 width="610.3px" height="531.2px" viewBox="0 236.7 610.3 531.2" enable-background="new 0 236.7 610.3 531.2"
	 xml:space="preserve">
<g>
	<g>
		<path fill="#3FB69B" d="M310.1,669.2H6.1c-3.3,0-6.1-2.9-6.1-6.1V291c0-29.4,24.1-54.3,53-54.3h398.2c27.7,0,50.6,24.5,50.6,54.3
			v178.3c0,3.3-2.9,6.1-6.1,6.1c-3.3,0-6.1-2.9-6.1-6.1V291c0-23.3-17.1-42-38.4-42H53c-22,0-40.8,19.2-40.8,42v366H310
			c3.3,0,6.1,2.9,6.1,6.1C316.2,666.4,313.3,669.2,310.1,669.2z"/>
		<g>
			<circle fill="#3FB69B" cx="47.7" cy="286.1" r="14.7"/>
			<circle fill="#3FB69B" cx="94.2" cy="286.1" r="14.7"/>
			<circle fill="#3FB69B" cx="140.8" cy="286.1" r="14.7"/>
		</g>
		<path fill="#3FB69B" d="M330.5,563.2H79.6c-3.3,0-6.1-2.9-6.1-6.1V426.5c0-3.3,2.9-6.1,6.1-6.1h346.8c3.3,0,6.1,2.9,6.1,6.1v59.2
			c0,3.3-2.9,6.1-6.1,6.1s-6.1-2.9-6.1-6.1v-53H85.7V551h244.8c3.3,0,6.1,2.9,6.1,6.1C336.6,560.3,333.7,563.2,330.5,563.2z"/>
		<g>
			<path fill="#3FB69B" d="M193.4,477.5L182,515c-1.2,3.7-4.9,6.5-9,6.5h-0.4c-4.1,0-7.8-2.9-9-6.5l-8.6-29l-9,29
				c-1.2,3.7-4.9,6.5-9,6.5h-0.4c-4.1,0-7.8-2.9-9-6.5l-11.4-37.5c-0.4-0.8-0.4-1.2-0.4-2c0-3.3,2.9-6.5,6.9-6.5
				c2.9,0,5.7,2,6.5,4.9l8.6,30.2l9.8-29.8c1.2-3.3,4.1-5.3,7.8-5.3c3.3,0,6.5,2,7.3,5.3l9.8,29.8l8.6-30.2c0.8-2.9,3.7-4.9,6.5-4.9
				c4.1,0,6.5,3.3,6.5,6.5C193.8,476.3,193.8,477.1,193.4,477.5z"/>
			<path fill="#3FB69B" d="M277.4,477.5L266,515c-1.2,3.7-4.9,6.5-9,6.5l0,0c-4.1,0-7.8-2.9-9-6.5l-9-29l-9,29
				c-1.2,3.7-4.9,6.5-9,6.5h-0.4c-4.1,0-7.8-2.9-9-6.5l-11.4-37.5c-0.4-0.8-0.4-1.2-0.4-2c0-3.3,2.9-6.5,6.9-6.5
				c2.9,0,5.7,2,6.5,4.9L222,504l9.8-29.8c1.2-3.3,4.1-5.3,7.8-5.3c3.3,0,6.5,2,7.3,5.3l9.8,29.8l8.6-30.2c0.8-2.9,3.7-4.9,6.5-4.9
				c4.1,0,6.5,3.3,6.5,6.5C277.8,476.3,277.8,477.1,277.4,477.5z"/>
			<path fill="#3FB69B" d="M361.5,477.5L350.1,515c-1.2,3.7-4.9,6.5-9,6.5h-0.4c-4.1,0-7.8-2.9-9-6.5l-9-29l-8.6,29
				c-1.2,3.7-4.9,6.5-9,6.5h-0.4c-4.1,0-7.8-2.9-9-6.5l-11.4-37.5c-0.4-0.8-0.4-1.2-0.4-2c0-3.3,2.9-6.5,6.9-6.5
				c2.9,0,5.7,2,6.5,4.9L306,504l9.8-29.8c1.2-3.3,4.1-5.3,7.8-5.3c3.3,0,6.5,2,7.3,5.3l9.8,29.8l8.6-30.2c0.8-2.9,3.7-4.9,6.5-4.9
				c4.1,0,6.5,3.3,6.5,6.5C361.9,476.3,361.9,477.1,361.5,477.5z"/>
			<path fill="#3FB69B" d="M374.5,522.4c-4.5,0-8.6-4.1-8.6-8.6s4.1-8.6,8.6-8.6s8.6,4.1,8.6,8.6S379.4,522.4,374.5,522.4z"/>
		</g>
		<g>
			<path fill="#3FB69B" d="M475.3,510.1c67.7,0,122.8,55.1,122.8,122.8S543,755.7,475.3,755.7s-122.8-55.1-122.8-122.8
				S407.6,510.1,475.3,510.1 M475.3,497.9c-74.3,0-135,60.4-135,135s60.4,135,135,135s135-60.4,135-135S549.6,497.9,475.3,497.9
				L475.3,497.9z"/>
			<path fill="#3FB69B" d="M475.3,510.1c29.8,0,53.4,55.1,53.4,122.8s-24.1,122.8-53.4,122.8c-29.4,0-53.4-55.1-53.4-122.8
				S445.5,510.1,475.3,510.1 M475.3,497.9c-37.5,0-65.7,57.9-65.7,135s28.2,135,65.7,135S541,710,541,632.9S512.9,497.9,475.3,497.9
				L475.3,497.9z"/>
			<path fill="#3FB69B" d="M475.3,765.1c-3.3,0-6.1-2.9-6.1-6.1V510.1c0-3.3,2.9-6.1,6.1-6.1c3.3,0,6.1,2.9,6.1,6.1V759
				C481.4,762.3,478.6,765.1,475.3,765.1z"/>
			<g>
				<path fill="#3FB69B" d="M599.8,640.7H350.9c-3.3,0-6.1-2.9-6.1-6.1c0-3.3,2.9-6.1,6.1-6.1h248.9c3.3,0,6.1,2.9,6.1,6.1
					C605.9,637.8,603,640.7,599.8,640.7z"/>
				<path fill="#3FB69B" d="M583.4,701.9H367.2c-3.3,0-6.1-2.9-6.1-6.1c0-3.3,2.9-6.1,6.1-6.1h216.2c3.3,0,6.1,2.9,6.1,6.1
					C589.6,699,586.7,701.9,583.4,701.9z"/>
				<path fill="#3FB69B" d="M583.4,575.4H367.2c-3.3,0-6.1-2.9-6.1-6.1c0-3.3,2.9-6.1,6.1-6.1h216.2c3.3,0,6.1,2.9,6.1,6.1
					C589.6,572.5,586.7,575.4,583.4,575.4z"/>
			</g>
		</g>
		<g>
			<line fill="none" x1="28.6" y1="336.7" x2="473.3" y2="336.7"/>
			<path fill="#3FB69B" d="M473.3,342.8H28.6c-3.3,0-6.1-2.9-6.1-6.1c0-3.3,2.9-6.1,6.1-6.1h444.7c3.3,0,6.1,2.9,6.1,6.1
				C479.4,340,476.5,342.8,473.3,342.8z"/>
		</g>
	</g>
</g>
</svg>
