<?xml version="1.0" encoding="utf-8"?>
<!-- Generator: Adobe Illustrator 18.0.0, SVG Export Plug-In . SVG Version: 6.00 Build 0)  -->
<!DOCTYPE svg PUBLIC "-//W3C//DTD SVG 1.1//EN" "http://www.w3.org/Graphics/SVG/1.1/DTD/svg11.dtd">
<svg version="1.1" id="Layer_1" xmlns="http://www.w3.org/2000/svg" xmlns:xlink="http://www.w3.org/1999/xlink" x="0px" y="0px"
	 width="548.5px" height="497.9px" viewBox="31.8 255.1 548.5 497.9" enable-background="new 31.8 255.1 548.5 497.9"
	 xml:space="preserve">
<g>
	<g>
		<path fill="#AAAAA7" d="M389,406.6c-1.6,0-3.1-0.9-3.8-2.4c-10-21.1-28.1-37.7-49.8-45.6c-1.5-0.5-2.5-1.8-2.8-3.4
			c-0.2-1.5,0.4-3.1,1.6-4c12.4-9.3,19.5-23.6,19.5-39c0-26.8-21.5-48.7-47.9-48.7c-26.4,0-47.9,21.8-47.9,48.7
			c0,15.4,7.1,29.7,19.5,39c1.2,0.9,1.9,2.5,1.6,4c-0.2,1.5-1.3,2.8-2.8,3.4c-21.7,7.8-39.8,24.4-49.8,45.6c-1,2.1-3.5,3-5.7,2
			c-2.1-1-3-3.5-2-5.7c9.9-21,27.2-37.9,48-47.2c-11.1-10.7-17.4-25.4-17.4-41.1c0-31.5,25.3-57.2,56.4-57.2
			c31.1,0,56.4,25.6,56.4,57.2c0,15.7-6.3,30.3-17.4,41.1c20.8,9.4,38.1,26.3,48,47.2c1,2.1,0.1,4.7-2,5.7
			C390.2,406.5,389.6,406.6,389,406.6z"/>
		<path fill="#AAAAA7" d="M431.7,636c-1.6,0-3.1-0.9-3.8-2.4c-15.4-32.6-43.3-58.3-76.6-70.4c-1.5-0.5-2.5-1.8-2.8-3.4
			c-0.2-1.5,0.4-3.1,1.6-4c19.4-14.6,30.5-36.8,30.5-61c0-42-33.5-76.2-74.8-76.2c-41.2,0-74.7,34.2-74.7,76.2
			c0,24.2,11.1,46.4,30.5,61c1.2,0.9,1.9,2.5,1.6,4c-0.2,1.5-1.3,2.8-2.8,3.4c-33.3,12.1-61.3,37.7-76.6,70.4c-1,2.1-3.5,3-5.7,2
			c-2.1-1-3-3.5-2-5.7c15.3-32.4,42.2-58.3,74.6-72c-18-16.1-28.1-38.7-28.1-63.1c0-46.7,37.3-84.7,83.2-84.7s83.3,38,83.3,84.7
			c0,24.4-10.2,47-28.1,63.1c32.4,13.7,59.4,39.7,74.6,72c1,2.1,0.1,4.7-2,5.7C432.9,635.9,432.3,636,431.7,636z"/>
		<g>
			<path fill="#AAAAA7" d="M36,538.2c-0.6,0-1.2-0.1-1.8-0.4c-2.1-1-3-3.5-2-5.7c12.6-26.8,34.9-48.3,61.6-59.9
				c-14.6-13.5-22.9-32.2-22.9-52.3c0-39.3,31.5-71.2,70.2-71.2s70.2,31.9,70.2,71.2c0,20.1-8.3,38.8-22.9,52.3
				c7,3,13.6,6.7,19.9,11c1.9,1.3,2.4,4,1.1,5.9c-1.3,1.9-4,2.4-5.9,1.1c-7.7-5.3-16.1-9.5-24.8-12.7c-1.5-0.5-2.5-1.8-2.8-3.4
				c-0.2-1.5,0.4-3.1,1.6-4c16-12,25.1-30.3,25.1-50.2c0-34.6-27.7-62.7-61.7-62.7S79.4,385.4,79.4,420c0,19.9,9.2,38.2,25.1,50.2
				c1.2,0.9,1.9,2.5,1.6,4c-0.2,1.5-1.3,2.8-2.8,3.4c-27.7,10-50.9,31.2-63.6,58.2C39.1,537.3,37.6,538.2,36,538.2z"/>
			<path fill="#AAAAA7" d="M576,538.2c-1.6,0-3.1-0.9-3.8-2.4c-12.7-27-35.9-48.2-63.6-58.2c-1.5-0.5-2.5-1.8-2.8-3.4
				c-0.2-1.5,0.4-3.1,1.6-4c16-12,25.1-30.3,25.1-50.2c0-34.6-27.7-62.7-61.7-62.7s-61.7,28.1-61.7,62.7c0,19.9,9.2,38.2,25.1,50.2
				c1.2,0.9,1.9,2.5,1.6,4c-0.2,1.5-1.3,2.8-2.8,3.4c-8.7,3.2-17.1,7.4-24.8,12.7c-1.9,1.3-4.6,0.8-5.9-1.1
				c-1.3-1.9-0.8-4.6,1.1-5.9c6.3-4.3,13-8,19.9-11c-14.6-13.5-22.9-32.2-22.9-52.3c0-39.3,31.5-71.2,70.2-71.2s70.2,31.9,70.2,71.2
				c0,20.1-8.3,38.8-22.9,52.3c26.8,11.6,49,33.1,61.6,59.9c1,2.1,0.1,4.7-2,5.7C577.2,538.1,576.6,538.2,576,538.2z"/>
		</g>
	</g>
	<g>
		<path fill="#AAAAA7" d="M305.8,752.9c-122.9,0-233.3-73.3-268.4-178.2c-0.7-2.2,0.5-4.6,2.7-5.4c2.2-0.8,4.6,0.5,5.4,2.7
			c34,101.5,141,172.4,260.4,172.4c119.3,0,226.4-70.9,260.4-172.4c0.7-2.2,3.1-3.4,5.4-2.7c2.2,0.7,3.4,3.2,2.7,5.4
			C539.1,679.6,428.7,752.9,305.8,752.9z"/>
	</g>
</g>
</svg>
