<?xml version="1.0" encoding="utf-8"?>
<!-- Generator: Adobe Illustrator 18.0.0, SVG Export Plug-In . SVG Version: 6.00 Build 0)  -->
<!DOCTYPE svg PUBLIC "-//W3C//DTD SVG 1.1//EN" "http://www.w3.org/Graphics/SVG/1.1/DTD/svg11.dtd">
<svg version="1.1" id="Layer_1" xmlns="http://www.w3.org/2000/svg" xmlns:xlink="http://www.w3.org/1999/xlink" x="0px" y="0px"
	 width="412.1px" height="412.1px" viewBox="99.9 297.9 412.1 412.1" enable-background="new 99.9 297.9 412.1 412.1"
	 xml:space="preserve">
<g>
	<g>
		<path fill="#AAAAA7" d="M306,710.1c-113.6,0-206.1-92.4-206.1-206S192.4,297.9,306,297.9S512.1,390.4,512.1,504
			S419.6,710.1,306,710.1z M306,306.4c-108.9,0-197.6,88.6-197.6,197.6S197.1,701.6,306,701.6c108.9,0,197.5-88.6,197.5-197.5
			S414.9,306.4,306,306.4z"/>
		<path fill="#AAAAA7" d="M438.9,628.8c-1.6,0-3.1-0.9-3.8-2.4c-16.2-33.9-45.8-60.5-81-73.1c-1.5-0.5-2.5-1.8-2.8-3.4
			c-0.2-1.6,0.4-3.1,1.7-4c20.5-15.2,32.2-38.3,32.2-63.4c0-43.6-35.5-79.1-79.1-79.1s-79.1,35.5-79.1,79.1
			c0,25.1,11.7,48.2,32.2,63.4c1.3,0.9,1.9,2.5,1.7,4c-0.2,1.6-1.3,2.9-2.8,3.4c-35.3,12.6-64.8,39.2-81,73.1c-1,2.1-3.6,3-5.7,2
			c-2.1-1-3-3.6-2-5.7c16.1-33.6,44.6-60.5,78.9-74.7c-19-16.7-29.8-40.2-29.8-65.5c0-48.3,39.3-87.6,87.6-87.6s87.6,39.3,87.6,87.6
			c0,25.3-10.8,48.8-29.8,65.5c34.3,14.2,62.8,41.1,78.9,74.7c1,2.1,0.1,4.7-2,5.7C440.2,628.7,439.5,628.8,438.9,628.8z"/>
	</g>
	<g>
		<path fill="#AAAAA7" d="M293.2,538v-6.4c0-5.9,2.5-11,5.4-15.2c2.9-4.3,6.6-8.2,10.1-11.9c2.1-2.3,4.3-4.4,6-6.3
			c1.7-1.9,3.3-3.9,4.5-5.7c1.2-1.9,2.2-3.9,2.8-6c0.6-2.1,1-4.5,1-7.1c0-6.4-1.7-11.3-5.1-14.7c-3.4-3.4-8.3-5.1-14.7-5.1
			c-5.6,0-10.6,1.7-14.8,5c-4.3,3.3-8,7.4-11.3,12.1l-10-7.1c1.6-2.6,3.6-5.3,5.8-7.9c2.3-2.6,4.9-5,7.8-7.1
			c2.9-2.1,6.3-3.8,10.1-5.1c3.8-1.3,8.1-2,12.9-2c11.3,0,19.8,2.9,25.5,8.7c5.7,5.8,8.6,13.8,8.6,24c0,5.6-1.3,10.8-4,15.3
			c-2.7,4.6-5.9,8.9-9.5,12.9c-2.8,3.1-5.1,5.8-7,8c-1.9,2.2-3.5,4.2-4.7,6c-1.2,1.8-1.6,3.5-2.1,5.1c-0.5,1.6-0.3,3.3-0.3,5.2v5.3
			H293.2z M302.3,576.2c-2.9,0-5.3-1.1-7.2-3.3c-1.9-2.2-2.9-4.9-2.9-8c0-3.1,1-5.8,2.9-8c1.9-2.2,4.4-3.3,7.2-3.3
			c2.9,0,5.3,1.1,7.2,3.3c1.9,2.2,2.9,4.9,2.9,8c0,3.1-1,5.8-2.9,8S305.2,576.2,302.3,576.2z"/>
	</g>
</g>
</svg>
