<?xml version="1.0" encoding="utf-8"?>
<!-- Generator: Adobe Illustrator 18.0.0, SVG Export Plug-In . SVG Version: 6.00 Build 0)  -->
<!DOCTYPE svg PUBLIC "-//W3C//DTD SVG 1.1//EN" "http://www.w3.org/Graphics/SVG/1.1/DTD/svg11.dtd">
<svg version="1.1" id="Layer_1" xmlns="http://www.w3.org/2000/svg" xmlns:xlink="http://www.w3.org/1999/xlink" x="0px" y="0px"
	 width="571.8px" height="562.3px" viewBox="16.2 418.8 571.8 562.3" enable-background="new 16.2 418.8 571.8 562.3"
	 xml:space="preserve">
<g>
	<g>
		<path fill="#06838F" d="M415.9,429.7l160.8,157.7v222L415.9,970.1H187.5L27.4,809.4v-222l160.1-157.7L415.9,429.7 M415.9,418.8
			H187.5c-3,0-5.9,1.2-8,3.3L19.4,579.7c-2.1,2-3.2,4.8-3.2,7.7v222c0,2.8,1.1,5.6,3.2,7.6l160.1,160.8c2.1,2.1,5,3.3,8.1,3.3H416
			c3,0,6-1.2,8.1-3.3L584.8,817c2-2,3.2-4.8,3.2-7.6v-222c0-2.9-1.2-5.6-3.3-7.7L423.9,422C421.8,420,418.9,418.8,415.9,418.8
			L415.9,418.8z"/>
		<g id="_x38_AqxKg.tif_6_">
			<g>
				<path fill="#06838F" d="M322.7,506.5c6.7,1.9,12.6,4.8,16.3,10.9c2.5,4,3.4,8.4,3.4,13.1c0,45.8-0.1,91.7-0.1,137.5
					c0,0.9,0,1.8,0,2.7c0.4,5.2,3.4,8.4,7.9,8.4c0.1,0,0.2,0,0.2,0c4.6-0.1,7.6-3.4,7.6-8.8c0-36.2,0-72.4,0-108.6
					c0-12.3,5.9-20.8,16.6-23.9c2.2-0.6,4.4-1,6.6-1c11.4,0,21.6,8.3,22.8,20c0.2,1.6,0.2,3.3,0.2,4.9c0,60.1,0,120.1,0,180.2
					c0,1.2,0,2.5,0,4.7c1.5-1.8,2.4-2.8,3.2-3.9c10.3-13.6,20.4-27.4,30.9-40.7c5.8-7.4,14.6-11.2,23.2-11.2
					c6.4,0,12.7,2.1,17.8,6.3c5,4.1,7.7,9.5,8.7,15.7c0.2,1.1-0.1,2.3,0.8,3.3c0,0.8,0,1.5,0,2.3c-1.2,11.3-8.2,19.8-14.3,28.7
					c-20.7,30.5-41.6,60.9-62,91.5s-49.2,48.6-86,54.9c-6.8,1.2-13.6,2.2-20.6,2.4c-1.3,0-2.6-0.1-3.8,0.8c-7.6,0-15.2,0-22.7,0
					c-5.9-0.8-11.9-1.4-17.8-2.3c-19.7-3.1-37.9-9.6-53.2-22.3c-18.2-15.1-28.5-34.6-33.2-57.2c-1.8-8.7-2.4-17.6-2.4-26.5
					c0-65.9,0-131.8,0-197.7c0-12.1,6.8-20.9,18.2-23.4c1.6-0.4,3.2-0.5,4.8-0.5c8.5,0,16.7,4.8,20.6,12.7c1.9,3.8,2.5,8,2.5,12.2
					c0,30.6,0,61.2,0,91.8c0,0.8,0,1.5,0,2.3c0.2,5.1,3.1,8.3,7.6,8.4c0.1,0,0.1,0,0.2,0c4.2,0,7.2-2.9,7.8-7.7c0.1-1,0.1-2,0.1-3
					c0-44.4,0.1-88.9-0.1-133.3c0-7.2,0.2-14.2,5.3-20.1c4.4-5.2,11-8.2,17.8-8.2c2.1,0,4.2,0.3,6.2,0.9c9.1,2.6,15.3,9.8,16.5,18.8
					c0.4,3,0.3,6.1,0.3,9.1c0,39.4,0,78.7,0,118.1c0,1.5,0,3.1,0.3,4.5c0.6,3.5,3.8,6,7.5,6l0,0c3.7,0,6.9-2.5,7.5-6
					c0.3-1.7,0.3-3.5,0.3-5.3c0-45.6-0.1-91.2-0.1-136.7c0-12.3,6.6-20.7,18.8-23.9c0.5-0.1,0.9-0.4,1.4-0.6
					C318.5,506.5,320.6,506.5,322.7,506.5 M322.7,495.6h-6.3c-1.6,0-3.3,0.3-4.8,1c-0.2,0.1-0.3,0.1-0.5,0.2
					c-14.5,4.1-23.7,14-25.8,27.8c-4.4-5.9-10.7-10.4-18.4-12.6c-3-0.9-6.2-1.3-9.3-1.3c-10.2,0-19.9,4.4-26.5,12.1
					c-7.9,9.3-7.9,20-7.9,27.1c0,6.4,0,12.9,0,19.3c-6.4-8.4-16.7-13.6-27.5-13.6c-2.5,0-4.9,0.3-7.3,0.8c-16.4,3.6-27,17-27,34.1
					v38.7c0,53,0,106,0,159c0,10.7,0.9,20.1,2.7,28.7c5.5,26.3,17.9,47.6,36.9,63.4c15.7,13,34.9,21.1,58.7,24.8
					c4.2,0.7,8.5,1.2,12.6,1.7c1.8,0.2,3.7,0.4,5.5,0.7c0.5,0.1,1,0.1,1.5,0.1H302c1.4,0,2.8-0.3,4.1-0.8h0.1
					c8.2-0.3,16.1-1.5,22.1-2.6c40.2-7,71.6-27.1,93.4-59.7c13.7-20.4,27.7-41.1,41.4-61.1c6.9-10.1,13.8-20.2,20.6-30.3
					c0.8-1.2,1.7-2.5,2.6-3.7c5.7-8.2,12.2-17.5,13.5-29.9c0-0.4,0.1-0.7,0.1-1.1v-2.3c0-1.4-0.3-2.8-0.8-4.1c0-0.3-0.1-0.6-0.1-0.9
					c-1.5-9.2-5.8-16.7-12.5-22.3c-6.9-5.7-15.9-8.9-25.1-8.9c-12.7,0-24.4,5.6-32.1,15.5c-4.7,6-9.4,12.1-14,18.2
					c0-50.6,0-101.2,0-151.8v-0.4c0-1.7,0-3.6-0.2-5.7c-1.8-17-16.4-29.8-34-29.8c-3.3,0-6.6,0.5-9.8,1.4c-7.5,2.2-13.5,6.3-17.7,12
					v-8.8c0-7.1-1.6-13.3-5.1-18.7c-6.3-10.1-16-13.8-22.9-15.7C324.8,495.7,323.7,495.6,322.7,495.6L322.7,495.6z"/>
			</g>
		</g>
	</g>
</g>
</svg>
