<?xml version="1.0" encoding="utf-8"?>
<!-- Generator: Adobe Illustrator 18.0.0, SVG Export Plug-In . SVG Version: 6.00 Build 0)  -->
<!DOCTYPE svg PUBLIC "-//W3C//DTD SVG 1.1//EN" "http://www.w3.org/Graphics/SVG/1.1/DTD/svg11.dtd">
<svg version="1.1" id="Layer_1" xmlns="http://www.w3.org/2000/svg" xmlns:xlink="http://www.w3.org/1999/xlink" x="0px" y="0px"
	 width="375.1px" height="353.3px" viewBox="118.5 327.3 375.1 353.3" enable-background="new 118.5 327.3 375.1 353.3"
	 xml:space="preserve">
<g>
	<path fill="#AAAAA7" d="M122.7,680.7c-0.6,0-1.2-0.1-1.8-0.4c-2.1-1-3-3.6-2-5.7c22.4-46.8,62.4-84.1,110.4-103.3
		c-27.1-22.8-42.5-55.5-42.5-90.8c0-65.8,53.5-119.3,119.3-119.3s119.3,53.5,119.3,119.3c0,35.3-15.4,68-42.5,90.8
		c48,19.2,87.9,56.4,110.4,103.3c1,2.1,0.1,4.7-2,5.7c-2.1,1-4.7,0.1-5.7-2c-22.6-47.1-63.6-84.1-112.7-101.6
		c-1.5-0.5-2.5-1.8-2.8-3.4c-0.2-1.6,0.4-3.1,1.7-4c28.6-21.2,45.1-53.6,45.1-88.7c0-61.1-49.7-110.8-110.8-110.8
		c-61.1,0-110.8,49.7-110.8,110.8c0,35.1,16.4,67.5,45.1,88.7c1.3,0.9,1.9,2.5,1.7,4c-0.2,1.6-1.3,2.8-2.8,3.4
		c-49,17.5-90.1,54.5-112.7,101.6C125.8,679.8,124.3,680.7,122.7,680.7z"/>
	<path fill="#AAAAA7" d="M441.8,427.5c-1.7,0-3.3-1-3.9-2.7c-21.6-53.2-74.7-89-132.1-89s-110.5,35.8-132.1,89
		c-0.9,2.2-3.4,3.2-5.5,2.3c-2.2-0.9-3.2-3.4-2.3-5.5c22.9-56.4,79.1-94.3,140-94.3s117.1,37.9,140,94.3c0.9,2.2-0.2,4.7-2.3,5.5
		C442.9,427.4,442.4,427.5,441.8,427.5z"/>
	<path fill="#AAAAA7" d="M362.5,621.7c-1.7,0-3.2-1-3.9-2.6c-0.9-2.2,0.1-4.7,2.3-5.6c35-14.8,63.1-43.2,77.1-77.7
		c0.9-2.2,3.4-3.2,5.5-2.3c2.2,0.9,3.2,3.4,2.3,5.5c-14.8,36.7-44.6,66.7-81.6,82.4C363.6,621.6,363,621.7,362.5,621.7z"/>
	<path fill="#AAAAA7" d="M450.5,524.2c-9.4,0-17-7.6-17-17v-51c0-9.4,7.6-17,17-17c9.4,0,17,7.6,17,17v51
		C467.5,516.6,459.9,524.2,450.5,524.2z M450.5,447.7c-4.7,0-8.5,3.8-8.5,8.5v51c0,4.7,3.8,8.5,8.5,8.5s8.5-3.8,8.5-8.5v-51
		C459,451.5,455.2,447.7,450.5,447.7z"/>
	<path fill="#AAAAA7" d="M153,524.2c-9.4,0-17-7.6-17-17v-51c0-9.4,7.6-17,17-17s17,7.6,17,17v51C170,516.6,162.4,524.2,153,524.2z
		 M153,447.7c-4.7,0-8.5,3.8-8.5,8.5v51c0,4.7,3.8,8.5,8.5,8.5c4.7,0,8.5-3.8,8.5-8.5v-51C161.5,451.5,157.7,447.7,153,447.7z"/>
	<path fill="#AAAAA7" d="M333.4,644.2h-51c-9.4,0-17-7.6-17-17s7.6-17,17-17h51c9.4,0,17,7.6,17,17S342.7,644.2,333.4,644.2z
		 M282.4,618.8c-4.7,0-8.5,3.8-8.5,8.5s3.8,8.5,8.5,8.5h51c4.7,0,8.5-3.8,8.5-8.5s-3.8-8.5-8.5-8.5H282.4z"/>
</g>
</svg>
